G04 #@! TF.FileFunction,Soldermask,Top*
%FSLAX46Y46*%
G04 Gerber Fmt 4.6, Leading zero omitted, Abs format (unit mm)*
G04 Created by KiCad (PCBNEW 4.0.2+dfsg1-stable) date Wed 12 Sep 2018 10:09:28 PM CEST*
%MOMM*%
G01*
G04 APERTURE LIST*
%ADD10C,0.100000*%
%ADD11C,3.600000*%
%ADD12O,1.901140X2.599640*%
%ADD13O,2.599640X1.901140*%
%ADD14R,2.100000X2.100000*%
%ADD15O,2.100000X2.100000*%
%ADD16C,2.000000*%
%ADD17O,2.000000X2.000000*%
%ADD18C,1.924000*%
%ADD19C,2.200000*%
%ADD20R,2.200000X2.200000*%
%ADD21C,2.100000*%
%ADD22R,2.150000X2.150000*%
%ADD23C,2.150000*%
G04 APERTURE END LIST*
D10*
D11*
X113093500Y-122758200D03*
D12*
X99060000Y-92710000D03*
X101600000Y-92710000D03*
X80010000Y-105410000D03*
X82550000Y-105410000D03*
X85090000Y-105410000D03*
X87630000Y-105410000D03*
X90170000Y-105410000D03*
X92710000Y-105410000D03*
X95250000Y-105410000D03*
X97790000Y-105410000D03*
X100330000Y-105410000D03*
X102870000Y-105410000D03*
X105410000Y-105410000D03*
X107950000Y-105410000D03*
X107950000Y-90170000D03*
X105410000Y-90170000D03*
X102870000Y-90170000D03*
X100330000Y-90170000D03*
X97790000Y-90170000D03*
X95250000Y-90170000D03*
X92710000Y-90170000D03*
X90170000Y-90170000D03*
X87630000Y-90170000D03*
X85090000Y-90170000D03*
X82550000Y-90170000D03*
X80010000Y-90170000D03*
X91440000Y-92710000D03*
X88900000Y-92710000D03*
D13*
X107950000Y-92710000D03*
X107950000Y-95250000D03*
X107950000Y-97790000D03*
D14*
X103505000Y-140335000D03*
D15*
X100965000Y-140335000D03*
X98425000Y-140335000D03*
X95885000Y-140335000D03*
X93345000Y-140335000D03*
X90805000Y-140335000D03*
X88265000Y-140335000D03*
X85725000Y-140335000D03*
X83185000Y-140335000D03*
X80645000Y-140335000D03*
X78105000Y-140335000D03*
D14*
X76200000Y-73660000D03*
D15*
X76200000Y-76200000D03*
D14*
X106680000Y-73660000D03*
D15*
X106680000Y-76200000D03*
D16*
X113030000Y-86360000D03*
D17*
X120650000Y-86360000D03*
D16*
X113030000Y-96520000D03*
D17*
X120650000Y-96520000D03*
D16*
X113030000Y-91440000D03*
D17*
X120650000Y-91440000D03*
D18*
X85090000Y-113030000D03*
X85090000Y-115570000D03*
X85090000Y-118110000D03*
X85090000Y-120650000D03*
X85090000Y-123190000D03*
X85090000Y-125730000D03*
X85090000Y-128270000D03*
X85090000Y-130810000D03*
X95250000Y-113030000D03*
X95250000Y-115570000D03*
X95250000Y-118110000D03*
X95250000Y-120650000D03*
X95250000Y-125730000D03*
X95250000Y-123190000D03*
X95250000Y-128270000D03*
X95250000Y-130810000D03*
D19*
X95250000Y-58420000D03*
X95250000Y-70020000D03*
D20*
X87650000Y-58420000D03*
D19*
X87650000Y-70020000D03*
D10*
G36*
X119594924Y-110490000D02*
X118110000Y-111974924D01*
X116625076Y-110490000D01*
X118110000Y-109005076D01*
X119594924Y-110490000D01*
X119594924Y-110490000D01*
G37*
D21*
X119906051Y-108693949D02*
X119906051Y-108693949D01*
X121702102Y-106897898D02*
X121702102Y-106897898D01*
X123498154Y-105101846D02*
X123498154Y-105101846D01*
X125294205Y-103305795D02*
X125294205Y-103305795D01*
X127090256Y-101509744D02*
X127090256Y-101509744D01*
X128886307Y-99713693D02*
X128886307Y-99713693D01*
D14*
X82550000Y-135890000D03*
D15*
X85090000Y-135890000D03*
X87630000Y-135890000D03*
X90170000Y-135890000D03*
X92710000Y-135890000D03*
X95250000Y-135890000D03*
X97790000Y-135890000D03*
D10*
G36*
X54610000Y-101814924D02*
X53125076Y-100330000D01*
X54610000Y-98845076D01*
X56094924Y-100330000D01*
X54610000Y-101814924D01*
X54610000Y-101814924D01*
G37*
D21*
X56406051Y-102126051D02*
X56406051Y-102126051D01*
X58202102Y-103922102D02*
X58202102Y-103922102D01*
X59998154Y-105718154D02*
X59998154Y-105718154D01*
X61794205Y-107514205D02*
X61794205Y-107514205D01*
X63590256Y-109310256D02*
X63590256Y-109310256D01*
X65386307Y-111106307D02*
X65386307Y-111106307D01*
D11*
X56515000Y-66078100D03*
X56502300Y-89065100D03*
X126492000Y-66090800D03*
X126492000Y-89103200D03*
X113106200Y-140576300D03*
X69913500Y-122770900D03*
X69900800Y-140538200D03*
D22*
X72390000Y-59690000D03*
D23*
X74890000Y-59690000D03*
D22*
X107950000Y-59690000D03*
D23*
X110450000Y-59690000D03*
M02*
