G04 #@! TF.FileFunction,Copper,L1,Top,Signal*
%FSLAX46Y46*%
G04 Gerber Fmt 4.6, Leading zero omitted, Abs format (unit mm)*
G04 Created by KiCad (PCBNEW 4.0.2+dfsg1-stable) date Wed 12 Sep 2018 10:09:28 PM CEST*
%MOMM*%
G01*
G04 APERTURE LIST*
%ADD10C,0.100000*%
%ADD11O,1.501140X2.199640*%
%ADD12O,2.199640X1.501140*%
%ADD13R,1.700000X1.700000*%
%ADD14O,1.700000X1.700000*%
%ADD15C,1.600000*%
%ADD16O,1.600000X1.600000*%
%ADD17C,1.524000*%
%ADD18C,1.800000*%
%ADD19R,1.800000X1.800000*%
%ADD20C,1.700000*%
%ADD21R,1.750000X1.750000*%
%ADD22C,1.750000*%
%ADD23C,1.000000*%
%ADD24C,0.600000*%
%ADD25C,0.500000*%
%ADD26C,0.250000*%
%ADD27C,0.800000*%
%ADD28C,0.254000*%
G04 APERTURE END LIST*
D10*
D11*
X99060000Y-92710000D03*
X101600000Y-92710000D03*
X80010000Y-105410000D03*
X82550000Y-105410000D03*
X85090000Y-105410000D03*
X87630000Y-105410000D03*
X90170000Y-105410000D03*
X92710000Y-105410000D03*
X95250000Y-105410000D03*
X97790000Y-105410000D03*
X100330000Y-105410000D03*
X102870000Y-105410000D03*
X105410000Y-105410000D03*
X107950000Y-105410000D03*
X107950000Y-90170000D03*
X105410000Y-90170000D03*
X102870000Y-90170000D03*
X100330000Y-90170000D03*
X97790000Y-90170000D03*
X95250000Y-90170000D03*
X92710000Y-90170000D03*
X90170000Y-90170000D03*
X87630000Y-90170000D03*
X85090000Y-90170000D03*
X82550000Y-90170000D03*
X80010000Y-90170000D03*
X91440000Y-92710000D03*
X88900000Y-92710000D03*
D12*
X107950000Y-92710000D03*
X107950000Y-95250000D03*
X107950000Y-97790000D03*
D13*
X103505000Y-140335000D03*
D14*
X100965000Y-140335000D03*
X98425000Y-140335000D03*
X95885000Y-140335000D03*
X93345000Y-140335000D03*
X90805000Y-140335000D03*
X88265000Y-140335000D03*
X85725000Y-140335000D03*
X83185000Y-140335000D03*
X80645000Y-140335000D03*
X78105000Y-140335000D03*
D13*
X76200000Y-73660000D03*
D14*
X76200000Y-76200000D03*
D13*
X106680000Y-73660000D03*
D14*
X106680000Y-76200000D03*
D15*
X113030000Y-86360000D03*
D16*
X120650000Y-86360000D03*
D15*
X113030000Y-96520000D03*
D16*
X120650000Y-96520000D03*
D15*
X113030000Y-91440000D03*
D16*
X120650000Y-91440000D03*
D17*
X85090000Y-113030000D03*
X85090000Y-115570000D03*
X85090000Y-118110000D03*
X85090000Y-120650000D03*
X85090000Y-123190000D03*
X85090000Y-125730000D03*
X85090000Y-128270000D03*
X85090000Y-130810000D03*
X95250000Y-113030000D03*
X95250000Y-115570000D03*
X95250000Y-118110000D03*
X95250000Y-120650000D03*
X95250000Y-125730000D03*
X95250000Y-123190000D03*
X95250000Y-128270000D03*
X95250000Y-130810000D03*
D18*
X95250000Y-58420000D03*
X95250000Y-70020000D03*
D19*
X87650000Y-58420000D03*
D18*
X87650000Y-70020000D03*
D10*
G36*
X119312082Y-110490000D02*
X118110000Y-111692082D01*
X116907918Y-110490000D01*
X118110000Y-109287918D01*
X119312082Y-110490000D01*
X119312082Y-110490000D01*
G37*
D20*
X119906051Y-108693949D02*
X119906051Y-108693949D01*
X121702102Y-106897898D02*
X121702102Y-106897898D01*
X123498154Y-105101846D02*
X123498154Y-105101846D01*
X125294205Y-103305795D02*
X125294205Y-103305795D01*
X127090256Y-101509744D02*
X127090256Y-101509744D01*
X128886307Y-99713693D02*
X128886307Y-99713693D01*
D13*
X82550000Y-135890000D03*
D14*
X85090000Y-135890000D03*
X87630000Y-135890000D03*
X90170000Y-135890000D03*
X92710000Y-135890000D03*
X95250000Y-135890000D03*
X97790000Y-135890000D03*
D10*
G36*
X54610000Y-101532082D02*
X53407918Y-100330000D01*
X54610000Y-99127918D01*
X55812082Y-100330000D01*
X54610000Y-101532082D01*
X54610000Y-101532082D01*
G37*
D20*
X56406051Y-102126051D02*
X56406051Y-102126051D01*
X58202102Y-103922102D02*
X58202102Y-103922102D01*
X59998154Y-105718154D02*
X59998154Y-105718154D01*
X61794205Y-107514205D02*
X61794205Y-107514205D01*
X63590256Y-109310256D02*
X63590256Y-109310256D01*
X65386307Y-111106307D02*
X65386307Y-111106307D01*
D21*
X72390000Y-59690000D03*
D22*
X74890000Y-59690000D03*
D21*
X107950000Y-59690000D03*
D22*
X110450000Y-59690000D03*
D23*
X106680000Y-108585000D03*
D24*
X89501300Y-115803000D03*
X92378500Y-126480400D03*
X93345000Y-115570000D03*
X97790000Y-119010020D03*
X98465348Y-133476762D03*
X94552580Y-134197121D03*
X99078938Y-126348882D03*
X97179566Y-127089017D03*
X111127570Y-105414969D03*
X110236000Y-88900000D03*
X108022260Y-117405560D03*
X78809000Y-97186700D03*
X93345000Y-102235000D03*
X90805000Y-107950000D03*
X76374038Y-118764925D03*
X86324100Y-131696800D03*
D23*
X87630000Y-85725000D03*
X80645000Y-115570000D03*
X102235000Y-143510000D03*
X72272965Y-90233730D03*
X72343185Y-109264421D03*
X99060000Y-111125000D03*
D24*
X91440000Y-111762800D03*
X109486062Y-111445320D03*
D23*
X113026151Y-110306503D03*
X111486083Y-111154193D03*
X116769389Y-104944285D03*
X118380126Y-105327712D03*
D25*
X109549820Y-94703080D02*
X109500700Y-94752200D01*
X108299250Y-92710000D02*
X109549820Y-93960570D01*
X109500700Y-94752200D02*
X109500700Y-104534591D01*
X104522800Y-141656900D02*
X87046900Y-141656900D01*
X86574999Y-141184999D02*
X85725000Y-140335000D01*
X87046900Y-141656900D02*
X86574999Y-141184999D01*
X109500700Y-104534591D02*
X109165509Y-104869782D01*
X109549820Y-93960570D02*
X109549820Y-94703080D01*
X109314200Y-112383462D02*
X109314200Y-136865500D01*
X109314200Y-136865500D02*
X104522800Y-141656900D01*
X108736060Y-111805322D02*
X109314200Y-112383462D01*
X108736060Y-111085318D02*
X108736060Y-111805322D01*
X109165509Y-110655869D02*
X108736060Y-111085318D01*
X109165509Y-104869782D02*
X109165509Y-110655869D01*
X107950000Y-92710000D02*
X108299250Y-92710000D01*
X106680000Y-108585000D02*
X106680000Y-135810000D01*
X106680000Y-106968400D02*
X106680000Y-108585000D01*
X82550000Y-90170000D02*
X82516677Y-90203323D01*
X82516677Y-90203323D02*
X82516677Y-100746777D01*
X82516677Y-100746777D02*
X87179900Y-105410000D01*
X106680000Y-135810000D02*
X103505000Y-138985000D01*
X103505000Y-140335000D02*
X103505000Y-138985000D01*
X106680000Y-100310600D02*
X106680000Y-106968400D01*
X107950000Y-99040600D02*
X106680000Y-100310600D01*
X87630000Y-105410000D02*
X87179900Y-105410000D01*
X107950000Y-97790000D02*
X107950000Y-99040600D01*
X89801299Y-105778701D02*
X90054998Y-105525002D01*
X90054998Y-105525002D02*
X90170000Y-105410000D01*
X89501300Y-115803000D02*
X89801299Y-115503001D01*
X89801299Y-115503001D02*
X89801299Y-105778701D01*
X92378500Y-107341400D02*
X92378500Y-126480400D01*
X92710000Y-107009900D02*
X92378500Y-107341400D01*
X92710000Y-105410000D02*
X92710000Y-107009900D01*
D26*
X93345000Y-109220000D02*
X94615000Y-109220000D01*
X94615000Y-109220000D02*
X95250000Y-108585000D01*
X95250000Y-105410000D02*
X95250000Y-108585000D01*
X93345000Y-109220000D02*
X93345000Y-115570000D01*
D25*
X97790000Y-105410000D02*
X97790000Y-119010020D01*
D26*
X98465348Y-133052498D02*
X98465348Y-133476762D01*
X98465348Y-128374799D02*
X98465348Y-133052498D01*
X97179566Y-127089017D02*
X98465348Y-128374799D01*
X84032121Y-134197121D02*
X94128316Y-134197121D01*
X83820000Y-133985000D02*
X84032121Y-134197121D01*
X83820000Y-127000000D02*
X83820000Y-133985000D01*
X85090000Y-125730000D02*
X83820000Y-127000000D01*
X94128316Y-134197121D02*
X94552580Y-134197121D01*
X100330000Y-105410000D02*
X100330000Y-125097820D01*
X100330000Y-125097820D02*
X99378937Y-126048883D01*
X99378937Y-126048883D02*
X99078938Y-126348882D01*
X111215011Y-105327528D02*
X111127570Y-105414969D01*
X111215011Y-89879011D02*
X111215011Y-105327528D01*
X110236000Y-88900000D02*
X111215011Y-89879011D01*
X107950000Y-105410000D02*
X107950000Y-117333300D01*
X107950000Y-117333300D02*
X108022260Y-117405560D01*
D25*
X78809000Y-106749000D02*
X78809000Y-97186700D01*
X85090000Y-113030000D02*
X78809000Y-106749000D01*
X102870000Y-90170000D02*
X102925460Y-90170000D01*
X102925460Y-90170000D02*
X104072400Y-91316940D01*
X104072400Y-91316940D02*
X104072400Y-133585200D01*
X104072400Y-133585200D02*
X98425000Y-139232600D01*
X98425000Y-139232600D02*
X98425000Y-140335000D01*
X97790000Y-96450400D02*
X97790000Y-90170000D01*
X101586000Y-100246400D02*
X97790000Y-96450400D01*
X101586000Y-135012200D02*
X101586000Y-100246400D01*
X98441000Y-138157200D02*
X101586000Y-135012200D01*
X98062800Y-138157200D02*
X98441000Y-138157200D01*
X95885000Y-140335000D02*
X98062800Y-138157200D01*
D26*
X90805000Y-108374264D02*
X90805000Y-107950000D01*
X96425001Y-137254999D02*
X96425001Y-135185631D01*
X93345000Y-140335000D02*
X96425001Y-137254999D01*
X96425001Y-135185631D02*
X94497012Y-133257642D01*
X90805000Y-130973041D02*
X90805000Y-108374264D01*
X94497012Y-133257642D02*
X93089600Y-133257641D01*
X93089600Y-133257641D02*
X90805000Y-130973041D01*
X93345000Y-102235000D02*
X95250000Y-100330000D01*
X95250000Y-100330000D02*
X95250000Y-90170000D01*
D25*
X76374038Y-118340661D02*
X76374038Y-118764925D01*
X76374038Y-111605029D02*
X76374038Y-118340661D01*
X73175386Y-108406377D02*
X76374038Y-111605029D01*
X73175386Y-90530670D02*
X73175386Y-108406377D01*
X92710000Y-90170000D02*
X92710000Y-89820750D01*
X92710000Y-89820750D02*
X91459430Y-88570180D01*
X75135876Y-88570180D02*
X73175386Y-90530670D01*
X91459430Y-88570180D02*
X75135876Y-88570180D01*
X90229989Y-127790911D02*
X86624099Y-131396801D01*
X86624099Y-131396801D02*
X86324100Y-131696800D01*
X90229989Y-117592789D02*
X90229989Y-127790911D01*
X88751000Y-116113800D02*
X90229989Y-117592789D01*
X88751000Y-115492200D02*
X88751000Y-116113800D01*
X90170000Y-90170000D02*
X90170000Y-98750300D01*
X90170000Y-98750300D02*
X88949100Y-99971200D01*
X88949100Y-99971200D02*
X88949100Y-115294100D01*
X88949100Y-115294100D02*
X88751000Y-115492200D01*
D27*
X118781751Y-129503249D02*
X104775000Y-143510000D01*
X104775000Y-143510000D02*
X102235000Y-143510000D01*
X118110000Y-110490000D02*
X118781751Y-111161751D01*
X118781751Y-111161751D02*
X118781751Y-129503249D01*
D25*
X113412100Y-91822100D02*
X113030000Y-91440000D01*
X120650000Y-96565100D02*
X120650000Y-96610300D01*
X120650000Y-96520000D02*
X120650000Y-96565100D01*
X120650000Y-97170000D02*
X120650000Y-96610300D01*
D27*
X72343185Y-109264421D02*
X71843186Y-108764422D01*
X71843186Y-108764422D02*
X71843186Y-90663509D01*
X71843186Y-90663509D02*
X72272965Y-90233730D01*
X99060000Y-123935762D02*
X99060000Y-111832106D01*
X95250000Y-128270000D02*
X96011999Y-127508001D01*
X96011999Y-126983763D02*
X99060000Y-123935762D01*
X96011999Y-127508001D02*
X96011999Y-126983763D01*
X99060000Y-111832106D02*
X99060000Y-111125000D01*
D25*
X91440000Y-112187064D02*
X91440000Y-111762800D01*
X91440000Y-130794853D02*
X91440000Y-112187064D01*
X97790000Y-135737442D02*
X94735189Y-132682631D01*
X93327778Y-132682631D02*
X91440000Y-130794853D01*
X94735189Y-132682631D02*
X93327778Y-132682631D01*
X97790000Y-135890000D02*
X97790000Y-135737442D01*
X91440000Y-111338536D02*
X91440000Y-111762800D01*
X91555002Y-107589998D02*
X91555002Y-111223534D01*
X91555002Y-111223534D02*
X91440000Y-111338536D01*
X91440000Y-107474996D02*
X91555002Y-107589998D01*
X91440000Y-92710000D02*
X91440000Y-107474996D01*
X63590300Y-109310300D02*
X63590300Y-123448434D01*
X93941900Y-137198100D02*
X95250000Y-135890000D01*
X63590300Y-123448434D02*
X77339966Y-137198100D01*
X77339966Y-137198100D02*
X93941900Y-137198100D01*
D26*
X113030000Y-86360000D02*
X111665022Y-87724978D01*
X111665022Y-87724978D02*
X111665022Y-105054270D01*
X112393406Y-110840512D02*
X112393406Y-112085920D01*
X112393406Y-112085920D02*
X110126662Y-112085920D01*
X110126662Y-112085920D02*
X109486062Y-111445320D01*
X111665022Y-105054270D02*
X112043823Y-105433071D01*
X112043823Y-105433071D02*
X112043823Y-110490929D01*
X112043823Y-110490929D02*
X112393406Y-110840512D01*
D27*
X113526150Y-109806504D02*
X113026151Y-110306503D01*
X114460120Y-108872534D02*
X113526150Y-109806504D01*
X76200000Y-73660000D02*
X98131926Y-73660000D01*
X98131926Y-73660000D02*
X107067868Y-82595942D01*
X114460120Y-84562331D02*
X114460120Y-108872534D01*
X107067868Y-82595942D02*
X112493731Y-82595942D01*
X112493731Y-82595942D02*
X114460120Y-84562331D01*
X110490000Y-90450742D02*
X110490000Y-104747388D01*
X110227568Y-109895678D02*
X110986084Y-110654194D01*
X110227568Y-105009820D02*
X110227568Y-109895678D01*
X96239258Y-76200000D02*
X110490000Y-90450742D01*
X76200000Y-76200000D02*
X96239258Y-76200000D01*
X110490000Y-104747388D02*
X110227568Y-105009820D01*
X110986084Y-110654194D02*
X111486083Y-111154193D01*
X117269388Y-104444286D02*
X116769389Y-104944285D01*
X108330000Y-73660000D02*
X117635305Y-82965305D01*
X117635305Y-104078369D02*
X117269388Y-104444286D01*
X117635305Y-82965305D02*
X117635305Y-104078369D01*
X106680000Y-73660000D02*
X108330000Y-73660000D01*
X118880125Y-104827713D02*
X118380126Y-105327712D01*
X118880125Y-80780125D02*
X118880125Y-104827713D01*
X108585000Y-70485000D02*
X118880125Y-80780125D01*
X104140000Y-70485000D02*
X108585000Y-70485000D01*
X102870000Y-71755000D02*
X104140000Y-70485000D01*
X102870000Y-73592081D02*
X102870000Y-71755000D01*
X105477919Y-76200000D02*
X102870000Y-73592081D01*
X106680000Y-76200000D02*
X105477919Y-76200000D01*
D25*
X95250000Y-120650000D02*
X95443700Y-120650000D01*
D27*
X74890000Y-59690000D02*
X76127436Y-59690000D01*
X76127436Y-59690000D02*
X107950000Y-59690000D01*
D28*
G36*
X128138394Y-56573108D02*
X129533928Y-57505573D01*
X130466394Y-58901106D01*
X130807252Y-60614717D01*
X130807252Y-102123130D01*
X125638826Y-120295950D01*
X117121793Y-142059014D01*
X116179265Y-143529973D01*
X114801891Y-144489058D01*
X113098382Y-144862040D01*
X113076521Y-144862250D01*
X69970022Y-144862250D01*
X68256733Y-144520617D01*
X66861639Y-143587495D01*
X65893483Y-142137070D01*
X65885313Y-142116769D01*
X65440756Y-140980819D01*
X67665413Y-140980819D01*
X68004955Y-141802572D01*
X68633121Y-142431836D01*
X69454281Y-142772811D01*
X70343419Y-142773587D01*
X71165172Y-142434045D01*
X71794436Y-141805879D01*
X72135411Y-140984719D01*
X72136187Y-140095581D01*
X71796645Y-139273828D01*
X71168479Y-138644564D01*
X70347319Y-138303589D01*
X69458181Y-138302813D01*
X68636428Y-138642355D01*
X68007164Y-139270521D01*
X67666189Y-140091681D01*
X67665413Y-140980819D01*
X65440756Y-140980819D01*
X57345679Y-120295953D01*
X52177252Y-102123133D01*
X52177252Y-101357603D01*
X53762002Y-101357603D01*
X53762002Y-101582109D01*
X54250302Y-102070409D01*
X54483691Y-102167082D01*
X54736310Y-102167081D01*
X54910784Y-102094811D01*
X54900478Y-102146623D01*
X55013518Y-102714908D01*
X55335425Y-103196677D01*
X55817194Y-103518584D01*
X56385479Y-103631624D01*
X56773765Y-103554388D01*
X56696529Y-103942674D01*
X56809569Y-104510959D01*
X57131476Y-104992728D01*
X57613245Y-105314635D01*
X58181530Y-105427675D01*
X58569817Y-105350439D01*
X58492581Y-105738726D01*
X58605621Y-106307011D01*
X58927528Y-106788780D01*
X59409297Y-107110687D01*
X59977582Y-107223727D01*
X60365868Y-107146491D01*
X60288632Y-107534777D01*
X60401672Y-108103062D01*
X60723579Y-108584831D01*
X61205348Y-108906738D01*
X61773633Y-109019778D01*
X62161919Y-108942542D01*
X62084683Y-109330828D01*
X62197723Y-109899113D01*
X62519630Y-110380882D01*
X62705300Y-110504942D01*
X62705300Y-123448429D01*
X62705299Y-123448434D01*
X62761490Y-123730918D01*
X62772667Y-123787109D01*
X62932207Y-124025879D01*
X62964510Y-124074224D01*
X76714174Y-137823887D01*
X76714176Y-137823890D01*
X77000192Y-138014999D01*
X77001291Y-138015733D01*
X77339966Y-138083101D01*
X77339971Y-138083100D01*
X93941895Y-138083100D01*
X93941900Y-138083101D01*
X94224384Y-138026910D01*
X94280575Y-138015733D01*
X94567690Y-137823890D01*
X94567691Y-137823889D01*
X95031040Y-137360539D01*
X95209217Y-137395981D01*
X93711408Y-138893790D01*
X93345000Y-138820907D01*
X92776715Y-138933946D01*
X92294946Y-139255853D01*
X92075000Y-139585026D01*
X91855054Y-139255853D01*
X91373285Y-138933946D01*
X90805000Y-138820907D01*
X90236715Y-138933946D01*
X89754946Y-139255853D01*
X89535000Y-139585026D01*
X89315054Y-139255853D01*
X88833285Y-138933946D01*
X88265000Y-138820907D01*
X87696715Y-138933946D01*
X87214946Y-139255853D01*
X86995000Y-139585026D01*
X86775054Y-139255853D01*
X86293285Y-138933946D01*
X85725000Y-138820907D01*
X85156715Y-138933946D01*
X84674946Y-139255853D01*
X84455000Y-139585026D01*
X84235054Y-139255853D01*
X83753285Y-138933946D01*
X83185000Y-138820907D01*
X82616715Y-138933946D01*
X82134946Y-139255853D01*
X81915000Y-139585026D01*
X81695054Y-139255853D01*
X81213285Y-138933946D01*
X80645000Y-138820907D01*
X80076715Y-138933946D01*
X79594946Y-139255853D01*
X79375000Y-139585026D01*
X79155054Y-139255853D01*
X78673285Y-138933946D01*
X78105000Y-138820907D01*
X77536715Y-138933946D01*
X77054946Y-139255853D01*
X76733039Y-139737622D01*
X76620000Y-140305907D01*
X76620000Y-140364093D01*
X76733039Y-140932378D01*
X77054946Y-141414147D01*
X77536715Y-141736054D01*
X78105000Y-141849093D01*
X78673285Y-141736054D01*
X79155054Y-141414147D01*
X79375000Y-141084974D01*
X79594946Y-141414147D01*
X80076715Y-141736054D01*
X80645000Y-141849093D01*
X81213285Y-141736054D01*
X81695054Y-141414147D01*
X81915000Y-141084974D01*
X82134946Y-141414147D01*
X82616715Y-141736054D01*
X83185000Y-141849093D01*
X83753285Y-141736054D01*
X84235054Y-141414147D01*
X84455000Y-141084974D01*
X84674946Y-141414147D01*
X85156715Y-141736054D01*
X85725000Y-141849093D01*
X85943960Y-141805539D01*
X85949207Y-141810786D01*
X85949209Y-141810789D01*
X86421108Y-142282687D01*
X86421110Y-142282690D01*
X86708225Y-142474533D01*
X86764416Y-142485710D01*
X87046900Y-142541901D01*
X87046905Y-142541900D01*
X104522795Y-142541900D01*
X104522800Y-142541901D01*
X104805284Y-142485710D01*
X104861475Y-142474533D01*
X105148590Y-142282690D01*
X106412360Y-141018919D01*
X110870813Y-141018919D01*
X111210355Y-141840672D01*
X111838521Y-142469936D01*
X112659681Y-142810911D01*
X113548819Y-142811687D01*
X114370572Y-142472145D01*
X114999836Y-141843979D01*
X115340811Y-141022819D01*
X115341587Y-140133681D01*
X115002045Y-139311928D01*
X114373879Y-138682664D01*
X113552719Y-138341689D01*
X112663581Y-138340913D01*
X111841828Y-138680455D01*
X111212564Y-139308621D01*
X110871589Y-140129781D01*
X110870813Y-141018919D01*
X106412360Y-141018919D01*
X109939987Y-137491292D01*
X109939990Y-137491290D01*
X110131833Y-137204175D01*
X110152615Y-137099698D01*
X110199201Y-136865500D01*
X110199200Y-136865495D01*
X110199200Y-123200819D01*
X110858113Y-123200819D01*
X111197655Y-124022572D01*
X111825821Y-124651836D01*
X112646981Y-124992811D01*
X113536119Y-124993587D01*
X114357872Y-124654045D01*
X114987136Y-124025879D01*
X115328111Y-123204719D01*
X115328887Y-122315581D01*
X114989345Y-121493828D01*
X114361179Y-120864564D01*
X113540019Y-120523589D01*
X112650881Y-120522813D01*
X111829128Y-120862355D01*
X111199864Y-121490521D01*
X110858889Y-122311681D01*
X110858113Y-123200819D01*
X110199200Y-123200819D01*
X110199200Y-112845920D01*
X112393406Y-112845920D01*
X112684245Y-112788068D01*
X112930807Y-112623321D01*
X113095554Y-112376759D01*
X113153406Y-112085920D01*
X113153406Y-111517603D01*
X117262002Y-111517603D01*
X117262002Y-111742109D01*
X117750301Y-112230408D01*
X117983690Y-112327081D01*
X118236309Y-112327082D01*
X118469698Y-112230409D01*
X118957998Y-111742109D01*
X118957998Y-111517603D01*
X118110000Y-110669605D01*
X117262002Y-111517603D01*
X113153406Y-111517603D01*
X113153406Y-111441615D01*
X113250926Y-111441700D01*
X113668237Y-111269270D01*
X113987796Y-110950268D01*
X114088416Y-110707949D01*
X114258003Y-110538362D01*
X114258006Y-110538360D01*
X114432674Y-110363691D01*
X116272918Y-110363691D01*
X116272919Y-110616310D01*
X116369592Y-110849699D01*
X116857891Y-111337998D01*
X117082397Y-111337998D01*
X117930395Y-110490000D01*
X117082397Y-109642002D01*
X116857891Y-109642002D01*
X116369591Y-110130302D01*
X116272918Y-110363691D01*
X114432674Y-110363691D01*
X115191973Y-109604392D01*
X115191976Y-109604390D01*
X115416335Y-109268611D01*
X115422445Y-109237891D01*
X117262002Y-109237891D01*
X117262002Y-109462397D01*
X118110000Y-110310395D01*
X118124143Y-110296253D01*
X118303748Y-110475858D01*
X118289605Y-110490000D01*
X119137603Y-111337998D01*
X119362109Y-111337998D01*
X119850409Y-110849698D01*
X119947082Y-110616309D01*
X119947081Y-110363690D01*
X119874811Y-110189215D01*
X119926623Y-110199521D01*
X120494907Y-110086482D01*
X120976676Y-109764574D01*
X121298584Y-109282805D01*
X121411623Y-108714521D01*
X121334388Y-108326235D01*
X121722674Y-108403470D01*
X122290958Y-108290431D01*
X122772727Y-107968523D01*
X123094635Y-107486754D01*
X123207674Y-106918470D01*
X123130439Y-106530183D01*
X123518726Y-106607418D01*
X124087010Y-106494379D01*
X124568779Y-106172471D01*
X124890687Y-105690702D01*
X125003726Y-105122418D01*
X124926491Y-104734132D01*
X125314777Y-104811367D01*
X125883061Y-104698328D01*
X126364830Y-104376420D01*
X126686738Y-103894651D01*
X126799777Y-103326367D01*
X126722542Y-102938081D01*
X127110828Y-103015316D01*
X127679112Y-102902277D01*
X128160881Y-102580369D01*
X128482789Y-102098600D01*
X128595828Y-101530316D01*
X128518593Y-101142030D01*
X128906879Y-101219265D01*
X129475163Y-101106226D01*
X129956932Y-100784318D01*
X130278840Y-100302549D01*
X130391879Y-99734265D01*
X130278840Y-99165980D01*
X129956932Y-98684211D01*
X129915789Y-98643067D01*
X129434020Y-98321160D01*
X128865735Y-98208120D01*
X128297450Y-98321160D01*
X127815681Y-98643067D01*
X127493774Y-99124836D01*
X127380734Y-99693121D01*
X127457970Y-100081407D01*
X127069684Y-100004171D01*
X126501399Y-100117211D01*
X126019630Y-100439118D01*
X125697723Y-100920887D01*
X125584683Y-101489172D01*
X125661919Y-101877458D01*
X125273633Y-101800222D01*
X124705348Y-101913262D01*
X124223579Y-102235169D01*
X123901672Y-102716938D01*
X123788632Y-103285223D01*
X123865868Y-103673509D01*
X123477582Y-103596273D01*
X122909297Y-103709313D01*
X122427528Y-104031220D01*
X122105621Y-104512989D01*
X121992581Y-105081274D01*
X122069817Y-105469561D01*
X121681530Y-105392325D01*
X121113245Y-105505365D01*
X120631476Y-105827272D01*
X120309569Y-106309041D01*
X120196529Y-106877326D01*
X120273765Y-107265612D01*
X119885479Y-107188376D01*
X119317194Y-107301416D01*
X118835425Y-107623323D01*
X118513518Y-108105092D01*
X118400478Y-108673377D01*
X118410784Y-108725189D01*
X118236310Y-108652919D01*
X117983691Y-108652918D01*
X117750302Y-108749591D01*
X117262002Y-109237891D01*
X115422445Y-109237891D01*
X115426004Y-109220000D01*
X115495121Y-108872534D01*
X115495120Y-108872529D01*
X115495120Y-84562336D01*
X115495121Y-84562331D01*
X115416335Y-84166254D01*
X115191976Y-83830475D01*
X113225587Y-81864086D01*
X112889808Y-81639727D01*
X112493731Y-81560941D01*
X112493726Y-81560942D01*
X107496579Y-81560942D01*
X98863782Y-72928144D01*
X98528003Y-72703785D01*
X98131926Y-72624999D01*
X98131921Y-72625000D01*
X77662630Y-72625000D01*
X77653162Y-72574683D01*
X77514090Y-72358559D01*
X77301890Y-72213569D01*
X77050000Y-72162560D01*
X75350000Y-72162560D01*
X75114683Y-72206838D01*
X74898559Y-72345910D01*
X74753569Y-72558110D01*
X74702560Y-72810000D01*
X74702560Y-74510000D01*
X74746838Y-74745317D01*
X74885910Y-74961441D01*
X75098110Y-75106431D01*
X75165541Y-75120086D01*
X75120853Y-75149946D01*
X74798946Y-75631715D01*
X74685907Y-76200000D01*
X74798946Y-76768285D01*
X75120853Y-77250054D01*
X75602622Y-77571961D01*
X76170907Y-77685000D01*
X76229093Y-77685000D01*
X76797378Y-77571961D01*
X77279147Y-77250054D01*
X77289206Y-77235000D01*
X95810546Y-77235000D01*
X107217416Y-88641869D01*
X106970254Y-88807017D01*
X106680000Y-89241412D01*
X106389746Y-88807017D01*
X105940235Y-88506663D01*
X105410000Y-88401193D01*
X104879765Y-88506663D01*
X104430254Y-88807017D01*
X104140000Y-89241412D01*
X103849746Y-88807017D01*
X103400235Y-88506663D01*
X102870000Y-88401193D01*
X102339765Y-88506663D01*
X101890254Y-88807017D01*
X101600000Y-89241412D01*
X101309746Y-88807017D01*
X100860235Y-88506663D01*
X100330000Y-88401193D01*
X99799765Y-88506663D01*
X99350254Y-88807017D01*
X99060000Y-89241412D01*
X98769746Y-88807017D01*
X98320235Y-88506663D01*
X97790000Y-88401193D01*
X97259765Y-88506663D01*
X96810254Y-88807017D01*
X96520000Y-89241412D01*
X96229746Y-88807017D01*
X95780235Y-88506663D01*
X95250000Y-88401193D01*
X94719765Y-88506663D01*
X94270254Y-88807017D01*
X93980000Y-89241412D01*
X93689746Y-88807017D01*
X93240235Y-88506663D01*
X92710000Y-88401193D01*
X92569892Y-88429062D01*
X92085220Y-87944390D01*
X91870213Y-87800728D01*
X91798105Y-87752547D01*
X91741914Y-87741370D01*
X91459430Y-87685179D01*
X91459425Y-87685180D01*
X75135881Y-87685180D01*
X75135876Y-87685179D01*
X74797202Y-87752546D01*
X74701930Y-87816205D01*
X74510086Y-87944390D01*
X74510084Y-87944393D01*
X73049445Y-89405031D01*
X72916730Y-89272085D01*
X72499721Y-89098927D01*
X72048190Y-89098533D01*
X71630879Y-89270963D01*
X71311320Y-89589965D01*
X71210700Y-89832283D01*
X71111330Y-89931653D01*
X70886971Y-90267432D01*
X70808185Y-90663509D01*
X70808186Y-90663514D01*
X70808186Y-108764417D01*
X70808185Y-108764422D01*
X70886971Y-109160499D01*
X71111330Y-109496278D01*
X71281035Y-109665983D01*
X71380418Y-109906507D01*
X71699420Y-110226066D01*
X72116429Y-110399224D01*
X72567960Y-110399618D01*
X72985271Y-110227188D01*
X73304830Y-109908186D01*
X73340269Y-109822840D01*
X75489038Y-111971608D01*
X75489038Y-118458103D01*
X75439200Y-118578126D01*
X75438876Y-118950092D01*
X75580921Y-119293868D01*
X75843711Y-119557117D01*
X76187239Y-119699763D01*
X76559205Y-119700087D01*
X76902981Y-119558042D01*
X77166230Y-119295252D01*
X77308876Y-118951724D01*
X77309200Y-118579758D01*
X77259038Y-118458356D01*
X77259038Y-111605034D01*
X77259039Y-111605029D01*
X77191671Y-111266355D01*
X77191671Y-111266354D01*
X76999828Y-110979239D01*
X76999825Y-110979237D01*
X74060386Y-108039797D01*
X74060386Y-90897250D01*
X75502455Y-89455180D01*
X78690386Y-89455180D01*
X78624430Y-89786763D01*
X78624430Y-90553237D01*
X78729900Y-91083472D01*
X79030254Y-91532983D01*
X79479765Y-91833337D01*
X80010000Y-91938807D01*
X80540235Y-91833337D01*
X80989746Y-91532983D01*
X81280000Y-91098588D01*
X81570254Y-91532983D01*
X81631677Y-91574025D01*
X81631677Y-100746772D01*
X81631676Y-100746777D01*
X81674494Y-100962031D01*
X81699044Y-101085452D01*
X81842291Y-101299838D01*
X81890887Y-101372567D01*
X84383057Y-103864736D01*
X84110254Y-104047017D01*
X83820000Y-104481412D01*
X83529746Y-104047017D01*
X83080235Y-103746663D01*
X82550000Y-103641193D01*
X82019765Y-103746663D01*
X81570254Y-104047017D01*
X81280000Y-104481412D01*
X80989746Y-104047017D01*
X80540235Y-103746663D01*
X80010000Y-103641193D01*
X79694000Y-103704049D01*
X79694000Y-97493522D01*
X79743838Y-97373499D01*
X79744162Y-97001533D01*
X79602117Y-96657757D01*
X79339327Y-96394508D01*
X78995799Y-96251862D01*
X78623833Y-96251538D01*
X78280057Y-96393583D01*
X78016808Y-96656373D01*
X77874162Y-96999901D01*
X77873838Y-97371867D01*
X77924000Y-97493269D01*
X77924000Y-106748995D01*
X77923999Y-106749000D01*
X77976879Y-107014838D01*
X77991367Y-107087675D01*
X78137965Y-107307075D01*
X78183210Y-107374790D01*
X83693126Y-112884705D01*
X83692758Y-113306661D01*
X83904990Y-113820303D01*
X84297630Y-114213629D01*
X84505512Y-114299949D01*
X84299697Y-114384990D01*
X83906371Y-114777630D01*
X83693243Y-115290900D01*
X83692758Y-115846661D01*
X83904990Y-116360303D01*
X84297630Y-116753629D01*
X84505512Y-116839949D01*
X84299697Y-116924990D01*
X83906371Y-117317630D01*
X83693243Y-117830900D01*
X83692758Y-118386661D01*
X83904990Y-118900303D01*
X84297630Y-119293629D01*
X84505512Y-119379949D01*
X84299697Y-119464990D01*
X83906371Y-119857630D01*
X83693243Y-120370900D01*
X83692758Y-120926661D01*
X83904990Y-121440303D01*
X84297630Y-121833629D01*
X84505512Y-121919949D01*
X84299697Y-122004990D01*
X83906371Y-122397630D01*
X83693243Y-122910900D01*
X83692758Y-123466661D01*
X83904990Y-123980303D01*
X84297630Y-124373629D01*
X84505512Y-124459949D01*
X84299697Y-124544990D01*
X83906371Y-124937630D01*
X83693243Y-125450900D01*
X83692758Y-126006661D01*
X83706143Y-126039055D01*
X83282599Y-126462599D01*
X83117852Y-126709161D01*
X83060000Y-127000000D01*
X83060000Y-133985000D01*
X83117852Y-134275839D01*
X83204154Y-134405000D01*
X82835750Y-134405000D01*
X82677000Y-134563750D01*
X82677000Y-135763000D01*
X82697000Y-135763000D01*
X82697000Y-136017000D01*
X82677000Y-136017000D01*
X82677000Y-136037000D01*
X82423000Y-136037000D01*
X82423000Y-136017000D01*
X81223750Y-136017000D01*
X81065000Y-136175750D01*
X81065000Y-136313100D01*
X77706545Y-136313100D01*
X76307137Y-134913691D01*
X81065000Y-134913691D01*
X81065000Y-135604250D01*
X81223750Y-135763000D01*
X82423000Y-135763000D01*
X82423000Y-134563750D01*
X82264250Y-134405000D01*
X81573690Y-134405000D01*
X81340301Y-134501673D01*
X81161673Y-134680302D01*
X81065000Y-134913691D01*
X76307137Y-134913691D01*
X64606965Y-123213519D01*
X67678113Y-123213519D01*
X68017655Y-124035272D01*
X68645821Y-124664536D01*
X69466981Y-125005511D01*
X70356119Y-125006287D01*
X71177872Y-124666745D01*
X71807136Y-124038579D01*
X72148111Y-123217419D01*
X72148887Y-122328281D01*
X71809345Y-121506528D01*
X71181179Y-120877264D01*
X70360019Y-120536289D01*
X69470881Y-120535513D01*
X68649128Y-120875055D01*
X68019864Y-121503221D01*
X67678889Y-122324381D01*
X67678113Y-123213519D01*
X64606965Y-123213519D01*
X64475300Y-123081854D01*
X64475300Y-112283587D01*
X64797450Y-112498840D01*
X65365735Y-112611880D01*
X65934020Y-112498840D01*
X66415789Y-112176933D01*
X66456932Y-112135789D01*
X66778840Y-111654020D01*
X66891879Y-111085735D01*
X66778840Y-110517451D01*
X66456932Y-110035682D01*
X65975163Y-109713774D01*
X65406879Y-109600735D01*
X65018593Y-109677970D01*
X65095828Y-109289684D01*
X64982789Y-108721400D01*
X64660881Y-108239631D01*
X64179112Y-107917723D01*
X63610828Y-107804684D01*
X63222542Y-107881919D01*
X63299777Y-107493633D01*
X63186738Y-106925349D01*
X62864830Y-106443580D01*
X62383061Y-106121672D01*
X61814777Y-106008633D01*
X61426491Y-106085868D01*
X61503726Y-105697582D01*
X61390687Y-105129298D01*
X61068779Y-104647529D01*
X60587010Y-104325621D01*
X60018726Y-104212582D01*
X59630439Y-104289817D01*
X59707674Y-103901530D01*
X59594635Y-103333246D01*
X59272727Y-102851477D01*
X58790958Y-102529569D01*
X58222674Y-102416530D01*
X57834388Y-102493765D01*
X57911623Y-102105479D01*
X57798584Y-101537195D01*
X57476676Y-101055426D01*
X56994907Y-100733518D01*
X56426623Y-100620479D01*
X56374811Y-100630785D01*
X56447081Y-100456310D01*
X56447082Y-100203691D01*
X56350409Y-99970302D01*
X55862109Y-99482002D01*
X55637603Y-99482002D01*
X54789605Y-100330000D01*
X54803748Y-100344143D01*
X54624143Y-100523748D01*
X54610000Y-100509605D01*
X53762002Y-101357603D01*
X52177252Y-101357603D01*
X52177252Y-100456309D01*
X52772918Y-100456309D01*
X52869591Y-100689698D01*
X53357891Y-101177998D01*
X53582397Y-101177998D01*
X54430395Y-100330000D01*
X53582397Y-99482002D01*
X53357891Y-99482002D01*
X52869592Y-99970301D01*
X52772919Y-100203690D01*
X52772918Y-100456309D01*
X52177252Y-100456309D01*
X52177252Y-99077891D01*
X53762002Y-99077891D01*
X53762002Y-99302397D01*
X54610000Y-100150395D01*
X55457998Y-99302397D01*
X55457998Y-99077891D01*
X54969698Y-98589591D01*
X54736309Y-98492918D01*
X54483690Y-98492919D01*
X54250301Y-98589592D01*
X53762002Y-99077891D01*
X52177252Y-99077891D01*
X52177252Y-89507719D01*
X54266913Y-89507719D01*
X54606455Y-90329472D01*
X55234621Y-90958736D01*
X56055781Y-91299711D01*
X56944919Y-91300487D01*
X57766672Y-90960945D01*
X58395936Y-90332779D01*
X58736911Y-89511619D01*
X58737687Y-88622481D01*
X58398145Y-87800728D01*
X57769979Y-87171464D01*
X56948819Y-86830489D01*
X56059681Y-86829713D01*
X55237928Y-87169255D01*
X54608664Y-87797421D01*
X54267689Y-88618581D01*
X54266913Y-89507719D01*
X52177252Y-89507719D01*
X52177252Y-71755000D01*
X101834999Y-71755000D01*
X101835000Y-71755005D01*
X101835000Y-73592076D01*
X101834999Y-73592081D01*
X101913785Y-73988158D01*
X102138144Y-74323937D01*
X104746061Y-76931853D01*
X104746063Y-76931856D01*
X104947348Y-77066349D01*
X105081841Y-77156215D01*
X105477919Y-77235000D01*
X105590794Y-77235000D01*
X105600853Y-77250054D01*
X106082622Y-77571961D01*
X106650907Y-77685000D01*
X106709093Y-77685000D01*
X107277378Y-77571961D01*
X107759147Y-77250054D01*
X108081054Y-76768285D01*
X108194093Y-76200000D01*
X108081054Y-75631715D01*
X107759147Y-75149946D01*
X107717548Y-75122150D01*
X107765317Y-75113162D01*
X107981441Y-74974090D01*
X108062193Y-74855905D01*
X116600305Y-83394016D01*
X116600305Y-103649657D01*
X116537532Y-103712430D01*
X116537530Y-103712433D01*
X116367828Y-103882135D01*
X116127303Y-103981518D01*
X115807744Y-104300520D01*
X115634586Y-104717529D01*
X115634192Y-105169060D01*
X115806622Y-105586371D01*
X116125624Y-105905930D01*
X116542633Y-106079088D01*
X116994164Y-106079482D01*
X117394356Y-105914126D01*
X117417359Y-105969798D01*
X117736361Y-106289357D01*
X118153370Y-106462515D01*
X118604901Y-106462909D01*
X119022212Y-106290479D01*
X119341771Y-105971477D01*
X119442391Y-105729158D01*
X119611978Y-105559571D01*
X119611981Y-105559569D01*
X119775640Y-105314635D01*
X119836340Y-105223791D01*
X119915125Y-104827713D01*
X119915125Y-97729305D01*
X120300959Y-97911914D01*
X120523000Y-97790629D01*
X120523000Y-96647000D01*
X120777000Y-96647000D01*
X120777000Y-97790629D01*
X120999041Y-97911914D01*
X121505134Y-97672389D01*
X121881041Y-97257423D01*
X122041904Y-96869039D01*
X121919915Y-96647000D01*
X120777000Y-96647000D01*
X120523000Y-96647000D01*
X120503000Y-96647000D01*
X120503000Y-96393000D01*
X120523000Y-96393000D01*
X120523000Y-95249371D01*
X120777000Y-95249371D01*
X120777000Y-96393000D01*
X121919915Y-96393000D01*
X122041904Y-96170961D01*
X121881041Y-95782577D01*
X121505134Y-95367611D01*
X120999041Y-95128086D01*
X120777000Y-95249371D01*
X120523000Y-95249371D01*
X120300959Y-95128086D01*
X119915125Y-95310695D01*
X119915125Y-92660455D01*
X120072736Y-92765767D01*
X120621887Y-92875000D01*
X120678113Y-92875000D01*
X121227264Y-92765767D01*
X121692811Y-92454698D01*
X122003880Y-91989151D01*
X122113113Y-91440000D01*
X122003880Y-90890849D01*
X121692811Y-90425302D01*
X121227264Y-90114233D01*
X120678113Y-90005000D01*
X120621887Y-90005000D01*
X120072736Y-90114233D01*
X119915125Y-90219545D01*
X119915125Y-89545819D01*
X124256613Y-89545819D01*
X124596155Y-90367572D01*
X125224321Y-90996836D01*
X126045481Y-91337811D01*
X126934619Y-91338587D01*
X127756372Y-90999045D01*
X128385636Y-90370879D01*
X128726611Y-89549719D01*
X128727387Y-88660581D01*
X128387845Y-87838828D01*
X127759679Y-87209564D01*
X126938519Y-86868589D01*
X126049381Y-86867813D01*
X125227628Y-87207355D01*
X124598364Y-87835521D01*
X124257389Y-88656681D01*
X124256613Y-89545819D01*
X119915125Y-89545819D01*
X119915125Y-87569305D01*
X120300959Y-87751914D01*
X120523000Y-87630629D01*
X120523000Y-86487000D01*
X120777000Y-86487000D01*
X120777000Y-87630629D01*
X120999041Y-87751914D01*
X121505134Y-87512389D01*
X121881041Y-87097423D01*
X122041904Y-86709039D01*
X121919915Y-86487000D01*
X120777000Y-86487000D01*
X120523000Y-86487000D01*
X120503000Y-86487000D01*
X120503000Y-86233000D01*
X120523000Y-86233000D01*
X120523000Y-85089371D01*
X120777000Y-85089371D01*
X120777000Y-86233000D01*
X121919915Y-86233000D01*
X122041904Y-86010961D01*
X121881041Y-85622577D01*
X121505134Y-85207611D01*
X120999041Y-84968086D01*
X120777000Y-85089371D01*
X120523000Y-85089371D01*
X120300959Y-84968086D01*
X119915125Y-85150695D01*
X119915125Y-80780125D01*
X119836340Y-80384048D01*
X119836340Y-80384047D01*
X119746474Y-80249554D01*
X119611981Y-80048269D01*
X119611978Y-80048267D01*
X109316856Y-69753144D01*
X108981077Y-69528785D01*
X108585000Y-69449999D01*
X108584995Y-69450000D01*
X104140005Y-69450000D01*
X104140000Y-69449999D01*
X103743922Y-69528785D01*
X103609429Y-69618651D01*
X103408144Y-69753144D01*
X103408142Y-69753147D01*
X102138144Y-71023144D01*
X101913785Y-71358923D01*
X101834999Y-71755000D01*
X52177252Y-71755000D01*
X52177252Y-70323991D01*
X86114735Y-70323991D01*
X86347932Y-70888371D01*
X86779357Y-71320551D01*
X87343330Y-71554733D01*
X87953991Y-71555265D01*
X88518371Y-71322068D01*
X88950551Y-70890643D01*
X89184733Y-70326670D01*
X89184735Y-70323991D01*
X93714735Y-70323991D01*
X93947932Y-70888371D01*
X94379357Y-71320551D01*
X94943330Y-71554733D01*
X95553991Y-71555265D01*
X96118371Y-71322068D01*
X96550551Y-70890643D01*
X96784733Y-70326670D01*
X96785265Y-69716009D01*
X96552068Y-69151629D01*
X96120643Y-68719449D01*
X95556670Y-68485267D01*
X94946009Y-68484735D01*
X94381629Y-68717932D01*
X93949449Y-69149357D01*
X93715267Y-69713330D01*
X93714735Y-70323991D01*
X89184735Y-70323991D01*
X89185265Y-69716009D01*
X88952068Y-69151629D01*
X88520643Y-68719449D01*
X87956670Y-68485267D01*
X87346009Y-68484735D01*
X86781629Y-68717932D01*
X86349449Y-69149357D01*
X86115267Y-69713330D01*
X86114735Y-70323991D01*
X52177252Y-70323991D01*
X52177252Y-66520719D01*
X54279613Y-66520719D01*
X54619155Y-67342472D01*
X55247321Y-67971736D01*
X56068481Y-68312711D01*
X56957619Y-68313487D01*
X57779372Y-67973945D01*
X58408636Y-67345779D01*
X58745956Y-66533419D01*
X124256613Y-66533419D01*
X124596155Y-67355172D01*
X125224321Y-67984436D01*
X126045481Y-68325411D01*
X126934619Y-68326187D01*
X127756372Y-67986645D01*
X128385636Y-67358479D01*
X128726611Y-66537319D01*
X128727387Y-65648181D01*
X128387845Y-64826428D01*
X127759679Y-64197164D01*
X126938519Y-63856189D01*
X126049381Y-63855413D01*
X125227628Y-64194955D01*
X124598364Y-64823121D01*
X124257389Y-65644281D01*
X124256613Y-66533419D01*
X58745956Y-66533419D01*
X58749611Y-66524619D01*
X58750387Y-65635481D01*
X58410845Y-64813728D01*
X57782679Y-64184464D01*
X56961519Y-63843489D01*
X56072381Y-63842713D01*
X55250628Y-64182255D01*
X54621364Y-64810421D01*
X54280389Y-65631581D01*
X54279613Y-66520719D01*
X52177252Y-66520719D01*
X52177252Y-60614717D01*
X52518110Y-58901108D01*
X52575645Y-58815000D01*
X70867560Y-58815000D01*
X70867560Y-60565000D01*
X70911838Y-60800317D01*
X71050910Y-61016441D01*
X71263110Y-61161431D01*
X71515000Y-61212440D01*
X73265000Y-61212440D01*
X73500317Y-61168162D01*
X73716441Y-61029090D01*
X73861431Y-60816890D01*
X73864786Y-60800324D01*
X74033537Y-60969370D01*
X74588325Y-61199738D01*
X75189040Y-61200262D01*
X75744229Y-60970862D01*
X75990521Y-60725000D01*
X106457666Y-60725000D01*
X106471838Y-60800317D01*
X106610910Y-61016441D01*
X106823110Y-61161431D01*
X107075000Y-61212440D01*
X108825000Y-61212440D01*
X109060317Y-61168162D01*
X109276441Y-61029090D01*
X109421431Y-60816890D01*
X109424786Y-60800324D01*
X109593537Y-60969370D01*
X110148325Y-61199738D01*
X110749040Y-61200262D01*
X111304229Y-60970862D01*
X111729370Y-60546463D01*
X111959738Y-59991675D01*
X111960262Y-59390960D01*
X111730862Y-58835771D01*
X111306463Y-58410630D01*
X110751675Y-58180262D01*
X110150960Y-58179738D01*
X109595771Y-58409138D01*
X109426897Y-58577717D01*
X109289090Y-58363559D01*
X109076890Y-58218569D01*
X108825000Y-58167560D01*
X107075000Y-58167560D01*
X106839683Y-58211838D01*
X106623559Y-58350910D01*
X106478569Y-58563110D01*
X106459961Y-58655000D01*
X96784795Y-58655000D01*
X96785265Y-58116009D01*
X96552068Y-57551629D01*
X96120643Y-57119449D01*
X95556670Y-56885267D01*
X94946009Y-56884735D01*
X94381629Y-57117932D01*
X93949449Y-57549357D01*
X93715267Y-58113330D01*
X93714795Y-58655000D01*
X89197440Y-58655000D01*
X89197440Y-57520000D01*
X89153162Y-57284683D01*
X89014090Y-57068559D01*
X88801890Y-56923569D01*
X88550000Y-56872560D01*
X86750000Y-56872560D01*
X86514683Y-56916838D01*
X86298559Y-57055910D01*
X86153569Y-57268110D01*
X86102560Y-57520000D01*
X86102560Y-58655000D01*
X75990407Y-58655000D01*
X75746463Y-58410630D01*
X75191675Y-58180262D01*
X74590960Y-58179738D01*
X74035771Y-58409138D01*
X73866897Y-58577717D01*
X73729090Y-58363559D01*
X73516890Y-58218569D01*
X73265000Y-58167560D01*
X71515000Y-58167560D01*
X71279683Y-58211838D01*
X71063559Y-58350910D01*
X70918569Y-58563110D01*
X70867560Y-58815000D01*
X52575645Y-58815000D01*
X53450575Y-57505574D01*
X54846108Y-56573108D01*
X56559719Y-56232250D01*
X126424785Y-56232250D01*
X128138394Y-56573108D01*
X128138394Y-56573108D01*
G37*
X128138394Y-56573108D02*
X129533928Y-57505573D01*
X130466394Y-58901106D01*
X130807252Y-60614717D01*
X130807252Y-102123130D01*
X125638826Y-120295950D01*
X117121793Y-142059014D01*
X116179265Y-143529973D01*
X114801891Y-144489058D01*
X113098382Y-144862040D01*
X113076521Y-144862250D01*
X69970022Y-144862250D01*
X68256733Y-144520617D01*
X66861639Y-143587495D01*
X65893483Y-142137070D01*
X65885313Y-142116769D01*
X65440756Y-140980819D01*
X67665413Y-140980819D01*
X68004955Y-141802572D01*
X68633121Y-142431836D01*
X69454281Y-142772811D01*
X70343419Y-142773587D01*
X71165172Y-142434045D01*
X71794436Y-141805879D01*
X72135411Y-140984719D01*
X72136187Y-140095581D01*
X71796645Y-139273828D01*
X71168479Y-138644564D01*
X70347319Y-138303589D01*
X69458181Y-138302813D01*
X68636428Y-138642355D01*
X68007164Y-139270521D01*
X67666189Y-140091681D01*
X67665413Y-140980819D01*
X65440756Y-140980819D01*
X57345679Y-120295953D01*
X52177252Y-102123133D01*
X52177252Y-101357603D01*
X53762002Y-101357603D01*
X53762002Y-101582109D01*
X54250302Y-102070409D01*
X54483691Y-102167082D01*
X54736310Y-102167081D01*
X54910784Y-102094811D01*
X54900478Y-102146623D01*
X55013518Y-102714908D01*
X55335425Y-103196677D01*
X55817194Y-103518584D01*
X56385479Y-103631624D01*
X56773765Y-103554388D01*
X56696529Y-103942674D01*
X56809569Y-104510959D01*
X57131476Y-104992728D01*
X57613245Y-105314635D01*
X58181530Y-105427675D01*
X58569817Y-105350439D01*
X58492581Y-105738726D01*
X58605621Y-106307011D01*
X58927528Y-106788780D01*
X59409297Y-107110687D01*
X59977582Y-107223727D01*
X60365868Y-107146491D01*
X60288632Y-107534777D01*
X60401672Y-108103062D01*
X60723579Y-108584831D01*
X61205348Y-108906738D01*
X61773633Y-109019778D01*
X62161919Y-108942542D01*
X62084683Y-109330828D01*
X62197723Y-109899113D01*
X62519630Y-110380882D01*
X62705300Y-110504942D01*
X62705300Y-123448429D01*
X62705299Y-123448434D01*
X62761490Y-123730918D01*
X62772667Y-123787109D01*
X62932207Y-124025879D01*
X62964510Y-124074224D01*
X76714174Y-137823887D01*
X76714176Y-137823890D01*
X77000192Y-138014999D01*
X77001291Y-138015733D01*
X77339966Y-138083101D01*
X77339971Y-138083100D01*
X93941895Y-138083100D01*
X93941900Y-138083101D01*
X94224384Y-138026910D01*
X94280575Y-138015733D01*
X94567690Y-137823890D01*
X94567691Y-137823889D01*
X95031040Y-137360539D01*
X95209217Y-137395981D01*
X93711408Y-138893790D01*
X93345000Y-138820907D01*
X92776715Y-138933946D01*
X92294946Y-139255853D01*
X92075000Y-139585026D01*
X91855054Y-139255853D01*
X91373285Y-138933946D01*
X90805000Y-138820907D01*
X90236715Y-138933946D01*
X89754946Y-139255853D01*
X89535000Y-139585026D01*
X89315054Y-139255853D01*
X88833285Y-138933946D01*
X88265000Y-138820907D01*
X87696715Y-138933946D01*
X87214946Y-139255853D01*
X86995000Y-139585026D01*
X86775054Y-139255853D01*
X86293285Y-138933946D01*
X85725000Y-138820907D01*
X85156715Y-138933946D01*
X84674946Y-139255853D01*
X84455000Y-139585026D01*
X84235054Y-139255853D01*
X83753285Y-138933946D01*
X83185000Y-138820907D01*
X82616715Y-138933946D01*
X82134946Y-139255853D01*
X81915000Y-139585026D01*
X81695054Y-139255853D01*
X81213285Y-138933946D01*
X80645000Y-138820907D01*
X80076715Y-138933946D01*
X79594946Y-139255853D01*
X79375000Y-139585026D01*
X79155054Y-139255853D01*
X78673285Y-138933946D01*
X78105000Y-138820907D01*
X77536715Y-138933946D01*
X77054946Y-139255853D01*
X76733039Y-139737622D01*
X76620000Y-140305907D01*
X76620000Y-140364093D01*
X76733039Y-140932378D01*
X77054946Y-141414147D01*
X77536715Y-141736054D01*
X78105000Y-141849093D01*
X78673285Y-141736054D01*
X79155054Y-141414147D01*
X79375000Y-141084974D01*
X79594946Y-141414147D01*
X80076715Y-141736054D01*
X80645000Y-141849093D01*
X81213285Y-141736054D01*
X81695054Y-141414147D01*
X81915000Y-141084974D01*
X82134946Y-141414147D01*
X82616715Y-141736054D01*
X83185000Y-141849093D01*
X83753285Y-141736054D01*
X84235054Y-141414147D01*
X84455000Y-141084974D01*
X84674946Y-141414147D01*
X85156715Y-141736054D01*
X85725000Y-141849093D01*
X85943960Y-141805539D01*
X85949207Y-141810786D01*
X85949209Y-141810789D01*
X86421108Y-142282687D01*
X86421110Y-142282690D01*
X86708225Y-142474533D01*
X86764416Y-142485710D01*
X87046900Y-142541901D01*
X87046905Y-142541900D01*
X104522795Y-142541900D01*
X104522800Y-142541901D01*
X104805284Y-142485710D01*
X104861475Y-142474533D01*
X105148590Y-142282690D01*
X106412360Y-141018919D01*
X110870813Y-141018919D01*
X111210355Y-141840672D01*
X111838521Y-142469936D01*
X112659681Y-142810911D01*
X113548819Y-142811687D01*
X114370572Y-142472145D01*
X114999836Y-141843979D01*
X115340811Y-141022819D01*
X115341587Y-140133681D01*
X115002045Y-139311928D01*
X114373879Y-138682664D01*
X113552719Y-138341689D01*
X112663581Y-138340913D01*
X111841828Y-138680455D01*
X111212564Y-139308621D01*
X110871589Y-140129781D01*
X110870813Y-141018919D01*
X106412360Y-141018919D01*
X109939987Y-137491292D01*
X109939990Y-137491290D01*
X110131833Y-137204175D01*
X110152615Y-137099698D01*
X110199201Y-136865500D01*
X110199200Y-136865495D01*
X110199200Y-123200819D01*
X110858113Y-123200819D01*
X111197655Y-124022572D01*
X111825821Y-124651836D01*
X112646981Y-124992811D01*
X113536119Y-124993587D01*
X114357872Y-124654045D01*
X114987136Y-124025879D01*
X115328111Y-123204719D01*
X115328887Y-122315581D01*
X114989345Y-121493828D01*
X114361179Y-120864564D01*
X113540019Y-120523589D01*
X112650881Y-120522813D01*
X111829128Y-120862355D01*
X111199864Y-121490521D01*
X110858889Y-122311681D01*
X110858113Y-123200819D01*
X110199200Y-123200819D01*
X110199200Y-112845920D01*
X112393406Y-112845920D01*
X112684245Y-112788068D01*
X112930807Y-112623321D01*
X113095554Y-112376759D01*
X113153406Y-112085920D01*
X113153406Y-111517603D01*
X117262002Y-111517603D01*
X117262002Y-111742109D01*
X117750301Y-112230408D01*
X117983690Y-112327081D01*
X118236309Y-112327082D01*
X118469698Y-112230409D01*
X118957998Y-111742109D01*
X118957998Y-111517603D01*
X118110000Y-110669605D01*
X117262002Y-111517603D01*
X113153406Y-111517603D01*
X113153406Y-111441615D01*
X113250926Y-111441700D01*
X113668237Y-111269270D01*
X113987796Y-110950268D01*
X114088416Y-110707949D01*
X114258003Y-110538362D01*
X114258006Y-110538360D01*
X114432674Y-110363691D01*
X116272918Y-110363691D01*
X116272919Y-110616310D01*
X116369592Y-110849699D01*
X116857891Y-111337998D01*
X117082397Y-111337998D01*
X117930395Y-110490000D01*
X117082397Y-109642002D01*
X116857891Y-109642002D01*
X116369591Y-110130302D01*
X116272918Y-110363691D01*
X114432674Y-110363691D01*
X115191973Y-109604392D01*
X115191976Y-109604390D01*
X115416335Y-109268611D01*
X115422445Y-109237891D01*
X117262002Y-109237891D01*
X117262002Y-109462397D01*
X118110000Y-110310395D01*
X118124143Y-110296253D01*
X118303748Y-110475858D01*
X118289605Y-110490000D01*
X119137603Y-111337998D01*
X119362109Y-111337998D01*
X119850409Y-110849698D01*
X119947082Y-110616309D01*
X119947081Y-110363690D01*
X119874811Y-110189215D01*
X119926623Y-110199521D01*
X120494907Y-110086482D01*
X120976676Y-109764574D01*
X121298584Y-109282805D01*
X121411623Y-108714521D01*
X121334388Y-108326235D01*
X121722674Y-108403470D01*
X122290958Y-108290431D01*
X122772727Y-107968523D01*
X123094635Y-107486754D01*
X123207674Y-106918470D01*
X123130439Y-106530183D01*
X123518726Y-106607418D01*
X124087010Y-106494379D01*
X124568779Y-106172471D01*
X124890687Y-105690702D01*
X125003726Y-105122418D01*
X124926491Y-104734132D01*
X125314777Y-104811367D01*
X125883061Y-104698328D01*
X126364830Y-104376420D01*
X126686738Y-103894651D01*
X126799777Y-103326367D01*
X126722542Y-102938081D01*
X127110828Y-103015316D01*
X127679112Y-102902277D01*
X128160881Y-102580369D01*
X128482789Y-102098600D01*
X128595828Y-101530316D01*
X128518593Y-101142030D01*
X128906879Y-101219265D01*
X129475163Y-101106226D01*
X129956932Y-100784318D01*
X130278840Y-100302549D01*
X130391879Y-99734265D01*
X130278840Y-99165980D01*
X129956932Y-98684211D01*
X129915789Y-98643067D01*
X129434020Y-98321160D01*
X128865735Y-98208120D01*
X128297450Y-98321160D01*
X127815681Y-98643067D01*
X127493774Y-99124836D01*
X127380734Y-99693121D01*
X127457970Y-100081407D01*
X127069684Y-100004171D01*
X126501399Y-100117211D01*
X126019630Y-100439118D01*
X125697723Y-100920887D01*
X125584683Y-101489172D01*
X125661919Y-101877458D01*
X125273633Y-101800222D01*
X124705348Y-101913262D01*
X124223579Y-102235169D01*
X123901672Y-102716938D01*
X123788632Y-103285223D01*
X123865868Y-103673509D01*
X123477582Y-103596273D01*
X122909297Y-103709313D01*
X122427528Y-104031220D01*
X122105621Y-104512989D01*
X121992581Y-105081274D01*
X122069817Y-105469561D01*
X121681530Y-105392325D01*
X121113245Y-105505365D01*
X120631476Y-105827272D01*
X120309569Y-106309041D01*
X120196529Y-106877326D01*
X120273765Y-107265612D01*
X119885479Y-107188376D01*
X119317194Y-107301416D01*
X118835425Y-107623323D01*
X118513518Y-108105092D01*
X118400478Y-108673377D01*
X118410784Y-108725189D01*
X118236310Y-108652919D01*
X117983691Y-108652918D01*
X117750302Y-108749591D01*
X117262002Y-109237891D01*
X115422445Y-109237891D01*
X115426004Y-109220000D01*
X115495121Y-108872534D01*
X115495120Y-108872529D01*
X115495120Y-84562336D01*
X115495121Y-84562331D01*
X115416335Y-84166254D01*
X115191976Y-83830475D01*
X113225587Y-81864086D01*
X112889808Y-81639727D01*
X112493731Y-81560941D01*
X112493726Y-81560942D01*
X107496579Y-81560942D01*
X98863782Y-72928144D01*
X98528003Y-72703785D01*
X98131926Y-72624999D01*
X98131921Y-72625000D01*
X77662630Y-72625000D01*
X77653162Y-72574683D01*
X77514090Y-72358559D01*
X77301890Y-72213569D01*
X77050000Y-72162560D01*
X75350000Y-72162560D01*
X75114683Y-72206838D01*
X74898559Y-72345910D01*
X74753569Y-72558110D01*
X74702560Y-72810000D01*
X74702560Y-74510000D01*
X74746838Y-74745317D01*
X74885910Y-74961441D01*
X75098110Y-75106431D01*
X75165541Y-75120086D01*
X75120853Y-75149946D01*
X74798946Y-75631715D01*
X74685907Y-76200000D01*
X74798946Y-76768285D01*
X75120853Y-77250054D01*
X75602622Y-77571961D01*
X76170907Y-77685000D01*
X76229093Y-77685000D01*
X76797378Y-77571961D01*
X77279147Y-77250054D01*
X77289206Y-77235000D01*
X95810546Y-77235000D01*
X107217416Y-88641869D01*
X106970254Y-88807017D01*
X106680000Y-89241412D01*
X106389746Y-88807017D01*
X105940235Y-88506663D01*
X105410000Y-88401193D01*
X104879765Y-88506663D01*
X104430254Y-88807017D01*
X104140000Y-89241412D01*
X103849746Y-88807017D01*
X103400235Y-88506663D01*
X102870000Y-88401193D01*
X102339765Y-88506663D01*
X101890254Y-88807017D01*
X101600000Y-89241412D01*
X101309746Y-88807017D01*
X100860235Y-88506663D01*
X100330000Y-88401193D01*
X99799765Y-88506663D01*
X99350254Y-88807017D01*
X99060000Y-89241412D01*
X98769746Y-88807017D01*
X98320235Y-88506663D01*
X97790000Y-88401193D01*
X97259765Y-88506663D01*
X96810254Y-88807017D01*
X96520000Y-89241412D01*
X96229746Y-88807017D01*
X95780235Y-88506663D01*
X95250000Y-88401193D01*
X94719765Y-88506663D01*
X94270254Y-88807017D01*
X93980000Y-89241412D01*
X93689746Y-88807017D01*
X93240235Y-88506663D01*
X92710000Y-88401193D01*
X92569892Y-88429062D01*
X92085220Y-87944390D01*
X91870213Y-87800728D01*
X91798105Y-87752547D01*
X91741914Y-87741370D01*
X91459430Y-87685179D01*
X91459425Y-87685180D01*
X75135881Y-87685180D01*
X75135876Y-87685179D01*
X74797202Y-87752546D01*
X74701930Y-87816205D01*
X74510086Y-87944390D01*
X74510084Y-87944393D01*
X73049445Y-89405031D01*
X72916730Y-89272085D01*
X72499721Y-89098927D01*
X72048190Y-89098533D01*
X71630879Y-89270963D01*
X71311320Y-89589965D01*
X71210700Y-89832283D01*
X71111330Y-89931653D01*
X70886971Y-90267432D01*
X70808185Y-90663509D01*
X70808186Y-90663514D01*
X70808186Y-108764417D01*
X70808185Y-108764422D01*
X70886971Y-109160499D01*
X71111330Y-109496278D01*
X71281035Y-109665983D01*
X71380418Y-109906507D01*
X71699420Y-110226066D01*
X72116429Y-110399224D01*
X72567960Y-110399618D01*
X72985271Y-110227188D01*
X73304830Y-109908186D01*
X73340269Y-109822840D01*
X75489038Y-111971608D01*
X75489038Y-118458103D01*
X75439200Y-118578126D01*
X75438876Y-118950092D01*
X75580921Y-119293868D01*
X75843711Y-119557117D01*
X76187239Y-119699763D01*
X76559205Y-119700087D01*
X76902981Y-119558042D01*
X77166230Y-119295252D01*
X77308876Y-118951724D01*
X77309200Y-118579758D01*
X77259038Y-118458356D01*
X77259038Y-111605034D01*
X77259039Y-111605029D01*
X77191671Y-111266355D01*
X77191671Y-111266354D01*
X76999828Y-110979239D01*
X76999825Y-110979237D01*
X74060386Y-108039797D01*
X74060386Y-90897250D01*
X75502455Y-89455180D01*
X78690386Y-89455180D01*
X78624430Y-89786763D01*
X78624430Y-90553237D01*
X78729900Y-91083472D01*
X79030254Y-91532983D01*
X79479765Y-91833337D01*
X80010000Y-91938807D01*
X80540235Y-91833337D01*
X80989746Y-91532983D01*
X81280000Y-91098588D01*
X81570254Y-91532983D01*
X81631677Y-91574025D01*
X81631677Y-100746772D01*
X81631676Y-100746777D01*
X81674494Y-100962031D01*
X81699044Y-101085452D01*
X81842291Y-101299838D01*
X81890887Y-101372567D01*
X84383057Y-103864736D01*
X84110254Y-104047017D01*
X83820000Y-104481412D01*
X83529746Y-104047017D01*
X83080235Y-103746663D01*
X82550000Y-103641193D01*
X82019765Y-103746663D01*
X81570254Y-104047017D01*
X81280000Y-104481412D01*
X80989746Y-104047017D01*
X80540235Y-103746663D01*
X80010000Y-103641193D01*
X79694000Y-103704049D01*
X79694000Y-97493522D01*
X79743838Y-97373499D01*
X79744162Y-97001533D01*
X79602117Y-96657757D01*
X79339327Y-96394508D01*
X78995799Y-96251862D01*
X78623833Y-96251538D01*
X78280057Y-96393583D01*
X78016808Y-96656373D01*
X77874162Y-96999901D01*
X77873838Y-97371867D01*
X77924000Y-97493269D01*
X77924000Y-106748995D01*
X77923999Y-106749000D01*
X77976879Y-107014838D01*
X77991367Y-107087675D01*
X78137965Y-107307075D01*
X78183210Y-107374790D01*
X83693126Y-112884705D01*
X83692758Y-113306661D01*
X83904990Y-113820303D01*
X84297630Y-114213629D01*
X84505512Y-114299949D01*
X84299697Y-114384990D01*
X83906371Y-114777630D01*
X83693243Y-115290900D01*
X83692758Y-115846661D01*
X83904990Y-116360303D01*
X84297630Y-116753629D01*
X84505512Y-116839949D01*
X84299697Y-116924990D01*
X83906371Y-117317630D01*
X83693243Y-117830900D01*
X83692758Y-118386661D01*
X83904990Y-118900303D01*
X84297630Y-119293629D01*
X84505512Y-119379949D01*
X84299697Y-119464990D01*
X83906371Y-119857630D01*
X83693243Y-120370900D01*
X83692758Y-120926661D01*
X83904990Y-121440303D01*
X84297630Y-121833629D01*
X84505512Y-121919949D01*
X84299697Y-122004990D01*
X83906371Y-122397630D01*
X83693243Y-122910900D01*
X83692758Y-123466661D01*
X83904990Y-123980303D01*
X84297630Y-124373629D01*
X84505512Y-124459949D01*
X84299697Y-124544990D01*
X83906371Y-124937630D01*
X83693243Y-125450900D01*
X83692758Y-126006661D01*
X83706143Y-126039055D01*
X83282599Y-126462599D01*
X83117852Y-126709161D01*
X83060000Y-127000000D01*
X83060000Y-133985000D01*
X83117852Y-134275839D01*
X83204154Y-134405000D01*
X82835750Y-134405000D01*
X82677000Y-134563750D01*
X82677000Y-135763000D01*
X82697000Y-135763000D01*
X82697000Y-136017000D01*
X82677000Y-136017000D01*
X82677000Y-136037000D01*
X82423000Y-136037000D01*
X82423000Y-136017000D01*
X81223750Y-136017000D01*
X81065000Y-136175750D01*
X81065000Y-136313100D01*
X77706545Y-136313100D01*
X76307137Y-134913691D01*
X81065000Y-134913691D01*
X81065000Y-135604250D01*
X81223750Y-135763000D01*
X82423000Y-135763000D01*
X82423000Y-134563750D01*
X82264250Y-134405000D01*
X81573690Y-134405000D01*
X81340301Y-134501673D01*
X81161673Y-134680302D01*
X81065000Y-134913691D01*
X76307137Y-134913691D01*
X64606965Y-123213519D01*
X67678113Y-123213519D01*
X68017655Y-124035272D01*
X68645821Y-124664536D01*
X69466981Y-125005511D01*
X70356119Y-125006287D01*
X71177872Y-124666745D01*
X71807136Y-124038579D01*
X72148111Y-123217419D01*
X72148887Y-122328281D01*
X71809345Y-121506528D01*
X71181179Y-120877264D01*
X70360019Y-120536289D01*
X69470881Y-120535513D01*
X68649128Y-120875055D01*
X68019864Y-121503221D01*
X67678889Y-122324381D01*
X67678113Y-123213519D01*
X64606965Y-123213519D01*
X64475300Y-123081854D01*
X64475300Y-112283587D01*
X64797450Y-112498840D01*
X65365735Y-112611880D01*
X65934020Y-112498840D01*
X66415789Y-112176933D01*
X66456932Y-112135789D01*
X66778840Y-111654020D01*
X66891879Y-111085735D01*
X66778840Y-110517451D01*
X66456932Y-110035682D01*
X65975163Y-109713774D01*
X65406879Y-109600735D01*
X65018593Y-109677970D01*
X65095828Y-109289684D01*
X64982789Y-108721400D01*
X64660881Y-108239631D01*
X64179112Y-107917723D01*
X63610828Y-107804684D01*
X63222542Y-107881919D01*
X63299777Y-107493633D01*
X63186738Y-106925349D01*
X62864830Y-106443580D01*
X62383061Y-106121672D01*
X61814777Y-106008633D01*
X61426491Y-106085868D01*
X61503726Y-105697582D01*
X61390687Y-105129298D01*
X61068779Y-104647529D01*
X60587010Y-104325621D01*
X60018726Y-104212582D01*
X59630439Y-104289817D01*
X59707674Y-103901530D01*
X59594635Y-103333246D01*
X59272727Y-102851477D01*
X58790958Y-102529569D01*
X58222674Y-102416530D01*
X57834388Y-102493765D01*
X57911623Y-102105479D01*
X57798584Y-101537195D01*
X57476676Y-101055426D01*
X56994907Y-100733518D01*
X56426623Y-100620479D01*
X56374811Y-100630785D01*
X56447081Y-100456310D01*
X56447082Y-100203691D01*
X56350409Y-99970302D01*
X55862109Y-99482002D01*
X55637603Y-99482002D01*
X54789605Y-100330000D01*
X54803748Y-100344143D01*
X54624143Y-100523748D01*
X54610000Y-100509605D01*
X53762002Y-101357603D01*
X52177252Y-101357603D01*
X52177252Y-100456309D01*
X52772918Y-100456309D01*
X52869591Y-100689698D01*
X53357891Y-101177998D01*
X53582397Y-101177998D01*
X54430395Y-100330000D01*
X53582397Y-99482002D01*
X53357891Y-99482002D01*
X52869592Y-99970301D01*
X52772919Y-100203690D01*
X52772918Y-100456309D01*
X52177252Y-100456309D01*
X52177252Y-99077891D01*
X53762002Y-99077891D01*
X53762002Y-99302397D01*
X54610000Y-100150395D01*
X55457998Y-99302397D01*
X55457998Y-99077891D01*
X54969698Y-98589591D01*
X54736309Y-98492918D01*
X54483690Y-98492919D01*
X54250301Y-98589592D01*
X53762002Y-99077891D01*
X52177252Y-99077891D01*
X52177252Y-89507719D01*
X54266913Y-89507719D01*
X54606455Y-90329472D01*
X55234621Y-90958736D01*
X56055781Y-91299711D01*
X56944919Y-91300487D01*
X57766672Y-90960945D01*
X58395936Y-90332779D01*
X58736911Y-89511619D01*
X58737687Y-88622481D01*
X58398145Y-87800728D01*
X57769979Y-87171464D01*
X56948819Y-86830489D01*
X56059681Y-86829713D01*
X55237928Y-87169255D01*
X54608664Y-87797421D01*
X54267689Y-88618581D01*
X54266913Y-89507719D01*
X52177252Y-89507719D01*
X52177252Y-71755000D01*
X101834999Y-71755000D01*
X101835000Y-71755005D01*
X101835000Y-73592076D01*
X101834999Y-73592081D01*
X101913785Y-73988158D01*
X102138144Y-74323937D01*
X104746061Y-76931853D01*
X104746063Y-76931856D01*
X104947348Y-77066349D01*
X105081841Y-77156215D01*
X105477919Y-77235000D01*
X105590794Y-77235000D01*
X105600853Y-77250054D01*
X106082622Y-77571961D01*
X106650907Y-77685000D01*
X106709093Y-77685000D01*
X107277378Y-77571961D01*
X107759147Y-77250054D01*
X108081054Y-76768285D01*
X108194093Y-76200000D01*
X108081054Y-75631715D01*
X107759147Y-75149946D01*
X107717548Y-75122150D01*
X107765317Y-75113162D01*
X107981441Y-74974090D01*
X108062193Y-74855905D01*
X116600305Y-83394016D01*
X116600305Y-103649657D01*
X116537532Y-103712430D01*
X116537530Y-103712433D01*
X116367828Y-103882135D01*
X116127303Y-103981518D01*
X115807744Y-104300520D01*
X115634586Y-104717529D01*
X115634192Y-105169060D01*
X115806622Y-105586371D01*
X116125624Y-105905930D01*
X116542633Y-106079088D01*
X116994164Y-106079482D01*
X117394356Y-105914126D01*
X117417359Y-105969798D01*
X117736361Y-106289357D01*
X118153370Y-106462515D01*
X118604901Y-106462909D01*
X119022212Y-106290479D01*
X119341771Y-105971477D01*
X119442391Y-105729158D01*
X119611978Y-105559571D01*
X119611981Y-105559569D01*
X119775640Y-105314635D01*
X119836340Y-105223791D01*
X119915125Y-104827713D01*
X119915125Y-97729305D01*
X120300959Y-97911914D01*
X120523000Y-97790629D01*
X120523000Y-96647000D01*
X120777000Y-96647000D01*
X120777000Y-97790629D01*
X120999041Y-97911914D01*
X121505134Y-97672389D01*
X121881041Y-97257423D01*
X122041904Y-96869039D01*
X121919915Y-96647000D01*
X120777000Y-96647000D01*
X120523000Y-96647000D01*
X120503000Y-96647000D01*
X120503000Y-96393000D01*
X120523000Y-96393000D01*
X120523000Y-95249371D01*
X120777000Y-95249371D01*
X120777000Y-96393000D01*
X121919915Y-96393000D01*
X122041904Y-96170961D01*
X121881041Y-95782577D01*
X121505134Y-95367611D01*
X120999041Y-95128086D01*
X120777000Y-95249371D01*
X120523000Y-95249371D01*
X120300959Y-95128086D01*
X119915125Y-95310695D01*
X119915125Y-92660455D01*
X120072736Y-92765767D01*
X120621887Y-92875000D01*
X120678113Y-92875000D01*
X121227264Y-92765767D01*
X121692811Y-92454698D01*
X122003880Y-91989151D01*
X122113113Y-91440000D01*
X122003880Y-90890849D01*
X121692811Y-90425302D01*
X121227264Y-90114233D01*
X120678113Y-90005000D01*
X120621887Y-90005000D01*
X120072736Y-90114233D01*
X119915125Y-90219545D01*
X119915125Y-89545819D01*
X124256613Y-89545819D01*
X124596155Y-90367572D01*
X125224321Y-90996836D01*
X126045481Y-91337811D01*
X126934619Y-91338587D01*
X127756372Y-90999045D01*
X128385636Y-90370879D01*
X128726611Y-89549719D01*
X128727387Y-88660581D01*
X128387845Y-87838828D01*
X127759679Y-87209564D01*
X126938519Y-86868589D01*
X126049381Y-86867813D01*
X125227628Y-87207355D01*
X124598364Y-87835521D01*
X124257389Y-88656681D01*
X124256613Y-89545819D01*
X119915125Y-89545819D01*
X119915125Y-87569305D01*
X120300959Y-87751914D01*
X120523000Y-87630629D01*
X120523000Y-86487000D01*
X120777000Y-86487000D01*
X120777000Y-87630629D01*
X120999041Y-87751914D01*
X121505134Y-87512389D01*
X121881041Y-87097423D01*
X122041904Y-86709039D01*
X121919915Y-86487000D01*
X120777000Y-86487000D01*
X120523000Y-86487000D01*
X120503000Y-86487000D01*
X120503000Y-86233000D01*
X120523000Y-86233000D01*
X120523000Y-85089371D01*
X120777000Y-85089371D01*
X120777000Y-86233000D01*
X121919915Y-86233000D01*
X122041904Y-86010961D01*
X121881041Y-85622577D01*
X121505134Y-85207611D01*
X120999041Y-84968086D01*
X120777000Y-85089371D01*
X120523000Y-85089371D01*
X120300959Y-84968086D01*
X119915125Y-85150695D01*
X119915125Y-80780125D01*
X119836340Y-80384048D01*
X119836340Y-80384047D01*
X119746474Y-80249554D01*
X119611981Y-80048269D01*
X119611978Y-80048267D01*
X109316856Y-69753144D01*
X108981077Y-69528785D01*
X108585000Y-69449999D01*
X108584995Y-69450000D01*
X104140005Y-69450000D01*
X104140000Y-69449999D01*
X103743922Y-69528785D01*
X103609429Y-69618651D01*
X103408144Y-69753144D01*
X103408142Y-69753147D01*
X102138144Y-71023144D01*
X101913785Y-71358923D01*
X101834999Y-71755000D01*
X52177252Y-71755000D01*
X52177252Y-70323991D01*
X86114735Y-70323991D01*
X86347932Y-70888371D01*
X86779357Y-71320551D01*
X87343330Y-71554733D01*
X87953991Y-71555265D01*
X88518371Y-71322068D01*
X88950551Y-70890643D01*
X89184733Y-70326670D01*
X89184735Y-70323991D01*
X93714735Y-70323991D01*
X93947932Y-70888371D01*
X94379357Y-71320551D01*
X94943330Y-71554733D01*
X95553991Y-71555265D01*
X96118371Y-71322068D01*
X96550551Y-70890643D01*
X96784733Y-70326670D01*
X96785265Y-69716009D01*
X96552068Y-69151629D01*
X96120643Y-68719449D01*
X95556670Y-68485267D01*
X94946009Y-68484735D01*
X94381629Y-68717932D01*
X93949449Y-69149357D01*
X93715267Y-69713330D01*
X93714735Y-70323991D01*
X89184735Y-70323991D01*
X89185265Y-69716009D01*
X88952068Y-69151629D01*
X88520643Y-68719449D01*
X87956670Y-68485267D01*
X87346009Y-68484735D01*
X86781629Y-68717932D01*
X86349449Y-69149357D01*
X86115267Y-69713330D01*
X86114735Y-70323991D01*
X52177252Y-70323991D01*
X52177252Y-66520719D01*
X54279613Y-66520719D01*
X54619155Y-67342472D01*
X55247321Y-67971736D01*
X56068481Y-68312711D01*
X56957619Y-68313487D01*
X57779372Y-67973945D01*
X58408636Y-67345779D01*
X58745956Y-66533419D01*
X124256613Y-66533419D01*
X124596155Y-67355172D01*
X125224321Y-67984436D01*
X126045481Y-68325411D01*
X126934619Y-68326187D01*
X127756372Y-67986645D01*
X128385636Y-67358479D01*
X128726611Y-66537319D01*
X128727387Y-65648181D01*
X128387845Y-64826428D01*
X127759679Y-64197164D01*
X126938519Y-63856189D01*
X126049381Y-63855413D01*
X125227628Y-64194955D01*
X124598364Y-64823121D01*
X124257389Y-65644281D01*
X124256613Y-66533419D01*
X58745956Y-66533419D01*
X58749611Y-66524619D01*
X58750387Y-65635481D01*
X58410845Y-64813728D01*
X57782679Y-64184464D01*
X56961519Y-63843489D01*
X56072381Y-63842713D01*
X55250628Y-64182255D01*
X54621364Y-64810421D01*
X54280389Y-65631581D01*
X54279613Y-66520719D01*
X52177252Y-66520719D01*
X52177252Y-60614717D01*
X52518110Y-58901108D01*
X52575645Y-58815000D01*
X70867560Y-58815000D01*
X70867560Y-60565000D01*
X70911838Y-60800317D01*
X71050910Y-61016441D01*
X71263110Y-61161431D01*
X71515000Y-61212440D01*
X73265000Y-61212440D01*
X73500317Y-61168162D01*
X73716441Y-61029090D01*
X73861431Y-60816890D01*
X73864786Y-60800324D01*
X74033537Y-60969370D01*
X74588325Y-61199738D01*
X75189040Y-61200262D01*
X75744229Y-60970862D01*
X75990521Y-60725000D01*
X106457666Y-60725000D01*
X106471838Y-60800317D01*
X106610910Y-61016441D01*
X106823110Y-61161431D01*
X107075000Y-61212440D01*
X108825000Y-61212440D01*
X109060317Y-61168162D01*
X109276441Y-61029090D01*
X109421431Y-60816890D01*
X109424786Y-60800324D01*
X109593537Y-60969370D01*
X110148325Y-61199738D01*
X110749040Y-61200262D01*
X111304229Y-60970862D01*
X111729370Y-60546463D01*
X111959738Y-59991675D01*
X111960262Y-59390960D01*
X111730862Y-58835771D01*
X111306463Y-58410630D01*
X110751675Y-58180262D01*
X110150960Y-58179738D01*
X109595771Y-58409138D01*
X109426897Y-58577717D01*
X109289090Y-58363559D01*
X109076890Y-58218569D01*
X108825000Y-58167560D01*
X107075000Y-58167560D01*
X106839683Y-58211838D01*
X106623559Y-58350910D01*
X106478569Y-58563110D01*
X106459961Y-58655000D01*
X96784795Y-58655000D01*
X96785265Y-58116009D01*
X96552068Y-57551629D01*
X96120643Y-57119449D01*
X95556670Y-56885267D01*
X94946009Y-56884735D01*
X94381629Y-57117932D01*
X93949449Y-57549357D01*
X93715267Y-58113330D01*
X93714795Y-58655000D01*
X89197440Y-58655000D01*
X89197440Y-57520000D01*
X89153162Y-57284683D01*
X89014090Y-57068559D01*
X88801890Y-56923569D01*
X88550000Y-56872560D01*
X86750000Y-56872560D01*
X86514683Y-56916838D01*
X86298559Y-57055910D01*
X86153569Y-57268110D01*
X86102560Y-57520000D01*
X86102560Y-58655000D01*
X75990407Y-58655000D01*
X75746463Y-58410630D01*
X75191675Y-58180262D01*
X74590960Y-58179738D01*
X74035771Y-58409138D01*
X73866897Y-58577717D01*
X73729090Y-58363559D01*
X73516890Y-58218569D01*
X73265000Y-58167560D01*
X71515000Y-58167560D01*
X71279683Y-58211838D01*
X71063559Y-58350910D01*
X70918569Y-58563110D01*
X70867560Y-58815000D01*
X52575645Y-58815000D01*
X53450575Y-57505574D01*
X54846108Y-56573108D01*
X56559719Y-56232250D01*
X126424785Y-56232250D01*
X128138394Y-56573108D01*
G36*
X105410000Y-107178807D02*
X105795000Y-107102226D01*
X105795000Y-107864724D01*
X105718355Y-107941235D01*
X105545197Y-108358244D01*
X105544803Y-108809775D01*
X105717233Y-109227086D01*
X105795000Y-109304989D01*
X105795000Y-135443421D01*
X102879210Y-138359210D01*
X102687367Y-138646325D01*
X102687367Y-138646326D01*
X102649107Y-138838669D01*
X102419683Y-138881838D01*
X102203559Y-139020910D01*
X102058569Y-139233110D01*
X102036699Y-139341107D01*
X101731924Y-139063355D01*
X101321890Y-138893524D01*
X101092000Y-139014845D01*
X101092000Y-140208000D01*
X101112000Y-140208000D01*
X101112000Y-140462000D01*
X101092000Y-140462000D01*
X101092000Y-140482000D01*
X100838000Y-140482000D01*
X100838000Y-140462000D01*
X100818000Y-140462000D01*
X100818000Y-140208000D01*
X100838000Y-140208000D01*
X100838000Y-139014845D01*
X100608110Y-138893524D01*
X100198076Y-139063355D01*
X99769817Y-139453642D01*
X99702702Y-139596553D01*
X99546460Y-139362720D01*
X104698187Y-134210992D01*
X104698190Y-134210990D01*
X104890033Y-133923875D01*
X104901210Y-133867684D01*
X104957401Y-133585200D01*
X104957400Y-133585195D01*
X104957400Y-107088780D01*
X105410000Y-107178807D01*
X105410000Y-107178807D01*
G37*
X105410000Y-107178807D02*
X105795000Y-107102226D01*
X105795000Y-107864724D01*
X105718355Y-107941235D01*
X105545197Y-108358244D01*
X105544803Y-108809775D01*
X105717233Y-109227086D01*
X105795000Y-109304989D01*
X105795000Y-135443421D01*
X102879210Y-138359210D01*
X102687367Y-138646325D01*
X102687367Y-138646326D01*
X102649107Y-138838669D01*
X102419683Y-138881838D01*
X102203559Y-139020910D01*
X102058569Y-139233110D01*
X102036699Y-139341107D01*
X101731924Y-139063355D01*
X101321890Y-138893524D01*
X101092000Y-139014845D01*
X101092000Y-140208000D01*
X101112000Y-140208000D01*
X101112000Y-140462000D01*
X101092000Y-140462000D01*
X101092000Y-140482000D01*
X100838000Y-140482000D01*
X100838000Y-140462000D01*
X100818000Y-140462000D01*
X100818000Y-140208000D01*
X100838000Y-140208000D01*
X100838000Y-139014845D01*
X100608110Y-138893524D01*
X100198076Y-139063355D01*
X99769817Y-139453642D01*
X99702702Y-139596553D01*
X99546460Y-139362720D01*
X104698187Y-134210992D01*
X104698190Y-134210990D01*
X104890033Y-133923875D01*
X104901210Y-133867684D01*
X104957401Y-133585200D01*
X104957400Y-133585195D01*
X104957400Y-107088780D01*
X105410000Y-107178807D01*
G36*
X96810254Y-106772983D02*
X96905000Y-106836290D01*
X96905000Y-118703198D01*
X96855162Y-118823221D01*
X96854838Y-119195187D01*
X96996883Y-119538963D01*
X97259673Y-119802212D01*
X97603201Y-119944858D01*
X97975167Y-119945182D01*
X98025000Y-119924591D01*
X98025000Y-123507051D01*
X96481014Y-125051036D01*
X96435010Y-124939697D01*
X96042370Y-124546371D01*
X95834488Y-124460051D01*
X96040303Y-124375010D01*
X96433629Y-123982370D01*
X96646757Y-123469100D01*
X96647242Y-122913339D01*
X96435010Y-122399697D01*
X96042370Y-122006371D01*
X95834488Y-121920051D01*
X96040303Y-121835010D01*
X96433629Y-121442370D01*
X96646757Y-120929100D01*
X96647242Y-120373339D01*
X96435010Y-119859697D01*
X96042370Y-119466371D01*
X95834488Y-119380051D01*
X96040303Y-119295010D01*
X96433629Y-118902370D01*
X96646757Y-118389100D01*
X96647242Y-117833339D01*
X96435010Y-117319697D01*
X96042370Y-116926371D01*
X95850273Y-116846605D01*
X95981143Y-116792397D01*
X96050608Y-116550213D01*
X95250000Y-115749605D01*
X94449392Y-116550213D01*
X94518857Y-116792397D01*
X94659318Y-116842509D01*
X94459697Y-116924990D01*
X94066371Y-117317630D01*
X93853243Y-117830900D01*
X93852758Y-118386661D01*
X94064990Y-118900303D01*
X94457630Y-119293629D01*
X94665512Y-119379949D01*
X94459697Y-119464990D01*
X94066371Y-119857630D01*
X93853243Y-120370900D01*
X93852758Y-120926661D01*
X94064990Y-121440303D01*
X94457630Y-121833629D01*
X94665512Y-121919949D01*
X94459697Y-122004990D01*
X94066371Y-122397630D01*
X93853243Y-122910900D01*
X93852758Y-123466661D01*
X94064990Y-123980303D01*
X94457630Y-124373629D01*
X94665512Y-124459949D01*
X94459697Y-124544990D01*
X94066371Y-124937630D01*
X93853243Y-125450900D01*
X93852758Y-126006661D01*
X94064990Y-126520303D01*
X94457630Y-126913629D01*
X94665512Y-126999949D01*
X94459697Y-127084990D01*
X94066371Y-127477630D01*
X93853243Y-127990900D01*
X93852758Y-128546661D01*
X94064990Y-129060303D01*
X94457630Y-129453629D01*
X94665512Y-129539949D01*
X94459697Y-129624990D01*
X94066371Y-130017630D01*
X93853243Y-130530900D01*
X93852758Y-131086661D01*
X94064990Y-131600303D01*
X94261974Y-131797631D01*
X93694357Y-131797631D01*
X92325000Y-130428273D01*
X92325000Y-127415354D01*
X92563667Y-127415562D01*
X92907443Y-127273517D01*
X93170692Y-127010727D01*
X93313338Y-126667199D01*
X93313662Y-126295233D01*
X93263500Y-126173831D01*
X93263500Y-116504930D01*
X93530167Y-116505162D01*
X93873943Y-116363117D01*
X94000814Y-116236468D01*
X94027603Y-116301143D01*
X94269787Y-116370608D01*
X95070395Y-115570000D01*
X95429605Y-115570000D01*
X96230213Y-116370608D01*
X96472397Y-116301143D01*
X96659144Y-115777698D01*
X96631362Y-115222632D01*
X96472397Y-114838857D01*
X96230213Y-114769392D01*
X95429605Y-115570000D01*
X95070395Y-115570000D01*
X94269787Y-114769392D01*
X94105000Y-114816657D01*
X94105000Y-113860383D01*
X94457630Y-114213629D01*
X94649727Y-114293395D01*
X94518857Y-114347603D01*
X94449392Y-114589787D01*
X95250000Y-115390395D01*
X96050608Y-114589787D01*
X95981143Y-114347603D01*
X95840682Y-114297491D01*
X96040303Y-114215010D01*
X96433629Y-113822370D01*
X96646757Y-113309100D01*
X96647242Y-112753339D01*
X96435010Y-112239697D01*
X96042370Y-111846371D01*
X95529100Y-111633243D01*
X94973339Y-111632758D01*
X94459697Y-111844990D01*
X94105000Y-112199068D01*
X94105000Y-109980000D01*
X94615000Y-109980000D01*
X94905839Y-109922148D01*
X95152401Y-109757401D01*
X95787401Y-109122401D01*
X95952148Y-108875839D01*
X96010000Y-108585000D01*
X96010000Y-106919813D01*
X96229746Y-106772983D01*
X96520000Y-106338588D01*
X96810254Y-106772983D01*
X96810254Y-106772983D01*
G37*
X96810254Y-106772983D02*
X96905000Y-106836290D01*
X96905000Y-118703198D01*
X96855162Y-118823221D01*
X96854838Y-119195187D01*
X96996883Y-119538963D01*
X97259673Y-119802212D01*
X97603201Y-119944858D01*
X97975167Y-119945182D01*
X98025000Y-119924591D01*
X98025000Y-123507051D01*
X96481014Y-125051036D01*
X96435010Y-124939697D01*
X96042370Y-124546371D01*
X95834488Y-124460051D01*
X96040303Y-124375010D01*
X96433629Y-123982370D01*
X96646757Y-123469100D01*
X96647242Y-122913339D01*
X96435010Y-122399697D01*
X96042370Y-122006371D01*
X95834488Y-121920051D01*
X96040303Y-121835010D01*
X96433629Y-121442370D01*
X96646757Y-120929100D01*
X96647242Y-120373339D01*
X96435010Y-119859697D01*
X96042370Y-119466371D01*
X95834488Y-119380051D01*
X96040303Y-119295010D01*
X96433629Y-118902370D01*
X96646757Y-118389100D01*
X96647242Y-117833339D01*
X96435010Y-117319697D01*
X96042370Y-116926371D01*
X95850273Y-116846605D01*
X95981143Y-116792397D01*
X96050608Y-116550213D01*
X95250000Y-115749605D01*
X94449392Y-116550213D01*
X94518857Y-116792397D01*
X94659318Y-116842509D01*
X94459697Y-116924990D01*
X94066371Y-117317630D01*
X93853243Y-117830900D01*
X93852758Y-118386661D01*
X94064990Y-118900303D01*
X94457630Y-119293629D01*
X94665512Y-119379949D01*
X94459697Y-119464990D01*
X94066371Y-119857630D01*
X93853243Y-120370900D01*
X93852758Y-120926661D01*
X94064990Y-121440303D01*
X94457630Y-121833629D01*
X94665512Y-121919949D01*
X94459697Y-122004990D01*
X94066371Y-122397630D01*
X93853243Y-122910900D01*
X93852758Y-123466661D01*
X94064990Y-123980303D01*
X94457630Y-124373629D01*
X94665512Y-124459949D01*
X94459697Y-124544990D01*
X94066371Y-124937630D01*
X93853243Y-125450900D01*
X93852758Y-126006661D01*
X94064990Y-126520303D01*
X94457630Y-126913629D01*
X94665512Y-126999949D01*
X94459697Y-127084990D01*
X94066371Y-127477630D01*
X93853243Y-127990900D01*
X93852758Y-128546661D01*
X94064990Y-129060303D01*
X94457630Y-129453629D01*
X94665512Y-129539949D01*
X94459697Y-129624990D01*
X94066371Y-130017630D01*
X93853243Y-130530900D01*
X93852758Y-131086661D01*
X94064990Y-131600303D01*
X94261974Y-131797631D01*
X93694357Y-131797631D01*
X92325000Y-130428273D01*
X92325000Y-127415354D01*
X92563667Y-127415562D01*
X92907443Y-127273517D01*
X93170692Y-127010727D01*
X93313338Y-126667199D01*
X93313662Y-126295233D01*
X93263500Y-126173831D01*
X93263500Y-116504930D01*
X93530167Y-116505162D01*
X93873943Y-116363117D01*
X94000814Y-116236468D01*
X94027603Y-116301143D01*
X94269787Y-116370608D01*
X95070395Y-115570000D01*
X95429605Y-115570000D01*
X96230213Y-116370608D01*
X96472397Y-116301143D01*
X96659144Y-115777698D01*
X96631362Y-115222632D01*
X96472397Y-114838857D01*
X96230213Y-114769392D01*
X95429605Y-115570000D01*
X95070395Y-115570000D01*
X94269787Y-114769392D01*
X94105000Y-114816657D01*
X94105000Y-113860383D01*
X94457630Y-114213629D01*
X94649727Y-114293395D01*
X94518857Y-114347603D01*
X94449392Y-114589787D01*
X95250000Y-115390395D01*
X96050608Y-114589787D01*
X95981143Y-114347603D01*
X95840682Y-114297491D01*
X96040303Y-114215010D01*
X96433629Y-113822370D01*
X96646757Y-113309100D01*
X96647242Y-112753339D01*
X96435010Y-112239697D01*
X96042370Y-111846371D01*
X95529100Y-111633243D01*
X94973339Y-111632758D01*
X94459697Y-111844990D01*
X94105000Y-112199068D01*
X94105000Y-109980000D01*
X94615000Y-109980000D01*
X94905839Y-109922148D01*
X95152401Y-109757401D01*
X95787401Y-109122401D01*
X95952148Y-108875839D01*
X96010000Y-108585000D01*
X96010000Y-106919813D01*
X96229746Y-106772983D01*
X96520000Y-106338588D01*
X96810254Y-106772983D01*
G36*
X113030000Y-91260395D02*
X113044143Y-91246253D01*
X113223748Y-91425858D01*
X113209605Y-91440000D01*
X113223748Y-91454143D01*
X113044143Y-91633748D01*
X113030000Y-91619605D01*
X113015858Y-91633748D01*
X112836252Y-91454142D01*
X112850395Y-91440000D01*
X112836252Y-91425858D01*
X113015858Y-91246252D01*
X113030000Y-91260395D01*
X113030000Y-91260395D01*
G37*
X113030000Y-91260395D02*
X113044143Y-91246253D01*
X113223748Y-91425858D01*
X113209605Y-91440000D01*
X113223748Y-91454143D01*
X113044143Y-91633748D01*
X113030000Y-91619605D01*
X113015858Y-91633748D01*
X112836252Y-91454142D01*
X112850395Y-91440000D01*
X112836252Y-91425858D01*
X113015858Y-91246252D01*
X113030000Y-91260395D01*
G36*
X87757000Y-90043000D02*
X87777000Y-90043000D01*
X87777000Y-90297000D01*
X87757000Y-90297000D01*
X87757000Y-90317000D01*
X87503000Y-90317000D01*
X87503000Y-90297000D01*
X87483000Y-90297000D01*
X87483000Y-90043000D01*
X87503000Y-90043000D01*
X87503000Y-90023000D01*
X87757000Y-90023000D01*
X87757000Y-90043000D01*
X87757000Y-90043000D01*
G37*
X87757000Y-90043000D02*
X87777000Y-90043000D01*
X87777000Y-90297000D01*
X87757000Y-90297000D01*
X87757000Y-90317000D01*
X87503000Y-90317000D01*
X87503000Y-90297000D01*
X87483000Y-90297000D01*
X87483000Y-90043000D01*
X87503000Y-90043000D01*
X87503000Y-90023000D01*
X87757000Y-90023000D01*
X87757000Y-90043000D01*
M02*
