M48
;DRILL file {KiCad 4.0.2+dfsg1-stable} date Wed 12 Sep 2018 10:09:38 PM CEST
;FORMAT={-:-/ absolute / inch / decimal}
FMAT,2
INCH,TZ
T1C0.016
T2C0.024
T3C0.030
T4C0.031
T5C0.032
T6C0.035
T7C0.039
T8C0.041
T9C0.126
%
G90
G05
M72
T1
X3.0069Y-4.6758
X3.1027Y-3.8262
X3.3986Y-5.1849
X3.5237Y-4.5592
X3.575Y-4.25
X3.6Y-4.4001
X3.6369Y-4.9795
X3.675Y-4.025
X3.675Y-4.55
X3.7225Y-5.2834
X3.826Y-5.0035
X3.85Y-4.6854
X3.8766Y-5.255
X3.9007Y-4.9744
X4.2528Y-4.6223
X4.3105Y-4.3876
X4.34Y-3.5
X4.3751Y-4.1502
T2
X2.8454Y-3.5525
X2.8482Y-4.3017
X3.175Y-4.55
X3.45Y-3.375
X3.9Y-4.375
X4.025Y-5.65
X4.2Y-4.275
X4.3892Y-4.3761
X4.4498Y-4.3428
X4.5972Y-4.1317
X4.6606Y-4.1468
T3
X3.35Y-4.45
X3.35Y-4.55
X3.35Y-4.65
X3.35Y-4.75
X3.35Y-4.85
X3.35Y-4.95
X3.35Y-5.05
X3.35Y-5.15
X3.75Y-4.45
X3.75Y-4.55
X3.75Y-4.65
X3.75Y-4.75
X3.75Y-4.85
X3.75Y-4.95
X3.75Y-5.05
X3.75Y-5.15
T4
X4.45Y-3.4
X4.45Y-3.6
X4.45Y-3.8
X4.75Y-3.4
X4.75Y-3.6
X4.75Y-3.8
T5
X3.15Y-3.55
X3.15Y-4.15
X3.25Y-3.55
X3.25Y-4.15
X3.35Y-3.55
X3.35Y-4.15
X3.45Y-3.55
X3.45Y-4.15
X3.5Y-3.65
X3.55Y-3.55
X3.55Y-4.15
X3.6Y-3.65
X3.65Y-3.55
X3.65Y-4.15
X3.75Y-3.55
X3.75Y-4.15
X3.85Y-3.55
X3.85Y-4.15
X3.9Y-3.65
X3.95Y-3.55
X3.95Y-4.15
X4.Y-3.65
X4.05Y-3.55
X4.05Y-4.15
X4.15Y-3.55
X4.15Y-4.15
X4.25Y-3.55
X4.25Y-3.65
X4.25Y-3.75
X4.25Y-3.85
X4.25Y-4.15
T6
X3.4508Y-2.3
X3.4508Y-2.7567
X3.75Y-2.3
X3.75Y-2.7567
T7
X2.15Y-3.95
X2.2207Y-4.0207
X2.2914Y-4.0914
X2.3621Y-4.1621
X2.4328Y-4.2328
X2.5036Y-4.3036
X2.5743Y-4.3743
X3.Y-2.9
X3.Y-3.
X3.075Y-5.525
X3.175Y-5.525
X3.25Y-5.35
X3.275Y-5.525
X3.35Y-5.35
X3.375Y-5.525
X3.45Y-5.35
X3.475Y-5.525
X3.55Y-5.35
X3.575Y-5.525
X3.65Y-5.35
X3.675Y-5.525
X3.75Y-5.35
X3.775Y-5.525
X3.85Y-5.35
X3.875Y-5.525
X3.975Y-5.525
X4.075Y-5.525
X4.2Y-2.9
X4.2Y-3.
X4.65Y-4.35
X4.7207Y-4.2793
X4.7914Y-4.2086
X4.8621Y-4.1379
X4.9328Y-4.0672
X5.0036Y-3.9964
X5.0743Y-3.9257
T8
X2.85Y-2.35
X2.9484Y-2.35
X4.25Y-2.35
X4.3484Y-2.35
T9
X2.2245Y-3.5065
X2.225Y-2.6015
X2.752Y-5.533
X2.7525Y-4.8335
X4.4525Y-4.833
X4.453Y-5.5345
X4.98Y-2.602
X4.98Y-3.508
T0
M30
