G04 #@! TF.FileFunction,Legend,Top*
%FSLAX46Y46*%
G04 Gerber Fmt 4.6, Leading zero omitted, Abs format (unit mm)*
G04 Created by KiCad (PCBNEW 4.0.2+dfsg1-stable) date Sun 09 Sep 2018 04:47:05 PM CEST*
%MOMM*%
G01*
G04 APERTURE LIST*
%ADD10C,0.100000*%
%ADD11C,0.010000*%
%ADD12C,0.150000*%
%ADD13C,0.120000*%
%ADD14C,0.160000*%
G04 APERTURE END LIST*
D10*
D11*
G36*
X111364998Y-77477055D02*
X111387135Y-77571183D01*
X111427198Y-77806929D01*
X111481756Y-78159284D01*
X111547381Y-78603239D01*
X111620642Y-79113784D01*
X111698112Y-79665911D01*
X111776361Y-80234611D01*
X111851959Y-80794874D01*
X111921478Y-81321691D01*
X111981489Y-81790054D01*
X112028562Y-82174953D01*
X112059267Y-82451378D01*
X112070177Y-82594322D01*
X112068577Y-82608311D01*
X112017155Y-82574514D01*
X111983752Y-82492880D01*
X111956164Y-82357198D01*
X111914515Y-82106729D01*
X111866530Y-81793959D01*
X111819935Y-81471372D01*
X111782456Y-81191453D01*
X111761819Y-81006686D01*
X111760000Y-80972901D01*
X111684269Y-80953975D01*
X111491557Y-80951615D01*
X111357833Y-80957861D01*
X110955666Y-80983667D01*
X110865611Y-81680500D01*
X110816225Y-82009610D01*
X110764033Y-82272404D01*
X110718243Y-82424692D01*
X110706844Y-82442500D01*
X110681855Y-82400495D01*
X110680721Y-82225885D01*
X110700803Y-81953310D01*
X110739462Y-81617414D01*
X110794060Y-81252838D01*
X110800232Y-81216500D01*
X110812477Y-81014866D01*
X110750401Y-80941639D01*
X110732255Y-80940037D01*
X110661121Y-80923468D01*
X110728085Y-80868294D01*
X110782768Y-80753928D01*
X110783501Y-80750833D01*
X110996790Y-80750833D01*
X111076758Y-80825500D01*
X111299554Y-80856257D01*
X111336666Y-80856667D01*
X111556063Y-80844003D01*
X111653475Y-80788567D01*
X111675437Y-80666167D01*
X111663607Y-80475171D01*
X111631772Y-80179678D01*
X111585630Y-79818376D01*
X111530874Y-79429955D01*
X111473201Y-79053106D01*
X111418304Y-78726518D01*
X111371878Y-78488882D01*
X111339620Y-78378888D01*
X111338558Y-78377519D01*
X111313071Y-78437069D01*
X111272779Y-78629898D01*
X111222708Y-78921117D01*
X111167880Y-79275837D01*
X111113319Y-79659168D01*
X111064052Y-80036221D01*
X111025100Y-80372107D01*
X111001489Y-80631937D01*
X110996790Y-80750833D01*
X110783501Y-80750833D01*
X110848456Y-80476826D01*
X110923998Y-80043150D01*
X111008243Y-79459060D01*
X111047194Y-79160536D01*
X111124557Y-78561623D01*
X111186112Y-78112937D01*
X111235260Y-77796467D01*
X111275402Y-77594199D01*
X111309937Y-77488123D01*
X111342266Y-77460224D01*
X111364998Y-77477055D01*
X111364998Y-77477055D01*
G37*
X111364998Y-77477055D02*
X111387135Y-77571183D01*
X111427198Y-77806929D01*
X111481756Y-78159284D01*
X111547381Y-78603239D01*
X111620642Y-79113784D01*
X111698112Y-79665911D01*
X111776361Y-80234611D01*
X111851959Y-80794874D01*
X111921478Y-81321691D01*
X111981489Y-81790054D01*
X112028562Y-82174953D01*
X112059267Y-82451378D01*
X112070177Y-82594322D01*
X112068577Y-82608311D01*
X112017155Y-82574514D01*
X111983752Y-82492880D01*
X111956164Y-82357198D01*
X111914515Y-82106729D01*
X111866530Y-81793959D01*
X111819935Y-81471372D01*
X111782456Y-81191453D01*
X111761819Y-81006686D01*
X111760000Y-80972901D01*
X111684269Y-80953975D01*
X111491557Y-80951615D01*
X111357833Y-80957861D01*
X110955666Y-80983667D01*
X110865611Y-81680500D01*
X110816225Y-82009610D01*
X110764033Y-82272404D01*
X110718243Y-82424692D01*
X110706844Y-82442500D01*
X110681855Y-82400495D01*
X110680721Y-82225885D01*
X110700803Y-81953310D01*
X110739462Y-81617414D01*
X110794060Y-81252838D01*
X110800232Y-81216500D01*
X110812477Y-81014866D01*
X110750401Y-80941639D01*
X110732255Y-80940037D01*
X110661121Y-80923468D01*
X110728085Y-80868294D01*
X110782768Y-80753928D01*
X110783501Y-80750833D01*
X110996790Y-80750833D01*
X111076758Y-80825500D01*
X111299554Y-80856257D01*
X111336666Y-80856667D01*
X111556063Y-80844003D01*
X111653475Y-80788567D01*
X111675437Y-80666167D01*
X111663607Y-80475171D01*
X111631772Y-80179678D01*
X111585630Y-79818376D01*
X111530874Y-79429955D01*
X111473201Y-79053106D01*
X111418304Y-78726518D01*
X111371878Y-78488882D01*
X111339620Y-78378888D01*
X111338558Y-78377519D01*
X111313071Y-78437069D01*
X111272779Y-78629898D01*
X111222708Y-78921117D01*
X111167880Y-79275837D01*
X111113319Y-79659168D01*
X111064052Y-80036221D01*
X111025100Y-80372107D01*
X111001489Y-80631937D01*
X110996790Y-80750833D01*
X110783501Y-80750833D01*
X110848456Y-80476826D01*
X110923998Y-80043150D01*
X111008243Y-79459060D01*
X111047194Y-79160536D01*
X111124557Y-78561623D01*
X111186112Y-78112937D01*
X111235260Y-77796467D01*
X111275402Y-77594199D01*
X111309937Y-77488123D01*
X111342266Y-77460224D01*
X111364998Y-77477055D01*
G36*
X113605402Y-77574672D02*
X113895229Y-77736666D01*
X113928792Y-77768429D01*
X114142555Y-77982192D01*
X114123490Y-80135778D01*
X114119283Y-80837943D01*
X114120990Y-81387712D01*
X114129279Y-81801941D01*
X114144821Y-82097484D01*
X114168285Y-82291198D01*
X114200340Y-82399938D01*
X114214277Y-82421728D01*
X114294900Y-82553699D01*
X114261090Y-82588556D01*
X114142301Y-82518467D01*
X114076635Y-82458339D01*
X113928839Y-82344035D01*
X113781083Y-82348379D01*
X113676930Y-82390636D01*
X113488865Y-82447998D01*
X113302337Y-82417484D01*
X113152834Y-82353398D01*
X112934997Y-82204169D01*
X112786227Y-82021913D01*
X112774076Y-81994607D01*
X112743819Y-81828716D01*
X112720419Y-81529147D01*
X112703753Y-81126949D01*
X112693702Y-80653172D01*
X112690144Y-80138866D01*
X112690992Y-79980789D01*
X112860666Y-79980789D01*
X112861426Y-80611609D01*
X112864864Y-81095117D01*
X112872717Y-81453329D01*
X112886724Y-81708264D01*
X112908620Y-81881940D01*
X112940145Y-81996374D01*
X112983035Y-82073584D01*
X113030000Y-82126667D01*
X113210252Y-82236666D01*
X113436433Y-82291787D01*
X113640198Y-82283233D01*
X113745105Y-82218713D01*
X113716761Y-82123030D01*
X113584544Y-81990318D01*
X113559757Y-81971613D01*
X113420915Y-81842411D01*
X113384384Y-81746934D01*
X113390322Y-81738122D01*
X113488073Y-81745007D01*
X113638799Y-81848237D01*
X113649624Y-81858222D01*
X113802600Y-81986393D01*
X113901681Y-82041936D01*
X113903290Y-82042000D01*
X113927455Y-81962003D01*
X113945642Y-81740460D01*
X113958135Y-81405044D01*
X113965220Y-80983424D01*
X113967183Y-80503273D01*
X113964311Y-79992263D01*
X113956888Y-79478064D01*
X113945202Y-78988349D01*
X113929537Y-78550789D01*
X113910179Y-78193056D01*
X113887415Y-77942820D01*
X113861530Y-77827754D01*
X113859733Y-77825600D01*
X113678957Y-77743817D01*
X113422046Y-77729933D01*
X113166391Y-77780416D01*
X113015500Y-77864122D01*
X112965964Y-77921121D01*
X112928212Y-78005227D01*
X112900665Y-78138020D01*
X112881745Y-78341078D01*
X112869873Y-78635980D01*
X112863472Y-79044305D01*
X112860961Y-79587632D01*
X112860666Y-79980789D01*
X112690992Y-79980789D01*
X112692957Y-79615079D01*
X112702022Y-79112860D01*
X112717217Y-78663259D01*
X112738421Y-78297326D01*
X112765513Y-78046108D01*
X112789829Y-77951267D01*
X113010783Y-77688702D01*
X113296614Y-77560927D01*
X113605402Y-77574672D01*
X113605402Y-77574672D01*
G37*
X113605402Y-77574672D02*
X113895229Y-77736666D01*
X113928792Y-77768429D01*
X114142555Y-77982192D01*
X114123490Y-80135778D01*
X114119283Y-80837943D01*
X114120990Y-81387712D01*
X114129279Y-81801941D01*
X114144821Y-82097484D01*
X114168285Y-82291198D01*
X114200340Y-82399938D01*
X114214277Y-82421728D01*
X114294900Y-82553699D01*
X114261090Y-82588556D01*
X114142301Y-82518467D01*
X114076635Y-82458339D01*
X113928839Y-82344035D01*
X113781083Y-82348379D01*
X113676930Y-82390636D01*
X113488865Y-82447998D01*
X113302337Y-82417484D01*
X113152834Y-82353398D01*
X112934997Y-82204169D01*
X112786227Y-82021913D01*
X112774076Y-81994607D01*
X112743819Y-81828716D01*
X112720419Y-81529147D01*
X112703753Y-81126949D01*
X112693702Y-80653172D01*
X112690144Y-80138866D01*
X112690992Y-79980789D01*
X112860666Y-79980789D01*
X112861426Y-80611609D01*
X112864864Y-81095117D01*
X112872717Y-81453329D01*
X112886724Y-81708264D01*
X112908620Y-81881940D01*
X112940145Y-81996374D01*
X112983035Y-82073584D01*
X113030000Y-82126667D01*
X113210252Y-82236666D01*
X113436433Y-82291787D01*
X113640198Y-82283233D01*
X113745105Y-82218713D01*
X113716761Y-82123030D01*
X113584544Y-81990318D01*
X113559757Y-81971613D01*
X113420915Y-81842411D01*
X113384384Y-81746934D01*
X113390322Y-81738122D01*
X113488073Y-81745007D01*
X113638799Y-81848237D01*
X113649624Y-81858222D01*
X113802600Y-81986393D01*
X113901681Y-82041936D01*
X113903290Y-82042000D01*
X113927455Y-81962003D01*
X113945642Y-81740460D01*
X113958135Y-81405044D01*
X113965220Y-80983424D01*
X113967183Y-80503273D01*
X113964311Y-79992263D01*
X113956888Y-79478064D01*
X113945202Y-78988349D01*
X113929537Y-78550789D01*
X113910179Y-78193056D01*
X113887415Y-77942820D01*
X113861530Y-77827754D01*
X113859733Y-77825600D01*
X113678957Y-77743817D01*
X113422046Y-77729933D01*
X113166391Y-77780416D01*
X113015500Y-77864122D01*
X112965964Y-77921121D01*
X112928212Y-78005227D01*
X112900665Y-78138020D01*
X112881745Y-78341078D01*
X112869873Y-78635980D01*
X112863472Y-79044305D01*
X112860961Y-79587632D01*
X112860666Y-79980789D01*
X112690992Y-79980789D01*
X112692957Y-79615079D01*
X112702022Y-79112860D01*
X112717217Y-78663259D01*
X112738421Y-78297326D01*
X112765513Y-78046108D01*
X112789829Y-77951267D01*
X113010783Y-77688702D01*
X113296614Y-77560927D01*
X113605402Y-77574672D01*
G36*
X118956461Y-77522342D02*
X118956666Y-77526756D01*
X118968335Y-77622109D01*
X119001293Y-77863263D01*
X119052465Y-78228450D01*
X119118777Y-78695900D01*
X119197153Y-79243842D01*
X119284520Y-79850509D01*
X119299414Y-79953552D01*
X119387208Y-80575009D01*
X119464217Y-81148110D01*
X119527636Y-81649640D01*
X119574659Y-82056388D01*
X119602478Y-82345138D01*
X119608288Y-82492679D01*
X119607277Y-82500295D01*
X119575931Y-82612015D01*
X119560863Y-82608551D01*
X119543858Y-82496238D01*
X119509849Y-82264407D01*
X119465886Y-81961156D01*
X119461569Y-81931218D01*
X119400746Y-81511372D01*
X119351901Y-81230717D01*
X119299800Y-81061310D01*
X119229210Y-80975208D01*
X119124896Y-80944469D01*
X118971624Y-80941152D01*
X118921898Y-80941333D01*
X118739548Y-80946007D01*
X118615976Y-80979307D01*
X118535425Y-81070148D01*
X118482139Y-81247448D01*
X118440362Y-81540122D01*
X118402888Y-81893833D01*
X118362209Y-82179817D01*
X118311405Y-82384793D01*
X118261320Y-82465291D01*
X118260291Y-82465333D01*
X118212111Y-82396674D01*
X118221402Y-82274833D01*
X118253234Y-82093351D01*
X118291721Y-81808125D01*
X118325111Y-81512833D01*
X118350088Y-81196687D01*
X118342295Y-81017690D01*
X118299042Y-80946350D01*
X118273014Y-80941333D01*
X118219324Y-80913709D01*
X118274447Y-80856667D01*
X118518449Y-80856667D01*
X118906891Y-80856667D01*
X119136771Y-80849727D01*
X119276125Y-80832136D01*
X119295333Y-80821119D01*
X119283196Y-80703347D01*
X119250486Y-80461840D01*
X119202752Y-80132581D01*
X119145545Y-79751556D01*
X119084415Y-79354748D01*
X119024911Y-78978142D01*
X118972584Y-78657723D01*
X118932984Y-78429475D01*
X118911661Y-78329382D01*
X118910784Y-78327843D01*
X118875774Y-78359265D01*
X118834090Y-78526217D01*
X118783880Y-78838902D01*
X118723290Y-79307524D01*
X118705198Y-79459667D01*
X118658735Y-79844920D01*
X118613099Y-80204894D01*
X118576131Y-80478254D01*
X118567146Y-80539167D01*
X118518449Y-80856667D01*
X118274447Y-80856667D01*
X118294902Y-80835500D01*
X118351175Y-80744252D01*
X118408011Y-80550783D01*
X118468462Y-80239007D01*
X118535579Y-79792837D01*
X118612413Y-79196185D01*
X118624106Y-79099833D01*
X118688106Y-78596894D01*
X118750459Y-78156952D01*
X118807009Y-77805603D01*
X118853600Y-77568446D01*
X118886078Y-77471078D01*
X118888688Y-77470000D01*
X118956461Y-77522342D01*
X118956461Y-77522342D01*
G37*
X118956461Y-77522342D02*
X118956666Y-77526756D01*
X118968335Y-77622109D01*
X119001293Y-77863263D01*
X119052465Y-78228450D01*
X119118777Y-78695900D01*
X119197153Y-79243842D01*
X119284520Y-79850509D01*
X119299414Y-79953552D01*
X119387208Y-80575009D01*
X119464217Y-81148110D01*
X119527636Y-81649640D01*
X119574659Y-82056388D01*
X119602478Y-82345138D01*
X119608288Y-82492679D01*
X119607277Y-82500295D01*
X119575931Y-82612015D01*
X119560863Y-82608551D01*
X119543858Y-82496238D01*
X119509849Y-82264407D01*
X119465886Y-81961156D01*
X119461569Y-81931218D01*
X119400746Y-81511372D01*
X119351901Y-81230717D01*
X119299800Y-81061310D01*
X119229210Y-80975208D01*
X119124896Y-80944469D01*
X118971624Y-80941152D01*
X118921898Y-80941333D01*
X118739548Y-80946007D01*
X118615976Y-80979307D01*
X118535425Y-81070148D01*
X118482139Y-81247448D01*
X118440362Y-81540122D01*
X118402888Y-81893833D01*
X118362209Y-82179817D01*
X118311405Y-82384793D01*
X118261320Y-82465291D01*
X118260291Y-82465333D01*
X118212111Y-82396674D01*
X118221402Y-82274833D01*
X118253234Y-82093351D01*
X118291721Y-81808125D01*
X118325111Y-81512833D01*
X118350088Y-81196687D01*
X118342295Y-81017690D01*
X118299042Y-80946350D01*
X118273014Y-80941333D01*
X118219324Y-80913709D01*
X118274447Y-80856667D01*
X118518449Y-80856667D01*
X118906891Y-80856667D01*
X119136771Y-80849727D01*
X119276125Y-80832136D01*
X119295333Y-80821119D01*
X119283196Y-80703347D01*
X119250486Y-80461840D01*
X119202752Y-80132581D01*
X119145545Y-79751556D01*
X119084415Y-79354748D01*
X119024911Y-78978142D01*
X118972584Y-78657723D01*
X118932984Y-78429475D01*
X118911661Y-78329382D01*
X118910784Y-78327843D01*
X118875774Y-78359265D01*
X118834090Y-78526217D01*
X118783880Y-78838902D01*
X118723290Y-79307524D01*
X118705198Y-79459667D01*
X118658735Y-79844920D01*
X118613099Y-80204894D01*
X118576131Y-80478254D01*
X118567146Y-80539167D01*
X118518449Y-80856667D01*
X118274447Y-80856667D01*
X118294902Y-80835500D01*
X118351175Y-80744252D01*
X118408011Y-80550783D01*
X118468462Y-80239007D01*
X118535579Y-79792837D01*
X118612413Y-79196185D01*
X118624106Y-79099833D01*
X118688106Y-78596894D01*
X118750459Y-78156952D01*
X118807009Y-77805603D01*
X118853600Y-77568446D01*
X118886078Y-77471078D01*
X118888688Y-77470000D01*
X118956461Y-77522342D01*
G36*
X116550871Y-79784624D02*
X116543666Y-82056914D01*
X116306112Y-82261124D01*
X116055680Y-82426043D01*
X115817971Y-82448258D01*
X115570000Y-82357074D01*
X115422816Y-82269773D01*
X115306863Y-82158596D01*
X115218488Y-82003772D01*
X115154038Y-81785531D01*
X115109862Y-81484101D01*
X115082307Y-81079711D01*
X115067721Y-80552591D01*
X115062451Y-79882969D01*
X115062131Y-79607833D01*
X115065319Y-78958571D01*
X115074592Y-78415083D01*
X115089376Y-77991958D01*
X115109101Y-77703787D01*
X115133193Y-77565158D01*
X115142657Y-77554667D01*
X115167979Y-77636793D01*
X115191405Y-77873019D01*
X115212200Y-78248115D01*
X115229630Y-78746851D01*
X115242958Y-79353998D01*
X115248490Y-79747271D01*
X115257016Y-80418088D01*
X115266410Y-80940318D01*
X115278304Y-81334706D01*
X115294330Y-81621997D01*
X115316120Y-81822936D01*
X115345305Y-81958267D01*
X115383517Y-82048735D01*
X115432388Y-82115086D01*
X115434955Y-82117938D01*
X115672790Y-82272755D01*
X115945531Y-82295702D01*
X116194970Y-82190164D01*
X116308881Y-82067118D01*
X116356114Y-81976875D01*
X116393840Y-81852434D01*
X116423816Y-81672755D01*
X116447797Y-81416803D01*
X116467540Y-81063540D01*
X116484800Y-80591930D01*
X116501333Y-79980935D01*
X116508538Y-79675285D01*
X116558076Y-77512333D01*
X116550871Y-79784624D01*
X116550871Y-79784624D01*
G37*
X116550871Y-79784624D02*
X116543666Y-82056914D01*
X116306112Y-82261124D01*
X116055680Y-82426043D01*
X115817971Y-82448258D01*
X115570000Y-82357074D01*
X115422816Y-82269773D01*
X115306863Y-82158596D01*
X115218488Y-82003772D01*
X115154038Y-81785531D01*
X115109862Y-81484101D01*
X115082307Y-81079711D01*
X115067721Y-80552591D01*
X115062451Y-79882969D01*
X115062131Y-79607833D01*
X115065319Y-78958571D01*
X115074592Y-78415083D01*
X115089376Y-77991958D01*
X115109101Y-77703787D01*
X115133193Y-77565158D01*
X115142657Y-77554667D01*
X115167979Y-77636793D01*
X115191405Y-77873019D01*
X115212200Y-78248115D01*
X115229630Y-78746851D01*
X115242958Y-79353998D01*
X115248490Y-79747271D01*
X115257016Y-80418088D01*
X115266410Y-80940318D01*
X115278304Y-81334706D01*
X115294330Y-81621997D01*
X115316120Y-81822936D01*
X115345305Y-81958267D01*
X115383517Y-82048735D01*
X115432388Y-82115086D01*
X115434955Y-82117938D01*
X115672790Y-82272755D01*
X115945531Y-82295702D01*
X116194970Y-82190164D01*
X116308881Y-82067118D01*
X116356114Y-81976875D01*
X116393840Y-81852434D01*
X116423816Y-81672755D01*
X116447797Y-81416803D01*
X116467540Y-81063540D01*
X116484800Y-80591930D01*
X116501333Y-79980935D01*
X116508538Y-79675285D01*
X116558076Y-77512333D01*
X116550871Y-79784624D01*
G36*
X123253500Y-77487039D02*
X123994333Y-77504077D01*
X123338166Y-77532933D01*
X122682000Y-77561789D01*
X122682000Y-79756000D01*
X123084166Y-79768716D01*
X123486333Y-79781433D01*
X123105333Y-79832216D01*
X122724333Y-79883000D01*
X122700842Y-81089500D01*
X122677350Y-82296000D01*
X123319672Y-82296000D01*
X123662568Y-82306172D01*
X123863489Y-82335401D01*
X123909666Y-82380667D01*
X123806635Y-82419519D01*
X123587073Y-82447105D01*
X123303476Y-82462317D01*
X123008343Y-82464053D01*
X122754168Y-82451205D01*
X122593450Y-82422669D01*
X122569111Y-82408889D01*
X122549219Y-82308470D01*
X122532400Y-82070043D01*
X122520007Y-81724925D01*
X122513395Y-81304433D01*
X122512666Y-81103611D01*
X122508360Y-80576701D01*
X122494490Y-80201499D01*
X122469628Y-79960578D01*
X122432345Y-79836506D01*
X122406833Y-79812073D01*
X122344441Y-79773819D01*
X122406833Y-79762684D01*
X122452321Y-79713445D01*
X122483821Y-79559970D01*
X122503053Y-79283572D01*
X122511738Y-78865562D01*
X122512666Y-78613000D01*
X122512666Y-77470000D01*
X123253500Y-77487039D01*
X123253500Y-77487039D01*
G37*
X123253500Y-77487039D02*
X123994333Y-77504077D01*
X123338166Y-77532933D01*
X122682000Y-77561789D01*
X122682000Y-79756000D01*
X123084166Y-79768716D01*
X123486333Y-79781433D01*
X123105333Y-79832216D01*
X122724333Y-79883000D01*
X122700842Y-81089500D01*
X122677350Y-82296000D01*
X123319672Y-82296000D01*
X123662568Y-82306172D01*
X123863489Y-82335401D01*
X123909666Y-82380667D01*
X123806635Y-82419519D01*
X123587073Y-82447105D01*
X123303476Y-82462317D01*
X123008343Y-82464053D01*
X122754168Y-82451205D01*
X122593450Y-82422669D01*
X122569111Y-82408889D01*
X122549219Y-82308470D01*
X122532400Y-82070043D01*
X122520007Y-81724925D01*
X122513395Y-81304433D01*
X122512666Y-81103611D01*
X122508360Y-80576701D01*
X122494490Y-80201499D01*
X122469628Y-79960578D01*
X122432345Y-79836506D01*
X122406833Y-79812073D01*
X122344441Y-79773819D01*
X122406833Y-79762684D01*
X122452321Y-79713445D01*
X122483821Y-79559970D01*
X122503053Y-79283572D01*
X122511738Y-78865562D01*
X122512666Y-78613000D01*
X122512666Y-77470000D01*
X123253500Y-77487039D01*
G36*
X124862114Y-79861833D02*
X124885930Y-82296000D01*
X125434965Y-82296000D01*
X125722034Y-82307988D01*
X125918520Y-82339733D01*
X125984000Y-82380667D01*
X125905690Y-82424098D01*
X125695804Y-82454110D01*
X125391908Y-82465333D01*
X124798666Y-82465333D01*
X124838298Y-77427667D01*
X124862114Y-79861833D01*
X124862114Y-79861833D01*
G37*
X124862114Y-79861833D02*
X124885930Y-82296000D01*
X125434965Y-82296000D01*
X125722034Y-82307988D01*
X125918520Y-82339733D01*
X125984000Y-82380667D01*
X125905690Y-82424098D01*
X125695804Y-82454110D01*
X125391908Y-82465333D01*
X124798666Y-82465333D01*
X124838298Y-77427667D01*
X124862114Y-79861833D01*
G36*
X109869276Y-77551158D02*
X109877960Y-77780599D01*
X109885422Y-78137276D01*
X109891339Y-78600138D01*
X109895389Y-79148137D01*
X109897248Y-79760224D01*
X109897333Y-79925333D01*
X109895336Y-80689913D01*
X109889041Y-81296636D01*
X109877992Y-81756936D01*
X109861734Y-82082245D01*
X109839809Y-82283998D01*
X109811764Y-82373628D01*
X109799427Y-82380667D01*
X109768464Y-82334825D01*
X109747495Y-82188318D01*
X109736271Y-81927674D01*
X109734543Y-81539423D01*
X109742062Y-81010091D01*
X109758578Y-80326208D01*
X109760292Y-80264000D01*
X109774725Y-79685563D01*
X109784534Y-79167390D01*
X109789544Y-78732132D01*
X109789584Y-78402443D01*
X109784480Y-78200975D01*
X109776445Y-78147333D01*
X109736396Y-78223180D01*
X109658387Y-78429954D01*
X109553495Y-78736501D01*
X109432794Y-79111671D01*
X109426965Y-79130319D01*
X109304756Y-79500025D01*
X109194414Y-79794088D01*
X109107535Y-79984244D01*
X109055712Y-80042227D01*
X109053586Y-80040486D01*
X109001048Y-79933691D01*
X108911622Y-79702697D01*
X108799213Y-79384838D01*
X108711151Y-79121000D01*
X108591971Y-78762110D01*
X108487938Y-78461301D01*
X108412408Y-78256492D01*
X108383117Y-78189667D01*
X108367409Y-78247071D01*
X108350132Y-78452504D01*
X108332276Y-78784683D01*
X108314835Y-79222323D01*
X108298798Y-79744140D01*
X108286472Y-80264000D01*
X108241944Y-82423000D01*
X108222972Y-79929567D01*
X108220329Y-79269412D01*
X108222709Y-78689384D01*
X108229715Y-78206717D01*
X108240955Y-77838644D01*
X108256035Y-77602401D01*
X108274560Y-77515221D01*
X108278120Y-77516567D01*
X108331999Y-77624750D01*
X108423860Y-77859788D01*
X108540830Y-78187022D01*
X108669666Y-78570667D01*
X108798118Y-78954337D01*
X108913303Y-79279498D01*
X109002638Y-79511849D01*
X109053540Y-79617090D01*
X109053579Y-79617133D01*
X109101342Y-79568229D01*
X109186739Y-79383917D01*
X109298964Y-79091047D01*
X109427210Y-78716470D01*
X109471059Y-78579967D01*
X109600976Y-78177272D01*
X109714773Y-77839773D01*
X109802211Y-77596712D01*
X109853052Y-77477328D01*
X109859692Y-77470000D01*
X109869276Y-77551158D01*
X109869276Y-77551158D01*
G37*
X109869276Y-77551158D02*
X109877960Y-77780599D01*
X109885422Y-78137276D01*
X109891339Y-78600138D01*
X109895389Y-79148137D01*
X109897248Y-79760224D01*
X109897333Y-79925333D01*
X109895336Y-80689913D01*
X109889041Y-81296636D01*
X109877992Y-81756936D01*
X109861734Y-82082245D01*
X109839809Y-82283998D01*
X109811764Y-82373628D01*
X109799427Y-82380667D01*
X109768464Y-82334825D01*
X109747495Y-82188318D01*
X109736271Y-81927674D01*
X109734543Y-81539423D01*
X109742062Y-81010091D01*
X109758578Y-80326208D01*
X109760292Y-80264000D01*
X109774725Y-79685563D01*
X109784534Y-79167390D01*
X109789544Y-78732132D01*
X109789584Y-78402443D01*
X109784480Y-78200975D01*
X109776445Y-78147333D01*
X109736396Y-78223180D01*
X109658387Y-78429954D01*
X109553495Y-78736501D01*
X109432794Y-79111671D01*
X109426965Y-79130319D01*
X109304756Y-79500025D01*
X109194414Y-79794088D01*
X109107535Y-79984244D01*
X109055712Y-80042227D01*
X109053586Y-80040486D01*
X109001048Y-79933691D01*
X108911622Y-79702697D01*
X108799213Y-79384838D01*
X108711151Y-79121000D01*
X108591971Y-78762110D01*
X108487938Y-78461301D01*
X108412408Y-78256492D01*
X108383117Y-78189667D01*
X108367409Y-78247071D01*
X108350132Y-78452504D01*
X108332276Y-78784683D01*
X108314835Y-79222323D01*
X108298798Y-79744140D01*
X108286472Y-80264000D01*
X108241944Y-82423000D01*
X108222972Y-79929567D01*
X108220329Y-79269412D01*
X108222709Y-78689384D01*
X108229715Y-78206717D01*
X108240955Y-77838644D01*
X108256035Y-77602401D01*
X108274560Y-77515221D01*
X108278120Y-77516567D01*
X108331999Y-77624750D01*
X108423860Y-77859788D01*
X108540830Y-78187022D01*
X108669666Y-78570667D01*
X108798118Y-78954337D01*
X108913303Y-79279498D01*
X109002638Y-79511849D01*
X109053540Y-79617090D01*
X109053579Y-79617133D01*
X109101342Y-79568229D01*
X109186739Y-79383917D01*
X109298964Y-79091047D01*
X109427210Y-78716470D01*
X109471059Y-78579967D01*
X109600976Y-78177272D01*
X109714773Y-77839773D01*
X109802211Y-77596712D01*
X109853052Y-77477328D01*
X109859692Y-77470000D01*
X109869276Y-77551158D01*
G36*
X117375646Y-77577857D02*
X117397940Y-77810369D01*
X117414801Y-78207605D01*
X117426151Y-78767302D01*
X117431908Y-79487196D01*
X117432666Y-79920336D01*
X117429787Y-80703462D01*
X117421285Y-81344153D01*
X117407362Y-81836543D01*
X117388220Y-82174765D01*
X117364060Y-82352953D01*
X117348000Y-82380667D01*
X117320818Y-82297041D01*
X117298628Y-82050196D01*
X117281641Y-81646176D01*
X117270070Y-81091027D01*
X117264128Y-80390795D01*
X117263333Y-79972663D01*
X117266299Y-79218968D01*
X117274977Y-78590370D01*
X117289035Y-78096501D01*
X117308141Y-77746996D01*
X117331965Y-77551489D01*
X117348000Y-77512333D01*
X117375646Y-77577857D01*
X117375646Y-77577857D01*
G37*
X117375646Y-77577857D02*
X117397940Y-77810369D01*
X117414801Y-78207605D01*
X117426151Y-78767302D01*
X117431908Y-79487196D01*
X117432666Y-79920336D01*
X117429787Y-80703462D01*
X117421285Y-81344153D01*
X117407362Y-81836543D01*
X117388220Y-82174765D01*
X117364060Y-82352953D01*
X117348000Y-82380667D01*
X117320818Y-82297041D01*
X117298628Y-82050196D01*
X117281641Y-81646176D01*
X117270070Y-81091027D01*
X117264128Y-80390795D01*
X117263333Y-79972663D01*
X117266299Y-79218968D01*
X117274977Y-78590370D01*
X117289035Y-78096501D01*
X117308141Y-77746996D01*
X117331965Y-77551489D01*
X117348000Y-77512333D01*
X117375646Y-77577857D01*
G36*
X127623366Y-77558838D02*
X127778731Y-77583714D01*
X127896097Y-77647836D01*
X127980792Y-77769745D01*
X128038144Y-77967983D01*
X128073481Y-78261090D01*
X128092128Y-78667609D01*
X128099414Y-79206080D01*
X128100666Y-79895045D01*
X128100666Y-79907405D01*
X128098382Y-80589858D01*
X128089903Y-81123425D01*
X128072792Y-81528509D01*
X128044610Y-81825515D01*
X128002917Y-82034847D01*
X127945276Y-82176911D01*
X127869247Y-82272111D01*
X127812825Y-82315870D01*
X127626440Y-82368959D01*
X127365027Y-82370478D01*
X127113110Y-82325580D01*
X126982161Y-82265241D01*
X126843756Y-82104200D01*
X126749328Y-81923755D01*
X126720186Y-81765894D01*
X126696850Y-81480995D01*
X126679347Y-81099294D01*
X126667705Y-80651027D01*
X126661950Y-80166431D01*
X126662110Y-79675742D01*
X126668211Y-79209197D01*
X126680280Y-78797030D01*
X126698345Y-78469479D01*
X126722432Y-78256780D01*
X126746000Y-78189667D01*
X126776754Y-78252660D01*
X126800741Y-78481617D01*
X126817812Y-78873295D01*
X126827820Y-79424452D01*
X126830666Y-80041191D01*
X126830666Y-81945043D01*
X127053751Y-82120521D01*
X127341870Y-82273176D01*
X127603626Y-82259621D01*
X127834644Y-82080150D01*
X127844756Y-82067532D01*
X127901811Y-81988261D01*
X127944929Y-81899476D01*
X127975692Y-81778532D01*
X127995682Y-81602780D01*
X128006483Y-81349574D01*
X128009677Y-80996265D01*
X128006846Y-80520207D01*
X127999573Y-79898751D01*
X127999067Y-79859249D01*
X127990140Y-79227655D01*
X127980358Y-78743983D01*
X127967785Y-78386826D01*
X127950487Y-78134776D01*
X127926531Y-77966426D01*
X127893980Y-77860367D01*
X127850902Y-77795193D01*
X127809317Y-77759384D01*
X127524200Y-77646872D01*
X127218169Y-77681839D01*
X126944838Y-77856131D01*
X126771322Y-78006873D01*
X126696084Y-78027614D01*
X126731295Y-77926922D01*
X126835626Y-77779259D01*
X126977849Y-77637097D01*
X127152787Y-77570845D01*
X127424677Y-77554667D01*
X127623366Y-77558838D01*
X127623366Y-77558838D01*
G37*
X127623366Y-77558838D02*
X127778731Y-77583714D01*
X127896097Y-77647836D01*
X127980792Y-77769745D01*
X128038144Y-77967983D01*
X128073481Y-78261090D01*
X128092128Y-78667609D01*
X128099414Y-79206080D01*
X128100666Y-79895045D01*
X128100666Y-79907405D01*
X128098382Y-80589858D01*
X128089903Y-81123425D01*
X128072792Y-81528509D01*
X128044610Y-81825515D01*
X128002917Y-82034847D01*
X127945276Y-82176911D01*
X127869247Y-82272111D01*
X127812825Y-82315870D01*
X127626440Y-82368959D01*
X127365027Y-82370478D01*
X127113110Y-82325580D01*
X126982161Y-82265241D01*
X126843756Y-82104200D01*
X126749328Y-81923755D01*
X126720186Y-81765894D01*
X126696850Y-81480995D01*
X126679347Y-81099294D01*
X126667705Y-80651027D01*
X126661950Y-80166431D01*
X126662110Y-79675742D01*
X126668211Y-79209197D01*
X126680280Y-78797030D01*
X126698345Y-78469479D01*
X126722432Y-78256780D01*
X126746000Y-78189667D01*
X126776754Y-78252660D01*
X126800741Y-78481617D01*
X126817812Y-78873295D01*
X126827820Y-79424452D01*
X126830666Y-80041191D01*
X126830666Y-81945043D01*
X127053751Y-82120521D01*
X127341870Y-82273176D01*
X127603626Y-82259621D01*
X127834644Y-82080150D01*
X127844756Y-82067532D01*
X127901811Y-81988261D01*
X127944929Y-81899476D01*
X127975692Y-81778532D01*
X127995682Y-81602780D01*
X128006483Y-81349574D01*
X128009677Y-80996265D01*
X128006846Y-80520207D01*
X127999573Y-79898751D01*
X127999067Y-79859249D01*
X127990140Y-79227655D01*
X127980358Y-78743983D01*
X127967785Y-78386826D01*
X127950487Y-78134776D01*
X127926531Y-77966426D01*
X127893980Y-77860367D01*
X127850902Y-77795193D01*
X127809317Y-77759384D01*
X127524200Y-77646872D01*
X127218169Y-77681839D01*
X126944838Y-77856131D01*
X126771322Y-78006873D01*
X126696084Y-78027614D01*
X126731295Y-77926922D01*
X126835626Y-77779259D01*
X126977849Y-77637097D01*
X127152787Y-77570845D01*
X127424677Y-77554667D01*
X127623366Y-77558838D01*
G36*
X121747125Y-77480169D02*
X121748272Y-77604055D01*
X121735359Y-77766128D01*
X121700990Y-78057393D01*
X121649139Y-78451404D01*
X121583781Y-78921717D01*
X121508891Y-79441884D01*
X121428444Y-79985460D01*
X121346415Y-80525999D01*
X121266777Y-81037055D01*
X121193507Y-81492182D01*
X121130579Y-81864934D01*
X121081968Y-82128865D01*
X121051648Y-82257530D01*
X121047710Y-82265178D01*
X120995055Y-82235108D01*
X120954042Y-82115490D01*
X120932626Y-81975896D01*
X120896138Y-81694714D01*
X120847808Y-81298697D01*
X120790864Y-80814598D01*
X120728535Y-80269171D01*
X120694788Y-79967667D01*
X120630117Y-79390412D01*
X120568681Y-78850789D01*
X120513877Y-78377971D01*
X120469104Y-78001131D01*
X120437761Y-77749443D01*
X120428486Y-77681667D01*
X120410425Y-77466992D01*
X120443385Y-77412479D01*
X120463771Y-77427667D01*
X120498609Y-77534409D01*
X120546117Y-77782790D01*
X120602207Y-78145943D01*
X120662787Y-78597005D01*
X120723769Y-79109111D01*
X120734469Y-79205667D01*
X120794826Y-79743266D01*
X120853460Y-80241246D01*
X120906468Y-80668258D01*
X120949944Y-80992956D01*
X120979985Y-81183995D01*
X120982266Y-81195333D01*
X121044565Y-81491667D01*
X121100246Y-81237667D01*
X121128886Y-81078996D01*
X121176845Y-80781971D01*
X121239613Y-80375886D01*
X121312680Y-79890036D01*
X121391537Y-79353714D01*
X121412155Y-79211530D01*
X121513084Y-78528116D01*
X121594756Y-78008464D01*
X121658083Y-77648208D01*
X121703979Y-77442984D01*
X121733355Y-77388426D01*
X121747125Y-77480169D01*
X121747125Y-77480169D01*
G37*
X121747125Y-77480169D02*
X121748272Y-77604055D01*
X121735359Y-77766128D01*
X121700990Y-78057393D01*
X121649139Y-78451404D01*
X121583781Y-78921717D01*
X121508891Y-79441884D01*
X121428444Y-79985460D01*
X121346415Y-80525999D01*
X121266777Y-81037055D01*
X121193507Y-81492182D01*
X121130579Y-81864934D01*
X121081968Y-82128865D01*
X121051648Y-82257530D01*
X121047710Y-82265178D01*
X120995055Y-82235108D01*
X120954042Y-82115490D01*
X120932626Y-81975896D01*
X120896138Y-81694714D01*
X120847808Y-81298697D01*
X120790864Y-80814598D01*
X120728535Y-80269171D01*
X120694788Y-79967667D01*
X120630117Y-79390412D01*
X120568681Y-78850789D01*
X120513877Y-78377971D01*
X120469104Y-78001131D01*
X120437761Y-77749443D01*
X120428486Y-77681667D01*
X120410425Y-77466992D01*
X120443385Y-77412479D01*
X120463771Y-77427667D01*
X120498609Y-77534409D01*
X120546117Y-77782790D01*
X120602207Y-78145943D01*
X120662787Y-78597005D01*
X120723769Y-79109111D01*
X120734469Y-79205667D01*
X120794826Y-79743266D01*
X120853460Y-80241246D01*
X120906468Y-80668258D01*
X120949944Y-80992956D01*
X120979985Y-81183995D01*
X120982266Y-81195333D01*
X121044565Y-81491667D01*
X121100246Y-81237667D01*
X121128886Y-81078996D01*
X121176845Y-80781971D01*
X121239613Y-80375886D01*
X121312680Y-79890036D01*
X121391537Y-79353714D01*
X121412155Y-79211530D01*
X121513084Y-78528116D01*
X121594756Y-78008464D01*
X121658083Y-77648208D01*
X121703979Y-77442984D01*
X121733355Y-77388426D01*
X121747125Y-77480169D01*
G36*
X118199639Y-62148487D02*
X118779221Y-62157610D01*
X119237295Y-62172193D01*
X119560075Y-62191728D01*
X119733772Y-62215705D01*
X119759918Y-62228250D01*
X119766644Y-62383975D01*
X119646268Y-62567488D01*
X119428290Y-62742164D01*
X119285029Y-62817851D01*
X118949720Y-62967973D01*
X119164860Y-63108938D01*
X119339654Y-63277333D01*
X119364279Y-63433899D01*
X119257734Y-63559341D01*
X119039018Y-63634361D01*
X118727130Y-63639662D01*
X118651700Y-63630131D01*
X118281435Y-63574606D01*
X118428550Y-63837838D01*
X118519154Y-64021121D01*
X118520004Y-64124526D01*
X118443419Y-64202702D01*
X118299902Y-64367172D01*
X118254796Y-64454534D01*
X118134954Y-64601272D01*
X118006043Y-64675893D01*
X117925166Y-64713915D01*
X117870649Y-64777108D01*
X117837089Y-64895535D01*
X117819087Y-65099258D01*
X117811239Y-65418339D01*
X117808655Y-65774526D01*
X117803644Y-66802000D01*
X120650000Y-66802000D01*
X120650000Y-73236667D01*
X117602000Y-73236667D01*
X117602000Y-73914000D01*
X118283537Y-73914000D01*
X118778222Y-73938253D01*
X119139051Y-74018821D01*
X119395523Y-74167423D01*
X119577138Y-74395772D01*
X119599184Y-74436538D01*
X119694207Y-74777412D01*
X119652669Y-75115478D01*
X119500117Y-75420678D01*
X119262097Y-75662957D01*
X118964157Y-75812257D01*
X118631841Y-75838521D01*
X118447785Y-75791233D01*
X118226059Y-75673143D01*
X118033545Y-75531616D01*
X117739960Y-75379232D01*
X117392333Y-75359359D01*
X117039997Y-75470387D01*
X116884554Y-75569046D01*
X116556150Y-75750152D01*
X116207328Y-75830680D01*
X115899620Y-75797611D01*
X115866333Y-75784501D01*
X115557083Y-75568152D01*
X115348765Y-75258789D01*
X115258846Y-74902080D01*
X115260693Y-74887667D01*
X116078000Y-74887667D01*
X116086478Y-75196357D01*
X116116774Y-75367928D01*
X116176177Y-75433970D01*
X116205000Y-75438000D01*
X116276236Y-75401259D01*
X116315829Y-75269978D01*
X116317907Y-75234878D01*
X118560672Y-75234878D01*
X118566912Y-75383172D01*
X118675012Y-75460908D01*
X118821227Y-75432866D01*
X118860851Y-75400729D01*
X118931534Y-75263523D01*
X118919354Y-75192125D01*
X118786957Y-75104622D01*
X118634644Y-75139947D01*
X118560672Y-75234878D01*
X116317907Y-75234878D01*
X116331070Y-75012565D01*
X116332000Y-74887667D01*
X116330838Y-74845333D01*
X117094000Y-74845333D01*
X117164912Y-74914123D01*
X117263333Y-74930000D01*
X117400913Y-74894544D01*
X117432666Y-74845333D01*
X117517333Y-74845333D01*
X117588245Y-74914123D01*
X117686666Y-74930000D01*
X117787201Y-74904091D01*
X118124674Y-74904091D01*
X118142173Y-74976388D01*
X118240647Y-75091041D01*
X118382454Y-75042893D01*
X118425117Y-75004349D01*
X118476280Y-74877121D01*
X118975865Y-74877121D01*
X119029473Y-75005466D01*
X119047323Y-75018368D01*
X119198757Y-75036812D01*
X119312667Y-74944535D01*
X119323575Y-74796810D01*
X119213949Y-74688197D01*
X119156617Y-74676000D01*
X119026976Y-74739953D01*
X118975865Y-74877121D01*
X118476280Y-74877121D01*
X118483346Y-74859550D01*
X118430088Y-74724030D01*
X118317605Y-74676000D01*
X118169509Y-74743402D01*
X118124674Y-74904091D01*
X117787201Y-74904091D01*
X117824247Y-74894544D01*
X117856000Y-74845333D01*
X117785087Y-74776543D01*
X117686666Y-74760667D01*
X117549086Y-74796123D01*
X117517333Y-74845333D01*
X117432666Y-74845333D01*
X117361754Y-74776543D01*
X117263333Y-74760667D01*
X117125752Y-74796123D01*
X117094000Y-74845333D01*
X116330838Y-74845333D01*
X116323521Y-74578976D01*
X116301416Y-74453787D01*
X118552531Y-74453787D01*
X118606140Y-74582132D01*
X118623989Y-74595035D01*
X118775423Y-74613479D01*
X118889334Y-74521202D01*
X118900242Y-74373476D01*
X118790615Y-74264864D01*
X118733284Y-74252667D01*
X118603642Y-74316620D01*
X118552531Y-74453787D01*
X116301416Y-74453787D01*
X116293225Y-74407405D01*
X116233822Y-74341363D01*
X116205000Y-74337333D01*
X116133763Y-74374074D01*
X116094170Y-74505355D01*
X116078929Y-74762768D01*
X116078000Y-74887667D01*
X115260693Y-74887667D01*
X115304789Y-74543689D01*
X115350815Y-74436538D01*
X115509444Y-74208143D01*
X115727315Y-74053287D01*
X116034583Y-73960715D01*
X116461408Y-73919175D01*
X116751128Y-73914000D01*
X117517333Y-73914000D01*
X117517333Y-73236667D01*
X114215333Y-73236667D01*
X114199848Y-71606833D01*
X114195857Y-71081937D01*
X114194059Y-70601039D01*
X114194392Y-70231000D01*
X114384666Y-70231000D01*
X114430384Y-70343672D01*
X114469333Y-70358000D01*
X114544447Y-70289423D01*
X114554000Y-70231000D01*
X114508282Y-70118328D01*
X114469333Y-70104000D01*
X114394218Y-70172576D01*
X114384666Y-70231000D01*
X114194392Y-70231000D01*
X114194425Y-70195369D01*
X114196925Y-69896161D01*
X114201530Y-69734645D01*
X114201601Y-69733616D01*
X114158973Y-69489882D01*
X114068919Y-69373782D01*
X113979483Y-69288821D01*
X115282102Y-69288821D01*
X115311294Y-69456622D01*
X115480829Y-69714275D01*
X115717041Y-69830303D01*
X115983090Y-69797092D01*
X116208848Y-69642182D01*
X116382813Y-69396303D01*
X116393475Y-69152663D01*
X116284865Y-68937505D01*
X116101845Y-68802694D01*
X115844027Y-68744707D01*
X115593552Y-68776780D01*
X115519174Y-68814130D01*
X115345820Y-69019743D01*
X115282102Y-69288821D01*
X113979483Y-69288821D01*
X113965564Y-69275599D01*
X114000498Y-69196797D01*
X114068919Y-69140884D01*
X114185367Y-68953207D01*
X114201601Y-68781051D01*
X114195729Y-68593255D01*
X114194213Y-68330997D01*
X114384666Y-68330997D01*
X114417259Y-68448067D01*
X114469333Y-68453000D01*
X114547237Y-68330498D01*
X114554000Y-68278670D01*
X114506661Y-68169243D01*
X114469333Y-68156667D01*
X114401208Y-68227792D01*
X114384666Y-68330997D01*
X114194213Y-68330997D01*
X114193953Y-68286082D01*
X114196353Y-67909439D01*
X114199848Y-67669833D01*
X114210800Y-67056000D01*
X114384666Y-67056000D01*
X114384666Y-67530725D01*
X114391592Y-67800061D01*
X114419590Y-67933554D01*
X114479493Y-67964383D01*
X114522398Y-67952597D01*
X114696892Y-67951336D01*
X114765164Y-67986916D01*
X114888918Y-68006574D01*
X115000642Y-67921976D01*
X115040703Y-67791371D01*
X115021589Y-67736444D01*
X115040452Y-67638797D01*
X115115056Y-67590503D01*
X115255001Y-67586737D01*
X115296811Y-67633434D01*
X115391276Y-67718744D01*
X115533902Y-67724615D01*
X115640683Y-67657409D01*
X115654666Y-67606333D01*
X115725252Y-67502905D01*
X115824000Y-67479333D01*
X115961904Y-67532273D01*
X115993333Y-67606333D01*
X116063919Y-67709761D01*
X116162666Y-67733333D01*
X116300204Y-67695309D01*
X116332000Y-67642458D01*
X116399197Y-67579367D01*
X116480014Y-67580089D01*
X116601762Y-67676069D01*
X116628181Y-67776797D01*
X116668768Y-67900067D01*
X116818719Y-67943354D01*
X116882333Y-67945000D01*
X117062241Y-67965979D01*
X117128551Y-68064940D01*
X117136333Y-68199000D01*
X117163136Y-68385172D01*
X117262410Y-68450629D01*
X117304536Y-68453152D01*
X117445454Y-68513025D01*
X117507476Y-68643321D01*
X117461504Y-68770518D01*
X117437354Y-68788769D01*
X117350727Y-68913799D01*
X117399711Y-69046913D01*
X117517333Y-69112532D01*
X117643443Y-69196722D01*
X117684669Y-69318584D01*
X117631000Y-69411674D01*
X117564663Y-69426667D01*
X117416007Y-69484112D01*
X117373246Y-69611601D01*
X117423110Y-69704977D01*
X117518253Y-69871598D01*
X117494797Y-70016106D01*
X117366925Y-70082984D01*
X117326833Y-70081835D01*
X117191136Y-70095290D01*
X117140973Y-70206527D01*
X117136333Y-70315667D01*
X117115354Y-70495575D01*
X117016393Y-70561885D01*
X116882333Y-70569667D01*
X116704732Y-70589575D01*
X116649506Y-70674276D01*
X116654821Y-70760167D01*
X116638103Y-70909456D01*
X116507401Y-70950666D01*
X116506655Y-70950667D01*
X116366210Y-70916181D01*
X116332000Y-70866000D01*
X116278781Y-70784244D01*
X116163489Y-70794694D01*
X116052669Y-70879413D01*
X116017865Y-70950667D01*
X115927816Y-71096638D01*
X115789860Y-71090467D01*
X115627748Y-70933432D01*
X115624946Y-70929500D01*
X115519395Y-70802550D01*
X115442489Y-70808342D01*
X115376912Y-70881066D01*
X115237305Y-70972109D01*
X115115467Y-70908224D01*
X115050136Y-70742471D01*
X114983192Y-70624942D01*
X114812785Y-70573107D01*
X114701675Y-70565600D01*
X114384666Y-70554592D01*
X114384666Y-72982667D01*
X120396000Y-72982667D01*
X120396000Y-71585667D01*
X120391579Y-71009994D01*
X120377883Y-70593868D01*
X120354258Y-70327722D01*
X120320053Y-70201988D01*
X120300750Y-70188667D01*
X120242448Y-70261401D01*
X120255419Y-70438265D01*
X120276416Y-70611230D01*
X120212651Y-70666942D01*
X120059000Y-70656687D01*
X119890736Y-70647869D01*
X119851881Y-70707022D01*
X119887258Y-70821717D01*
X119925523Y-71007992D01*
X119873093Y-71083020D01*
X119751332Y-71027310D01*
X119598089Y-70979592D01*
X119485723Y-71068083D01*
X119464666Y-71167330D01*
X119445002Y-71269779D01*
X119360401Y-71269242D01*
X119198455Y-71183500D01*
X119054611Y-71120324D01*
X118987686Y-71166642D01*
X118980882Y-71183500D01*
X118886305Y-71278207D01*
X118765819Y-71269935D01*
X118702813Y-71165988D01*
X118702666Y-71159129D01*
X118643628Y-71063697D01*
X118471756Y-71053295D01*
X118299866Y-71044559D01*
X118241197Y-70948117D01*
X118238923Y-70908333D01*
X118618000Y-70908333D01*
X118660333Y-70950667D01*
X118702666Y-70908333D01*
X118660333Y-70866000D01*
X118618000Y-70908333D01*
X118238923Y-70908333D01*
X118193957Y-70780815D01*
X118037841Y-70760749D01*
X118037156Y-70760824D01*
X117897399Y-70755811D01*
X117887449Y-70720936D01*
X118377647Y-70720936D01*
X118398248Y-70768251D01*
X118483498Y-70859145D01*
X118532509Y-70840499D01*
X118533333Y-70828663D01*
X118529138Y-70823667D01*
X119549333Y-70823667D01*
X119591666Y-70866000D01*
X119634000Y-70823667D01*
X119591666Y-70781333D01*
X119549333Y-70823667D01*
X118529138Y-70823667D01*
X118473196Y-70757051D01*
X118435584Y-70730915D01*
X118377647Y-70720936D01*
X117887449Y-70720936D01*
X117871314Y-70664387D01*
X117892370Y-70563281D01*
X117895763Y-70521821D01*
X119908758Y-70521821D01*
X119920339Y-70527333D01*
X119997605Y-70467730D01*
X120015000Y-70442667D01*
X120036574Y-70363512D01*
X120024993Y-70358000D01*
X119947728Y-70417603D01*
X119930333Y-70442667D01*
X119908758Y-70521821D01*
X117895763Y-70521821D01*
X117906441Y-70391362D01*
X117812983Y-70310282D01*
X117774713Y-70298749D01*
X117638353Y-70252492D01*
X117632145Y-70231000D01*
X117940666Y-70231000D01*
X117983000Y-70273333D01*
X118025333Y-70231000D01*
X117983000Y-70188667D01*
X117940666Y-70231000D01*
X117632145Y-70231000D01*
X117617280Y-70179544D01*
X117698450Y-70023031D01*
X117707833Y-70007122D01*
X117759937Y-69888485D01*
X118533333Y-69888485D01*
X118603256Y-70069034D01*
X118770208Y-70241898D01*
X118969962Y-70347716D01*
X119041333Y-70358000D01*
X119225647Y-70300537D01*
X119380000Y-70188667D01*
X120057333Y-70188667D01*
X120088311Y-70258357D01*
X120113777Y-70245111D01*
X120123910Y-70144631D01*
X120113777Y-70132222D01*
X120063443Y-70143844D01*
X120057333Y-70188667D01*
X119380000Y-70188667D01*
X119506668Y-70006819D01*
X119549333Y-69856145D01*
X119526166Y-69800611D01*
X120318017Y-69800611D01*
X120333584Y-69910425D01*
X120362486Y-69911736D01*
X120382697Y-69798419D01*
X120369170Y-69749458D01*
X120331575Y-69717388D01*
X120318017Y-69800611D01*
X119526166Y-69800611D01*
X119485252Y-69702538D01*
X119333238Y-69526447D01*
X119153639Y-69387169D01*
X119094611Y-69366269D01*
X119986314Y-69366269D01*
X120006915Y-69413585D01*
X120092165Y-69504478D01*
X120141175Y-69485833D01*
X120142000Y-69473997D01*
X120081863Y-69402384D01*
X120044251Y-69376248D01*
X119986314Y-69366269D01*
X119094611Y-69366269D01*
X119026066Y-69342000D01*
X118898720Y-69405121D01*
X118738725Y-69555112D01*
X118599333Y-69732913D01*
X118533792Y-69879465D01*
X118533333Y-69888485D01*
X117759937Y-69888485D01*
X117771008Y-69863278D01*
X117724691Y-69796353D01*
X117707833Y-69789549D01*
X117613126Y-69694972D01*
X117621398Y-69574486D01*
X117717343Y-69516330D01*
X117940666Y-69516330D01*
X117967874Y-69593258D01*
X118030309Y-69526147D01*
X118057638Y-69464602D01*
X118063555Y-69377203D01*
X118024363Y-69384933D01*
X117943675Y-69493334D01*
X117940666Y-69516330D01*
X117717343Y-69516330D01*
X117725345Y-69511480D01*
X117732204Y-69511333D01*
X117827636Y-69452295D01*
X117838037Y-69280423D01*
X117839210Y-69257333D01*
X118126088Y-69257333D01*
X118207746Y-69201693D01*
X118321666Y-69088000D01*
X118419443Y-68965350D01*
X118432577Y-68918667D01*
X118350919Y-68974307D01*
X118237000Y-69088000D01*
X118139222Y-69210650D01*
X118126088Y-69257333D01*
X117839210Y-69257333D01*
X117846774Y-69108533D01*
X117943216Y-69049864D01*
X117983000Y-69047590D01*
X118125972Y-68983969D01*
X118154709Y-68876333D01*
X118533333Y-68876333D01*
X118575666Y-68918667D01*
X118618000Y-68876333D01*
X119464666Y-68876333D01*
X119507000Y-68918667D01*
X119549333Y-68876333D01*
X119591666Y-68876333D01*
X119752955Y-69066833D01*
X119903072Y-69226813D01*
X119968454Y-69249910D01*
X119972666Y-69228122D01*
X119915569Y-69158977D01*
X119782166Y-69037622D01*
X119591666Y-68876333D01*
X119549333Y-68876333D01*
X119507000Y-68834000D01*
X119464666Y-68876333D01*
X118618000Y-68876333D01*
X118575666Y-68834000D01*
X118533333Y-68876333D01*
X118154709Y-68876333D01*
X118185359Y-68791667D01*
X118872000Y-68791667D01*
X118914333Y-68834000D01*
X118956666Y-68791667D01*
X119126000Y-68791667D01*
X119168333Y-68834000D01*
X119210666Y-68791667D01*
X119168333Y-68749333D01*
X119126000Y-68791667D01*
X118956666Y-68791667D01*
X118914333Y-68749333D01*
X118872000Y-68791667D01*
X118185359Y-68791667D01*
X118201142Y-68748069D01*
X118353034Y-68728555D01*
X118528581Y-68692749D01*
X118593366Y-68580388D01*
X118640807Y-68443909D01*
X118716211Y-68427704D01*
X118871035Y-68514380D01*
X119025732Y-68575752D01*
X119140820Y-68514380D01*
X119285860Y-68417679D01*
X119369141Y-68461867D01*
X119380000Y-68532670D01*
X119439622Y-68684848D01*
X119579457Y-68714817D01*
X119680042Y-68661588D01*
X119784471Y-68609387D01*
X119813099Y-68633133D01*
X119829108Y-68779263D01*
X119834266Y-68834000D01*
X119916669Y-68933951D01*
X120037123Y-68954174D01*
X120178148Y-68981457D01*
X120210265Y-69109356D01*
X120206456Y-69156960D01*
X120226847Y-69329233D01*
X120290166Y-69403675D01*
X120333897Y-69379919D01*
X120364571Y-69260167D01*
X120383950Y-69025166D01*
X120393798Y-68655666D01*
X120396000Y-68248389D01*
X120396000Y-67056000D01*
X114384666Y-67056000D01*
X114210800Y-67056000D01*
X114215333Y-66802000D01*
X117263333Y-66802000D01*
X117263333Y-66543003D01*
X117432666Y-66543003D01*
X117494127Y-66629221D01*
X117517333Y-66632667D01*
X117599798Y-66603780D01*
X117602000Y-66595330D01*
X117542671Y-66523044D01*
X117517333Y-66505667D01*
X117439314Y-66512379D01*
X117432666Y-66543003D01*
X117263333Y-66543003D01*
X117263333Y-66124667D01*
X117432666Y-66124667D01*
X117453119Y-66303066D01*
X117502392Y-66378649D01*
X117503222Y-66378667D01*
X117552777Y-66305037D01*
X117573772Y-66127653D01*
X117573777Y-66124667D01*
X117553325Y-65946267D01*
X117504051Y-65870684D01*
X117503222Y-65870667D01*
X117453666Y-65944296D01*
X117432671Y-66121680D01*
X117432666Y-66124667D01*
X117263333Y-66124667D01*
X117263333Y-65749555D01*
X117263058Y-65663997D01*
X117432666Y-65663997D01*
X117473712Y-65751631D01*
X117517333Y-65743667D01*
X117598770Y-65635424D01*
X117602000Y-65611670D01*
X117537421Y-65534280D01*
X117517333Y-65532000D01*
X117443028Y-65600915D01*
X117432666Y-65663997D01*
X117263058Y-65663997D01*
X117261933Y-65315336D01*
X117432666Y-65315336D01*
X117476871Y-65431179D01*
X117517333Y-65447333D01*
X117599576Y-65386566D01*
X117602000Y-65367663D01*
X117540455Y-65252996D01*
X117517333Y-65235667D01*
X117444850Y-65254860D01*
X117432666Y-65315336D01*
X117261933Y-65315336D01*
X117261921Y-65311762D01*
X117254724Y-65024000D01*
X117432666Y-65024000D01*
X117497095Y-65106206D01*
X117517333Y-65108667D01*
X117599539Y-65044237D01*
X117602000Y-65024000D01*
X117537570Y-64941793D01*
X117517333Y-64939333D01*
X117435126Y-65003762D01*
X117432666Y-65024000D01*
X117254724Y-65024000D01*
X117254496Y-65014884D01*
X117236270Y-64830507D01*
X117203282Y-64732663D01*
X117432666Y-64732663D01*
X117473712Y-64820298D01*
X117517333Y-64812333D01*
X117598770Y-64704090D01*
X117602000Y-64680336D01*
X117537421Y-64602947D01*
X117517333Y-64600667D01*
X117443028Y-64669582D01*
X117432666Y-64732663D01*
X117203282Y-64732663D01*
X117202457Y-64730217D01*
X117148270Y-64685600D01*
X117081480Y-64670055D01*
X116894372Y-64577746D01*
X116806313Y-64475617D01*
X116740845Y-64384003D01*
X117432666Y-64384003D01*
X117476871Y-64499845D01*
X117517333Y-64516000D01*
X117599576Y-64455232D01*
X117602000Y-64436330D01*
X117540455Y-64321663D01*
X117517333Y-64304333D01*
X117444850Y-64323527D01*
X117432666Y-64384003D01*
X116740845Y-64384003D01*
X116678286Y-64296460D01*
X116597220Y-64215480D01*
X116531739Y-64127247D01*
X116544554Y-64050333D01*
X117432666Y-64050333D01*
X117478384Y-64163005D01*
X117517333Y-64177333D01*
X117592447Y-64108757D01*
X117602000Y-64050333D01*
X117556282Y-63937661D01*
X117517333Y-63923333D01*
X117442218Y-63991910D01*
X117432666Y-64050333D01*
X116544554Y-64050333D01*
X116553490Y-63996709D01*
X116623652Y-63847719D01*
X116765863Y-63572712D01*
X116389281Y-63629184D01*
X116065612Y-63640442D01*
X115814555Y-63578319D01*
X115672946Y-63455395D01*
X115654666Y-63378335D01*
X115720456Y-63260687D01*
X115882548Y-63119529D01*
X115920509Y-63094309D01*
X116186351Y-62925990D01*
X115931950Y-62870114D01*
X115654070Y-62757179D01*
X115434931Y-62575132D01*
X115322079Y-62367105D01*
X115316000Y-62311368D01*
X115322119Y-62261032D01*
X115353250Y-62222049D01*
X115428556Y-62192970D01*
X115567196Y-62172345D01*
X115788334Y-62158728D01*
X116111128Y-62150669D01*
X116554742Y-62146720D01*
X117138337Y-62145432D01*
X117512336Y-62145333D01*
X118199639Y-62148487D01*
X118199639Y-62148487D01*
G37*
X118199639Y-62148487D02*
X118779221Y-62157610D01*
X119237295Y-62172193D01*
X119560075Y-62191728D01*
X119733772Y-62215705D01*
X119759918Y-62228250D01*
X119766644Y-62383975D01*
X119646268Y-62567488D01*
X119428290Y-62742164D01*
X119285029Y-62817851D01*
X118949720Y-62967973D01*
X119164860Y-63108938D01*
X119339654Y-63277333D01*
X119364279Y-63433899D01*
X119257734Y-63559341D01*
X119039018Y-63634361D01*
X118727130Y-63639662D01*
X118651700Y-63630131D01*
X118281435Y-63574606D01*
X118428550Y-63837838D01*
X118519154Y-64021121D01*
X118520004Y-64124526D01*
X118443419Y-64202702D01*
X118299902Y-64367172D01*
X118254796Y-64454534D01*
X118134954Y-64601272D01*
X118006043Y-64675893D01*
X117925166Y-64713915D01*
X117870649Y-64777108D01*
X117837089Y-64895535D01*
X117819087Y-65099258D01*
X117811239Y-65418339D01*
X117808655Y-65774526D01*
X117803644Y-66802000D01*
X120650000Y-66802000D01*
X120650000Y-73236667D01*
X117602000Y-73236667D01*
X117602000Y-73914000D01*
X118283537Y-73914000D01*
X118778222Y-73938253D01*
X119139051Y-74018821D01*
X119395523Y-74167423D01*
X119577138Y-74395772D01*
X119599184Y-74436538D01*
X119694207Y-74777412D01*
X119652669Y-75115478D01*
X119500117Y-75420678D01*
X119262097Y-75662957D01*
X118964157Y-75812257D01*
X118631841Y-75838521D01*
X118447785Y-75791233D01*
X118226059Y-75673143D01*
X118033545Y-75531616D01*
X117739960Y-75379232D01*
X117392333Y-75359359D01*
X117039997Y-75470387D01*
X116884554Y-75569046D01*
X116556150Y-75750152D01*
X116207328Y-75830680D01*
X115899620Y-75797611D01*
X115866333Y-75784501D01*
X115557083Y-75568152D01*
X115348765Y-75258789D01*
X115258846Y-74902080D01*
X115260693Y-74887667D01*
X116078000Y-74887667D01*
X116086478Y-75196357D01*
X116116774Y-75367928D01*
X116176177Y-75433970D01*
X116205000Y-75438000D01*
X116276236Y-75401259D01*
X116315829Y-75269978D01*
X116317907Y-75234878D01*
X118560672Y-75234878D01*
X118566912Y-75383172D01*
X118675012Y-75460908D01*
X118821227Y-75432866D01*
X118860851Y-75400729D01*
X118931534Y-75263523D01*
X118919354Y-75192125D01*
X118786957Y-75104622D01*
X118634644Y-75139947D01*
X118560672Y-75234878D01*
X116317907Y-75234878D01*
X116331070Y-75012565D01*
X116332000Y-74887667D01*
X116330838Y-74845333D01*
X117094000Y-74845333D01*
X117164912Y-74914123D01*
X117263333Y-74930000D01*
X117400913Y-74894544D01*
X117432666Y-74845333D01*
X117517333Y-74845333D01*
X117588245Y-74914123D01*
X117686666Y-74930000D01*
X117787201Y-74904091D01*
X118124674Y-74904091D01*
X118142173Y-74976388D01*
X118240647Y-75091041D01*
X118382454Y-75042893D01*
X118425117Y-75004349D01*
X118476280Y-74877121D01*
X118975865Y-74877121D01*
X119029473Y-75005466D01*
X119047323Y-75018368D01*
X119198757Y-75036812D01*
X119312667Y-74944535D01*
X119323575Y-74796810D01*
X119213949Y-74688197D01*
X119156617Y-74676000D01*
X119026976Y-74739953D01*
X118975865Y-74877121D01*
X118476280Y-74877121D01*
X118483346Y-74859550D01*
X118430088Y-74724030D01*
X118317605Y-74676000D01*
X118169509Y-74743402D01*
X118124674Y-74904091D01*
X117787201Y-74904091D01*
X117824247Y-74894544D01*
X117856000Y-74845333D01*
X117785087Y-74776543D01*
X117686666Y-74760667D01*
X117549086Y-74796123D01*
X117517333Y-74845333D01*
X117432666Y-74845333D01*
X117361754Y-74776543D01*
X117263333Y-74760667D01*
X117125752Y-74796123D01*
X117094000Y-74845333D01*
X116330838Y-74845333D01*
X116323521Y-74578976D01*
X116301416Y-74453787D01*
X118552531Y-74453787D01*
X118606140Y-74582132D01*
X118623989Y-74595035D01*
X118775423Y-74613479D01*
X118889334Y-74521202D01*
X118900242Y-74373476D01*
X118790615Y-74264864D01*
X118733284Y-74252667D01*
X118603642Y-74316620D01*
X118552531Y-74453787D01*
X116301416Y-74453787D01*
X116293225Y-74407405D01*
X116233822Y-74341363D01*
X116205000Y-74337333D01*
X116133763Y-74374074D01*
X116094170Y-74505355D01*
X116078929Y-74762768D01*
X116078000Y-74887667D01*
X115260693Y-74887667D01*
X115304789Y-74543689D01*
X115350815Y-74436538D01*
X115509444Y-74208143D01*
X115727315Y-74053287D01*
X116034583Y-73960715D01*
X116461408Y-73919175D01*
X116751128Y-73914000D01*
X117517333Y-73914000D01*
X117517333Y-73236667D01*
X114215333Y-73236667D01*
X114199848Y-71606833D01*
X114195857Y-71081937D01*
X114194059Y-70601039D01*
X114194392Y-70231000D01*
X114384666Y-70231000D01*
X114430384Y-70343672D01*
X114469333Y-70358000D01*
X114544447Y-70289423D01*
X114554000Y-70231000D01*
X114508282Y-70118328D01*
X114469333Y-70104000D01*
X114394218Y-70172576D01*
X114384666Y-70231000D01*
X114194392Y-70231000D01*
X114194425Y-70195369D01*
X114196925Y-69896161D01*
X114201530Y-69734645D01*
X114201601Y-69733616D01*
X114158973Y-69489882D01*
X114068919Y-69373782D01*
X113979483Y-69288821D01*
X115282102Y-69288821D01*
X115311294Y-69456622D01*
X115480829Y-69714275D01*
X115717041Y-69830303D01*
X115983090Y-69797092D01*
X116208848Y-69642182D01*
X116382813Y-69396303D01*
X116393475Y-69152663D01*
X116284865Y-68937505D01*
X116101845Y-68802694D01*
X115844027Y-68744707D01*
X115593552Y-68776780D01*
X115519174Y-68814130D01*
X115345820Y-69019743D01*
X115282102Y-69288821D01*
X113979483Y-69288821D01*
X113965564Y-69275599D01*
X114000498Y-69196797D01*
X114068919Y-69140884D01*
X114185367Y-68953207D01*
X114201601Y-68781051D01*
X114195729Y-68593255D01*
X114194213Y-68330997D01*
X114384666Y-68330997D01*
X114417259Y-68448067D01*
X114469333Y-68453000D01*
X114547237Y-68330498D01*
X114554000Y-68278670D01*
X114506661Y-68169243D01*
X114469333Y-68156667D01*
X114401208Y-68227792D01*
X114384666Y-68330997D01*
X114194213Y-68330997D01*
X114193953Y-68286082D01*
X114196353Y-67909439D01*
X114199848Y-67669833D01*
X114210800Y-67056000D01*
X114384666Y-67056000D01*
X114384666Y-67530725D01*
X114391592Y-67800061D01*
X114419590Y-67933554D01*
X114479493Y-67964383D01*
X114522398Y-67952597D01*
X114696892Y-67951336D01*
X114765164Y-67986916D01*
X114888918Y-68006574D01*
X115000642Y-67921976D01*
X115040703Y-67791371D01*
X115021589Y-67736444D01*
X115040452Y-67638797D01*
X115115056Y-67590503D01*
X115255001Y-67586737D01*
X115296811Y-67633434D01*
X115391276Y-67718744D01*
X115533902Y-67724615D01*
X115640683Y-67657409D01*
X115654666Y-67606333D01*
X115725252Y-67502905D01*
X115824000Y-67479333D01*
X115961904Y-67532273D01*
X115993333Y-67606333D01*
X116063919Y-67709761D01*
X116162666Y-67733333D01*
X116300204Y-67695309D01*
X116332000Y-67642458D01*
X116399197Y-67579367D01*
X116480014Y-67580089D01*
X116601762Y-67676069D01*
X116628181Y-67776797D01*
X116668768Y-67900067D01*
X116818719Y-67943354D01*
X116882333Y-67945000D01*
X117062241Y-67965979D01*
X117128551Y-68064940D01*
X117136333Y-68199000D01*
X117163136Y-68385172D01*
X117262410Y-68450629D01*
X117304536Y-68453152D01*
X117445454Y-68513025D01*
X117507476Y-68643321D01*
X117461504Y-68770518D01*
X117437354Y-68788769D01*
X117350727Y-68913799D01*
X117399711Y-69046913D01*
X117517333Y-69112532D01*
X117643443Y-69196722D01*
X117684669Y-69318584D01*
X117631000Y-69411674D01*
X117564663Y-69426667D01*
X117416007Y-69484112D01*
X117373246Y-69611601D01*
X117423110Y-69704977D01*
X117518253Y-69871598D01*
X117494797Y-70016106D01*
X117366925Y-70082984D01*
X117326833Y-70081835D01*
X117191136Y-70095290D01*
X117140973Y-70206527D01*
X117136333Y-70315667D01*
X117115354Y-70495575D01*
X117016393Y-70561885D01*
X116882333Y-70569667D01*
X116704732Y-70589575D01*
X116649506Y-70674276D01*
X116654821Y-70760167D01*
X116638103Y-70909456D01*
X116507401Y-70950666D01*
X116506655Y-70950667D01*
X116366210Y-70916181D01*
X116332000Y-70866000D01*
X116278781Y-70784244D01*
X116163489Y-70794694D01*
X116052669Y-70879413D01*
X116017865Y-70950667D01*
X115927816Y-71096638D01*
X115789860Y-71090467D01*
X115627748Y-70933432D01*
X115624946Y-70929500D01*
X115519395Y-70802550D01*
X115442489Y-70808342D01*
X115376912Y-70881066D01*
X115237305Y-70972109D01*
X115115467Y-70908224D01*
X115050136Y-70742471D01*
X114983192Y-70624942D01*
X114812785Y-70573107D01*
X114701675Y-70565600D01*
X114384666Y-70554592D01*
X114384666Y-72982667D01*
X120396000Y-72982667D01*
X120396000Y-71585667D01*
X120391579Y-71009994D01*
X120377883Y-70593868D01*
X120354258Y-70327722D01*
X120320053Y-70201988D01*
X120300750Y-70188667D01*
X120242448Y-70261401D01*
X120255419Y-70438265D01*
X120276416Y-70611230D01*
X120212651Y-70666942D01*
X120059000Y-70656687D01*
X119890736Y-70647869D01*
X119851881Y-70707022D01*
X119887258Y-70821717D01*
X119925523Y-71007992D01*
X119873093Y-71083020D01*
X119751332Y-71027310D01*
X119598089Y-70979592D01*
X119485723Y-71068083D01*
X119464666Y-71167330D01*
X119445002Y-71269779D01*
X119360401Y-71269242D01*
X119198455Y-71183500D01*
X119054611Y-71120324D01*
X118987686Y-71166642D01*
X118980882Y-71183500D01*
X118886305Y-71278207D01*
X118765819Y-71269935D01*
X118702813Y-71165988D01*
X118702666Y-71159129D01*
X118643628Y-71063697D01*
X118471756Y-71053295D01*
X118299866Y-71044559D01*
X118241197Y-70948117D01*
X118238923Y-70908333D01*
X118618000Y-70908333D01*
X118660333Y-70950667D01*
X118702666Y-70908333D01*
X118660333Y-70866000D01*
X118618000Y-70908333D01*
X118238923Y-70908333D01*
X118193957Y-70780815D01*
X118037841Y-70760749D01*
X118037156Y-70760824D01*
X117897399Y-70755811D01*
X117887449Y-70720936D01*
X118377647Y-70720936D01*
X118398248Y-70768251D01*
X118483498Y-70859145D01*
X118532509Y-70840499D01*
X118533333Y-70828663D01*
X118529138Y-70823667D01*
X119549333Y-70823667D01*
X119591666Y-70866000D01*
X119634000Y-70823667D01*
X119591666Y-70781333D01*
X119549333Y-70823667D01*
X118529138Y-70823667D01*
X118473196Y-70757051D01*
X118435584Y-70730915D01*
X118377647Y-70720936D01*
X117887449Y-70720936D01*
X117871314Y-70664387D01*
X117892370Y-70563281D01*
X117895763Y-70521821D01*
X119908758Y-70521821D01*
X119920339Y-70527333D01*
X119997605Y-70467730D01*
X120015000Y-70442667D01*
X120036574Y-70363512D01*
X120024993Y-70358000D01*
X119947728Y-70417603D01*
X119930333Y-70442667D01*
X119908758Y-70521821D01*
X117895763Y-70521821D01*
X117906441Y-70391362D01*
X117812983Y-70310282D01*
X117774713Y-70298749D01*
X117638353Y-70252492D01*
X117632145Y-70231000D01*
X117940666Y-70231000D01*
X117983000Y-70273333D01*
X118025333Y-70231000D01*
X117983000Y-70188667D01*
X117940666Y-70231000D01*
X117632145Y-70231000D01*
X117617280Y-70179544D01*
X117698450Y-70023031D01*
X117707833Y-70007122D01*
X117759937Y-69888485D01*
X118533333Y-69888485D01*
X118603256Y-70069034D01*
X118770208Y-70241898D01*
X118969962Y-70347716D01*
X119041333Y-70358000D01*
X119225647Y-70300537D01*
X119380000Y-70188667D01*
X120057333Y-70188667D01*
X120088311Y-70258357D01*
X120113777Y-70245111D01*
X120123910Y-70144631D01*
X120113777Y-70132222D01*
X120063443Y-70143844D01*
X120057333Y-70188667D01*
X119380000Y-70188667D01*
X119506668Y-70006819D01*
X119549333Y-69856145D01*
X119526166Y-69800611D01*
X120318017Y-69800611D01*
X120333584Y-69910425D01*
X120362486Y-69911736D01*
X120382697Y-69798419D01*
X120369170Y-69749458D01*
X120331575Y-69717388D01*
X120318017Y-69800611D01*
X119526166Y-69800611D01*
X119485252Y-69702538D01*
X119333238Y-69526447D01*
X119153639Y-69387169D01*
X119094611Y-69366269D01*
X119986314Y-69366269D01*
X120006915Y-69413585D01*
X120092165Y-69504478D01*
X120141175Y-69485833D01*
X120142000Y-69473997D01*
X120081863Y-69402384D01*
X120044251Y-69376248D01*
X119986314Y-69366269D01*
X119094611Y-69366269D01*
X119026066Y-69342000D01*
X118898720Y-69405121D01*
X118738725Y-69555112D01*
X118599333Y-69732913D01*
X118533792Y-69879465D01*
X118533333Y-69888485D01*
X117759937Y-69888485D01*
X117771008Y-69863278D01*
X117724691Y-69796353D01*
X117707833Y-69789549D01*
X117613126Y-69694972D01*
X117621398Y-69574486D01*
X117717343Y-69516330D01*
X117940666Y-69516330D01*
X117967874Y-69593258D01*
X118030309Y-69526147D01*
X118057638Y-69464602D01*
X118063555Y-69377203D01*
X118024363Y-69384933D01*
X117943675Y-69493334D01*
X117940666Y-69516330D01*
X117717343Y-69516330D01*
X117725345Y-69511480D01*
X117732204Y-69511333D01*
X117827636Y-69452295D01*
X117838037Y-69280423D01*
X117839210Y-69257333D01*
X118126088Y-69257333D01*
X118207746Y-69201693D01*
X118321666Y-69088000D01*
X118419443Y-68965350D01*
X118432577Y-68918667D01*
X118350919Y-68974307D01*
X118237000Y-69088000D01*
X118139222Y-69210650D01*
X118126088Y-69257333D01*
X117839210Y-69257333D01*
X117846774Y-69108533D01*
X117943216Y-69049864D01*
X117983000Y-69047590D01*
X118125972Y-68983969D01*
X118154709Y-68876333D01*
X118533333Y-68876333D01*
X118575666Y-68918667D01*
X118618000Y-68876333D01*
X119464666Y-68876333D01*
X119507000Y-68918667D01*
X119549333Y-68876333D01*
X119591666Y-68876333D01*
X119752955Y-69066833D01*
X119903072Y-69226813D01*
X119968454Y-69249910D01*
X119972666Y-69228122D01*
X119915569Y-69158977D01*
X119782166Y-69037622D01*
X119591666Y-68876333D01*
X119549333Y-68876333D01*
X119507000Y-68834000D01*
X119464666Y-68876333D01*
X118618000Y-68876333D01*
X118575666Y-68834000D01*
X118533333Y-68876333D01*
X118154709Y-68876333D01*
X118185359Y-68791667D01*
X118872000Y-68791667D01*
X118914333Y-68834000D01*
X118956666Y-68791667D01*
X119126000Y-68791667D01*
X119168333Y-68834000D01*
X119210666Y-68791667D01*
X119168333Y-68749333D01*
X119126000Y-68791667D01*
X118956666Y-68791667D01*
X118914333Y-68749333D01*
X118872000Y-68791667D01*
X118185359Y-68791667D01*
X118201142Y-68748069D01*
X118353034Y-68728555D01*
X118528581Y-68692749D01*
X118593366Y-68580388D01*
X118640807Y-68443909D01*
X118716211Y-68427704D01*
X118871035Y-68514380D01*
X119025732Y-68575752D01*
X119140820Y-68514380D01*
X119285860Y-68417679D01*
X119369141Y-68461867D01*
X119380000Y-68532670D01*
X119439622Y-68684848D01*
X119579457Y-68714817D01*
X119680042Y-68661588D01*
X119784471Y-68609387D01*
X119813099Y-68633133D01*
X119829108Y-68779263D01*
X119834266Y-68834000D01*
X119916669Y-68933951D01*
X120037123Y-68954174D01*
X120178148Y-68981457D01*
X120210265Y-69109356D01*
X120206456Y-69156960D01*
X120226847Y-69329233D01*
X120290166Y-69403675D01*
X120333897Y-69379919D01*
X120364571Y-69260167D01*
X120383950Y-69025166D01*
X120393798Y-68655666D01*
X120396000Y-68248389D01*
X120396000Y-67056000D01*
X114384666Y-67056000D01*
X114210800Y-67056000D01*
X114215333Y-66802000D01*
X117263333Y-66802000D01*
X117263333Y-66543003D01*
X117432666Y-66543003D01*
X117494127Y-66629221D01*
X117517333Y-66632667D01*
X117599798Y-66603780D01*
X117602000Y-66595330D01*
X117542671Y-66523044D01*
X117517333Y-66505667D01*
X117439314Y-66512379D01*
X117432666Y-66543003D01*
X117263333Y-66543003D01*
X117263333Y-66124667D01*
X117432666Y-66124667D01*
X117453119Y-66303066D01*
X117502392Y-66378649D01*
X117503222Y-66378667D01*
X117552777Y-66305037D01*
X117573772Y-66127653D01*
X117573777Y-66124667D01*
X117553325Y-65946267D01*
X117504051Y-65870684D01*
X117503222Y-65870667D01*
X117453666Y-65944296D01*
X117432671Y-66121680D01*
X117432666Y-66124667D01*
X117263333Y-66124667D01*
X117263333Y-65749555D01*
X117263058Y-65663997D01*
X117432666Y-65663997D01*
X117473712Y-65751631D01*
X117517333Y-65743667D01*
X117598770Y-65635424D01*
X117602000Y-65611670D01*
X117537421Y-65534280D01*
X117517333Y-65532000D01*
X117443028Y-65600915D01*
X117432666Y-65663997D01*
X117263058Y-65663997D01*
X117261933Y-65315336D01*
X117432666Y-65315336D01*
X117476871Y-65431179D01*
X117517333Y-65447333D01*
X117599576Y-65386566D01*
X117602000Y-65367663D01*
X117540455Y-65252996D01*
X117517333Y-65235667D01*
X117444850Y-65254860D01*
X117432666Y-65315336D01*
X117261933Y-65315336D01*
X117261921Y-65311762D01*
X117254724Y-65024000D01*
X117432666Y-65024000D01*
X117497095Y-65106206D01*
X117517333Y-65108667D01*
X117599539Y-65044237D01*
X117602000Y-65024000D01*
X117537570Y-64941793D01*
X117517333Y-64939333D01*
X117435126Y-65003762D01*
X117432666Y-65024000D01*
X117254724Y-65024000D01*
X117254496Y-65014884D01*
X117236270Y-64830507D01*
X117203282Y-64732663D01*
X117432666Y-64732663D01*
X117473712Y-64820298D01*
X117517333Y-64812333D01*
X117598770Y-64704090D01*
X117602000Y-64680336D01*
X117537421Y-64602947D01*
X117517333Y-64600667D01*
X117443028Y-64669582D01*
X117432666Y-64732663D01*
X117203282Y-64732663D01*
X117202457Y-64730217D01*
X117148270Y-64685600D01*
X117081480Y-64670055D01*
X116894372Y-64577746D01*
X116806313Y-64475617D01*
X116740845Y-64384003D01*
X117432666Y-64384003D01*
X117476871Y-64499845D01*
X117517333Y-64516000D01*
X117599576Y-64455232D01*
X117602000Y-64436330D01*
X117540455Y-64321663D01*
X117517333Y-64304333D01*
X117444850Y-64323527D01*
X117432666Y-64384003D01*
X116740845Y-64384003D01*
X116678286Y-64296460D01*
X116597220Y-64215480D01*
X116531739Y-64127247D01*
X116544554Y-64050333D01*
X117432666Y-64050333D01*
X117478384Y-64163005D01*
X117517333Y-64177333D01*
X117592447Y-64108757D01*
X117602000Y-64050333D01*
X117556282Y-63937661D01*
X117517333Y-63923333D01*
X117442218Y-63991910D01*
X117432666Y-64050333D01*
X116544554Y-64050333D01*
X116553490Y-63996709D01*
X116623652Y-63847719D01*
X116765863Y-63572712D01*
X116389281Y-63629184D01*
X116065612Y-63640442D01*
X115814555Y-63578319D01*
X115672946Y-63455395D01*
X115654666Y-63378335D01*
X115720456Y-63260687D01*
X115882548Y-63119529D01*
X115920509Y-63094309D01*
X116186351Y-62925990D01*
X115931950Y-62870114D01*
X115654070Y-62757179D01*
X115434931Y-62575132D01*
X115322079Y-62367105D01*
X115316000Y-62311368D01*
X115322119Y-62261032D01*
X115353250Y-62222049D01*
X115428556Y-62192970D01*
X115567196Y-62172345D01*
X115788334Y-62158728D01*
X116111128Y-62150669D01*
X116554742Y-62146720D01*
X117138337Y-62145432D01*
X117512336Y-62145333D01*
X118199639Y-62148487D01*
G36*
X119237201Y-69603041D02*
X119343369Y-69761626D01*
X119369515Y-69950875D01*
X119288545Y-70124564D01*
X119244858Y-70162756D01*
X119102784Y-70251259D01*
X119041333Y-70273333D01*
X118938639Y-70228851D01*
X118837808Y-70162756D01*
X118727467Y-69991921D01*
X118734424Y-69777943D01*
X118852016Y-69593040D01*
X118893166Y-69562746D01*
X119078102Y-69521340D01*
X119237201Y-69603041D01*
X119237201Y-69603041D01*
G37*
X119237201Y-69603041D02*
X119343369Y-69761626D01*
X119369515Y-69950875D01*
X119288545Y-70124564D01*
X119244858Y-70162756D01*
X119102784Y-70251259D01*
X119041333Y-70273333D01*
X118938639Y-70228851D01*
X118837808Y-70162756D01*
X118727467Y-69991921D01*
X118734424Y-69777943D01*
X118852016Y-69593040D01*
X118893166Y-69562746D01*
X119078102Y-69521340D01*
X119237201Y-69603041D01*
G36*
X116132565Y-68949107D02*
X116200199Y-69022172D01*
X116316415Y-69249025D01*
X116290131Y-69435809D01*
X116162666Y-69596000D01*
X115920405Y-69746327D01*
X115666546Y-69728194D01*
X115533265Y-69652897D01*
X115412493Y-69472677D01*
X115385661Y-69227826D01*
X115458326Y-68998147D01*
X115485116Y-68961261D01*
X115674967Y-68849146D01*
X115915054Y-68847162D01*
X116132565Y-68949107D01*
X116132565Y-68949107D01*
G37*
X116132565Y-68949107D02*
X116200199Y-69022172D01*
X116316415Y-69249025D01*
X116290131Y-69435809D01*
X116162666Y-69596000D01*
X115920405Y-69746327D01*
X115666546Y-69728194D01*
X115533265Y-69652897D01*
X115412493Y-69472677D01*
X115385661Y-69227826D01*
X115458326Y-68998147D01*
X115485116Y-68961261D01*
X115674967Y-68849146D01*
X115915054Y-68847162D01*
X116132565Y-68949107D01*
D12*
X109220000Y-106934000D02*
X109220000Y-88900000D01*
X76454000Y-88900000D02*
X76454000Y-106934000D01*
X109220000Y-106934000D02*
X76454000Y-106934000D01*
X76454000Y-88900000D02*
X109220000Y-88900000D01*
D13*
X76775000Y-139005000D02*
X76775000Y-141665000D01*
X102235000Y-139005000D02*
X76775000Y-139005000D01*
X102235000Y-141665000D02*
X76775000Y-141665000D01*
X102235000Y-139005000D02*
X102235000Y-141665000D01*
X103505000Y-139005000D02*
X104835000Y-139005000D01*
X104835000Y-139005000D02*
X104835000Y-140335000D01*
X76140000Y-78800000D02*
X78800000Y-78800000D01*
X76140000Y-76200000D02*
X76140000Y-78800000D01*
X78800000Y-76200000D02*
X78800000Y-78800000D01*
X76140000Y-76200000D02*
X78800000Y-76200000D01*
X76140000Y-74930000D02*
X76140000Y-73600000D01*
X76140000Y-73600000D02*
X77470000Y-73600000D01*
X107890000Y-77530000D02*
X110550000Y-77530000D01*
X107890000Y-74930000D02*
X107890000Y-77530000D01*
X110550000Y-74930000D02*
X110550000Y-77530000D01*
X107890000Y-74930000D02*
X110550000Y-74930000D01*
X107890000Y-73660000D02*
X107890000Y-72330000D01*
X107890000Y-72330000D02*
X109220000Y-72330000D01*
X113630000Y-85380000D02*
X113630000Y-85050000D01*
X113630000Y-85050000D02*
X120050000Y-85050000D01*
X120050000Y-85050000D02*
X120050000Y-85380000D01*
X113630000Y-87340000D02*
X113630000Y-87670000D01*
X113630000Y-87670000D02*
X120050000Y-87670000D01*
X120050000Y-87670000D02*
X120050000Y-87340000D01*
X113630000Y-95540000D02*
X113630000Y-95210000D01*
X113630000Y-95210000D02*
X120050000Y-95210000D01*
X120050000Y-95210000D02*
X120050000Y-95540000D01*
X113630000Y-97500000D02*
X113630000Y-97830000D01*
X113630000Y-97830000D02*
X120050000Y-97830000D01*
X120050000Y-97830000D02*
X120050000Y-97500000D01*
X113630000Y-90460000D02*
X113630000Y-90130000D01*
X113630000Y-90130000D02*
X120050000Y-90130000D01*
X120050000Y-90130000D02*
X120050000Y-90460000D01*
X113630000Y-92420000D02*
X113630000Y-92750000D01*
X113630000Y-92750000D02*
X120050000Y-92750000D01*
X120050000Y-92750000D02*
X120050000Y-92420000D01*
D12*
X82550000Y-110490000D02*
X97790000Y-110490000D01*
X97790000Y-110490000D02*
X97790000Y-133350000D01*
X97790000Y-133350000D02*
X82550000Y-133350000D01*
X82550000Y-133350000D02*
X82550000Y-110490000D01*
D13*
X97400000Y-57700000D02*
X97950000Y-57700000D01*
X97950000Y-57700000D02*
X97950000Y-58950000D01*
X97400000Y-68200000D02*
X97950000Y-68200000D01*
X97950000Y-68200000D02*
X97950000Y-66950000D01*
X88000000Y-57700000D02*
X87450000Y-57700000D01*
X87450000Y-57700000D02*
X87450000Y-62950000D01*
X88000000Y-68200000D02*
X87450000Y-68200000D01*
X87450000Y-68200000D02*
X87450000Y-66950000D01*
X130767211Y-99713693D02*
X128886307Y-97832789D01*
X119948478Y-110532426D02*
X130767211Y-99713693D01*
X118067574Y-108651522D02*
X128886307Y-97832789D01*
X119948478Y-110532426D02*
X118067574Y-108651522D01*
X119050452Y-111430452D02*
X118110000Y-112370904D01*
X118110000Y-112370904D02*
X117169548Y-111430452D01*
X99120000Y-137220000D02*
X99120000Y-134560000D01*
X83820000Y-137220000D02*
X99120000Y-137220000D01*
X83820000Y-134560000D02*
X99120000Y-134560000D01*
X83820000Y-137220000D02*
X83820000Y-134560000D01*
X82550000Y-137220000D02*
X81220000Y-137220000D01*
X81220000Y-137220000D02*
X81220000Y-135890000D01*
X65386307Y-112987211D02*
X67267211Y-111106307D01*
X54567574Y-102168478D02*
X65386307Y-112987211D01*
X56448478Y-100287574D02*
X67267211Y-111106307D01*
X54567574Y-102168478D02*
X56448478Y-100287574D01*
X53669548Y-101270452D02*
X52729096Y-100330000D01*
X52729096Y-100330000D02*
X53669548Y-99389548D01*
D12*
X111760167Y-119010581D02*
X111426833Y-118534390D01*
X111188738Y-119010581D02*
X111188738Y-118010581D01*
X111569691Y-118010581D01*
X111664929Y-118058200D01*
X111712548Y-118105819D01*
X111760167Y-118201057D01*
X111760167Y-118343914D01*
X111712548Y-118439152D01*
X111664929Y-118486771D01*
X111569691Y-118534390D01*
X111188738Y-118534390D01*
X112188738Y-118486771D02*
X112522072Y-118486771D01*
X112664929Y-119010581D02*
X112188738Y-119010581D01*
X112188738Y-118010581D01*
X112664929Y-118010581D01*
X113426834Y-118486771D02*
X113093500Y-118486771D01*
X113093500Y-119010581D02*
X113093500Y-118010581D01*
X113569691Y-118010581D01*
X114093500Y-118010581D02*
X114093500Y-118248676D01*
X113855405Y-118153438D02*
X114093500Y-118248676D01*
X114331596Y-118153438D01*
X113950643Y-118439152D02*
X114093500Y-118248676D01*
X114236358Y-118439152D01*
X114855405Y-118010581D02*
X114855405Y-118248676D01*
X114617310Y-118153438D02*
X114855405Y-118248676D01*
X115093501Y-118153438D01*
X114712548Y-118439152D02*
X114855405Y-118248676D01*
X114998263Y-118439152D01*
D14*
X79229048Y-108311905D02*
X79229048Y-107511905D01*
X80067143Y-108235714D02*
X80029048Y-108273810D01*
X79914762Y-108311905D01*
X79838572Y-108311905D01*
X79724286Y-108273810D01*
X79648095Y-108197619D01*
X79610000Y-108121429D01*
X79571905Y-107969048D01*
X79571905Y-107854762D01*
X79610000Y-107702381D01*
X79648095Y-107626190D01*
X79724286Y-107550000D01*
X79838572Y-107511905D01*
X79914762Y-107511905D01*
X80029048Y-107550000D01*
X80067143Y-107588095D01*
X80829048Y-108311905D02*
X80371905Y-108311905D01*
X80600476Y-108311905D02*
X80600476Y-107511905D01*
X80524286Y-107626190D01*
X80448095Y-107702381D01*
X80371905Y-107740476D01*
D12*
X105287381Y-140668333D02*
X106001667Y-140668333D01*
X106144524Y-140715953D01*
X106239762Y-140811191D01*
X106287381Y-140954048D01*
X106287381Y-141049286D01*
X106287381Y-139668333D02*
X106287381Y-140239762D01*
X106287381Y-139954048D02*
X105287381Y-139954048D01*
X105430238Y-140049286D01*
X105525476Y-140144524D01*
X105573095Y-140239762D01*
X77136667Y-72052381D02*
X77136667Y-72766667D01*
X77089047Y-72909524D01*
X76993809Y-73004762D01*
X76850952Y-73052381D01*
X76755714Y-73052381D01*
X77565238Y-72147619D02*
X77612857Y-72100000D01*
X77708095Y-72052381D01*
X77946191Y-72052381D01*
X78041429Y-72100000D01*
X78089048Y-72147619D01*
X78136667Y-72242857D01*
X78136667Y-72338095D01*
X78089048Y-72480952D01*
X77517619Y-73052381D01*
X78136667Y-73052381D01*
X108886667Y-70782381D02*
X108886667Y-71496667D01*
X108839047Y-71639524D01*
X108743809Y-71734762D01*
X108600952Y-71782381D01*
X108505714Y-71782381D01*
X109267619Y-70782381D02*
X109886667Y-70782381D01*
X109553333Y-71163333D01*
X109696191Y-71163333D01*
X109791429Y-71210952D01*
X109839048Y-71258571D01*
X109886667Y-71353810D01*
X109886667Y-71591905D01*
X109839048Y-71687143D01*
X109791429Y-71734762D01*
X109696191Y-71782381D01*
X109410476Y-71782381D01*
X109315238Y-71734762D01*
X109267619Y-71687143D01*
X116673334Y-84502381D02*
X116340000Y-84026190D01*
X116101905Y-84502381D02*
X116101905Y-83502381D01*
X116482858Y-83502381D01*
X116578096Y-83550000D01*
X116625715Y-83597619D01*
X116673334Y-83692857D01*
X116673334Y-83835714D01*
X116625715Y-83930952D01*
X116578096Y-83978571D01*
X116482858Y-84026190D01*
X116101905Y-84026190D01*
X117625715Y-84502381D02*
X117054286Y-84502381D01*
X117340000Y-84502381D02*
X117340000Y-83502381D01*
X117244762Y-83645238D01*
X117149524Y-83740476D01*
X117054286Y-83788095D01*
X116673334Y-94662381D02*
X116340000Y-94186190D01*
X116101905Y-94662381D02*
X116101905Y-93662381D01*
X116482858Y-93662381D01*
X116578096Y-93710000D01*
X116625715Y-93757619D01*
X116673334Y-93852857D01*
X116673334Y-93995714D01*
X116625715Y-94090952D01*
X116578096Y-94138571D01*
X116482858Y-94186190D01*
X116101905Y-94186190D01*
X117054286Y-93757619D02*
X117101905Y-93710000D01*
X117197143Y-93662381D01*
X117435239Y-93662381D01*
X117530477Y-93710000D01*
X117578096Y-93757619D01*
X117625715Y-93852857D01*
X117625715Y-93948095D01*
X117578096Y-94090952D01*
X117006667Y-94662381D01*
X117625715Y-94662381D01*
X116673334Y-89582381D02*
X116340000Y-89106190D01*
X116101905Y-89582381D02*
X116101905Y-88582381D01*
X116482858Y-88582381D01*
X116578096Y-88630000D01*
X116625715Y-88677619D01*
X116673334Y-88772857D01*
X116673334Y-88915714D01*
X116625715Y-89010952D01*
X116578096Y-89058571D01*
X116482858Y-89106190D01*
X116101905Y-89106190D01*
X117006667Y-88582381D02*
X117625715Y-88582381D01*
X117292381Y-88963333D01*
X117435239Y-88963333D01*
X117530477Y-89010952D01*
X117578096Y-89058571D01*
X117625715Y-89153810D01*
X117625715Y-89391905D01*
X117578096Y-89487143D01*
X117530477Y-89534762D01*
X117435239Y-89582381D01*
X117149524Y-89582381D01*
X117054286Y-89534762D01*
X117006667Y-89487143D01*
X88138095Y-123912381D02*
X88138095Y-124721905D01*
X88185714Y-124817143D01*
X88233333Y-124864762D01*
X88328571Y-124912381D01*
X88519048Y-124912381D01*
X88614286Y-124864762D01*
X88661905Y-124817143D01*
X88709524Y-124721905D01*
X88709524Y-123912381D01*
X89709524Y-124912381D02*
X89138095Y-124912381D01*
X89423809Y-124912381D02*
X89423809Y-123912381D01*
X89328571Y-124055238D01*
X89233333Y-124150476D01*
X89138095Y-124198095D01*
X88613095Y-54752381D02*
X88613095Y-55561905D01*
X88660714Y-55657143D01*
X88708333Y-55704762D01*
X88803571Y-55752381D01*
X88994048Y-55752381D01*
X89089286Y-55704762D01*
X89136905Y-55657143D01*
X89184524Y-55561905D01*
X89184524Y-54752381D01*
X90089286Y-55085714D02*
X90089286Y-55752381D01*
X89851190Y-54704762D02*
X89613095Y-55419048D01*
X90232143Y-55419048D01*
X116310918Y-111211586D02*
X115738498Y-111784006D01*
X115704826Y-111885021D01*
X115704826Y-111952364D01*
X115738498Y-112053379D01*
X115873186Y-112188067D01*
X115974201Y-112221739D01*
X116041544Y-112221739D01*
X116142559Y-112188067D01*
X116714979Y-111615647D01*
X117388414Y-112289082D02*
X117051696Y-111952364D01*
X116681308Y-112255410D01*
X116748651Y-112255410D01*
X116849666Y-112289081D01*
X117018025Y-112457441D01*
X117051697Y-112558456D01*
X117051697Y-112625799D01*
X117018025Y-112726815D01*
X116849666Y-112895174D01*
X116748651Y-112928845D01*
X116681308Y-112928845D01*
X116580292Y-112895174D01*
X116411933Y-112726814D01*
X116378261Y-112625799D01*
X116378261Y-112558456D01*
X79672381Y-136651905D02*
X80481905Y-136651905D01*
X80577143Y-136604286D01*
X80624762Y-136556667D01*
X80672381Y-136461429D01*
X80672381Y-136270952D01*
X80624762Y-136175714D01*
X80577143Y-136128095D01*
X80481905Y-136080476D01*
X79672381Y-136080476D01*
X79672381Y-135175714D02*
X79672381Y-135366191D01*
X79720000Y-135461429D01*
X79767619Y-135509048D01*
X79910476Y-135604286D01*
X80100952Y-135651905D01*
X80481905Y-135651905D01*
X80577143Y-135604286D01*
X80624762Y-135556667D01*
X80672381Y-135461429D01*
X80672381Y-135270952D01*
X80624762Y-135175714D01*
X80577143Y-135128095D01*
X80481905Y-135080476D01*
X80243810Y-135080476D01*
X80148571Y-135128095D01*
X80100952Y-135175714D01*
X80053333Y-135270952D01*
X80053333Y-135461429D01*
X80100952Y-135556667D01*
X80148571Y-135604286D01*
X80243810Y-135651905D01*
X52036468Y-98833964D02*
X52608888Y-99406384D01*
X52709903Y-99440056D01*
X52777246Y-99440056D01*
X52878261Y-99406384D01*
X53012949Y-99271696D01*
X53046621Y-99170681D01*
X53046621Y-99103338D01*
X53012949Y-99002323D01*
X52440529Y-98429903D01*
X52709903Y-98160529D02*
X53181308Y-97689124D01*
X53585368Y-98699277D01*
X55181667Y-62330481D02*
X54848333Y-61854290D01*
X54610238Y-62330481D02*
X54610238Y-61330481D01*
X54991191Y-61330481D01*
X55086429Y-61378100D01*
X55134048Y-61425719D01*
X55181667Y-61520957D01*
X55181667Y-61663814D01*
X55134048Y-61759052D01*
X55086429Y-61806671D01*
X54991191Y-61854290D01*
X54610238Y-61854290D01*
X55610238Y-61806671D02*
X55943572Y-61806671D01*
X56086429Y-62330481D02*
X55610238Y-62330481D01*
X55610238Y-61330481D01*
X56086429Y-61330481D01*
X56848334Y-61806671D02*
X56515000Y-61806671D01*
X56515000Y-62330481D02*
X56515000Y-61330481D01*
X56991191Y-61330481D01*
X57515000Y-61330481D02*
X57515000Y-61568576D01*
X57276905Y-61473338D02*
X57515000Y-61568576D01*
X57753096Y-61473338D01*
X57372143Y-61759052D02*
X57515000Y-61568576D01*
X57657858Y-61759052D01*
X58276905Y-61330481D02*
X58276905Y-61568576D01*
X58038810Y-61473338D02*
X58276905Y-61568576D01*
X58515001Y-61473338D01*
X58134048Y-61759052D02*
X58276905Y-61568576D01*
X58419763Y-61759052D01*
X55168967Y-85317481D02*
X54835633Y-84841290D01*
X54597538Y-85317481D02*
X54597538Y-84317481D01*
X54978491Y-84317481D01*
X55073729Y-84365100D01*
X55121348Y-84412719D01*
X55168967Y-84507957D01*
X55168967Y-84650814D01*
X55121348Y-84746052D01*
X55073729Y-84793671D01*
X54978491Y-84841290D01*
X54597538Y-84841290D01*
X55597538Y-84793671D02*
X55930872Y-84793671D01*
X56073729Y-85317481D02*
X55597538Y-85317481D01*
X55597538Y-84317481D01*
X56073729Y-84317481D01*
X56835634Y-84793671D02*
X56502300Y-84793671D01*
X56502300Y-85317481D02*
X56502300Y-84317481D01*
X56978491Y-84317481D01*
X57502300Y-84317481D02*
X57502300Y-84555576D01*
X57264205Y-84460338D02*
X57502300Y-84555576D01*
X57740396Y-84460338D01*
X57359443Y-84746052D02*
X57502300Y-84555576D01*
X57645158Y-84746052D01*
X58264205Y-84317481D02*
X58264205Y-84555576D01*
X58026110Y-84460338D02*
X58264205Y-84555576D01*
X58502301Y-84460338D01*
X58121348Y-84746052D02*
X58264205Y-84555576D01*
X58407063Y-84746052D01*
X125158667Y-62343181D02*
X124825333Y-61866990D01*
X124587238Y-62343181D02*
X124587238Y-61343181D01*
X124968191Y-61343181D01*
X125063429Y-61390800D01*
X125111048Y-61438419D01*
X125158667Y-61533657D01*
X125158667Y-61676514D01*
X125111048Y-61771752D01*
X125063429Y-61819371D01*
X124968191Y-61866990D01*
X124587238Y-61866990D01*
X125587238Y-61819371D02*
X125920572Y-61819371D01*
X126063429Y-62343181D02*
X125587238Y-62343181D01*
X125587238Y-61343181D01*
X126063429Y-61343181D01*
X126825334Y-61819371D02*
X126492000Y-61819371D01*
X126492000Y-62343181D02*
X126492000Y-61343181D01*
X126968191Y-61343181D01*
X127492000Y-61343181D02*
X127492000Y-61581276D01*
X127253905Y-61486038D02*
X127492000Y-61581276D01*
X127730096Y-61486038D01*
X127349143Y-61771752D02*
X127492000Y-61581276D01*
X127634858Y-61771752D01*
X128253905Y-61343181D02*
X128253905Y-61581276D01*
X128015810Y-61486038D02*
X128253905Y-61581276D01*
X128492001Y-61486038D01*
X128111048Y-61771752D02*
X128253905Y-61581276D01*
X128396763Y-61771752D01*
X125158667Y-85355581D02*
X124825333Y-84879390D01*
X124587238Y-85355581D02*
X124587238Y-84355581D01*
X124968191Y-84355581D01*
X125063429Y-84403200D01*
X125111048Y-84450819D01*
X125158667Y-84546057D01*
X125158667Y-84688914D01*
X125111048Y-84784152D01*
X125063429Y-84831771D01*
X124968191Y-84879390D01*
X124587238Y-84879390D01*
X125587238Y-84831771D02*
X125920572Y-84831771D01*
X126063429Y-85355581D02*
X125587238Y-85355581D01*
X125587238Y-84355581D01*
X126063429Y-84355581D01*
X126825334Y-84831771D02*
X126492000Y-84831771D01*
X126492000Y-85355581D02*
X126492000Y-84355581D01*
X126968191Y-84355581D01*
X127492000Y-84355581D02*
X127492000Y-84593676D01*
X127253905Y-84498438D02*
X127492000Y-84593676D01*
X127730096Y-84498438D01*
X127349143Y-84784152D02*
X127492000Y-84593676D01*
X127634858Y-84784152D01*
X128253905Y-84355581D02*
X128253905Y-84593676D01*
X128015810Y-84498438D02*
X128253905Y-84593676D01*
X128492001Y-84498438D01*
X128111048Y-84784152D02*
X128253905Y-84593676D01*
X128396763Y-84784152D01*
X111772867Y-136828681D02*
X111439533Y-136352490D01*
X111201438Y-136828681D02*
X111201438Y-135828681D01*
X111582391Y-135828681D01*
X111677629Y-135876300D01*
X111725248Y-135923919D01*
X111772867Y-136019157D01*
X111772867Y-136162014D01*
X111725248Y-136257252D01*
X111677629Y-136304871D01*
X111582391Y-136352490D01*
X111201438Y-136352490D01*
X112201438Y-136304871D02*
X112534772Y-136304871D01*
X112677629Y-136828681D02*
X112201438Y-136828681D01*
X112201438Y-135828681D01*
X112677629Y-135828681D01*
X113439534Y-136304871D02*
X113106200Y-136304871D01*
X113106200Y-136828681D02*
X113106200Y-135828681D01*
X113582391Y-135828681D01*
X114106200Y-135828681D02*
X114106200Y-136066776D01*
X113868105Y-135971538D02*
X114106200Y-136066776D01*
X114344296Y-135971538D01*
X113963343Y-136257252D02*
X114106200Y-136066776D01*
X114249058Y-136257252D01*
X114868105Y-135828681D02*
X114868105Y-136066776D01*
X114630010Y-135971538D02*
X114868105Y-136066776D01*
X115106201Y-135971538D01*
X114725248Y-136257252D02*
X114868105Y-136066776D01*
X115010963Y-136257252D01*
X68580167Y-119023281D02*
X68246833Y-118547090D01*
X68008738Y-119023281D02*
X68008738Y-118023281D01*
X68389691Y-118023281D01*
X68484929Y-118070900D01*
X68532548Y-118118519D01*
X68580167Y-118213757D01*
X68580167Y-118356614D01*
X68532548Y-118451852D01*
X68484929Y-118499471D01*
X68389691Y-118547090D01*
X68008738Y-118547090D01*
X69008738Y-118499471D02*
X69342072Y-118499471D01*
X69484929Y-119023281D02*
X69008738Y-119023281D01*
X69008738Y-118023281D01*
X69484929Y-118023281D01*
X70246834Y-118499471D02*
X69913500Y-118499471D01*
X69913500Y-119023281D02*
X69913500Y-118023281D01*
X70389691Y-118023281D01*
X70913500Y-118023281D02*
X70913500Y-118261376D01*
X70675405Y-118166138D02*
X70913500Y-118261376D01*
X71151596Y-118166138D01*
X70770643Y-118451852D02*
X70913500Y-118261376D01*
X71056358Y-118451852D01*
X71675405Y-118023281D02*
X71675405Y-118261376D01*
X71437310Y-118166138D02*
X71675405Y-118261376D01*
X71913501Y-118166138D01*
X71532548Y-118451852D02*
X71675405Y-118261376D01*
X71818263Y-118451852D01*
X68567467Y-136790581D02*
X68234133Y-136314390D01*
X67996038Y-136790581D02*
X67996038Y-135790581D01*
X68376991Y-135790581D01*
X68472229Y-135838200D01*
X68519848Y-135885819D01*
X68567467Y-135981057D01*
X68567467Y-136123914D01*
X68519848Y-136219152D01*
X68472229Y-136266771D01*
X68376991Y-136314390D01*
X67996038Y-136314390D01*
X68996038Y-136266771D02*
X69329372Y-136266771D01*
X69472229Y-136790581D02*
X68996038Y-136790581D01*
X68996038Y-135790581D01*
X69472229Y-135790581D01*
X70234134Y-136266771D02*
X69900800Y-136266771D01*
X69900800Y-136790581D02*
X69900800Y-135790581D01*
X70376991Y-135790581D01*
X70900800Y-135790581D02*
X70900800Y-136028676D01*
X70662705Y-135933438D02*
X70900800Y-136028676D01*
X71138896Y-135933438D01*
X70757943Y-136219152D02*
X70900800Y-136028676D01*
X71043658Y-136219152D01*
X71662705Y-135790581D02*
X71662705Y-136028676D01*
X71424610Y-135933438D02*
X71662705Y-136028676D01*
X71900801Y-135933438D01*
X71519848Y-136219152D02*
X71662705Y-136028676D01*
X71805563Y-136219152D01*
M02*
