G04 #@! TF.FileFunction,Copper,L2,Bot,Signal*
%FSLAX46Y46*%
G04 Gerber Fmt 4.6, Leading zero omitted, Abs format (unit mm)*
G04 Created by KiCad (PCBNEW 4.0.2+dfsg1-stable) date Sun 09 Sep 2018 04:47:05 PM CEST*
%MOMM*%
G01*
G04 APERTURE LIST*
%ADD10C,0.100000*%
%ADD11O,1.501140X2.199640*%
%ADD12O,2.199640X1.501140*%
%ADD13R,1.700000X1.700000*%
%ADD14O,1.700000X1.700000*%
%ADD15C,1.600000*%
%ADD16O,1.600000X1.600000*%
%ADD17C,1.524000*%
%ADD18C,1.800000*%
%ADD19R,1.800000X1.800000*%
%ADD20C,1.700000*%
%ADD21C,0.600000*%
%ADD22C,0.500000*%
%ADD23C,0.250000*%
%ADD24C,0.254000*%
G04 APERTURE END LIST*
D10*
D11*
X99060000Y-92710000D03*
X101600000Y-92710000D03*
X80010000Y-105410000D03*
X82550000Y-105410000D03*
X85090000Y-105410000D03*
X87630000Y-105410000D03*
X90170000Y-105410000D03*
X92710000Y-105410000D03*
X95250000Y-105410000D03*
X97790000Y-105410000D03*
X100330000Y-105410000D03*
X102870000Y-105410000D03*
X105410000Y-105410000D03*
X107950000Y-105410000D03*
X107950000Y-90170000D03*
X105410000Y-90170000D03*
X102870000Y-90170000D03*
X100330000Y-90170000D03*
X97790000Y-90170000D03*
X95250000Y-90170000D03*
X92710000Y-90170000D03*
X90170000Y-90170000D03*
X87630000Y-90170000D03*
X85090000Y-90170000D03*
X82550000Y-90170000D03*
X80010000Y-90170000D03*
X91440000Y-92710000D03*
X88900000Y-92710000D03*
D12*
X107950000Y-92710000D03*
X107950000Y-95250000D03*
X107950000Y-97790000D03*
D13*
X103505000Y-140335000D03*
D14*
X100965000Y-140335000D03*
X98425000Y-140335000D03*
X95885000Y-140335000D03*
X93345000Y-140335000D03*
X90805000Y-140335000D03*
X88265000Y-140335000D03*
X85725000Y-140335000D03*
X83185000Y-140335000D03*
X80645000Y-140335000D03*
X78105000Y-140335000D03*
D13*
X77470000Y-74930000D03*
D14*
X77470000Y-77470000D03*
D13*
X109220000Y-73660000D03*
D14*
X109220000Y-76200000D03*
D15*
X113030000Y-86360000D03*
D16*
X120650000Y-86360000D03*
D15*
X113030000Y-96520000D03*
D16*
X120650000Y-96520000D03*
D15*
X113030000Y-91440000D03*
D16*
X120650000Y-91440000D03*
D17*
X85090000Y-113030000D03*
X85090000Y-115570000D03*
X85090000Y-118110000D03*
X85090000Y-120650000D03*
X85090000Y-123190000D03*
X85090000Y-125730000D03*
X85090000Y-128270000D03*
X85090000Y-130810000D03*
X95250000Y-113030000D03*
X95250000Y-115570000D03*
X95250000Y-118110000D03*
X95250000Y-120650000D03*
X95250000Y-125730000D03*
X95250000Y-123190000D03*
X95250000Y-128270000D03*
X95250000Y-130810000D03*
D18*
X96500000Y-57150000D03*
X96500000Y-68750000D03*
D19*
X88900000Y-57150000D03*
D18*
X88900000Y-68750000D03*
D10*
G36*
X119312082Y-110490000D02*
X118110000Y-111692082D01*
X116907918Y-110490000D01*
X118110000Y-109287918D01*
X119312082Y-110490000D01*
X119312082Y-110490000D01*
G37*
D20*
X119906051Y-108693949D02*
X119906051Y-108693949D01*
X121702102Y-106897898D02*
X121702102Y-106897898D01*
X123498154Y-105101846D02*
X123498154Y-105101846D01*
X125294205Y-103305795D02*
X125294205Y-103305795D01*
X127090256Y-101509744D02*
X127090256Y-101509744D01*
X128886307Y-99713693D02*
X128886307Y-99713693D01*
D13*
X82550000Y-135890000D03*
D14*
X85090000Y-135890000D03*
X87630000Y-135890000D03*
X90170000Y-135890000D03*
X92710000Y-135890000D03*
X95250000Y-135890000D03*
X97790000Y-135890000D03*
D10*
G36*
X54610000Y-101532082D02*
X53407918Y-100330000D01*
X54610000Y-99127918D01*
X55812082Y-100330000D01*
X54610000Y-101532082D01*
X54610000Y-101532082D01*
G37*
D20*
X56406051Y-102126051D02*
X56406051Y-102126051D01*
X58202102Y-103922102D02*
X58202102Y-103922102D01*
X59998154Y-105718154D02*
X59998154Y-105718154D01*
X61794205Y-107514205D02*
X61794205Y-107514205D01*
X63590256Y-109310256D02*
X63590256Y-109310256D01*
X65386307Y-111106307D02*
X65386307Y-111106307D01*
D21*
X106680000Y-106968400D03*
X89501300Y-115803000D03*
X92378500Y-126480400D03*
X93345000Y-109220000D03*
X93345000Y-115570000D03*
X95250000Y-108585000D03*
X97790000Y-117049600D03*
X95885000Y-134620000D03*
X97790000Y-132715000D03*
X96520000Y-127000000D03*
X98425000Y-125095000D03*
X107950000Y-117333300D03*
X78809000Y-97186700D03*
X78152600Y-113783400D03*
X86324100Y-131696800D03*
X75428100Y-103096200D03*
X79045100Y-120954500D03*
X88762500Y-124862200D03*
X91440000Y-111762800D03*
X110064500Y-111883600D03*
X80010000Y-113665000D03*
X80010000Y-110490000D03*
X76200000Y-107315000D03*
X87950700Y-124433000D03*
D22*
X99060000Y-92710000D02*
X100310600Y-92710000D01*
X100310600Y-93469100D02*
X100310600Y-92710000D01*
X102091500Y-95250000D02*
X100310600Y-93469100D01*
X107950000Y-95250000D02*
X102091500Y-95250000D01*
X101600000Y-92710000D02*
X106350100Y-92710000D01*
X107950000Y-92710000D02*
X106350100Y-92710000D01*
X80010000Y-105410000D02*
X81260600Y-105410000D01*
X81260600Y-104650900D02*
X81260600Y-105410000D01*
X82605700Y-103305800D02*
X81260600Y-104650900D01*
X125294200Y-103305800D02*
X82605700Y-103305800D01*
X82550000Y-90170000D02*
X81299400Y-90170000D01*
X58202100Y-103922100D02*
X59156700Y-102967500D01*
X81299400Y-90929100D02*
X81299400Y-90170000D01*
X69261000Y-102967500D02*
X81299400Y-90929100D01*
X59156700Y-102967500D02*
X69261000Y-102967500D01*
X99794700Y-106968400D02*
X95250000Y-111513100D01*
X106680000Y-106968400D02*
X99794700Y-106968400D01*
X106680000Y-106968300D02*
X106680000Y-106968400D01*
X121631700Y-106968300D02*
X106680000Y-106968300D01*
X121702100Y-106897900D02*
X121631700Y-106968300D01*
X94202100Y-111513100D02*
X95250000Y-111513100D01*
X88880600Y-106191600D02*
X94202100Y-111513100D01*
X88880600Y-105410000D02*
X88880600Y-106191600D01*
X95250000Y-111513100D02*
X95250000Y-113030000D01*
X87630000Y-105410000D02*
X88880600Y-105410000D01*
X87630000Y-130810000D02*
X95250000Y-130810000D01*
X85090000Y-130810000D02*
X87630000Y-130810000D01*
X87630000Y-130810000D02*
X87630000Y-134540000D01*
X87630000Y-135890000D02*
X87630000Y-134540000D01*
X87194300Y-118110000D02*
X89501300Y-115803000D01*
X85090000Y-118110000D02*
X87194300Y-118110000D01*
X86879600Y-126480400D02*
X92378500Y-126480400D01*
X85090000Y-128270000D02*
X86879600Y-126480400D01*
D23*
X93345000Y-115570000D02*
X92710000Y-115570000D01*
X92710000Y-115570000D02*
X92075000Y-114935000D01*
X95250000Y-108585000D02*
X93980000Y-108585000D01*
X93980000Y-108585000D02*
X93345000Y-109220000D01*
X85725000Y-114935000D02*
X85090000Y-115570000D01*
X92075000Y-114935000D02*
X85725000Y-114935000D01*
D22*
X97790000Y-117347700D02*
X97790000Y-117049600D01*
X95757700Y-119380000D02*
X97790000Y-117347700D01*
X88900000Y-119380000D02*
X95757700Y-119380000D01*
X85090000Y-123190000D02*
X88900000Y-119380000D01*
D23*
X97790000Y-132715000D02*
X97790000Y-133350000D01*
X96520000Y-134620000D02*
X95885000Y-134620000D01*
X97790000Y-133350000D02*
X96520000Y-134620000D01*
X98425000Y-125095000D02*
X96520000Y-127000000D01*
D22*
X83185000Y-140335000D02*
X83185000Y-138985000D01*
X95743300Y-129540000D02*
X107950000Y-117333300D01*
X84591200Y-129540000D02*
X95743300Y-129540000D01*
X80534000Y-133597200D02*
X84591200Y-129540000D01*
X80534000Y-137262100D02*
X80534000Y-133597200D01*
X82256900Y-138985000D02*
X80534000Y-137262100D01*
X83185000Y-138985000D02*
X82256900Y-138985000D01*
X107950000Y-90170000D02*
X109200600Y-90170000D01*
X113010400Y-93979800D02*
X109200600Y-90170000D01*
X124991400Y-93979800D02*
X113010400Y-93979800D01*
X130192200Y-99180600D02*
X124991400Y-93979800D01*
X130192200Y-100307700D02*
X130192200Y-99180600D01*
X98979800Y-131520100D02*
X130192200Y-100307700D01*
X97079900Y-131520100D02*
X98979800Y-131520100D01*
X92710000Y-135890000D02*
X97079900Y-131520100D01*
X105410000Y-90170000D02*
X104159400Y-90170000D01*
X83820000Y-92175700D02*
X78809000Y-97186700D01*
X83820000Y-89322900D02*
X83820000Y-92175700D01*
X85274800Y-87868100D02*
X83820000Y-89322900D01*
X102639100Y-87868100D02*
X85274800Y-87868100D01*
X104159400Y-89388400D02*
X102639100Y-87868100D01*
X104159400Y-90170000D02*
X104159400Y-89388400D01*
X70751300Y-106559600D02*
X62748800Y-106559600D01*
X86360000Y-90950900D02*
X70751300Y-106559600D01*
X86360000Y-89392100D02*
X86360000Y-90950900D01*
X87154400Y-88597700D02*
X86360000Y-89392100D01*
X98266200Y-88597700D02*
X87154400Y-88597700D01*
X99079400Y-89410900D02*
X98266200Y-88597700D01*
X99079400Y-90170000D02*
X99079400Y-89410900D01*
X100330000Y-90170000D02*
X99079400Y-90170000D01*
X61794200Y-107514200D02*
X62748800Y-106559600D01*
X76779200Y-115156800D02*
X78152600Y-113783400D01*
X76779200Y-140896800D02*
X76779200Y-115156800D01*
X77567500Y-141685100D02*
X76779200Y-140896800D01*
X89454900Y-141685100D02*
X77567500Y-141685100D01*
X90805000Y-140335000D02*
X89454900Y-141685100D01*
X85288000Y-132732900D02*
X86324100Y-131696800D01*
X83242600Y-132732900D02*
X85288000Y-132732900D01*
X81249600Y-134725900D02*
X83242600Y-132732900D01*
X81249600Y-136987200D02*
X81249600Y-134725900D01*
X82547000Y-138284600D02*
X81249600Y-136987200D01*
X86214600Y-138284600D02*
X82547000Y-138284600D01*
X88265000Y-140335000D02*
X86214600Y-138284600D01*
X99686700Y-111133300D02*
X95250000Y-115570000D01*
X116844100Y-111133300D02*
X99686700Y-111133300D01*
X117155400Y-111444600D02*
X116844100Y-111133300D01*
X97820400Y-137190400D02*
X100965000Y-140335000D01*
X83850400Y-137190400D02*
X97820400Y-137190400D01*
X82550000Y-135890000D02*
X83850400Y-137190400D01*
X87630000Y-90170000D02*
X87630000Y-91769900D01*
X86754400Y-91769900D02*
X87630000Y-91769900D01*
X75428100Y-103096200D02*
X86754400Y-91769900D01*
X118110000Y-110490000D02*
X117155400Y-111444600D01*
X94005400Y-114325400D02*
X95250000Y-115570000D01*
X84609800Y-114325400D02*
X94005400Y-114325400D01*
X79045100Y-119890100D02*
X84609800Y-114325400D01*
X79045100Y-120954500D02*
X79045100Y-119890100D01*
X91842200Y-124862200D02*
X88762500Y-124862200D01*
X95250000Y-128270000D02*
X91842200Y-124862200D01*
X91440000Y-92710000D02*
X92690600Y-92710000D01*
X96500600Y-96520000D02*
X113030000Y-96520000D01*
X92690600Y-92710000D02*
X96500600Y-96520000D01*
X115269100Y-98759100D02*
X113030000Y-96520000D01*
X127931700Y-98759100D02*
X115269100Y-98759100D01*
X65386300Y-111106300D02*
X66340900Y-112060900D01*
X66639000Y-111762800D02*
X91440000Y-111762800D01*
X66340900Y-112060900D02*
X66639000Y-111762800D01*
X128886300Y-99713700D02*
X127931700Y-98759100D01*
X88900000Y-92710000D02*
X87649400Y-92710000D01*
X71049100Y-109310300D02*
X87649400Y-92710000D01*
X63590300Y-109310300D02*
X71049100Y-109310300D01*
X90150600Y-93469100D02*
X90150600Y-92710000D01*
X97236600Y-100555100D02*
X90150600Y-93469100D01*
X126135700Y-100555100D02*
X97236600Y-100555100D01*
X88900000Y-92710000D02*
X90150600Y-92710000D01*
X127090300Y-101509700D02*
X126135700Y-100555100D01*
X100028100Y-121920000D02*
X110064500Y-111883600D01*
X88149000Y-121920000D02*
X100028100Y-121920000D01*
X85662800Y-124406200D02*
X88149000Y-121920000D01*
X84552300Y-124406200D02*
X85662800Y-124406200D01*
X83854400Y-123708300D02*
X84552300Y-124406200D01*
X83854400Y-121885600D02*
X83854400Y-123708300D01*
X85090000Y-120650000D02*
X83854400Y-121885600D01*
X120650000Y-91440000D02*
X119350000Y-91440000D01*
X119350000Y-90901300D02*
X119350000Y-91440000D01*
X97198700Y-68750000D02*
X119350000Y-90901300D01*
X96500000Y-68750000D02*
X97198700Y-68750000D01*
D23*
X77470000Y-107950000D02*
X78740000Y-107950000D01*
X88265000Y-123190000D02*
X86360000Y-125095000D01*
X86360000Y-125095000D02*
X86360000Y-126186824D01*
X86360000Y-126186824D02*
X85546824Y-127000000D01*
X85546824Y-127000000D02*
X80645000Y-127000000D01*
X80645000Y-127000000D02*
X78105000Y-124460000D01*
X78105000Y-124460000D02*
X78105000Y-115570000D01*
X78105000Y-115570000D02*
X80010000Y-113665000D01*
X77470000Y-107950000D02*
X76835000Y-107950000D01*
X76835000Y-107950000D02*
X76200000Y-107315000D01*
X88265000Y-123190000D02*
X95250000Y-123190000D01*
X80010000Y-109220000D02*
X80010000Y-110490000D01*
X78740000Y-107950000D02*
X80010000Y-109220000D01*
D22*
X88271800Y-124111900D02*
X87950700Y-124433000D01*
X93631900Y-124111900D02*
X88271800Y-124111900D01*
X95250000Y-125730000D02*
X93631900Y-124111900D01*
D24*
G36*
X87352560Y-56250000D02*
X87352560Y-58050000D01*
X87396838Y-58285317D01*
X87535910Y-58501441D01*
X87748110Y-58646431D01*
X88000000Y-58697440D01*
X89800000Y-58697440D01*
X90035317Y-58653162D01*
X90251441Y-58514090D01*
X90396431Y-58301890D01*
X90447440Y-58050000D01*
X90447440Y-56250000D01*
X90444100Y-56232250D01*
X95246638Y-56232250D01*
X95199449Y-56279357D01*
X94965267Y-56843330D01*
X94964735Y-57453991D01*
X95197932Y-58018371D01*
X95629357Y-58450551D01*
X96193330Y-58684733D01*
X96803991Y-58685265D01*
X97368371Y-58452068D01*
X97800551Y-58020643D01*
X98034733Y-57456670D01*
X98035265Y-56846009D01*
X97802068Y-56281629D01*
X97752775Y-56232250D01*
X126424785Y-56232250D01*
X128138394Y-56573108D01*
X129533928Y-57505573D01*
X130466394Y-58901106D01*
X130807252Y-60614717D01*
X130807252Y-98544073D01*
X125617190Y-93354010D01*
X125589922Y-93335790D01*
X125330075Y-93162167D01*
X125273884Y-93150990D01*
X124991400Y-93094799D01*
X124991395Y-93094800D01*
X113376979Y-93094800D01*
X113157290Y-92875111D01*
X113314187Y-92875248D01*
X113841800Y-92657243D01*
X114245824Y-92253923D01*
X114464750Y-91726691D01*
X114465248Y-91155813D01*
X114247243Y-90628200D01*
X113843923Y-90224176D01*
X113316691Y-90005250D01*
X112745813Y-90004752D01*
X112218200Y-90222757D01*
X111814176Y-90626077D01*
X111595250Y-91153309D01*
X111595111Y-91312931D01*
X109826390Y-89544210D01*
X109734333Y-89482700D01*
X109539275Y-89352367D01*
X109483084Y-89341190D01*
X109237212Y-89292282D01*
X109230100Y-89256528D01*
X108929746Y-88807017D01*
X108480235Y-88506663D01*
X107950000Y-88401193D01*
X107419765Y-88506663D01*
X106970254Y-88807017D01*
X106680000Y-89241412D01*
X106389746Y-88807017D01*
X105940235Y-88506663D01*
X105410000Y-88401193D01*
X104879765Y-88506663D01*
X104669642Y-88647063D01*
X103264890Y-87242310D01*
X103162541Y-87173923D01*
X102977775Y-87050467D01*
X102921584Y-87039290D01*
X102639100Y-86983099D01*
X102639095Y-86983100D01*
X85274805Y-86983100D01*
X85274800Y-86983099D01*
X84992316Y-87039290D01*
X84936125Y-87050467D01*
X84649010Y-87242310D01*
X84649008Y-87242313D01*
X83245662Y-88645658D01*
X82962903Y-88492050D01*
X82891275Y-88477867D01*
X82677000Y-88600521D01*
X82677000Y-90043000D01*
X82697000Y-90043000D01*
X82697000Y-90297000D01*
X82677000Y-90297000D01*
X82677000Y-91739479D01*
X82885369Y-91858752D01*
X78400164Y-96343956D01*
X78280057Y-96393583D01*
X78016808Y-96656373D01*
X77874162Y-96999901D01*
X77873838Y-97371867D01*
X78015883Y-97715643D01*
X78179637Y-97879683D01*
X70384720Y-105674600D01*
X62748805Y-105674600D01*
X62748800Y-105674599D01*
X62410125Y-105741967D01*
X62123010Y-105933810D01*
X62123008Y-105933813D01*
X62009462Y-106047358D01*
X61814777Y-106008633D01*
X61426491Y-106085868D01*
X61503726Y-105697582D01*
X61390687Y-105129298D01*
X61068779Y-104647529D01*
X60587010Y-104325621D01*
X60018726Y-104212582D01*
X59616842Y-104292522D01*
X59670438Y-104144010D01*
X59643588Y-103565210D01*
X59473739Y-103155184D01*
X59225395Y-103078414D01*
X58381707Y-103922102D01*
X58395850Y-103936245D01*
X58216245Y-104115850D01*
X58202102Y-104101707D01*
X57358414Y-104945395D01*
X57435184Y-105193739D01*
X57845210Y-105363588D01*
X58424010Y-105390438D01*
X58572522Y-105336842D01*
X58492581Y-105738726D01*
X58605621Y-106307011D01*
X58927528Y-106788780D01*
X59409297Y-107110687D01*
X59977582Y-107223727D01*
X60365868Y-107146491D01*
X60288632Y-107534777D01*
X60401672Y-108103062D01*
X60723579Y-108584831D01*
X61205348Y-108906738D01*
X61773633Y-109019778D01*
X62161919Y-108942542D01*
X62084683Y-109330828D01*
X62197723Y-109899113D01*
X62519630Y-110380882D01*
X63001399Y-110702789D01*
X63569684Y-110815829D01*
X63957970Y-110738593D01*
X63880734Y-111126879D01*
X63993774Y-111695164D01*
X64315681Y-112176933D01*
X64797450Y-112498840D01*
X65365735Y-112611880D01*
X65594747Y-112566326D01*
X65715108Y-112686687D01*
X65715110Y-112686690D01*
X65887224Y-112801691D01*
X66002225Y-112878533D01*
X66340900Y-112945901D01*
X66679574Y-112878533D01*
X66966690Y-112686690D01*
X67005580Y-112647800D01*
X83736054Y-112647800D01*
X83693243Y-112750900D01*
X83692758Y-113306661D01*
X83892806Y-113790815D01*
X78865000Y-118818620D01*
X78865000Y-115884802D01*
X80149680Y-114600122D01*
X80195167Y-114600162D01*
X80538943Y-114458117D01*
X80802192Y-114195327D01*
X80944838Y-113851799D01*
X80945162Y-113479833D01*
X80803117Y-113136057D01*
X80540327Y-112872808D01*
X80196799Y-112730162D01*
X79824833Y-112729838D01*
X79481057Y-112871883D01*
X79217808Y-113134673D01*
X79075162Y-113478201D01*
X79075121Y-113525077D01*
X79062677Y-113537521D01*
X78945717Y-113254457D01*
X78682927Y-112991208D01*
X78339399Y-112848562D01*
X77967433Y-112848238D01*
X77623657Y-112990283D01*
X77360408Y-113253073D01*
X77310034Y-113374387D01*
X76153410Y-114531010D01*
X75961567Y-114818125D01*
X75961567Y-114818126D01*
X75894199Y-115156800D01*
X75894200Y-115156805D01*
X75894200Y-140896795D01*
X75894199Y-140896800D01*
X75945089Y-141152633D01*
X75961567Y-141235475D01*
X76035701Y-141346425D01*
X76153410Y-141522590D01*
X76941708Y-142310887D01*
X76941710Y-142310890D01*
X77049504Y-142382915D01*
X77228826Y-142502734D01*
X77567500Y-142570101D01*
X77567505Y-142570100D01*
X89454895Y-142570100D01*
X89454900Y-142570101D01*
X89737384Y-142513910D01*
X89793575Y-142502733D01*
X90080690Y-142310890D01*
X90586040Y-141805539D01*
X90805000Y-141849093D01*
X91373285Y-141736054D01*
X91855054Y-141414147D01*
X92075000Y-141084974D01*
X92294946Y-141414147D01*
X92776715Y-141736054D01*
X93345000Y-141849093D01*
X93913285Y-141736054D01*
X94395054Y-141414147D01*
X94615000Y-141084974D01*
X94834946Y-141414147D01*
X95316715Y-141736054D01*
X95885000Y-141849093D01*
X96453285Y-141736054D01*
X96935054Y-141414147D01*
X97155000Y-141084974D01*
X97374946Y-141414147D01*
X97856715Y-141736054D01*
X98425000Y-141849093D01*
X98993285Y-141736054D01*
X99475054Y-141414147D01*
X99695000Y-141084974D01*
X99914946Y-141414147D01*
X100396715Y-141736054D01*
X100965000Y-141849093D01*
X101533285Y-141736054D01*
X102015054Y-141414147D01*
X102044403Y-141370223D01*
X102116673Y-141544698D01*
X102295301Y-141723327D01*
X102528690Y-141820000D01*
X103219250Y-141820000D01*
X103378000Y-141661250D01*
X103378000Y-140462000D01*
X103632000Y-140462000D01*
X103632000Y-141661250D01*
X103790750Y-141820000D01*
X104481310Y-141820000D01*
X104714699Y-141723327D01*
X104893327Y-141544698D01*
X104990000Y-141311309D01*
X104990000Y-141018919D01*
X110870813Y-141018919D01*
X111210355Y-141840672D01*
X111838521Y-142469936D01*
X112659681Y-142810911D01*
X113548819Y-142811687D01*
X114370572Y-142472145D01*
X114999836Y-141843979D01*
X115340811Y-141022819D01*
X115341587Y-140133681D01*
X115002045Y-139311928D01*
X114373879Y-138682664D01*
X113552719Y-138341689D01*
X112663581Y-138340913D01*
X111841828Y-138680455D01*
X111212564Y-139308621D01*
X110871589Y-140129781D01*
X110870813Y-141018919D01*
X104990000Y-141018919D01*
X104990000Y-140620750D01*
X104831250Y-140462000D01*
X103632000Y-140462000D01*
X103378000Y-140462000D01*
X103358000Y-140462000D01*
X103358000Y-140208000D01*
X103378000Y-140208000D01*
X103378000Y-139008750D01*
X103632000Y-139008750D01*
X103632000Y-140208000D01*
X104831250Y-140208000D01*
X104990000Y-140049250D01*
X104990000Y-139358691D01*
X104893327Y-139125302D01*
X104714699Y-138946673D01*
X104481310Y-138850000D01*
X103790750Y-138850000D01*
X103632000Y-139008750D01*
X103378000Y-139008750D01*
X103219250Y-138850000D01*
X102528690Y-138850000D01*
X102295301Y-138946673D01*
X102116673Y-139125302D01*
X102044403Y-139299777D01*
X102015054Y-139255853D01*
X101533285Y-138933946D01*
X100965000Y-138820907D01*
X100746040Y-138864461D01*
X98844329Y-136962749D01*
X99161961Y-136487378D01*
X99275000Y-135919093D01*
X99275000Y-135860907D01*
X99161961Y-135292622D01*
X98840054Y-134810853D01*
X98358285Y-134488946D01*
X97830783Y-134384019D01*
X98327401Y-133887401D01*
X98492148Y-133640840D01*
X98550000Y-133350000D01*
X98550000Y-133277463D01*
X98582192Y-133245327D01*
X98724838Y-132901799D01*
X98725162Y-132529833D01*
X98673624Y-132405100D01*
X98979795Y-132405100D01*
X98979800Y-132405101D01*
X99262284Y-132348910D01*
X99318475Y-132337733D01*
X99605590Y-132145890D01*
X99605591Y-132145889D01*
X108550660Y-123200819D01*
X110858113Y-123200819D01*
X111197655Y-124022572D01*
X111825821Y-124651836D01*
X112646981Y-124992811D01*
X113536119Y-124993587D01*
X114357872Y-124654045D01*
X114987136Y-124025879D01*
X115328111Y-123204719D01*
X115328887Y-122315581D01*
X114989345Y-121493828D01*
X114361179Y-120864564D01*
X113540019Y-120523589D01*
X112650881Y-120522813D01*
X111829128Y-120862355D01*
X111199864Y-121490521D01*
X110858889Y-122311681D01*
X110858113Y-123200819D01*
X108550660Y-123200819D01*
X130807252Y-100944227D01*
X130807252Y-102123130D01*
X125638826Y-120295950D01*
X117121793Y-142059014D01*
X116179265Y-143529973D01*
X114801891Y-144489058D01*
X113098382Y-144862040D01*
X113076521Y-144862250D01*
X69970022Y-144862250D01*
X68256733Y-144520617D01*
X66861639Y-143587495D01*
X65893483Y-142137070D01*
X65885313Y-142116769D01*
X65440756Y-140980819D01*
X67665413Y-140980819D01*
X68004955Y-141802572D01*
X68633121Y-142431836D01*
X69454281Y-142772811D01*
X70343419Y-142773587D01*
X71165172Y-142434045D01*
X71794436Y-141805879D01*
X72135411Y-140984719D01*
X72136187Y-140095581D01*
X71796645Y-139273828D01*
X71168479Y-138644564D01*
X70347319Y-138303589D01*
X69458181Y-138302813D01*
X68636428Y-138642355D01*
X68007164Y-139270521D01*
X67666189Y-140091681D01*
X67665413Y-140980819D01*
X65440756Y-140980819D01*
X58487477Y-123213519D01*
X67678113Y-123213519D01*
X68017655Y-124035272D01*
X68645821Y-124664536D01*
X69466981Y-125005511D01*
X70356119Y-125006287D01*
X71177872Y-124666745D01*
X71807136Y-124038579D01*
X72148111Y-123217419D01*
X72148887Y-122328281D01*
X71809345Y-121506528D01*
X71181179Y-120877264D01*
X70360019Y-120536289D01*
X69470881Y-120535513D01*
X68649128Y-120875055D01*
X68019864Y-121503221D01*
X67678889Y-122324381D01*
X67678113Y-123213519D01*
X58487477Y-123213519D01*
X57345679Y-120295953D01*
X52177252Y-102123133D01*
X52177252Y-100321056D01*
X52760540Y-100321056D01*
X52808064Y-100573627D01*
X52950109Y-100787809D01*
X54152191Y-101989891D01*
X54349894Y-102124976D01*
X54601056Y-102179460D01*
X54853627Y-102131936D01*
X54910963Y-102093911D01*
X54900478Y-102146623D01*
X55013518Y-102714908D01*
X55335425Y-103196677D01*
X55817194Y-103518584D01*
X56385479Y-103631624D01*
X56787362Y-103551684D01*
X56733766Y-103700194D01*
X56760616Y-104278994D01*
X56930465Y-104689020D01*
X57178809Y-104765790D01*
X58022497Y-103922102D01*
X58008355Y-103907960D01*
X58187960Y-103728355D01*
X58202102Y-103742497D01*
X59045790Y-102898809D01*
X58969020Y-102650465D01*
X58558994Y-102480616D01*
X57980194Y-102453766D01*
X57831683Y-102507362D01*
X57911623Y-102105479D01*
X57798584Y-101537195D01*
X57476676Y-101055426D01*
X56994907Y-100733518D01*
X56426623Y-100620479D01*
X56377554Y-100630239D01*
X56404976Y-100590106D01*
X56459460Y-100338944D01*
X56411936Y-100086373D01*
X56269891Y-99872191D01*
X55067809Y-98670109D01*
X54870106Y-98535024D01*
X54618944Y-98480540D01*
X54366373Y-98528064D01*
X54152191Y-98670109D01*
X52950109Y-99872191D01*
X52815024Y-100069894D01*
X52760540Y-100321056D01*
X52177252Y-100321056D01*
X52177252Y-89507719D01*
X54266913Y-89507719D01*
X54606455Y-90329472D01*
X55234621Y-90958736D01*
X56055781Y-91299711D01*
X56944919Y-91300487D01*
X57766672Y-90960945D01*
X58395936Y-90332779D01*
X58622661Y-89786763D01*
X78624430Y-89786763D01*
X78624430Y-90553237D01*
X78729900Y-91083472D01*
X79030254Y-91532983D01*
X79479765Y-91833337D01*
X80010000Y-91938807D01*
X80540235Y-91833337D01*
X80989746Y-91532983D01*
X81290100Y-91083472D01*
X81291601Y-91075928D01*
X81318501Y-91166817D01*
X81660056Y-91588798D01*
X82137097Y-91847950D01*
X82208725Y-91862133D01*
X82423000Y-91739479D01*
X82423000Y-90297000D01*
X82403000Y-90297000D01*
X82403000Y-90043000D01*
X82423000Y-90043000D01*
X82423000Y-88600521D01*
X82208725Y-88477867D01*
X82137097Y-88492050D01*
X81660056Y-88751202D01*
X81318501Y-89173183D01*
X81291601Y-89264072D01*
X81290100Y-89256528D01*
X80989746Y-88807017D01*
X80540235Y-88506663D01*
X80010000Y-88401193D01*
X79479765Y-88506663D01*
X79030254Y-88807017D01*
X78729900Y-89256528D01*
X78624430Y-89786763D01*
X58622661Y-89786763D01*
X58736911Y-89511619D01*
X58737687Y-88622481D01*
X58398145Y-87800728D01*
X57769979Y-87171464D01*
X56948819Y-86830489D01*
X56059681Y-86829713D01*
X55237928Y-87169255D01*
X54608664Y-87797421D01*
X54267689Y-88618581D01*
X54266913Y-89507719D01*
X52177252Y-89507719D01*
X52177252Y-77470000D01*
X75955907Y-77470000D01*
X76068946Y-78038285D01*
X76390853Y-78520054D01*
X76872622Y-78841961D01*
X77440907Y-78955000D01*
X77499093Y-78955000D01*
X78067378Y-78841961D01*
X78549147Y-78520054D01*
X78871054Y-78038285D01*
X78984093Y-77470000D01*
X78871054Y-76901715D01*
X78549147Y-76419946D01*
X78507548Y-76392150D01*
X78555317Y-76383162D01*
X78771441Y-76244090D01*
X78916431Y-76031890D01*
X78967440Y-75780000D01*
X78967440Y-74080000D01*
X78923162Y-73844683D01*
X78784090Y-73628559D01*
X78571890Y-73483569D01*
X78320000Y-73432560D01*
X76620000Y-73432560D01*
X76384683Y-73476838D01*
X76168559Y-73615910D01*
X76023569Y-73828110D01*
X75972560Y-74080000D01*
X75972560Y-75780000D01*
X76016838Y-76015317D01*
X76155910Y-76231441D01*
X76368110Y-76376431D01*
X76435541Y-76390086D01*
X76390853Y-76419946D01*
X76068946Y-76901715D01*
X75955907Y-77470000D01*
X52177252Y-77470000D01*
X52177252Y-69053991D01*
X87364735Y-69053991D01*
X87597932Y-69618371D01*
X88029357Y-70050551D01*
X88593330Y-70284733D01*
X89203991Y-70285265D01*
X89768371Y-70052068D01*
X90200551Y-69620643D01*
X90434733Y-69056670D01*
X90434735Y-69053991D01*
X94964735Y-69053991D01*
X95197932Y-69618371D01*
X95629357Y-70050551D01*
X96193330Y-70284733D01*
X96803991Y-70285265D01*
X97284035Y-70086915D01*
X112304301Y-85107181D01*
X112218200Y-85142757D01*
X111814176Y-85546077D01*
X111595250Y-86073309D01*
X111594752Y-86644187D01*
X111812757Y-87171800D01*
X112216077Y-87575824D01*
X112743309Y-87794750D01*
X113314187Y-87795248D01*
X113841800Y-87577243D01*
X114245824Y-87173923D01*
X114282564Y-87085443D01*
X118465000Y-91267879D01*
X118465000Y-91440000D01*
X118532367Y-91778675D01*
X118724210Y-92065790D01*
X119011325Y-92257633D01*
X119350000Y-92325000D01*
X119520527Y-92325000D01*
X119607189Y-92454698D01*
X120072736Y-92765767D01*
X120621887Y-92875000D01*
X120678113Y-92875000D01*
X121227264Y-92765767D01*
X121692811Y-92454698D01*
X122003880Y-91989151D01*
X122113113Y-91440000D01*
X122003880Y-90890849D01*
X121692811Y-90425302D01*
X121227264Y-90114233D01*
X120678113Y-90005000D01*
X120621887Y-90005000D01*
X120072736Y-90114233D01*
X119917942Y-90217663D01*
X119246099Y-89545819D01*
X124256613Y-89545819D01*
X124596155Y-90367572D01*
X125224321Y-90996836D01*
X126045481Y-91337811D01*
X126934619Y-91338587D01*
X127756372Y-90999045D01*
X128385636Y-90370879D01*
X128726611Y-89549719D01*
X128727387Y-88660581D01*
X128387845Y-87838828D01*
X127759679Y-87209564D01*
X126938519Y-86868589D01*
X126049381Y-86867813D01*
X125227628Y-87207355D01*
X124598364Y-87835521D01*
X124257389Y-88656681D01*
X124256613Y-89545819D01*
X119246099Y-89545819D01*
X116060280Y-86360000D01*
X119186887Y-86360000D01*
X119296120Y-86909151D01*
X119607189Y-87374698D01*
X120072736Y-87685767D01*
X120621887Y-87795000D01*
X120678113Y-87795000D01*
X121227264Y-87685767D01*
X121692811Y-87374698D01*
X122003880Y-86909151D01*
X122113113Y-86360000D01*
X122003880Y-85810849D01*
X121692811Y-85345302D01*
X121227264Y-85034233D01*
X120678113Y-84925000D01*
X120621887Y-84925000D01*
X120072736Y-85034233D01*
X119607189Y-85345302D01*
X119296120Y-85810849D01*
X119186887Y-86360000D01*
X116060280Y-86360000D01*
X105900280Y-76200000D01*
X107705907Y-76200000D01*
X107818946Y-76768285D01*
X108140853Y-77250054D01*
X108622622Y-77571961D01*
X109190907Y-77685000D01*
X109249093Y-77685000D01*
X109817378Y-77571961D01*
X110299147Y-77250054D01*
X110621054Y-76768285D01*
X110734093Y-76200000D01*
X110621054Y-75631715D01*
X110299147Y-75149946D01*
X110257548Y-75122150D01*
X110305317Y-75113162D01*
X110521441Y-74974090D01*
X110666431Y-74761890D01*
X110717440Y-74510000D01*
X110717440Y-72810000D01*
X110673162Y-72574683D01*
X110534090Y-72358559D01*
X110321890Y-72213569D01*
X110070000Y-72162560D01*
X108370000Y-72162560D01*
X108134683Y-72206838D01*
X107918559Y-72345910D01*
X107773569Y-72558110D01*
X107722560Y-72810000D01*
X107722560Y-74510000D01*
X107766838Y-74745317D01*
X107905910Y-74961441D01*
X108118110Y-75106431D01*
X108185541Y-75120086D01*
X108140853Y-75149946D01*
X107818946Y-75631715D01*
X107705907Y-76200000D01*
X105900280Y-76200000D01*
X97957089Y-68256809D01*
X97802068Y-67881629D01*
X97370643Y-67449449D01*
X96806670Y-67215267D01*
X96196009Y-67214735D01*
X95631629Y-67447932D01*
X95199449Y-67879357D01*
X94965267Y-68443330D01*
X94964735Y-69053991D01*
X90434735Y-69053991D01*
X90435265Y-68446009D01*
X90202068Y-67881629D01*
X89770643Y-67449449D01*
X89206670Y-67215267D01*
X88596009Y-67214735D01*
X88031629Y-67447932D01*
X87599449Y-67879357D01*
X87365267Y-68443330D01*
X87364735Y-69053991D01*
X52177252Y-69053991D01*
X52177252Y-66520719D01*
X54279613Y-66520719D01*
X54619155Y-67342472D01*
X55247321Y-67971736D01*
X56068481Y-68312711D01*
X56957619Y-68313487D01*
X57779372Y-67973945D01*
X58408636Y-67345779D01*
X58745956Y-66533419D01*
X124256613Y-66533419D01*
X124596155Y-67355172D01*
X125224321Y-67984436D01*
X126045481Y-68325411D01*
X126934619Y-68326187D01*
X127756372Y-67986645D01*
X128385636Y-67358479D01*
X128726611Y-66537319D01*
X128727387Y-65648181D01*
X128387845Y-64826428D01*
X127759679Y-64197164D01*
X126938519Y-63856189D01*
X126049381Y-63855413D01*
X125227628Y-64194955D01*
X124598364Y-64823121D01*
X124257389Y-65644281D01*
X124256613Y-66533419D01*
X58745956Y-66533419D01*
X58749611Y-66524619D01*
X58750387Y-65635481D01*
X58410845Y-64813728D01*
X57782679Y-64184464D01*
X56961519Y-63843489D01*
X56072381Y-63842713D01*
X55250628Y-64182255D01*
X54621364Y-64810421D01*
X54280389Y-65631581D01*
X54279613Y-66520719D01*
X52177252Y-66520719D01*
X52177252Y-60614717D01*
X52518110Y-58901108D01*
X53450575Y-57505574D01*
X54846108Y-56573108D01*
X56559719Y-56232250D01*
X87356154Y-56232250D01*
X87352560Y-56250000D01*
X87352560Y-56250000D01*
G37*
X87352560Y-56250000D02*
X87352560Y-58050000D01*
X87396838Y-58285317D01*
X87535910Y-58501441D01*
X87748110Y-58646431D01*
X88000000Y-58697440D01*
X89800000Y-58697440D01*
X90035317Y-58653162D01*
X90251441Y-58514090D01*
X90396431Y-58301890D01*
X90447440Y-58050000D01*
X90447440Y-56250000D01*
X90444100Y-56232250D01*
X95246638Y-56232250D01*
X95199449Y-56279357D01*
X94965267Y-56843330D01*
X94964735Y-57453991D01*
X95197932Y-58018371D01*
X95629357Y-58450551D01*
X96193330Y-58684733D01*
X96803991Y-58685265D01*
X97368371Y-58452068D01*
X97800551Y-58020643D01*
X98034733Y-57456670D01*
X98035265Y-56846009D01*
X97802068Y-56281629D01*
X97752775Y-56232250D01*
X126424785Y-56232250D01*
X128138394Y-56573108D01*
X129533928Y-57505573D01*
X130466394Y-58901106D01*
X130807252Y-60614717D01*
X130807252Y-98544073D01*
X125617190Y-93354010D01*
X125589922Y-93335790D01*
X125330075Y-93162167D01*
X125273884Y-93150990D01*
X124991400Y-93094799D01*
X124991395Y-93094800D01*
X113376979Y-93094800D01*
X113157290Y-92875111D01*
X113314187Y-92875248D01*
X113841800Y-92657243D01*
X114245824Y-92253923D01*
X114464750Y-91726691D01*
X114465248Y-91155813D01*
X114247243Y-90628200D01*
X113843923Y-90224176D01*
X113316691Y-90005250D01*
X112745813Y-90004752D01*
X112218200Y-90222757D01*
X111814176Y-90626077D01*
X111595250Y-91153309D01*
X111595111Y-91312931D01*
X109826390Y-89544210D01*
X109734333Y-89482700D01*
X109539275Y-89352367D01*
X109483084Y-89341190D01*
X109237212Y-89292282D01*
X109230100Y-89256528D01*
X108929746Y-88807017D01*
X108480235Y-88506663D01*
X107950000Y-88401193D01*
X107419765Y-88506663D01*
X106970254Y-88807017D01*
X106680000Y-89241412D01*
X106389746Y-88807017D01*
X105940235Y-88506663D01*
X105410000Y-88401193D01*
X104879765Y-88506663D01*
X104669642Y-88647063D01*
X103264890Y-87242310D01*
X103162541Y-87173923D01*
X102977775Y-87050467D01*
X102921584Y-87039290D01*
X102639100Y-86983099D01*
X102639095Y-86983100D01*
X85274805Y-86983100D01*
X85274800Y-86983099D01*
X84992316Y-87039290D01*
X84936125Y-87050467D01*
X84649010Y-87242310D01*
X84649008Y-87242313D01*
X83245662Y-88645658D01*
X82962903Y-88492050D01*
X82891275Y-88477867D01*
X82677000Y-88600521D01*
X82677000Y-90043000D01*
X82697000Y-90043000D01*
X82697000Y-90297000D01*
X82677000Y-90297000D01*
X82677000Y-91739479D01*
X82885369Y-91858752D01*
X78400164Y-96343956D01*
X78280057Y-96393583D01*
X78016808Y-96656373D01*
X77874162Y-96999901D01*
X77873838Y-97371867D01*
X78015883Y-97715643D01*
X78179637Y-97879683D01*
X70384720Y-105674600D01*
X62748805Y-105674600D01*
X62748800Y-105674599D01*
X62410125Y-105741967D01*
X62123010Y-105933810D01*
X62123008Y-105933813D01*
X62009462Y-106047358D01*
X61814777Y-106008633D01*
X61426491Y-106085868D01*
X61503726Y-105697582D01*
X61390687Y-105129298D01*
X61068779Y-104647529D01*
X60587010Y-104325621D01*
X60018726Y-104212582D01*
X59616842Y-104292522D01*
X59670438Y-104144010D01*
X59643588Y-103565210D01*
X59473739Y-103155184D01*
X59225395Y-103078414D01*
X58381707Y-103922102D01*
X58395850Y-103936245D01*
X58216245Y-104115850D01*
X58202102Y-104101707D01*
X57358414Y-104945395D01*
X57435184Y-105193739D01*
X57845210Y-105363588D01*
X58424010Y-105390438D01*
X58572522Y-105336842D01*
X58492581Y-105738726D01*
X58605621Y-106307011D01*
X58927528Y-106788780D01*
X59409297Y-107110687D01*
X59977582Y-107223727D01*
X60365868Y-107146491D01*
X60288632Y-107534777D01*
X60401672Y-108103062D01*
X60723579Y-108584831D01*
X61205348Y-108906738D01*
X61773633Y-109019778D01*
X62161919Y-108942542D01*
X62084683Y-109330828D01*
X62197723Y-109899113D01*
X62519630Y-110380882D01*
X63001399Y-110702789D01*
X63569684Y-110815829D01*
X63957970Y-110738593D01*
X63880734Y-111126879D01*
X63993774Y-111695164D01*
X64315681Y-112176933D01*
X64797450Y-112498840D01*
X65365735Y-112611880D01*
X65594747Y-112566326D01*
X65715108Y-112686687D01*
X65715110Y-112686690D01*
X65887224Y-112801691D01*
X66002225Y-112878533D01*
X66340900Y-112945901D01*
X66679574Y-112878533D01*
X66966690Y-112686690D01*
X67005580Y-112647800D01*
X83736054Y-112647800D01*
X83693243Y-112750900D01*
X83692758Y-113306661D01*
X83892806Y-113790815D01*
X78865000Y-118818620D01*
X78865000Y-115884802D01*
X80149680Y-114600122D01*
X80195167Y-114600162D01*
X80538943Y-114458117D01*
X80802192Y-114195327D01*
X80944838Y-113851799D01*
X80945162Y-113479833D01*
X80803117Y-113136057D01*
X80540327Y-112872808D01*
X80196799Y-112730162D01*
X79824833Y-112729838D01*
X79481057Y-112871883D01*
X79217808Y-113134673D01*
X79075162Y-113478201D01*
X79075121Y-113525077D01*
X79062677Y-113537521D01*
X78945717Y-113254457D01*
X78682927Y-112991208D01*
X78339399Y-112848562D01*
X77967433Y-112848238D01*
X77623657Y-112990283D01*
X77360408Y-113253073D01*
X77310034Y-113374387D01*
X76153410Y-114531010D01*
X75961567Y-114818125D01*
X75961567Y-114818126D01*
X75894199Y-115156800D01*
X75894200Y-115156805D01*
X75894200Y-140896795D01*
X75894199Y-140896800D01*
X75945089Y-141152633D01*
X75961567Y-141235475D01*
X76035701Y-141346425D01*
X76153410Y-141522590D01*
X76941708Y-142310887D01*
X76941710Y-142310890D01*
X77049504Y-142382915D01*
X77228826Y-142502734D01*
X77567500Y-142570101D01*
X77567505Y-142570100D01*
X89454895Y-142570100D01*
X89454900Y-142570101D01*
X89737384Y-142513910D01*
X89793575Y-142502733D01*
X90080690Y-142310890D01*
X90586040Y-141805539D01*
X90805000Y-141849093D01*
X91373285Y-141736054D01*
X91855054Y-141414147D01*
X92075000Y-141084974D01*
X92294946Y-141414147D01*
X92776715Y-141736054D01*
X93345000Y-141849093D01*
X93913285Y-141736054D01*
X94395054Y-141414147D01*
X94615000Y-141084974D01*
X94834946Y-141414147D01*
X95316715Y-141736054D01*
X95885000Y-141849093D01*
X96453285Y-141736054D01*
X96935054Y-141414147D01*
X97155000Y-141084974D01*
X97374946Y-141414147D01*
X97856715Y-141736054D01*
X98425000Y-141849093D01*
X98993285Y-141736054D01*
X99475054Y-141414147D01*
X99695000Y-141084974D01*
X99914946Y-141414147D01*
X100396715Y-141736054D01*
X100965000Y-141849093D01*
X101533285Y-141736054D01*
X102015054Y-141414147D01*
X102044403Y-141370223D01*
X102116673Y-141544698D01*
X102295301Y-141723327D01*
X102528690Y-141820000D01*
X103219250Y-141820000D01*
X103378000Y-141661250D01*
X103378000Y-140462000D01*
X103632000Y-140462000D01*
X103632000Y-141661250D01*
X103790750Y-141820000D01*
X104481310Y-141820000D01*
X104714699Y-141723327D01*
X104893327Y-141544698D01*
X104990000Y-141311309D01*
X104990000Y-141018919D01*
X110870813Y-141018919D01*
X111210355Y-141840672D01*
X111838521Y-142469936D01*
X112659681Y-142810911D01*
X113548819Y-142811687D01*
X114370572Y-142472145D01*
X114999836Y-141843979D01*
X115340811Y-141022819D01*
X115341587Y-140133681D01*
X115002045Y-139311928D01*
X114373879Y-138682664D01*
X113552719Y-138341689D01*
X112663581Y-138340913D01*
X111841828Y-138680455D01*
X111212564Y-139308621D01*
X110871589Y-140129781D01*
X110870813Y-141018919D01*
X104990000Y-141018919D01*
X104990000Y-140620750D01*
X104831250Y-140462000D01*
X103632000Y-140462000D01*
X103378000Y-140462000D01*
X103358000Y-140462000D01*
X103358000Y-140208000D01*
X103378000Y-140208000D01*
X103378000Y-139008750D01*
X103632000Y-139008750D01*
X103632000Y-140208000D01*
X104831250Y-140208000D01*
X104990000Y-140049250D01*
X104990000Y-139358691D01*
X104893327Y-139125302D01*
X104714699Y-138946673D01*
X104481310Y-138850000D01*
X103790750Y-138850000D01*
X103632000Y-139008750D01*
X103378000Y-139008750D01*
X103219250Y-138850000D01*
X102528690Y-138850000D01*
X102295301Y-138946673D01*
X102116673Y-139125302D01*
X102044403Y-139299777D01*
X102015054Y-139255853D01*
X101533285Y-138933946D01*
X100965000Y-138820907D01*
X100746040Y-138864461D01*
X98844329Y-136962749D01*
X99161961Y-136487378D01*
X99275000Y-135919093D01*
X99275000Y-135860907D01*
X99161961Y-135292622D01*
X98840054Y-134810853D01*
X98358285Y-134488946D01*
X97830783Y-134384019D01*
X98327401Y-133887401D01*
X98492148Y-133640840D01*
X98550000Y-133350000D01*
X98550000Y-133277463D01*
X98582192Y-133245327D01*
X98724838Y-132901799D01*
X98725162Y-132529833D01*
X98673624Y-132405100D01*
X98979795Y-132405100D01*
X98979800Y-132405101D01*
X99262284Y-132348910D01*
X99318475Y-132337733D01*
X99605590Y-132145890D01*
X99605591Y-132145889D01*
X108550660Y-123200819D01*
X110858113Y-123200819D01*
X111197655Y-124022572D01*
X111825821Y-124651836D01*
X112646981Y-124992811D01*
X113536119Y-124993587D01*
X114357872Y-124654045D01*
X114987136Y-124025879D01*
X115328111Y-123204719D01*
X115328887Y-122315581D01*
X114989345Y-121493828D01*
X114361179Y-120864564D01*
X113540019Y-120523589D01*
X112650881Y-120522813D01*
X111829128Y-120862355D01*
X111199864Y-121490521D01*
X110858889Y-122311681D01*
X110858113Y-123200819D01*
X108550660Y-123200819D01*
X130807252Y-100944227D01*
X130807252Y-102123130D01*
X125638826Y-120295950D01*
X117121793Y-142059014D01*
X116179265Y-143529973D01*
X114801891Y-144489058D01*
X113098382Y-144862040D01*
X113076521Y-144862250D01*
X69970022Y-144862250D01*
X68256733Y-144520617D01*
X66861639Y-143587495D01*
X65893483Y-142137070D01*
X65885313Y-142116769D01*
X65440756Y-140980819D01*
X67665413Y-140980819D01*
X68004955Y-141802572D01*
X68633121Y-142431836D01*
X69454281Y-142772811D01*
X70343419Y-142773587D01*
X71165172Y-142434045D01*
X71794436Y-141805879D01*
X72135411Y-140984719D01*
X72136187Y-140095581D01*
X71796645Y-139273828D01*
X71168479Y-138644564D01*
X70347319Y-138303589D01*
X69458181Y-138302813D01*
X68636428Y-138642355D01*
X68007164Y-139270521D01*
X67666189Y-140091681D01*
X67665413Y-140980819D01*
X65440756Y-140980819D01*
X58487477Y-123213519D01*
X67678113Y-123213519D01*
X68017655Y-124035272D01*
X68645821Y-124664536D01*
X69466981Y-125005511D01*
X70356119Y-125006287D01*
X71177872Y-124666745D01*
X71807136Y-124038579D01*
X72148111Y-123217419D01*
X72148887Y-122328281D01*
X71809345Y-121506528D01*
X71181179Y-120877264D01*
X70360019Y-120536289D01*
X69470881Y-120535513D01*
X68649128Y-120875055D01*
X68019864Y-121503221D01*
X67678889Y-122324381D01*
X67678113Y-123213519D01*
X58487477Y-123213519D01*
X57345679Y-120295953D01*
X52177252Y-102123133D01*
X52177252Y-100321056D01*
X52760540Y-100321056D01*
X52808064Y-100573627D01*
X52950109Y-100787809D01*
X54152191Y-101989891D01*
X54349894Y-102124976D01*
X54601056Y-102179460D01*
X54853627Y-102131936D01*
X54910963Y-102093911D01*
X54900478Y-102146623D01*
X55013518Y-102714908D01*
X55335425Y-103196677D01*
X55817194Y-103518584D01*
X56385479Y-103631624D01*
X56787362Y-103551684D01*
X56733766Y-103700194D01*
X56760616Y-104278994D01*
X56930465Y-104689020D01*
X57178809Y-104765790D01*
X58022497Y-103922102D01*
X58008355Y-103907960D01*
X58187960Y-103728355D01*
X58202102Y-103742497D01*
X59045790Y-102898809D01*
X58969020Y-102650465D01*
X58558994Y-102480616D01*
X57980194Y-102453766D01*
X57831683Y-102507362D01*
X57911623Y-102105479D01*
X57798584Y-101537195D01*
X57476676Y-101055426D01*
X56994907Y-100733518D01*
X56426623Y-100620479D01*
X56377554Y-100630239D01*
X56404976Y-100590106D01*
X56459460Y-100338944D01*
X56411936Y-100086373D01*
X56269891Y-99872191D01*
X55067809Y-98670109D01*
X54870106Y-98535024D01*
X54618944Y-98480540D01*
X54366373Y-98528064D01*
X54152191Y-98670109D01*
X52950109Y-99872191D01*
X52815024Y-100069894D01*
X52760540Y-100321056D01*
X52177252Y-100321056D01*
X52177252Y-89507719D01*
X54266913Y-89507719D01*
X54606455Y-90329472D01*
X55234621Y-90958736D01*
X56055781Y-91299711D01*
X56944919Y-91300487D01*
X57766672Y-90960945D01*
X58395936Y-90332779D01*
X58622661Y-89786763D01*
X78624430Y-89786763D01*
X78624430Y-90553237D01*
X78729900Y-91083472D01*
X79030254Y-91532983D01*
X79479765Y-91833337D01*
X80010000Y-91938807D01*
X80540235Y-91833337D01*
X80989746Y-91532983D01*
X81290100Y-91083472D01*
X81291601Y-91075928D01*
X81318501Y-91166817D01*
X81660056Y-91588798D01*
X82137097Y-91847950D01*
X82208725Y-91862133D01*
X82423000Y-91739479D01*
X82423000Y-90297000D01*
X82403000Y-90297000D01*
X82403000Y-90043000D01*
X82423000Y-90043000D01*
X82423000Y-88600521D01*
X82208725Y-88477867D01*
X82137097Y-88492050D01*
X81660056Y-88751202D01*
X81318501Y-89173183D01*
X81291601Y-89264072D01*
X81290100Y-89256528D01*
X80989746Y-88807017D01*
X80540235Y-88506663D01*
X80010000Y-88401193D01*
X79479765Y-88506663D01*
X79030254Y-88807017D01*
X78729900Y-89256528D01*
X78624430Y-89786763D01*
X58622661Y-89786763D01*
X58736911Y-89511619D01*
X58737687Y-88622481D01*
X58398145Y-87800728D01*
X57769979Y-87171464D01*
X56948819Y-86830489D01*
X56059681Y-86829713D01*
X55237928Y-87169255D01*
X54608664Y-87797421D01*
X54267689Y-88618581D01*
X54266913Y-89507719D01*
X52177252Y-89507719D01*
X52177252Y-77470000D01*
X75955907Y-77470000D01*
X76068946Y-78038285D01*
X76390853Y-78520054D01*
X76872622Y-78841961D01*
X77440907Y-78955000D01*
X77499093Y-78955000D01*
X78067378Y-78841961D01*
X78549147Y-78520054D01*
X78871054Y-78038285D01*
X78984093Y-77470000D01*
X78871054Y-76901715D01*
X78549147Y-76419946D01*
X78507548Y-76392150D01*
X78555317Y-76383162D01*
X78771441Y-76244090D01*
X78916431Y-76031890D01*
X78967440Y-75780000D01*
X78967440Y-74080000D01*
X78923162Y-73844683D01*
X78784090Y-73628559D01*
X78571890Y-73483569D01*
X78320000Y-73432560D01*
X76620000Y-73432560D01*
X76384683Y-73476838D01*
X76168559Y-73615910D01*
X76023569Y-73828110D01*
X75972560Y-74080000D01*
X75972560Y-75780000D01*
X76016838Y-76015317D01*
X76155910Y-76231441D01*
X76368110Y-76376431D01*
X76435541Y-76390086D01*
X76390853Y-76419946D01*
X76068946Y-76901715D01*
X75955907Y-77470000D01*
X52177252Y-77470000D01*
X52177252Y-69053991D01*
X87364735Y-69053991D01*
X87597932Y-69618371D01*
X88029357Y-70050551D01*
X88593330Y-70284733D01*
X89203991Y-70285265D01*
X89768371Y-70052068D01*
X90200551Y-69620643D01*
X90434733Y-69056670D01*
X90434735Y-69053991D01*
X94964735Y-69053991D01*
X95197932Y-69618371D01*
X95629357Y-70050551D01*
X96193330Y-70284733D01*
X96803991Y-70285265D01*
X97284035Y-70086915D01*
X112304301Y-85107181D01*
X112218200Y-85142757D01*
X111814176Y-85546077D01*
X111595250Y-86073309D01*
X111594752Y-86644187D01*
X111812757Y-87171800D01*
X112216077Y-87575824D01*
X112743309Y-87794750D01*
X113314187Y-87795248D01*
X113841800Y-87577243D01*
X114245824Y-87173923D01*
X114282564Y-87085443D01*
X118465000Y-91267879D01*
X118465000Y-91440000D01*
X118532367Y-91778675D01*
X118724210Y-92065790D01*
X119011325Y-92257633D01*
X119350000Y-92325000D01*
X119520527Y-92325000D01*
X119607189Y-92454698D01*
X120072736Y-92765767D01*
X120621887Y-92875000D01*
X120678113Y-92875000D01*
X121227264Y-92765767D01*
X121692811Y-92454698D01*
X122003880Y-91989151D01*
X122113113Y-91440000D01*
X122003880Y-90890849D01*
X121692811Y-90425302D01*
X121227264Y-90114233D01*
X120678113Y-90005000D01*
X120621887Y-90005000D01*
X120072736Y-90114233D01*
X119917942Y-90217663D01*
X119246099Y-89545819D01*
X124256613Y-89545819D01*
X124596155Y-90367572D01*
X125224321Y-90996836D01*
X126045481Y-91337811D01*
X126934619Y-91338587D01*
X127756372Y-90999045D01*
X128385636Y-90370879D01*
X128726611Y-89549719D01*
X128727387Y-88660581D01*
X128387845Y-87838828D01*
X127759679Y-87209564D01*
X126938519Y-86868589D01*
X126049381Y-86867813D01*
X125227628Y-87207355D01*
X124598364Y-87835521D01*
X124257389Y-88656681D01*
X124256613Y-89545819D01*
X119246099Y-89545819D01*
X116060280Y-86360000D01*
X119186887Y-86360000D01*
X119296120Y-86909151D01*
X119607189Y-87374698D01*
X120072736Y-87685767D01*
X120621887Y-87795000D01*
X120678113Y-87795000D01*
X121227264Y-87685767D01*
X121692811Y-87374698D01*
X122003880Y-86909151D01*
X122113113Y-86360000D01*
X122003880Y-85810849D01*
X121692811Y-85345302D01*
X121227264Y-85034233D01*
X120678113Y-84925000D01*
X120621887Y-84925000D01*
X120072736Y-85034233D01*
X119607189Y-85345302D01*
X119296120Y-85810849D01*
X119186887Y-86360000D01*
X116060280Y-86360000D01*
X105900280Y-76200000D01*
X107705907Y-76200000D01*
X107818946Y-76768285D01*
X108140853Y-77250054D01*
X108622622Y-77571961D01*
X109190907Y-77685000D01*
X109249093Y-77685000D01*
X109817378Y-77571961D01*
X110299147Y-77250054D01*
X110621054Y-76768285D01*
X110734093Y-76200000D01*
X110621054Y-75631715D01*
X110299147Y-75149946D01*
X110257548Y-75122150D01*
X110305317Y-75113162D01*
X110521441Y-74974090D01*
X110666431Y-74761890D01*
X110717440Y-74510000D01*
X110717440Y-72810000D01*
X110673162Y-72574683D01*
X110534090Y-72358559D01*
X110321890Y-72213569D01*
X110070000Y-72162560D01*
X108370000Y-72162560D01*
X108134683Y-72206838D01*
X107918559Y-72345910D01*
X107773569Y-72558110D01*
X107722560Y-72810000D01*
X107722560Y-74510000D01*
X107766838Y-74745317D01*
X107905910Y-74961441D01*
X108118110Y-75106431D01*
X108185541Y-75120086D01*
X108140853Y-75149946D01*
X107818946Y-75631715D01*
X107705907Y-76200000D01*
X105900280Y-76200000D01*
X97957089Y-68256809D01*
X97802068Y-67881629D01*
X97370643Y-67449449D01*
X96806670Y-67215267D01*
X96196009Y-67214735D01*
X95631629Y-67447932D01*
X95199449Y-67879357D01*
X94965267Y-68443330D01*
X94964735Y-69053991D01*
X90434735Y-69053991D01*
X90435265Y-68446009D01*
X90202068Y-67881629D01*
X89770643Y-67449449D01*
X89206670Y-67215267D01*
X88596009Y-67214735D01*
X88031629Y-67447932D01*
X87599449Y-67879357D01*
X87365267Y-68443330D01*
X87364735Y-69053991D01*
X52177252Y-69053991D01*
X52177252Y-66520719D01*
X54279613Y-66520719D01*
X54619155Y-67342472D01*
X55247321Y-67971736D01*
X56068481Y-68312711D01*
X56957619Y-68313487D01*
X57779372Y-67973945D01*
X58408636Y-67345779D01*
X58745956Y-66533419D01*
X124256613Y-66533419D01*
X124596155Y-67355172D01*
X125224321Y-67984436D01*
X126045481Y-68325411D01*
X126934619Y-68326187D01*
X127756372Y-67986645D01*
X128385636Y-67358479D01*
X128726611Y-66537319D01*
X128727387Y-65648181D01*
X128387845Y-64826428D01*
X127759679Y-64197164D01*
X126938519Y-63856189D01*
X126049381Y-63855413D01*
X125227628Y-64194955D01*
X124598364Y-64823121D01*
X124257389Y-65644281D01*
X124256613Y-66533419D01*
X58745956Y-66533419D01*
X58749611Y-66524619D01*
X58750387Y-65635481D01*
X58410845Y-64813728D01*
X57782679Y-64184464D01*
X56961519Y-63843489D01*
X56072381Y-63842713D01*
X55250628Y-64182255D01*
X54621364Y-64810421D01*
X54280389Y-65631581D01*
X54279613Y-66520719D01*
X52177252Y-66520719D01*
X52177252Y-60614717D01*
X52518110Y-58901108D01*
X53450575Y-57505574D01*
X54846108Y-56573108D01*
X56559719Y-56232250D01*
X87356154Y-56232250D01*
X87352560Y-56250000D01*
G36*
X93840856Y-130602302D02*
X93868638Y-131157368D01*
X94027603Y-131541143D01*
X94269787Y-131610608D01*
X95070395Y-130810000D01*
X95056253Y-130795858D01*
X95235858Y-130616253D01*
X95250000Y-130630395D01*
X95264143Y-130616253D01*
X95443748Y-130795858D01*
X95429605Y-130810000D01*
X95443748Y-130824143D01*
X95264143Y-131003748D01*
X95250000Y-130989605D01*
X94449392Y-131790213D01*
X94518857Y-132032397D01*
X95042302Y-132219144D01*
X95133859Y-132214561D01*
X92928959Y-134419461D01*
X92710000Y-134375907D01*
X92141715Y-134488946D01*
X91659946Y-134810853D01*
X91440000Y-135140026D01*
X91220054Y-134810853D01*
X90738285Y-134488946D01*
X90170000Y-134375907D01*
X89601715Y-134488946D01*
X89119946Y-134810853D01*
X88892298Y-135151553D01*
X88825183Y-135008642D01*
X88396924Y-134618355D01*
X87986890Y-134448524D01*
X87757000Y-134569845D01*
X87757000Y-135763000D01*
X87777000Y-135763000D01*
X87777000Y-136017000D01*
X87757000Y-136017000D01*
X87757000Y-136037000D01*
X87503000Y-136037000D01*
X87503000Y-136017000D01*
X87483000Y-136017000D01*
X87483000Y-135763000D01*
X87503000Y-135763000D01*
X87503000Y-134569845D01*
X87273110Y-134448524D01*
X86863076Y-134618355D01*
X86434817Y-135008642D01*
X86367702Y-135151553D01*
X86140054Y-134810853D01*
X85658285Y-134488946D01*
X85090000Y-134375907D01*
X84521715Y-134488946D01*
X84039946Y-134810853D01*
X84012150Y-134852452D01*
X84003162Y-134804683D01*
X83864090Y-134588559D01*
X83651890Y-134443569D01*
X83400000Y-134392560D01*
X82834520Y-134392560D01*
X83609179Y-133617900D01*
X85287995Y-133617900D01*
X85288000Y-133617901D01*
X85570484Y-133561710D01*
X85626675Y-133550533D01*
X85913790Y-133358690D01*
X86732935Y-132539545D01*
X86853043Y-132489917D01*
X87116292Y-132227127D01*
X87258938Y-131883599D01*
X87259262Y-131511633D01*
X87117217Y-131167857D01*
X86854427Y-130904608D01*
X86510899Y-130761962D01*
X86486343Y-130761941D01*
X86471362Y-130462632D01*
X86455774Y-130425000D01*
X93904111Y-130425000D01*
X93840856Y-130602302D01*
X93840856Y-130602302D01*
G37*
X93840856Y-130602302D02*
X93868638Y-131157368D01*
X94027603Y-131541143D01*
X94269787Y-131610608D01*
X95070395Y-130810000D01*
X95056253Y-130795858D01*
X95235858Y-130616253D01*
X95250000Y-130630395D01*
X95264143Y-130616253D01*
X95443748Y-130795858D01*
X95429605Y-130810000D01*
X95443748Y-130824143D01*
X95264143Y-131003748D01*
X95250000Y-130989605D01*
X94449392Y-131790213D01*
X94518857Y-132032397D01*
X95042302Y-132219144D01*
X95133859Y-132214561D01*
X92928959Y-134419461D01*
X92710000Y-134375907D01*
X92141715Y-134488946D01*
X91659946Y-134810853D01*
X91440000Y-135140026D01*
X91220054Y-134810853D01*
X90738285Y-134488946D01*
X90170000Y-134375907D01*
X89601715Y-134488946D01*
X89119946Y-134810853D01*
X88892298Y-135151553D01*
X88825183Y-135008642D01*
X88396924Y-134618355D01*
X87986890Y-134448524D01*
X87757000Y-134569845D01*
X87757000Y-135763000D01*
X87777000Y-135763000D01*
X87777000Y-136017000D01*
X87757000Y-136017000D01*
X87757000Y-136037000D01*
X87503000Y-136037000D01*
X87503000Y-136017000D01*
X87483000Y-136017000D01*
X87483000Y-135763000D01*
X87503000Y-135763000D01*
X87503000Y-134569845D01*
X87273110Y-134448524D01*
X86863076Y-134618355D01*
X86434817Y-135008642D01*
X86367702Y-135151553D01*
X86140054Y-134810853D01*
X85658285Y-134488946D01*
X85090000Y-134375907D01*
X84521715Y-134488946D01*
X84039946Y-134810853D01*
X84012150Y-134852452D01*
X84003162Y-134804683D01*
X83864090Y-134588559D01*
X83651890Y-134443569D01*
X83400000Y-134392560D01*
X82834520Y-134392560D01*
X83609179Y-133617900D01*
X85287995Y-133617900D01*
X85288000Y-133617901D01*
X85570484Y-133561710D01*
X85626675Y-133550533D01*
X85913790Y-133358690D01*
X86732935Y-132539545D01*
X86853043Y-132489917D01*
X87116292Y-132227127D01*
X87258938Y-131883599D01*
X87259262Y-131511633D01*
X87117217Y-131167857D01*
X86854427Y-130904608D01*
X86510899Y-130761962D01*
X86486343Y-130761941D01*
X86471362Y-130462632D01*
X86455774Y-130425000D01*
X93904111Y-130425000D01*
X93840856Y-130602302D01*
G36*
X85283748Y-130795858D02*
X85269605Y-130810000D01*
X85283748Y-130824143D01*
X85104143Y-131003748D01*
X85090000Y-130989605D01*
X84289392Y-131790213D01*
X84305938Y-131847900D01*
X83534879Y-131847900D01*
X83859998Y-131522782D01*
X83867603Y-131541143D01*
X84109787Y-131610608D01*
X84910395Y-130810000D01*
X84896253Y-130795858D01*
X85075858Y-130616253D01*
X85090000Y-130630395D01*
X85104143Y-130616253D01*
X85283748Y-130795858D01*
X85283748Y-130795858D01*
G37*
X85283748Y-130795858D02*
X85269605Y-130810000D01*
X85283748Y-130824143D01*
X85104143Y-131003748D01*
X85090000Y-130989605D01*
X84289392Y-131790213D01*
X84305938Y-131847900D01*
X83534879Y-131847900D01*
X83859998Y-131522782D01*
X83867603Y-131541143D01*
X84109787Y-131610608D01*
X84910395Y-130810000D01*
X84896253Y-130795858D01*
X85075858Y-130616253D01*
X85090000Y-130630395D01*
X85104143Y-130616253D01*
X85283748Y-130795858D01*
G36*
X87920254Y-94072983D02*
X88369765Y-94373337D01*
X88900000Y-94478807D01*
X89430235Y-94373337D01*
X89653845Y-94223925D01*
X96610808Y-101180887D01*
X96610810Y-101180890D01*
X96897925Y-101372733D01*
X97236600Y-101440100D01*
X125594444Y-101440100D01*
X125584683Y-101489172D01*
X125661919Y-101877458D01*
X125273633Y-101800222D01*
X124705348Y-101913262D01*
X124223579Y-102235169D01*
X124099545Y-102420800D01*
X82605705Y-102420800D01*
X82605700Y-102420799D01*
X82323216Y-102476990D01*
X82267025Y-102488167D01*
X81979910Y-102680010D01*
X81979908Y-102680013D01*
X80763845Y-103896075D01*
X80540235Y-103746663D01*
X80010000Y-103641193D01*
X79479765Y-103746663D01*
X79030254Y-104047017D01*
X78729900Y-104496528D01*
X78624430Y-105026763D01*
X78624430Y-105793237D01*
X78729900Y-106323472D01*
X79030254Y-106772983D01*
X79479765Y-107073337D01*
X80010000Y-107178807D01*
X80540235Y-107073337D01*
X80989746Y-106772983D01*
X81280000Y-106338588D01*
X81570254Y-106772983D01*
X82019765Y-107073337D01*
X82550000Y-107178807D01*
X83080235Y-107073337D01*
X83529746Y-106772983D01*
X83820000Y-106338588D01*
X84110254Y-106772983D01*
X84559765Y-107073337D01*
X85090000Y-107178807D01*
X85620235Y-107073337D01*
X86069746Y-106772983D01*
X86370100Y-106323472D01*
X86371601Y-106315928D01*
X86398501Y-106406817D01*
X86740056Y-106828798D01*
X87217097Y-107087950D01*
X87288725Y-107102133D01*
X87503000Y-106979479D01*
X87503000Y-105537000D01*
X87483000Y-105537000D01*
X87483000Y-105283000D01*
X87503000Y-105283000D01*
X87503000Y-105263000D01*
X87757000Y-105263000D01*
X87757000Y-105283000D01*
X87777000Y-105283000D01*
X87777000Y-105537000D01*
X87757000Y-105537000D01*
X87757000Y-106979479D01*
X87971275Y-107102133D01*
X88042903Y-107087950D01*
X88519944Y-106828798D01*
X88861499Y-106406817D01*
X88888399Y-106315928D01*
X88889900Y-106323472D01*
X89190254Y-106772983D01*
X89639765Y-107073337D01*
X90170000Y-107178807D01*
X90700235Y-107073337D01*
X91149746Y-106772983D01*
X91440000Y-106338588D01*
X91730254Y-106772983D01*
X92179765Y-107073337D01*
X92710000Y-107178807D01*
X93240235Y-107073337D01*
X93689746Y-106772983D01*
X93980000Y-106338588D01*
X94270254Y-106772983D01*
X94719765Y-107073337D01*
X95250000Y-107178807D01*
X95780235Y-107073337D01*
X96229746Y-106772983D01*
X96520000Y-106338588D01*
X96810254Y-106772983D01*
X97259765Y-107073337D01*
X97790000Y-107178807D01*
X98320235Y-107073337D01*
X98769746Y-106772983D01*
X99060000Y-106338588D01*
X99350254Y-106772983D01*
X99799765Y-107073337D01*
X100330000Y-107178807D01*
X100860235Y-107073337D01*
X101309746Y-106772983D01*
X101600000Y-106338588D01*
X101890254Y-106772983D01*
X102339765Y-107073337D01*
X102870000Y-107178807D01*
X103400235Y-107073337D01*
X103849746Y-106772983D01*
X104140000Y-106338588D01*
X104430254Y-106772983D01*
X104879765Y-107073337D01*
X105410000Y-107178807D01*
X105940235Y-107073337D01*
X106389746Y-106772983D01*
X106680000Y-106338588D01*
X106970254Y-106772983D01*
X107419765Y-107073337D01*
X107950000Y-107178807D01*
X108480235Y-107073337D01*
X108929746Y-106772983D01*
X109230100Y-106323472D01*
X109335570Y-105793237D01*
X109335570Y-105026763D01*
X109230100Y-104496528D01*
X109025819Y-104190800D01*
X122320900Y-104190800D01*
X122105621Y-104512989D01*
X121992581Y-105081274D01*
X122072522Y-105483158D01*
X121924010Y-105429562D01*
X121345210Y-105456412D01*
X120935184Y-105626261D01*
X120858414Y-105874605D01*
X121702102Y-106718293D01*
X121716245Y-106704151D01*
X121895850Y-106883756D01*
X121881707Y-106897898D01*
X121895850Y-106912041D01*
X121716245Y-107091646D01*
X121702102Y-107077503D01*
X121687960Y-107091646D01*
X121508355Y-106912041D01*
X121522497Y-106897898D01*
X120678809Y-106054210D01*
X120430465Y-106130980D01*
X120260616Y-106541006D01*
X120233766Y-107119806D01*
X120287362Y-107268316D01*
X119885479Y-107188376D01*
X119317194Y-107301416D01*
X118835425Y-107623323D01*
X118513518Y-108105092D01*
X118400478Y-108673377D01*
X118410238Y-108722445D01*
X118370106Y-108695024D01*
X118118944Y-108640540D01*
X117866373Y-108688064D01*
X117652191Y-108830109D01*
X116450109Y-110032191D01*
X116315024Y-110229894D01*
X116311031Y-110248300D01*
X99686700Y-110248300D01*
X99348025Y-110315667D01*
X99060910Y-110507510D01*
X99060908Y-110507513D01*
X96643489Y-112924931D01*
X96631362Y-112682632D01*
X96472397Y-112298857D01*
X96230213Y-112229392D01*
X95429605Y-113030000D01*
X95443748Y-113044143D01*
X95264143Y-113223748D01*
X95250000Y-113209605D01*
X95235858Y-113223748D01*
X95056253Y-113044143D01*
X95070395Y-113030000D01*
X94269787Y-112229392D01*
X94027603Y-112298857D01*
X93840856Y-112822302D01*
X93868638Y-113377368D01*
X93894747Y-113440400D01*
X86432237Y-113440400D01*
X86486757Y-113309100D01*
X86487242Y-112753339D01*
X86443634Y-112647800D01*
X91133178Y-112647800D01*
X91253201Y-112697638D01*
X91625167Y-112697962D01*
X91968943Y-112555917D01*
X92232192Y-112293127D01*
X92333236Y-112049787D01*
X94449392Y-112049787D01*
X95250000Y-112850395D01*
X96050608Y-112049787D01*
X95981143Y-111807603D01*
X95457698Y-111620856D01*
X94902632Y-111648638D01*
X94518857Y-111807603D01*
X94449392Y-112049787D01*
X92333236Y-112049787D01*
X92374838Y-111949599D01*
X92375162Y-111577633D01*
X92233117Y-111233857D01*
X91970327Y-110970608D01*
X91626799Y-110827962D01*
X91254833Y-110827638D01*
X91133431Y-110877800D01*
X80861375Y-110877800D01*
X80944838Y-110676799D01*
X80945162Y-110304833D01*
X80803117Y-109961057D01*
X80770000Y-109927882D01*
X80770000Y-109405167D01*
X92409838Y-109405167D01*
X92551883Y-109748943D01*
X92814673Y-110012192D01*
X93158201Y-110154838D01*
X93530167Y-110155162D01*
X93873943Y-110013117D01*
X94137192Y-109750327D01*
X94279838Y-109406799D01*
X94279879Y-109359923D01*
X94294802Y-109345000D01*
X94687537Y-109345000D01*
X94719673Y-109377192D01*
X95063201Y-109519838D01*
X95435167Y-109520162D01*
X95778943Y-109378117D01*
X96042192Y-109115327D01*
X96184838Y-108771799D01*
X96185162Y-108399833D01*
X96043117Y-108056057D01*
X95780327Y-107792808D01*
X95436799Y-107650162D01*
X95064833Y-107649838D01*
X94721057Y-107791883D01*
X94687882Y-107825000D01*
X93980000Y-107825000D01*
X93689161Y-107882852D01*
X93442599Y-108047599D01*
X93205320Y-108284878D01*
X93159833Y-108284838D01*
X92816057Y-108426883D01*
X92552808Y-108689673D01*
X92410162Y-109033201D01*
X92409838Y-109405167D01*
X80770000Y-109405167D01*
X80770000Y-109220000D01*
X80712148Y-108929161D01*
X80712148Y-108929160D01*
X80547401Y-108682599D01*
X79277401Y-107412599D01*
X79030839Y-107247852D01*
X78740000Y-107190000D01*
X77149802Y-107190000D01*
X77135122Y-107175320D01*
X77135162Y-107129833D01*
X76993117Y-106786057D01*
X76730327Y-106522808D01*
X76386799Y-106380162D01*
X76014833Y-106379838D01*
X75671057Y-106521883D01*
X75407808Y-106784673D01*
X75265162Y-107128201D01*
X75264838Y-107500167D01*
X75406883Y-107843943D01*
X75669673Y-108107192D01*
X76013201Y-108249838D01*
X76060077Y-108249879D01*
X76297599Y-108487401D01*
X76544161Y-108652148D01*
X76835000Y-108710000D01*
X78425198Y-108710000D01*
X79250000Y-109534802D01*
X79250000Y-109927537D01*
X79217808Y-109959673D01*
X79075162Y-110303201D01*
X79074838Y-110675167D01*
X79158564Y-110877800D01*
X66850518Y-110877800D01*
X66778840Y-110517451D01*
X66563585Y-110195300D01*
X71049095Y-110195300D01*
X71049100Y-110195301D01*
X71331584Y-110139110D01*
X71387775Y-110127933D01*
X71674890Y-109936090D01*
X87767143Y-93843836D01*
X87920254Y-94072983D01*
X87920254Y-94072983D01*
G37*
X87920254Y-94072983D02*
X88369765Y-94373337D01*
X88900000Y-94478807D01*
X89430235Y-94373337D01*
X89653845Y-94223925D01*
X96610808Y-101180887D01*
X96610810Y-101180890D01*
X96897925Y-101372733D01*
X97236600Y-101440100D01*
X125594444Y-101440100D01*
X125584683Y-101489172D01*
X125661919Y-101877458D01*
X125273633Y-101800222D01*
X124705348Y-101913262D01*
X124223579Y-102235169D01*
X124099545Y-102420800D01*
X82605705Y-102420800D01*
X82605700Y-102420799D01*
X82323216Y-102476990D01*
X82267025Y-102488167D01*
X81979910Y-102680010D01*
X81979908Y-102680013D01*
X80763845Y-103896075D01*
X80540235Y-103746663D01*
X80010000Y-103641193D01*
X79479765Y-103746663D01*
X79030254Y-104047017D01*
X78729900Y-104496528D01*
X78624430Y-105026763D01*
X78624430Y-105793237D01*
X78729900Y-106323472D01*
X79030254Y-106772983D01*
X79479765Y-107073337D01*
X80010000Y-107178807D01*
X80540235Y-107073337D01*
X80989746Y-106772983D01*
X81280000Y-106338588D01*
X81570254Y-106772983D01*
X82019765Y-107073337D01*
X82550000Y-107178807D01*
X83080235Y-107073337D01*
X83529746Y-106772983D01*
X83820000Y-106338588D01*
X84110254Y-106772983D01*
X84559765Y-107073337D01*
X85090000Y-107178807D01*
X85620235Y-107073337D01*
X86069746Y-106772983D01*
X86370100Y-106323472D01*
X86371601Y-106315928D01*
X86398501Y-106406817D01*
X86740056Y-106828798D01*
X87217097Y-107087950D01*
X87288725Y-107102133D01*
X87503000Y-106979479D01*
X87503000Y-105537000D01*
X87483000Y-105537000D01*
X87483000Y-105283000D01*
X87503000Y-105283000D01*
X87503000Y-105263000D01*
X87757000Y-105263000D01*
X87757000Y-105283000D01*
X87777000Y-105283000D01*
X87777000Y-105537000D01*
X87757000Y-105537000D01*
X87757000Y-106979479D01*
X87971275Y-107102133D01*
X88042903Y-107087950D01*
X88519944Y-106828798D01*
X88861499Y-106406817D01*
X88888399Y-106315928D01*
X88889900Y-106323472D01*
X89190254Y-106772983D01*
X89639765Y-107073337D01*
X90170000Y-107178807D01*
X90700235Y-107073337D01*
X91149746Y-106772983D01*
X91440000Y-106338588D01*
X91730254Y-106772983D01*
X92179765Y-107073337D01*
X92710000Y-107178807D01*
X93240235Y-107073337D01*
X93689746Y-106772983D01*
X93980000Y-106338588D01*
X94270254Y-106772983D01*
X94719765Y-107073337D01*
X95250000Y-107178807D01*
X95780235Y-107073337D01*
X96229746Y-106772983D01*
X96520000Y-106338588D01*
X96810254Y-106772983D01*
X97259765Y-107073337D01*
X97790000Y-107178807D01*
X98320235Y-107073337D01*
X98769746Y-106772983D01*
X99060000Y-106338588D01*
X99350254Y-106772983D01*
X99799765Y-107073337D01*
X100330000Y-107178807D01*
X100860235Y-107073337D01*
X101309746Y-106772983D01*
X101600000Y-106338588D01*
X101890254Y-106772983D01*
X102339765Y-107073337D01*
X102870000Y-107178807D01*
X103400235Y-107073337D01*
X103849746Y-106772983D01*
X104140000Y-106338588D01*
X104430254Y-106772983D01*
X104879765Y-107073337D01*
X105410000Y-107178807D01*
X105940235Y-107073337D01*
X106389746Y-106772983D01*
X106680000Y-106338588D01*
X106970254Y-106772983D01*
X107419765Y-107073337D01*
X107950000Y-107178807D01*
X108480235Y-107073337D01*
X108929746Y-106772983D01*
X109230100Y-106323472D01*
X109335570Y-105793237D01*
X109335570Y-105026763D01*
X109230100Y-104496528D01*
X109025819Y-104190800D01*
X122320900Y-104190800D01*
X122105621Y-104512989D01*
X121992581Y-105081274D01*
X122072522Y-105483158D01*
X121924010Y-105429562D01*
X121345210Y-105456412D01*
X120935184Y-105626261D01*
X120858414Y-105874605D01*
X121702102Y-106718293D01*
X121716245Y-106704151D01*
X121895850Y-106883756D01*
X121881707Y-106897898D01*
X121895850Y-106912041D01*
X121716245Y-107091646D01*
X121702102Y-107077503D01*
X121687960Y-107091646D01*
X121508355Y-106912041D01*
X121522497Y-106897898D01*
X120678809Y-106054210D01*
X120430465Y-106130980D01*
X120260616Y-106541006D01*
X120233766Y-107119806D01*
X120287362Y-107268316D01*
X119885479Y-107188376D01*
X119317194Y-107301416D01*
X118835425Y-107623323D01*
X118513518Y-108105092D01*
X118400478Y-108673377D01*
X118410238Y-108722445D01*
X118370106Y-108695024D01*
X118118944Y-108640540D01*
X117866373Y-108688064D01*
X117652191Y-108830109D01*
X116450109Y-110032191D01*
X116315024Y-110229894D01*
X116311031Y-110248300D01*
X99686700Y-110248300D01*
X99348025Y-110315667D01*
X99060910Y-110507510D01*
X99060908Y-110507513D01*
X96643489Y-112924931D01*
X96631362Y-112682632D01*
X96472397Y-112298857D01*
X96230213Y-112229392D01*
X95429605Y-113030000D01*
X95443748Y-113044143D01*
X95264143Y-113223748D01*
X95250000Y-113209605D01*
X95235858Y-113223748D01*
X95056253Y-113044143D01*
X95070395Y-113030000D01*
X94269787Y-112229392D01*
X94027603Y-112298857D01*
X93840856Y-112822302D01*
X93868638Y-113377368D01*
X93894747Y-113440400D01*
X86432237Y-113440400D01*
X86486757Y-113309100D01*
X86487242Y-112753339D01*
X86443634Y-112647800D01*
X91133178Y-112647800D01*
X91253201Y-112697638D01*
X91625167Y-112697962D01*
X91968943Y-112555917D01*
X92232192Y-112293127D01*
X92333236Y-112049787D01*
X94449392Y-112049787D01*
X95250000Y-112850395D01*
X96050608Y-112049787D01*
X95981143Y-111807603D01*
X95457698Y-111620856D01*
X94902632Y-111648638D01*
X94518857Y-111807603D01*
X94449392Y-112049787D01*
X92333236Y-112049787D01*
X92374838Y-111949599D01*
X92375162Y-111577633D01*
X92233117Y-111233857D01*
X91970327Y-110970608D01*
X91626799Y-110827962D01*
X91254833Y-110827638D01*
X91133431Y-110877800D01*
X80861375Y-110877800D01*
X80944838Y-110676799D01*
X80945162Y-110304833D01*
X80803117Y-109961057D01*
X80770000Y-109927882D01*
X80770000Y-109405167D01*
X92409838Y-109405167D01*
X92551883Y-109748943D01*
X92814673Y-110012192D01*
X93158201Y-110154838D01*
X93530167Y-110155162D01*
X93873943Y-110013117D01*
X94137192Y-109750327D01*
X94279838Y-109406799D01*
X94279879Y-109359923D01*
X94294802Y-109345000D01*
X94687537Y-109345000D01*
X94719673Y-109377192D01*
X95063201Y-109519838D01*
X95435167Y-109520162D01*
X95778943Y-109378117D01*
X96042192Y-109115327D01*
X96184838Y-108771799D01*
X96185162Y-108399833D01*
X96043117Y-108056057D01*
X95780327Y-107792808D01*
X95436799Y-107650162D01*
X95064833Y-107649838D01*
X94721057Y-107791883D01*
X94687882Y-107825000D01*
X93980000Y-107825000D01*
X93689161Y-107882852D01*
X93442599Y-108047599D01*
X93205320Y-108284878D01*
X93159833Y-108284838D01*
X92816057Y-108426883D01*
X92552808Y-108689673D01*
X92410162Y-109033201D01*
X92409838Y-109405167D01*
X80770000Y-109405167D01*
X80770000Y-109220000D01*
X80712148Y-108929161D01*
X80712148Y-108929160D01*
X80547401Y-108682599D01*
X79277401Y-107412599D01*
X79030839Y-107247852D01*
X78740000Y-107190000D01*
X77149802Y-107190000D01*
X77135122Y-107175320D01*
X77135162Y-107129833D01*
X76993117Y-106786057D01*
X76730327Y-106522808D01*
X76386799Y-106380162D01*
X76014833Y-106379838D01*
X75671057Y-106521883D01*
X75407808Y-106784673D01*
X75265162Y-107128201D01*
X75264838Y-107500167D01*
X75406883Y-107843943D01*
X75669673Y-108107192D01*
X76013201Y-108249838D01*
X76060077Y-108249879D01*
X76297599Y-108487401D01*
X76544161Y-108652148D01*
X76835000Y-108710000D01*
X78425198Y-108710000D01*
X79250000Y-109534802D01*
X79250000Y-109927537D01*
X79217808Y-109959673D01*
X79075162Y-110303201D01*
X79074838Y-110675167D01*
X79158564Y-110877800D01*
X66850518Y-110877800D01*
X66778840Y-110517451D01*
X66563585Y-110195300D01*
X71049095Y-110195300D01*
X71049100Y-110195301D01*
X71331584Y-110139110D01*
X71387775Y-110127933D01*
X71674890Y-109936090D01*
X87767143Y-93843836D01*
X87920254Y-94072983D01*
G36*
X95874808Y-97145787D02*
X95874810Y-97145790D01*
X96161925Y-97337633D01*
X96218116Y-97348810D01*
X96500600Y-97405001D01*
X96500605Y-97405000D01*
X106266525Y-97405000D01*
X106257867Y-97448725D01*
X106380521Y-97663000D01*
X107823000Y-97663000D01*
X107823000Y-97643000D01*
X108077000Y-97643000D01*
X108077000Y-97663000D01*
X109519479Y-97663000D01*
X109642133Y-97448725D01*
X109633475Y-97405000D01*
X111885829Y-97405000D01*
X112216077Y-97735824D01*
X112743309Y-97954750D01*
X113213581Y-97955160D01*
X114643308Y-99384887D01*
X114643310Y-99384890D01*
X114835154Y-99513075D01*
X114930426Y-99576734D01*
X115269100Y-99644101D01*
X115269105Y-99644100D01*
X127390485Y-99644100D01*
X127380734Y-99693121D01*
X127457970Y-100081407D01*
X127069684Y-100004171D01*
X126875064Y-100042884D01*
X126761490Y-99929310D01*
X126577526Y-99806390D01*
X126474375Y-99737467D01*
X126418184Y-99726290D01*
X126135700Y-99670099D01*
X126135695Y-99670100D01*
X97603179Y-99670100D01*
X96064355Y-98131275D01*
X106257867Y-98131275D01*
X106272050Y-98202903D01*
X106531202Y-98679944D01*
X106953183Y-99021499D01*
X107473750Y-99175570D01*
X107823000Y-99175570D01*
X107823000Y-97917000D01*
X108077000Y-97917000D01*
X108077000Y-99175570D01*
X108426250Y-99175570D01*
X108946817Y-99021499D01*
X109368798Y-98679944D01*
X109627950Y-98202903D01*
X109642133Y-98131275D01*
X109519479Y-97917000D01*
X108077000Y-97917000D01*
X107823000Y-97917000D01*
X106380521Y-97917000D01*
X106257867Y-98131275D01*
X96064355Y-98131275D01*
X92171761Y-94238681D01*
X92419746Y-94072983D01*
X92572857Y-93843837D01*
X95874808Y-97145787D01*
X95874808Y-97145787D01*
G37*
X95874808Y-97145787D02*
X95874810Y-97145790D01*
X96161925Y-97337633D01*
X96218116Y-97348810D01*
X96500600Y-97405001D01*
X96500605Y-97405000D01*
X106266525Y-97405000D01*
X106257867Y-97448725D01*
X106380521Y-97663000D01*
X107823000Y-97663000D01*
X107823000Y-97643000D01*
X108077000Y-97643000D01*
X108077000Y-97663000D01*
X109519479Y-97663000D01*
X109642133Y-97448725D01*
X109633475Y-97405000D01*
X111885829Y-97405000D01*
X112216077Y-97735824D01*
X112743309Y-97954750D01*
X113213581Y-97955160D01*
X114643308Y-99384887D01*
X114643310Y-99384890D01*
X114835154Y-99513075D01*
X114930426Y-99576734D01*
X115269100Y-99644101D01*
X115269105Y-99644100D01*
X127390485Y-99644100D01*
X127380734Y-99693121D01*
X127457970Y-100081407D01*
X127069684Y-100004171D01*
X126875064Y-100042884D01*
X126761490Y-99929310D01*
X126577526Y-99806390D01*
X126474375Y-99737467D01*
X126418184Y-99726290D01*
X126135700Y-99670099D01*
X126135695Y-99670100D01*
X97603179Y-99670100D01*
X96064355Y-98131275D01*
X106257867Y-98131275D01*
X106272050Y-98202903D01*
X106531202Y-98679944D01*
X106953183Y-99021499D01*
X107473750Y-99175570D01*
X107823000Y-99175570D01*
X107823000Y-97917000D01*
X108077000Y-97917000D01*
X108077000Y-99175570D01*
X108426250Y-99175570D01*
X108946817Y-99021499D01*
X109368798Y-98679944D01*
X109627950Y-98202903D01*
X109642133Y-98131275D01*
X109519479Y-97917000D01*
X108077000Y-97917000D01*
X107823000Y-97917000D01*
X106380521Y-97917000D01*
X106257867Y-98131275D01*
X96064355Y-98131275D01*
X92171761Y-94238681D01*
X92419746Y-94072983D01*
X92572857Y-93843837D01*
X95874808Y-97145787D01*
M02*
