G04 #@! TF.FileFunction,Copper,L1,Top,Signal*
%FSLAX46Y46*%
G04 Gerber Fmt 4.6, Leading zero omitted, Abs format (unit mm)*
G04 Created by KiCad (PCBNEW 4.0.2+dfsg1-stable) date Sun 09 Sep 2018 04:47:05 PM CEST*
%MOMM*%
G01*
G04 APERTURE LIST*
%ADD10C,0.100000*%
%ADD11O,1.501140X2.199640*%
%ADD12O,2.199640X1.501140*%
%ADD13R,1.700000X1.700000*%
%ADD14O,1.700000X1.700000*%
%ADD15C,1.600000*%
%ADD16O,1.600000X1.600000*%
%ADD17C,1.524000*%
%ADD18C,1.800000*%
%ADD19R,1.800000X1.800000*%
%ADD20C,1.700000*%
%ADD21C,0.600000*%
%ADD22C,0.500000*%
%ADD23C,0.250000*%
%ADD24C,0.254000*%
G04 APERTURE END LIST*
D10*
D11*
X99060000Y-92710000D03*
X101600000Y-92710000D03*
X80010000Y-105410000D03*
X82550000Y-105410000D03*
X85090000Y-105410000D03*
X87630000Y-105410000D03*
X90170000Y-105410000D03*
X92710000Y-105410000D03*
X95250000Y-105410000D03*
X97790000Y-105410000D03*
X100330000Y-105410000D03*
X102870000Y-105410000D03*
X105410000Y-105410000D03*
X107950000Y-105410000D03*
X107950000Y-90170000D03*
X105410000Y-90170000D03*
X102870000Y-90170000D03*
X100330000Y-90170000D03*
X97790000Y-90170000D03*
X95250000Y-90170000D03*
X92710000Y-90170000D03*
X90170000Y-90170000D03*
X87630000Y-90170000D03*
X85090000Y-90170000D03*
X82550000Y-90170000D03*
X80010000Y-90170000D03*
X91440000Y-92710000D03*
X88900000Y-92710000D03*
D12*
X107950000Y-92710000D03*
X107950000Y-95250000D03*
X107950000Y-97790000D03*
D13*
X103505000Y-140335000D03*
D14*
X100965000Y-140335000D03*
X98425000Y-140335000D03*
X95885000Y-140335000D03*
X93345000Y-140335000D03*
X90805000Y-140335000D03*
X88265000Y-140335000D03*
X85725000Y-140335000D03*
X83185000Y-140335000D03*
X80645000Y-140335000D03*
X78105000Y-140335000D03*
D13*
X77470000Y-74930000D03*
D14*
X77470000Y-77470000D03*
D13*
X109220000Y-73660000D03*
D14*
X109220000Y-76200000D03*
D15*
X113030000Y-86360000D03*
D16*
X120650000Y-86360000D03*
D15*
X113030000Y-96520000D03*
D16*
X120650000Y-96520000D03*
D15*
X113030000Y-91440000D03*
D16*
X120650000Y-91440000D03*
D17*
X85090000Y-113030000D03*
X85090000Y-115570000D03*
X85090000Y-118110000D03*
X85090000Y-120650000D03*
X85090000Y-123190000D03*
X85090000Y-125730000D03*
X85090000Y-128270000D03*
X85090000Y-130810000D03*
X95250000Y-113030000D03*
X95250000Y-115570000D03*
X95250000Y-118110000D03*
X95250000Y-120650000D03*
X95250000Y-125730000D03*
X95250000Y-123190000D03*
X95250000Y-128270000D03*
X95250000Y-130810000D03*
D18*
X96500000Y-57150000D03*
X96500000Y-68750000D03*
D19*
X88900000Y-57150000D03*
D18*
X88900000Y-68750000D03*
D10*
G36*
X119312082Y-110490000D02*
X118110000Y-111692082D01*
X116907918Y-110490000D01*
X118110000Y-109287918D01*
X119312082Y-110490000D01*
X119312082Y-110490000D01*
G37*
D20*
X119906051Y-108693949D02*
X119906051Y-108693949D01*
X121702102Y-106897898D02*
X121702102Y-106897898D01*
X123498154Y-105101846D02*
X123498154Y-105101846D01*
X125294205Y-103305795D02*
X125294205Y-103305795D01*
X127090256Y-101509744D02*
X127090256Y-101509744D01*
X128886307Y-99713693D02*
X128886307Y-99713693D01*
D13*
X82550000Y-135890000D03*
D14*
X85090000Y-135890000D03*
X87630000Y-135890000D03*
X90170000Y-135890000D03*
X92710000Y-135890000D03*
X95250000Y-135890000D03*
X97790000Y-135890000D03*
D10*
G36*
X54610000Y-101532082D02*
X53407918Y-100330000D01*
X54610000Y-99127918D01*
X55812082Y-100330000D01*
X54610000Y-101532082D01*
X54610000Y-101532082D01*
G37*
D20*
X56406051Y-102126051D02*
X56406051Y-102126051D01*
X58202102Y-103922102D02*
X58202102Y-103922102D01*
X59998154Y-105718154D02*
X59998154Y-105718154D01*
X61794205Y-107514205D02*
X61794205Y-107514205D01*
X63590256Y-109310256D02*
X63590256Y-109310256D01*
X65386307Y-111106307D02*
X65386307Y-111106307D01*
D21*
X106680000Y-106968400D03*
X89501300Y-115803000D03*
X92378500Y-126480400D03*
X93345000Y-109220000D03*
X93345000Y-115570000D03*
X95250000Y-108585000D03*
X97790000Y-117049600D03*
X95885000Y-134620000D03*
X97790000Y-132715000D03*
X96520000Y-127000000D03*
X98425000Y-125095000D03*
X107950000Y-117333300D03*
X78809000Y-97186700D03*
X78152600Y-113783400D03*
X86324100Y-131696800D03*
X75428100Y-103096200D03*
X79045100Y-120954500D03*
X88762500Y-124862200D03*
X91440000Y-111762800D03*
X110064500Y-111883600D03*
X80010000Y-113665000D03*
X80010000Y-110490000D03*
X76200000Y-107315000D03*
X87950700Y-124433000D03*
D22*
X87046900Y-141656900D02*
X85725000Y-140335000D01*
X104522800Y-141656900D02*
X87046900Y-141656900D01*
X109314200Y-136865500D02*
X104522800Y-141656900D01*
X109314200Y-111572800D02*
X109314200Y-136865500D01*
X109500700Y-111386300D02*
X109314200Y-111572800D01*
X109500700Y-94752200D02*
X109500700Y-111386300D01*
X108709100Y-93960600D02*
X109500700Y-94752200D01*
X107950000Y-93960600D02*
X108709100Y-93960600D01*
X107950000Y-92710000D02*
X107950000Y-93960600D01*
X106680000Y-135810000D02*
X103505000Y-138985000D01*
X106680000Y-106968400D02*
X106680000Y-135810000D01*
X103505000Y-140335000D02*
X103505000Y-138985000D01*
X106680000Y-100310600D02*
X106680000Y-106968400D01*
X107950000Y-99040600D02*
X106680000Y-100310600D01*
X82550000Y-90170000D02*
X83800600Y-90170000D01*
X83800600Y-102030700D02*
X87179900Y-105410000D01*
X83800600Y-90170000D02*
X83800600Y-102030700D01*
X89524300Y-126375700D02*
X85090000Y-130810000D01*
X89524300Y-118368500D02*
X89524300Y-126375700D01*
X87179900Y-116024100D02*
X89524300Y-118368500D01*
X87179900Y-105410000D02*
X87179900Y-116024100D01*
X87630000Y-105410000D02*
X87179900Y-105410000D01*
X107950000Y-97790000D02*
X107950000Y-99040600D01*
X90170000Y-115134300D02*
X90170000Y-105410000D01*
X89501300Y-115803000D02*
X90170000Y-115134300D01*
X92378500Y-107341400D02*
X92378500Y-126480400D01*
X92710000Y-107009900D02*
X92378500Y-107341400D01*
X92710000Y-105410000D02*
X92710000Y-107009900D01*
D23*
X95250000Y-105410000D02*
X95250000Y-108585000D01*
X93345000Y-109220000D02*
X93345000Y-115570000D01*
D22*
X97790000Y-105410000D02*
X97790000Y-117049600D01*
D23*
X100330000Y-105410000D02*
X100330000Y-123190000D01*
X83820000Y-127000000D02*
X85090000Y-125730000D01*
X95885000Y-134620000D02*
X90805000Y-134620000D01*
X90805000Y-134620000D02*
X84455000Y-134620000D01*
X84455000Y-134620000D02*
X83820000Y-133985000D01*
X83820000Y-133985000D02*
X83820000Y-127000000D01*
X96520000Y-132080000D02*
X97790000Y-132715000D01*
X96520000Y-127000000D02*
X96520000Y-132080000D01*
X100330000Y-123190000D02*
X98425000Y-125095000D01*
D22*
X88900000Y-57150000D02*
X90300000Y-57150000D01*
X105410000Y-92710000D02*
X105410000Y-105410000D01*
X106680000Y-91440000D02*
X105410000Y-92710000D01*
X106680000Y-89389300D02*
X106680000Y-91440000D01*
X110532800Y-85536500D02*
X106680000Y-89389300D01*
X110532800Y-72605100D02*
X110532800Y-85536500D01*
X96477700Y-58550000D02*
X110532800Y-72605100D01*
X91700000Y-58550000D02*
X96477700Y-58550000D01*
X90300000Y-57150000D02*
X91700000Y-58550000D01*
X107950000Y-105410000D02*
X107950000Y-117333300D01*
X78809000Y-106749000D02*
X78809000Y-97186700D01*
X85090000Y-113030000D02*
X78809000Y-106749000D01*
X98672600Y-138985000D02*
X98425000Y-138985000D01*
X104072400Y-133585200D02*
X98672600Y-138985000D01*
X104072400Y-92972300D02*
X104072400Y-133585200D01*
X102870000Y-91769900D02*
X104072400Y-92972300D01*
X102870000Y-90170000D02*
X102870000Y-91769900D01*
X98425000Y-140335000D02*
X98425000Y-138985000D01*
X97790000Y-96450400D02*
X97790000Y-90170000D01*
X101586000Y-100246400D02*
X97790000Y-96450400D01*
X101586000Y-135012200D02*
X101586000Y-100246400D01*
X98441000Y-138157200D02*
X101586000Y-135012200D01*
X98062800Y-138157200D02*
X98441000Y-138157200D01*
X95885000Y-140335000D02*
X98062800Y-138157200D01*
X95250000Y-101052100D02*
X95250000Y-90170000D01*
X96464400Y-102266500D02*
X95250000Y-101052100D01*
X96464400Y-118621800D02*
X96464400Y-102266500D01*
X95706200Y-119380000D02*
X96464400Y-118621800D01*
X94767600Y-119380000D02*
X95706200Y-119380000D01*
X94008300Y-120139300D02*
X94767600Y-119380000D01*
X94008300Y-123718100D02*
X94008300Y-120139300D01*
X94750200Y-124460000D02*
X94008300Y-123718100D01*
X95704200Y-124460000D02*
X94750200Y-124460000D01*
X99090500Y-127846300D02*
X95704200Y-124460000D01*
X99090500Y-136485600D02*
X99090500Y-127846300D01*
X98346900Y-137229200D02*
X99090500Y-136485600D01*
X96450800Y-137229200D02*
X98346900Y-137229200D01*
X93345000Y-140335000D02*
X96450800Y-137229200D01*
X91459400Y-89410900D02*
X91459400Y-90170000D01*
X90658000Y-88609500D02*
X91459400Y-89410900D01*
X79473800Y-88609500D02*
X90658000Y-88609500D01*
X78057000Y-90026300D02*
X79473800Y-88609500D01*
X78057000Y-113687800D02*
X78057000Y-90026300D01*
X78152600Y-113783400D02*
X78057000Y-113687800D01*
X92710000Y-90170000D02*
X91459400Y-90170000D01*
X90237300Y-127783600D02*
X86324100Y-131696800D01*
X90237300Y-117600100D02*
X90237300Y-127783600D01*
X88751000Y-116113800D02*
X90237300Y-117600100D01*
X88751000Y-115492200D02*
X88751000Y-116113800D01*
X88949100Y-115294100D02*
X88751000Y-115492200D01*
X88949100Y-99971200D02*
X88949100Y-115294100D01*
X90170000Y-98750300D02*
X88949100Y-99971200D01*
X90170000Y-90170000D02*
X90170000Y-98750300D01*
X73217200Y-105307100D02*
X75428100Y-103096200D01*
X68240100Y-100330000D02*
X73217200Y-105307100D01*
X54610000Y-100330000D02*
X68240100Y-100330000D01*
X73217200Y-115126600D02*
X79045100Y-120954500D01*
X73217200Y-105307100D02*
X73217200Y-115126600D01*
X82550000Y-124459400D02*
X79045100Y-120954500D01*
X82550000Y-135890000D02*
X82550000Y-124459400D01*
X116487900Y-91822100D02*
X120650000Y-87660000D01*
X116487900Y-92403000D02*
X116487900Y-91822100D01*
X120650000Y-96565100D02*
X116487900Y-92403000D01*
X113412100Y-91822100D02*
X113030000Y-91440000D01*
X116487900Y-91822100D02*
X113412100Y-91822100D01*
X120650000Y-86360000D02*
X120650000Y-87660000D01*
X120650000Y-96565100D02*
X120650000Y-96610300D01*
X120650000Y-96520000D02*
X120650000Y-96565100D01*
X118110000Y-110490000D02*
X117155400Y-109535400D01*
X117155400Y-101314600D02*
X117155400Y-109535400D01*
X120650000Y-97820000D02*
X117155400Y-101314600D01*
X120650000Y-97170000D02*
X120650000Y-97820000D01*
X120650000Y-97170000D02*
X120650000Y-96610300D01*
X80010000Y-100769500D02*
X80010000Y-90170000D01*
X83820000Y-104579500D02*
X80010000Y-100769500D01*
X83820000Y-106898400D02*
X83820000Y-104579500D01*
X86429000Y-109507400D02*
X83820000Y-106898400D01*
X86429000Y-119389300D02*
X86429000Y-109507400D01*
X88762500Y-121722800D02*
X86429000Y-119389300D01*
X88762500Y-124862200D02*
X88762500Y-121722800D01*
X91440000Y-128782900D02*
X91440000Y-111762800D01*
X97197100Y-134540000D02*
X91440000Y-128782900D01*
X97790000Y-134540000D02*
X97197100Y-134540000D01*
X91440000Y-92710000D02*
X91440000Y-111762800D01*
X97790000Y-135890000D02*
X97790000Y-134540000D01*
X93941900Y-137198100D02*
X95250000Y-135890000D01*
X81502600Y-137198100D02*
X93941900Y-137198100D01*
X63590300Y-119285800D02*
X81502600Y-137198100D01*
X63590300Y-109310300D02*
X63590300Y-119285800D01*
X111233200Y-88156800D02*
X113030000Y-86360000D01*
X111233200Y-110714900D02*
X111233200Y-88156800D01*
X110064500Y-111883600D02*
X111233200Y-110714900D01*
D23*
X80010000Y-113665000D02*
X80010000Y-110490000D01*
X76200000Y-107315000D02*
X76200000Y-106045000D01*
X76200000Y-106045000D02*
X76200000Y-94615000D01*
X76200000Y-94615000D02*
X74930000Y-93345000D01*
X74930000Y-93345000D02*
X74930000Y-77470000D01*
X77470000Y-74930000D02*
X74930000Y-77470000D01*
D22*
X77470000Y-77470000D02*
X77470000Y-78820000D01*
X77316800Y-78973200D02*
X77470000Y-78820000D01*
X77316800Y-114686100D02*
X77316800Y-78973200D01*
X84550700Y-121920000D02*
X77316800Y-114686100D01*
X85544200Y-121920000D02*
X84550700Y-121920000D01*
X87950700Y-124326500D02*
X85544200Y-121920000D01*
X87950700Y-124433000D02*
X87950700Y-124326500D01*
D23*
X109220000Y-73660000D02*
X93980000Y-88900000D01*
X93980000Y-116840000D02*
X95250000Y-118110000D01*
X93980000Y-88900000D02*
X93980000Y-116840000D01*
D22*
X108265300Y-77550000D02*
X109220000Y-77550000D01*
X96582100Y-89233200D02*
X108265300Y-77550000D01*
X96582100Y-96552100D02*
X96582100Y-89233200D01*
X99004800Y-98974800D02*
X96582100Y-96552100D01*
X99004800Y-117088900D02*
X99004800Y-98974800D01*
X95443700Y-120650000D02*
X99004800Y-117088900D01*
X95250000Y-120650000D02*
X95443700Y-120650000D01*
X109220000Y-76200000D02*
X109220000Y-77550000D01*
D24*
G36*
X87352560Y-56250000D02*
X87352560Y-58050000D01*
X87396838Y-58285317D01*
X87535910Y-58501441D01*
X87748110Y-58646431D01*
X88000000Y-58697440D01*
X89800000Y-58697440D01*
X90035317Y-58653162D01*
X90251441Y-58514090D01*
X90316822Y-58418402D01*
X91074208Y-59175787D01*
X91074210Y-59175790D01*
X91361325Y-59367633D01*
X91417516Y-59378810D01*
X91700000Y-59435001D01*
X91700005Y-59435000D01*
X96111120Y-59435000D01*
X108838681Y-72162560D01*
X108370000Y-72162560D01*
X108134683Y-72206838D01*
X107918559Y-72345910D01*
X107773569Y-72558110D01*
X107722560Y-72810000D01*
X107722560Y-74082638D01*
X93442599Y-88362599D01*
X93313589Y-88555677D01*
X93240235Y-88506663D01*
X92710000Y-88401193D01*
X92179765Y-88506663D01*
X91956154Y-88656075D01*
X91283790Y-87983710D01*
X90996675Y-87791867D01*
X90940484Y-87780690D01*
X90658000Y-87724499D01*
X90657995Y-87724500D01*
X79473805Y-87724500D01*
X79473800Y-87724499D01*
X79191316Y-87780690D01*
X79135125Y-87791867D01*
X78848010Y-87983710D01*
X78848008Y-87983713D01*
X78201800Y-88629921D01*
X78201800Y-79287134D01*
X78287633Y-79158675D01*
X78287634Y-79158674D01*
X78355001Y-78820000D01*
X78355000Y-78819995D01*
X78355000Y-78649779D01*
X78549147Y-78520054D01*
X78871054Y-78038285D01*
X78984093Y-77470000D01*
X78871054Y-76901715D01*
X78549147Y-76419946D01*
X78507548Y-76392150D01*
X78555317Y-76383162D01*
X78771441Y-76244090D01*
X78916431Y-76031890D01*
X78967440Y-75780000D01*
X78967440Y-74080000D01*
X78923162Y-73844683D01*
X78784090Y-73628559D01*
X78571890Y-73483569D01*
X78320000Y-73432560D01*
X76620000Y-73432560D01*
X76384683Y-73476838D01*
X76168559Y-73615910D01*
X76023569Y-73828110D01*
X75972560Y-74080000D01*
X75972560Y-75352638D01*
X74392599Y-76932599D01*
X74227852Y-77179161D01*
X74170000Y-77470000D01*
X74170000Y-93345000D01*
X74227852Y-93635839D01*
X74392599Y-93882401D01*
X75440000Y-94929802D01*
X75440000Y-106752537D01*
X75407808Y-106784673D01*
X75265162Y-107128201D01*
X75264838Y-107500167D01*
X75406883Y-107843943D01*
X75669673Y-108107192D01*
X76013201Y-108249838D01*
X76385167Y-108250162D01*
X76431800Y-108230894D01*
X76431800Y-114686095D01*
X76431799Y-114686100D01*
X76485372Y-114955425D01*
X76499167Y-115024775D01*
X76620569Y-115206467D01*
X76691010Y-115311890D01*
X83868340Y-122489219D01*
X83693243Y-122910900D01*
X83692758Y-123466661D01*
X83904990Y-123980303D01*
X84297630Y-124373629D01*
X84505512Y-124459949D01*
X84299697Y-124544990D01*
X83906371Y-124937630D01*
X83693243Y-125450900D01*
X83692758Y-126006661D01*
X83706143Y-126039055D01*
X83282599Y-126462599D01*
X83117852Y-126709161D01*
X83060000Y-127000000D01*
X83060000Y-133985000D01*
X83117852Y-134275839D01*
X83204154Y-134405000D01*
X82835750Y-134405000D01*
X82677000Y-134563750D01*
X82677000Y-135763000D01*
X82697000Y-135763000D01*
X82697000Y-136017000D01*
X82677000Y-136017000D01*
X82677000Y-136037000D01*
X82423000Y-136037000D01*
X82423000Y-136017000D01*
X82403000Y-136017000D01*
X82403000Y-135763000D01*
X82423000Y-135763000D01*
X82423000Y-134563750D01*
X82264250Y-134405000D01*
X81573690Y-134405000D01*
X81340301Y-134501673D01*
X81161673Y-134680302D01*
X81065000Y-134913691D01*
X81065000Y-135508921D01*
X70502064Y-124945984D01*
X71177872Y-124666745D01*
X71807136Y-124038579D01*
X72148111Y-123217419D01*
X72148887Y-122328281D01*
X71809345Y-121506528D01*
X71181179Y-120877264D01*
X70360019Y-120536289D01*
X69470881Y-120535513D01*
X68649128Y-120875055D01*
X68019864Y-121503221D01*
X67738031Y-122181951D01*
X64475300Y-118919220D01*
X64475300Y-112283587D01*
X64797450Y-112498840D01*
X65365735Y-112611880D01*
X65934020Y-112498840D01*
X66415789Y-112176933D01*
X66456932Y-112135789D01*
X66778840Y-111654020D01*
X66891879Y-111085735D01*
X66778840Y-110517451D01*
X66456932Y-110035682D01*
X65975163Y-109713774D01*
X65406879Y-109600735D01*
X65018593Y-109677970D01*
X65095828Y-109289684D01*
X64982789Y-108721400D01*
X64660881Y-108239631D01*
X64179112Y-107917723D01*
X63610828Y-107804684D01*
X63222542Y-107881919D01*
X63299777Y-107493633D01*
X63186738Y-106925349D01*
X62864830Y-106443580D01*
X62383061Y-106121672D01*
X61814777Y-106008633D01*
X61426491Y-106085868D01*
X61503726Y-105697582D01*
X61390687Y-105129298D01*
X61068779Y-104647529D01*
X60587010Y-104325621D01*
X60018726Y-104212582D01*
X59630439Y-104289817D01*
X59707674Y-103901530D01*
X59594635Y-103333246D01*
X59272727Y-102851477D01*
X58790958Y-102529569D01*
X58222674Y-102416530D01*
X57834388Y-102493765D01*
X57911623Y-102105479D01*
X57798584Y-101537195D01*
X57476676Y-101055426D01*
X56994907Y-100733518D01*
X56426623Y-100620479D01*
X56374811Y-100630785D01*
X56447081Y-100456310D01*
X56447082Y-100203691D01*
X56350409Y-99970302D01*
X55862109Y-99482002D01*
X55637603Y-99482002D01*
X54789605Y-100330000D01*
X54803748Y-100344143D01*
X54624143Y-100523748D01*
X54610000Y-100509605D01*
X53762002Y-101357603D01*
X53762002Y-101582109D01*
X54250302Y-102070409D01*
X54483691Y-102167082D01*
X54736310Y-102167081D01*
X54910784Y-102094811D01*
X54900478Y-102146623D01*
X55013518Y-102714908D01*
X55335425Y-103196677D01*
X55817194Y-103518584D01*
X56385479Y-103631624D01*
X56773765Y-103554388D01*
X56696529Y-103942674D01*
X56809569Y-104510959D01*
X57131476Y-104992728D01*
X57613245Y-105314635D01*
X58181530Y-105427675D01*
X58569817Y-105350439D01*
X58492581Y-105738726D01*
X58605621Y-106307011D01*
X58927528Y-106788780D01*
X59409297Y-107110687D01*
X59977582Y-107223727D01*
X60365868Y-107146491D01*
X60288632Y-107534777D01*
X60401672Y-108103062D01*
X60723579Y-108584831D01*
X61205348Y-108906738D01*
X61773633Y-109019778D01*
X62161919Y-108942542D01*
X62084683Y-109330828D01*
X62197723Y-109899113D01*
X62519630Y-110380882D01*
X62705300Y-110504942D01*
X62705300Y-119285795D01*
X62705299Y-119285800D01*
X62761490Y-119568284D01*
X62772667Y-119624475D01*
X62941453Y-119877083D01*
X62964510Y-119911590D01*
X80876808Y-137823887D01*
X80876810Y-137823890D01*
X80923355Y-137854990D01*
X81163926Y-138015734D01*
X81502600Y-138083101D01*
X81502605Y-138083100D01*
X93941895Y-138083100D01*
X93941900Y-138083101D01*
X94224384Y-138026910D01*
X94280575Y-138015733D01*
X94567690Y-137823890D01*
X95031040Y-137360539D01*
X95061769Y-137366652D01*
X93563959Y-138864461D01*
X93345000Y-138820907D01*
X92776715Y-138933946D01*
X92294946Y-139255853D01*
X92075000Y-139585026D01*
X91855054Y-139255853D01*
X91373285Y-138933946D01*
X90805000Y-138820907D01*
X90236715Y-138933946D01*
X89754946Y-139255853D01*
X89535000Y-139585026D01*
X89315054Y-139255853D01*
X88833285Y-138933946D01*
X88265000Y-138820907D01*
X87696715Y-138933946D01*
X87214946Y-139255853D01*
X86995000Y-139585026D01*
X86775054Y-139255853D01*
X86293285Y-138933946D01*
X85725000Y-138820907D01*
X85156715Y-138933946D01*
X84674946Y-139255853D01*
X84455000Y-139585026D01*
X84235054Y-139255853D01*
X83753285Y-138933946D01*
X83185000Y-138820907D01*
X82616715Y-138933946D01*
X82134946Y-139255853D01*
X81915000Y-139585026D01*
X81695054Y-139255853D01*
X81213285Y-138933946D01*
X80645000Y-138820907D01*
X80076715Y-138933946D01*
X79594946Y-139255853D01*
X79375000Y-139585026D01*
X79155054Y-139255853D01*
X78673285Y-138933946D01*
X78105000Y-138820907D01*
X77536715Y-138933946D01*
X77054946Y-139255853D01*
X76733039Y-139737622D01*
X76620000Y-140305907D01*
X76620000Y-140364093D01*
X76733039Y-140932378D01*
X77054946Y-141414147D01*
X77536715Y-141736054D01*
X78105000Y-141849093D01*
X78673285Y-141736054D01*
X79155054Y-141414147D01*
X79375000Y-141084974D01*
X79594946Y-141414147D01*
X80076715Y-141736054D01*
X80645000Y-141849093D01*
X81213285Y-141736054D01*
X81695054Y-141414147D01*
X81915000Y-141084974D01*
X82134946Y-141414147D01*
X82616715Y-141736054D01*
X83185000Y-141849093D01*
X83753285Y-141736054D01*
X84235054Y-141414147D01*
X84455000Y-141084974D01*
X84674946Y-141414147D01*
X85156715Y-141736054D01*
X85725000Y-141849093D01*
X85943960Y-141805539D01*
X86421108Y-142282687D01*
X86421110Y-142282690D01*
X86708225Y-142474533D01*
X86764416Y-142485710D01*
X87046900Y-142541901D01*
X87046905Y-142541900D01*
X104522795Y-142541900D01*
X104522800Y-142541901D01*
X104805284Y-142485710D01*
X104861475Y-142474533D01*
X105148590Y-142282690D01*
X106412360Y-141018919D01*
X110870813Y-141018919D01*
X111210355Y-141840672D01*
X111838521Y-142469936D01*
X112659681Y-142810911D01*
X113548819Y-142811687D01*
X114370572Y-142472145D01*
X114999836Y-141843979D01*
X115340811Y-141022819D01*
X115341587Y-140133681D01*
X115002045Y-139311928D01*
X114373879Y-138682664D01*
X113552719Y-138341689D01*
X112663581Y-138340913D01*
X111841828Y-138680455D01*
X111212564Y-139308621D01*
X110871589Y-140129781D01*
X110870813Y-141018919D01*
X106412360Y-141018919D01*
X109939987Y-137491292D01*
X109939990Y-137491290D01*
X110131833Y-137204175D01*
X110152615Y-137099698D01*
X110199201Y-136865500D01*
X110199200Y-136865495D01*
X110199200Y-123200819D01*
X110858113Y-123200819D01*
X111197655Y-124022572D01*
X111825821Y-124651836D01*
X112646981Y-124992811D01*
X113536119Y-124993587D01*
X114357872Y-124654045D01*
X114987136Y-124025879D01*
X115328111Y-123204719D01*
X115328887Y-122315581D01*
X114989345Y-121493828D01*
X114361179Y-120864564D01*
X113540019Y-120523589D01*
X112650881Y-120522813D01*
X111829128Y-120862355D01*
X111199864Y-121490521D01*
X110858889Y-122311681D01*
X110858113Y-123200819D01*
X110199200Y-123200819D01*
X110199200Y-112818718D01*
X110249667Y-112818762D01*
X110593443Y-112676717D01*
X110856692Y-112413927D01*
X110907066Y-112292614D01*
X111682076Y-111517603D01*
X117262002Y-111517603D01*
X117262002Y-111742109D01*
X117750301Y-112230408D01*
X117983690Y-112327081D01*
X118236309Y-112327082D01*
X118469698Y-112230409D01*
X118957998Y-111742109D01*
X118957998Y-111517603D01*
X118110000Y-110669605D01*
X117262002Y-111517603D01*
X111682076Y-111517603D01*
X111858987Y-111340692D01*
X111858990Y-111340690D01*
X112050833Y-111053575D01*
X112118200Y-110714900D01*
X112118200Y-110363691D01*
X116272918Y-110363691D01*
X116272919Y-110616310D01*
X116369592Y-110849699D01*
X116857891Y-111337998D01*
X117082397Y-111337998D01*
X117930395Y-110490000D01*
X117082397Y-109642002D01*
X116857891Y-109642002D01*
X116369591Y-110130302D01*
X116272918Y-110363691D01*
X112118200Y-110363691D01*
X112118200Y-109237891D01*
X117262002Y-109237891D01*
X117262002Y-109462397D01*
X118110000Y-110310395D01*
X118124143Y-110296253D01*
X118303748Y-110475858D01*
X118289605Y-110490000D01*
X119137603Y-111337998D01*
X119362109Y-111337998D01*
X119850409Y-110849698D01*
X119947082Y-110616309D01*
X119947081Y-110363690D01*
X119874811Y-110189215D01*
X119926623Y-110199521D01*
X120494907Y-110086482D01*
X120976676Y-109764574D01*
X121298584Y-109282805D01*
X121411623Y-108714521D01*
X121334388Y-108326235D01*
X121722674Y-108403470D01*
X122290958Y-108290431D01*
X122772727Y-107968523D01*
X123094635Y-107486754D01*
X123207674Y-106918470D01*
X123130439Y-106530183D01*
X123518726Y-106607418D01*
X124087010Y-106494379D01*
X124568779Y-106172471D01*
X124890687Y-105690702D01*
X125003726Y-105122418D01*
X124926491Y-104734132D01*
X125314777Y-104811367D01*
X125883061Y-104698328D01*
X126364830Y-104376420D01*
X126686738Y-103894651D01*
X126799777Y-103326367D01*
X126722542Y-102938081D01*
X127110828Y-103015316D01*
X127679112Y-102902277D01*
X128160881Y-102580369D01*
X128482789Y-102098600D01*
X128595828Y-101530316D01*
X128518593Y-101142030D01*
X128906879Y-101219265D01*
X129475163Y-101106226D01*
X129956932Y-100784318D01*
X130278840Y-100302549D01*
X130391879Y-99734265D01*
X130278840Y-99165980D01*
X129956932Y-98684211D01*
X129915789Y-98643067D01*
X129434020Y-98321160D01*
X128865735Y-98208120D01*
X128297450Y-98321160D01*
X127815681Y-98643067D01*
X127493774Y-99124836D01*
X127380734Y-99693121D01*
X127457970Y-100081407D01*
X127069684Y-100004171D01*
X126501399Y-100117211D01*
X126019630Y-100439118D01*
X125697723Y-100920887D01*
X125584683Y-101489172D01*
X125661919Y-101877458D01*
X125273633Y-101800222D01*
X124705348Y-101913262D01*
X124223579Y-102235169D01*
X123901672Y-102716938D01*
X123788632Y-103285223D01*
X123865868Y-103673509D01*
X123477582Y-103596273D01*
X122909297Y-103709313D01*
X122427528Y-104031220D01*
X122105621Y-104512989D01*
X121992581Y-105081274D01*
X122069817Y-105469561D01*
X121681530Y-105392325D01*
X121113245Y-105505365D01*
X120631476Y-105827272D01*
X120309569Y-106309041D01*
X120196529Y-106877326D01*
X120273765Y-107265612D01*
X119885479Y-107188376D01*
X119317194Y-107301416D01*
X118835425Y-107623323D01*
X118513518Y-108105092D01*
X118400478Y-108673377D01*
X118410784Y-108725189D01*
X118236310Y-108652919D01*
X117983691Y-108652918D01*
X117750302Y-108749591D01*
X117262002Y-109237891D01*
X112118200Y-109237891D01*
X112118200Y-97637776D01*
X112216077Y-97735824D01*
X112743309Y-97954750D01*
X113314187Y-97955248D01*
X113841800Y-97737243D01*
X114245824Y-97333923D01*
X114438860Y-96869039D01*
X119258096Y-96869039D01*
X119418959Y-97257423D01*
X119794866Y-97672389D01*
X120300959Y-97911914D01*
X120523000Y-97790629D01*
X120523000Y-96647000D01*
X120777000Y-96647000D01*
X120777000Y-97790629D01*
X120999041Y-97911914D01*
X121505134Y-97672389D01*
X121881041Y-97257423D01*
X122041904Y-96869039D01*
X121919915Y-96647000D01*
X120777000Y-96647000D01*
X120523000Y-96647000D01*
X119380085Y-96647000D01*
X119258096Y-96869039D01*
X114438860Y-96869039D01*
X114464750Y-96806691D01*
X114465248Y-96235813D01*
X114438452Y-96170961D01*
X119258096Y-96170961D01*
X119380085Y-96393000D01*
X120523000Y-96393000D01*
X120523000Y-95249371D01*
X120777000Y-95249371D01*
X120777000Y-96393000D01*
X121919915Y-96393000D01*
X122041904Y-96170961D01*
X121881041Y-95782577D01*
X121505134Y-95367611D01*
X120999041Y-95128086D01*
X120777000Y-95249371D01*
X120523000Y-95249371D01*
X120300959Y-95128086D01*
X119794866Y-95367611D01*
X119418959Y-95782577D01*
X119258096Y-96170961D01*
X114438452Y-96170961D01*
X114247243Y-95708200D01*
X113843923Y-95304176D01*
X113316691Y-95085250D01*
X112745813Y-95084752D01*
X112218200Y-95302757D01*
X112118200Y-95402583D01*
X112118200Y-92531408D01*
X112201861Y-92447747D01*
X112275995Y-92693864D01*
X112813223Y-92886965D01*
X113383454Y-92859778D01*
X113784005Y-92693864D01*
X113858139Y-92447745D01*
X113030000Y-91619605D01*
X113015858Y-91633748D01*
X112836252Y-91454142D01*
X112850395Y-91440000D01*
X113209605Y-91440000D01*
X114037745Y-92268139D01*
X114283864Y-92194005D01*
X114476965Y-91656777D01*
X114466630Y-91440000D01*
X119186887Y-91440000D01*
X119296120Y-91989151D01*
X119607189Y-92454698D01*
X120072736Y-92765767D01*
X120621887Y-92875000D01*
X120678113Y-92875000D01*
X121227264Y-92765767D01*
X121692811Y-92454698D01*
X122003880Y-91989151D01*
X122113113Y-91440000D01*
X122003880Y-90890849D01*
X121692811Y-90425302D01*
X121227264Y-90114233D01*
X120678113Y-90005000D01*
X120621887Y-90005000D01*
X120072736Y-90114233D01*
X119607189Y-90425302D01*
X119296120Y-90890849D01*
X119186887Y-91440000D01*
X114466630Y-91440000D01*
X114449778Y-91086546D01*
X114283864Y-90685995D01*
X114037745Y-90611861D01*
X113209605Y-91440000D01*
X112850395Y-91440000D01*
X112836252Y-91425858D01*
X113015858Y-91246252D01*
X113030000Y-91260395D01*
X113858139Y-90432255D01*
X113784005Y-90186136D01*
X113246777Y-89993035D01*
X112676546Y-90020222D01*
X112275995Y-90186136D01*
X112201861Y-90432253D01*
X112118200Y-90348592D01*
X112118200Y-89545819D01*
X124256613Y-89545819D01*
X124596155Y-90367572D01*
X125224321Y-90996836D01*
X126045481Y-91337811D01*
X126934619Y-91338587D01*
X127756372Y-90999045D01*
X128385636Y-90370879D01*
X128726611Y-89549719D01*
X128727387Y-88660581D01*
X128387845Y-87838828D01*
X127759679Y-87209564D01*
X126938519Y-86868589D01*
X126049381Y-86867813D01*
X125227628Y-87207355D01*
X124598364Y-87835521D01*
X124257389Y-88656681D01*
X124256613Y-89545819D01*
X112118200Y-89545819D01*
X112118200Y-88523380D01*
X112846739Y-87794840D01*
X113314187Y-87795248D01*
X113841800Y-87577243D01*
X114245824Y-87173923D01*
X114438860Y-86709039D01*
X119258096Y-86709039D01*
X119418959Y-87097423D01*
X119794866Y-87512389D01*
X120300959Y-87751914D01*
X120523000Y-87630629D01*
X120523000Y-86487000D01*
X120777000Y-86487000D01*
X120777000Y-87630629D01*
X120999041Y-87751914D01*
X121505134Y-87512389D01*
X121881041Y-87097423D01*
X122041904Y-86709039D01*
X121919915Y-86487000D01*
X120777000Y-86487000D01*
X120523000Y-86487000D01*
X119380085Y-86487000D01*
X119258096Y-86709039D01*
X114438860Y-86709039D01*
X114464750Y-86646691D01*
X114465248Y-86075813D01*
X114438452Y-86010961D01*
X119258096Y-86010961D01*
X119380085Y-86233000D01*
X120523000Y-86233000D01*
X120523000Y-85089371D01*
X120777000Y-85089371D01*
X120777000Y-86233000D01*
X121919915Y-86233000D01*
X122041904Y-86010961D01*
X121881041Y-85622577D01*
X121505134Y-85207611D01*
X120999041Y-84968086D01*
X120777000Y-85089371D01*
X120523000Y-85089371D01*
X120300959Y-84968086D01*
X119794866Y-85207611D01*
X119418959Y-85622577D01*
X119258096Y-86010961D01*
X114438452Y-86010961D01*
X114247243Y-85548200D01*
X113843923Y-85144176D01*
X113316691Y-84925250D01*
X112745813Y-84924752D01*
X112218200Y-85142757D01*
X111814176Y-85546077D01*
X111595250Y-86073309D01*
X111594840Y-86543581D01*
X110607410Y-87531010D01*
X110415567Y-87818125D01*
X110415567Y-87818126D01*
X110348199Y-88156800D01*
X110348200Y-88156805D01*
X110348200Y-94563676D01*
X110318333Y-94413525D01*
X110126490Y-94126410D01*
X110126487Y-94126408D01*
X109463925Y-93463845D01*
X109613337Y-93240235D01*
X109718807Y-92710000D01*
X109613337Y-92179765D01*
X109312983Y-91730254D01*
X108956908Y-91492332D01*
X109230100Y-91083472D01*
X109335570Y-90553237D01*
X109335570Y-89786763D01*
X109230100Y-89256528D01*
X108929746Y-88807017D01*
X108680442Y-88640437D01*
X111158587Y-86162292D01*
X111158590Y-86162290D01*
X111350433Y-85875175D01*
X111378473Y-85734210D01*
X111417801Y-85536500D01*
X111417800Y-85536495D01*
X111417800Y-72605105D01*
X111417801Y-72605100D01*
X111350433Y-72266426D01*
X111350433Y-72266425D01*
X111158590Y-71979310D01*
X111158587Y-71979308D01*
X105712699Y-66533419D01*
X124256613Y-66533419D01*
X124596155Y-67355172D01*
X125224321Y-67984436D01*
X126045481Y-68325411D01*
X126934619Y-68326187D01*
X127756372Y-67986645D01*
X128385636Y-67358479D01*
X128726611Y-66537319D01*
X128727387Y-65648181D01*
X128387845Y-64826428D01*
X127759679Y-64197164D01*
X126938519Y-63856189D01*
X126049381Y-63855413D01*
X125227628Y-64194955D01*
X124598364Y-64823121D01*
X124257389Y-65644281D01*
X124256613Y-66533419D01*
X105712699Y-66533419D01*
X97499974Y-58320694D01*
X97800551Y-58020643D01*
X98034733Y-57456670D01*
X98035265Y-56846009D01*
X97802068Y-56281629D01*
X97752775Y-56232250D01*
X126424785Y-56232250D01*
X128138394Y-56573108D01*
X129533928Y-57505573D01*
X130466394Y-58901106D01*
X130807252Y-60614717D01*
X130807252Y-102123130D01*
X125638826Y-120295950D01*
X117121793Y-142059014D01*
X116179265Y-143529973D01*
X114801891Y-144489058D01*
X113098382Y-144862040D01*
X113076521Y-144862250D01*
X69970022Y-144862250D01*
X68256733Y-144520617D01*
X66861639Y-143587495D01*
X65893483Y-142137070D01*
X65885313Y-142116769D01*
X65440756Y-140980819D01*
X67665413Y-140980819D01*
X68004955Y-141802572D01*
X68633121Y-142431836D01*
X69454281Y-142772811D01*
X70343419Y-142773587D01*
X71165172Y-142434045D01*
X71794436Y-141805879D01*
X72135411Y-140984719D01*
X72136187Y-140095581D01*
X71796645Y-139273828D01*
X71168479Y-138644564D01*
X70347319Y-138303589D01*
X69458181Y-138302813D01*
X68636428Y-138642355D01*
X68007164Y-139270521D01*
X67666189Y-140091681D01*
X67665413Y-140980819D01*
X65440756Y-140980819D01*
X57345679Y-120295953D01*
X52177252Y-102123133D01*
X52177252Y-100456309D01*
X52772918Y-100456309D01*
X52869591Y-100689698D01*
X53357891Y-101177998D01*
X53582397Y-101177998D01*
X54430395Y-100330000D01*
X53582397Y-99482002D01*
X53357891Y-99482002D01*
X52869592Y-99970301D01*
X52772919Y-100203690D01*
X52772918Y-100456309D01*
X52177252Y-100456309D01*
X52177252Y-99077891D01*
X53762002Y-99077891D01*
X53762002Y-99302397D01*
X54610000Y-100150395D01*
X55457998Y-99302397D01*
X55457998Y-99077891D01*
X54969698Y-98589591D01*
X54736309Y-98492918D01*
X54483690Y-98492919D01*
X54250301Y-98589592D01*
X53762002Y-99077891D01*
X52177252Y-99077891D01*
X52177252Y-89507719D01*
X54266913Y-89507719D01*
X54606455Y-90329472D01*
X55234621Y-90958736D01*
X56055781Y-91299711D01*
X56944919Y-91300487D01*
X57766672Y-90960945D01*
X58395936Y-90332779D01*
X58736911Y-89511619D01*
X58737687Y-88622481D01*
X58398145Y-87800728D01*
X57769979Y-87171464D01*
X56948819Y-86830489D01*
X56059681Y-86829713D01*
X55237928Y-87169255D01*
X54608664Y-87797421D01*
X54267689Y-88618581D01*
X54266913Y-89507719D01*
X52177252Y-89507719D01*
X52177252Y-69053991D01*
X87364735Y-69053991D01*
X87597932Y-69618371D01*
X88029357Y-70050551D01*
X88593330Y-70284733D01*
X89203991Y-70285265D01*
X89768371Y-70052068D01*
X90200551Y-69620643D01*
X90434733Y-69056670D01*
X90434735Y-69053991D01*
X94964735Y-69053991D01*
X95197932Y-69618371D01*
X95629357Y-70050551D01*
X96193330Y-70284733D01*
X96803991Y-70285265D01*
X97368371Y-70052068D01*
X97800551Y-69620643D01*
X98034733Y-69056670D01*
X98035265Y-68446009D01*
X97802068Y-67881629D01*
X97370643Y-67449449D01*
X96806670Y-67215267D01*
X96196009Y-67214735D01*
X95631629Y-67447932D01*
X95199449Y-67879357D01*
X94965267Y-68443330D01*
X94964735Y-69053991D01*
X90434735Y-69053991D01*
X90435265Y-68446009D01*
X90202068Y-67881629D01*
X89770643Y-67449449D01*
X89206670Y-67215267D01*
X88596009Y-67214735D01*
X88031629Y-67447932D01*
X87599449Y-67879357D01*
X87365267Y-68443330D01*
X87364735Y-69053991D01*
X52177252Y-69053991D01*
X52177252Y-66520719D01*
X54279613Y-66520719D01*
X54619155Y-67342472D01*
X55247321Y-67971736D01*
X56068481Y-68312711D01*
X56957619Y-68313487D01*
X57779372Y-67973945D01*
X58408636Y-67345779D01*
X58749611Y-66524619D01*
X58750387Y-65635481D01*
X58410845Y-64813728D01*
X57782679Y-64184464D01*
X56961519Y-63843489D01*
X56072381Y-63842713D01*
X55250628Y-64182255D01*
X54621364Y-64810421D01*
X54280389Y-65631581D01*
X54279613Y-66520719D01*
X52177252Y-66520719D01*
X52177252Y-60614717D01*
X52518110Y-58901108D01*
X53450575Y-57505574D01*
X54846108Y-56573108D01*
X56559719Y-56232250D01*
X87356154Y-56232250D01*
X87352560Y-56250000D01*
X87352560Y-56250000D01*
G37*
X87352560Y-56250000D02*
X87352560Y-58050000D01*
X87396838Y-58285317D01*
X87535910Y-58501441D01*
X87748110Y-58646431D01*
X88000000Y-58697440D01*
X89800000Y-58697440D01*
X90035317Y-58653162D01*
X90251441Y-58514090D01*
X90316822Y-58418402D01*
X91074208Y-59175787D01*
X91074210Y-59175790D01*
X91361325Y-59367633D01*
X91417516Y-59378810D01*
X91700000Y-59435001D01*
X91700005Y-59435000D01*
X96111120Y-59435000D01*
X108838681Y-72162560D01*
X108370000Y-72162560D01*
X108134683Y-72206838D01*
X107918559Y-72345910D01*
X107773569Y-72558110D01*
X107722560Y-72810000D01*
X107722560Y-74082638D01*
X93442599Y-88362599D01*
X93313589Y-88555677D01*
X93240235Y-88506663D01*
X92710000Y-88401193D01*
X92179765Y-88506663D01*
X91956154Y-88656075D01*
X91283790Y-87983710D01*
X90996675Y-87791867D01*
X90940484Y-87780690D01*
X90658000Y-87724499D01*
X90657995Y-87724500D01*
X79473805Y-87724500D01*
X79473800Y-87724499D01*
X79191316Y-87780690D01*
X79135125Y-87791867D01*
X78848010Y-87983710D01*
X78848008Y-87983713D01*
X78201800Y-88629921D01*
X78201800Y-79287134D01*
X78287633Y-79158675D01*
X78287634Y-79158674D01*
X78355001Y-78820000D01*
X78355000Y-78819995D01*
X78355000Y-78649779D01*
X78549147Y-78520054D01*
X78871054Y-78038285D01*
X78984093Y-77470000D01*
X78871054Y-76901715D01*
X78549147Y-76419946D01*
X78507548Y-76392150D01*
X78555317Y-76383162D01*
X78771441Y-76244090D01*
X78916431Y-76031890D01*
X78967440Y-75780000D01*
X78967440Y-74080000D01*
X78923162Y-73844683D01*
X78784090Y-73628559D01*
X78571890Y-73483569D01*
X78320000Y-73432560D01*
X76620000Y-73432560D01*
X76384683Y-73476838D01*
X76168559Y-73615910D01*
X76023569Y-73828110D01*
X75972560Y-74080000D01*
X75972560Y-75352638D01*
X74392599Y-76932599D01*
X74227852Y-77179161D01*
X74170000Y-77470000D01*
X74170000Y-93345000D01*
X74227852Y-93635839D01*
X74392599Y-93882401D01*
X75440000Y-94929802D01*
X75440000Y-106752537D01*
X75407808Y-106784673D01*
X75265162Y-107128201D01*
X75264838Y-107500167D01*
X75406883Y-107843943D01*
X75669673Y-108107192D01*
X76013201Y-108249838D01*
X76385167Y-108250162D01*
X76431800Y-108230894D01*
X76431800Y-114686095D01*
X76431799Y-114686100D01*
X76485372Y-114955425D01*
X76499167Y-115024775D01*
X76620569Y-115206467D01*
X76691010Y-115311890D01*
X83868340Y-122489219D01*
X83693243Y-122910900D01*
X83692758Y-123466661D01*
X83904990Y-123980303D01*
X84297630Y-124373629D01*
X84505512Y-124459949D01*
X84299697Y-124544990D01*
X83906371Y-124937630D01*
X83693243Y-125450900D01*
X83692758Y-126006661D01*
X83706143Y-126039055D01*
X83282599Y-126462599D01*
X83117852Y-126709161D01*
X83060000Y-127000000D01*
X83060000Y-133985000D01*
X83117852Y-134275839D01*
X83204154Y-134405000D01*
X82835750Y-134405000D01*
X82677000Y-134563750D01*
X82677000Y-135763000D01*
X82697000Y-135763000D01*
X82697000Y-136017000D01*
X82677000Y-136017000D01*
X82677000Y-136037000D01*
X82423000Y-136037000D01*
X82423000Y-136017000D01*
X82403000Y-136017000D01*
X82403000Y-135763000D01*
X82423000Y-135763000D01*
X82423000Y-134563750D01*
X82264250Y-134405000D01*
X81573690Y-134405000D01*
X81340301Y-134501673D01*
X81161673Y-134680302D01*
X81065000Y-134913691D01*
X81065000Y-135508921D01*
X70502064Y-124945984D01*
X71177872Y-124666745D01*
X71807136Y-124038579D01*
X72148111Y-123217419D01*
X72148887Y-122328281D01*
X71809345Y-121506528D01*
X71181179Y-120877264D01*
X70360019Y-120536289D01*
X69470881Y-120535513D01*
X68649128Y-120875055D01*
X68019864Y-121503221D01*
X67738031Y-122181951D01*
X64475300Y-118919220D01*
X64475300Y-112283587D01*
X64797450Y-112498840D01*
X65365735Y-112611880D01*
X65934020Y-112498840D01*
X66415789Y-112176933D01*
X66456932Y-112135789D01*
X66778840Y-111654020D01*
X66891879Y-111085735D01*
X66778840Y-110517451D01*
X66456932Y-110035682D01*
X65975163Y-109713774D01*
X65406879Y-109600735D01*
X65018593Y-109677970D01*
X65095828Y-109289684D01*
X64982789Y-108721400D01*
X64660881Y-108239631D01*
X64179112Y-107917723D01*
X63610828Y-107804684D01*
X63222542Y-107881919D01*
X63299777Y-107493633D01*
X63186738Y-106925349D01*
X62864830Y-106443580D01*
X62383061Y-106121672D01*
X61814777Y-106008633D01*
X61426491Y-106085868D01*
X61503726Y-105697582D01*
X61390687Y-105129298D01*
X61068779Y-104647529D01*
X60587010Y-104325621D01*
X60018726Y-104212582D01*
X59630439Y-104289817D01*
X59707674Y-103901530D01*
X59594635Y-103333246D01*
X59272727Y-102851477D01*
X58790958Y-102529569D01*
X58222674Y-102416530D01*
X57834388Y-102493765D01*
X57911623Y-102105479D01*
X57798584Y-101537195D01*
X57476676Y-101055426D01*
X56994907Y-100733518D01*
X56426623Y-100620479D01*
X56374811Y-100630785D01*
X56447081Y-100456310D01*
X56447082Y-100203691D01*
X56350409Y-99970302D01*
X55862109Y-99482002D01*
X55637603Y-99482002D01*
X54789605Y-100330000D01*
X54803748Y-100344143D01*
X54624143Y-100523748D01*
X54610000Y-100509605D01*
X53762002Y-101357603D01*
X53762002Y-101582109D01*
X54250302Y-102070409D01*
X54483691Y-102167082D01*
X54736310Y-102167081D01*
X54910784Y-102094811D01*
X54900478Y-102146623D01*
X55013518Y-102714908D01*
X55335425Y-103196677D01*
X55817194Y-103518584D01*
X56385479Y-103631624D01*
X56773765Y-103554388D01*
X56696529Y-103942674D01*
X56809569Y-104510959D01*
X57131476Y-104992728D01*
X57613245Y-105314635D01*
X58181530Y-105427675D01*
X58569817Y-105350439D01*
X58492581Y-105738726D01*
X58605621Y-106307011D01*
X58927528Y-106788780D01*
X59409297Y-107110687D01*
X59977582Y-107223727D01*
X60365868Y-107146491D01*
X60288632Y-107534777D01*
X60401672Y-108103062D01*
X60723579Y-108584831D01*
X61205348Y-108906738D01*
X61773633Y-109019778D01*
X62161919Y-108942542D01*
X62084683Y-109330828D01*
X62197723Y-109899113D01*
X62519630Y-110380882D01*
X62705300Y-110504942D01*
X62705300Y-119285795D01*
X62705299Y-119285800D01*
X62761490Y-119568284D01*
X62772667Y-119624475D01*
X62941453Y-119877083D01*
X62964510Y-119911590D01*
X80876808Y-137823887D01*
X80876810Y-137823890D01*
X80923355Y-137854990D01*
X81163926Y-138015734D01*
X81502600Y-138083101D01*
X81502605Y-138083100D01*
X93941895Y-138083100D01*
X93941900Y-138083101D01*
X94224384Y-138026910D01*
X94280575Y-138015733D01*
X94567690Y-137823890D01*
X95031040Y-137360539D01*
X95061769Y-137366652D01*
X93563959Y-138864461D01*
X93345000Y-138820907D01*
X92776715Y-138933946D01*
X92294946Y-139255853D01*
X92075000Y-139585026D01*
X91855054Y-139255853D01*
X91373285Y-138933946D01*
X90805000Y-138820907D01*
X90236715Y-138933946D01*
X89754946Y-139255853D01*
X89535000Y-139585026D01*
X89315054Y-139255853D01*
X88833285Y-138933946D01*
X88265000Y-138820907D01*
X87696715Y-138933946D01*
X87214946Y-139255853D01*
X86995000Y-139585026D01*
X86775054Y-139255853D01*
X86293285Y-138933946D01*
X85725000Y-138820907D01*
X85156715Y-138933946D01*
X84674946Y-139255853D01*
X84455000Y-139585026D01*
X84235054Y-139255853D01*
X83753285Y-138933946D01*
X83185000Y-138820907D01*
X82616715Y-138933946D01*
X82134946Y-139255853D01*
X81915000Y-139585026D01*
X81695054Y-139255853D01*
X81213285Y-138933946D01*
X80645000Y-138820907D01*
X80076715Y-138933946D01*
X79594946Y-139255853D01*
X79375000Y-139585026D01*
X79155054Y-139255853D01*
X78673285Y-138933946D01*
X78105000Y-138820907D01*
X77536715Y-138933946D01*
X77054946Y-139255853D01*
X76733039Y-139737622D01*
X76620000Y-140305907D01*
X76620000Y-140364093D01*
X76733039Y-140932378D01*
X77054946Y-141414147D01*
X77536715Y-141736054D01*
X78105000Y-141849093D01*
X78673285Y-141736054D01*
X79155054Y-141414147D01*
X79375000Y-141084974D01*
X79594946Y-141414147D01*
X80076715Y-141736054D01*
X80645000Y-141849093D01*
X81213285Y-141736054D01*
X81695054Y-141414147D01*
X81915000Y-141084974D01*
X82134946Y-141414147D01*
X82616715Y-141736054D01*
X83185000Y-141849093D01*
X83753285Y-141736054D01*
X84235054Y-141414147D01*
X84455000Y-141084974D01*
X84674946Y-141414147D01*
X85156715Y-141736054D01*
X85725000Y-141849093D01*
X85943960Y-141805539D01*
X86421108Y-142282687D01*
X86421110Y-142282690D01*
X86708225Y-142474533D01*
X86764416Y-142485710D01*
X87046900Y-142541901D01*
X87046905Y-142541900D01*
X104522795Y-142541900D01*
X104522800Y-142541901D01*
X104805284Y-142485710D01*
X104861475Y-142474533D01*
X105148590Y-142282690D01*
X106412360Y-141018919D01*
X110870813Y-141018919D01*
X111210355Y-141840672D01*
X111838521Y-142469936D01*
X112659681Y-142810911D01*
X113548819Y-142811687D01*
X114370572Y-142472145D01*
X114999836Y-141843979D01*
X115340811Y-141022819D01*
X115341587Y-140133681D01*
X115002045Y-139311928D01*
X114373879Y-138682664D01*
X113552719Y-138341689D01*
X112663581Y-138340913D01*
X111841828Y-138680455D01*
X111212564Y-139308621D01*
X110871589Y-140129781D01*
X110870813Y-141018919D01*
X106412360Y-141018919D01*
X109939987Y-137491292D01*
X109939990Y-137491290D01*
X110131833Y-137204175D01*
X110152615Y-137099698D01*
X110199201Y-136865500D01*
X110199200Y-136865495D01*
X110199200Y-123200819D01*
X110858113Y-123200819D01*
X111197655Y-124022572D01*
X111825821Y-124651836D01*
X112646981Y-124992811D01*
X113536119Y-124993587D01*
X114357872Y-124654045D01*
X114987136Y-124025879D01*
X115328111Y-123204719D01*
X115328887Y-122315581D01*
X114989345Y-121493828D01*
X114361179Y-120864564D01*
X113540019Y-120523589D01*
X112650881Y-120522813D01*
X111829128Y-120862355D01*
X111199864Y-121490521D01*
X110858889Y-122311681D01*
X110858113Y-123200819D01*
X110199200Y-123200819D01*
X110199200Y-112818718D01*
X110249667Y-112818762D01*
X110593443Y-112676717D01*
X110856692Y-112413927D01*
X110907066Y-112292614D01*
X111682076Y-111517603D01*
X117262002Y-111517603D01*
X117262002Y-111742109D01*
X117750301Y-112230408D01*
X117983690Y-112327081D01*
X118236309Y-112327082D01*
X118469698Y-112230409D01*
X118957998Y-111742109D01*
X118957998Y-111517603D01*
X118110000Y-110669605D01*
X117262002Y-111517603D01*
X111682076Y-111517603D01*
X111858987Y-111340692D01*
X111858990Y-111340690D01*
X112050833Y-111053575D01*
X112118200Y-110714900D01*
X112118200Y-110363691D01*
X116272918Y-110363691D01*
X116272919Y-110616310D01*
X116369592Y-110849699D01*
X116857891Y-111337998D01*
X117082397Y-111337998D01*
X117930395Y-110490000D01*
X117082397Y-109642002D01*
X116857891Y-109642002D01*
X116369591Y-110130302D01*
X116272918Y-110363691D01*
X112118200Y-110363691D01*
X112118200Y-109237891D01*
X117262002Y-109237891D01*
X117262002Y-109462397D01*
X118110000Y-110310395D01*
X118124143Y-110296253D01*
X118303748Y-110475858D01*
X118289605Y-110490000D01*
X119137603Y-111337998D01*
X119362109Y-111337998D01*
X119850409Y-110849698D01*
X119947082Y-110616309D01*
X119947081Y-110363690D01*
X119874811Y-110189215D01*
X119926623Y-110199521D01*
X120494907Y-110086482D01*
X120976676Y-109764574D01*
X121298584Y-109282805D01*
X121411623Y-108714521D01*
X121334388Y-108326235D01*
X121722674Y-108403470D01*
X122290958Y-108290431D01*
X122772727Y-107968523D01*
X123094635Y-107486754D01*
X123207674Y-106918470D01*
X123130439Y-106530183D01*
X123518726Y-106607418D01*
X124087010Y-106494379D01*
X124568779Y-106172471D01*
X124890687Y-105690702D01*
X125003726Y-105122418D01*
X124926491Y-104734132D01*
X125314777Y-104811367D01*
X125883061Y-104698328D01*
X126364830Y-104376420D01*
X126686738Y-103894651D01*
X126799777Y-103326367D01*
X126722542Y-102938081D01*
X127110828Y-103015316D01*
X127679112Y-102902277D01*
X128160881Y-102580369D01*
X128482789Y-102098600D01*
X128595828Y-101530316D01*
X128518593Y-101142030D01*
X128906879Y-101219265D01*
X129475163Y-101106226D01*
X129956932Y-100784318D01*
X130278840Y-100302549D01*
X130391879Y-99734265D01*
X130278840Y-99165980D01*
X129956932Y-98684211D01*
X129915789Y-98643067D01*
X129434020Y-98321160D01*
X128865735Y-98208120D01*
X128297450Y-98321160D01*
X127815681Y-98643067D01*
X127493774Y-99124836D01*
X127380734Y-99693121D01*
X127457970Y-100081407D01*
X127069684Y-100004171D01*
X126501399Y-100117211D01*
X126019630Y-100439118D01*
X125697723Y-100920887D01*
X125584683Y-101489172D01*
X125661919Y-101877458D01*
X125273633Y-101800222D01*
X124705348Y-101913262D01*
X124223579Y-102235169D01*
X123901672Y-102716938D01*
X123788632Y-103285223D01*
X123865868Y-103673509D01*
X123477582Y-103596273D01*
X122909297Y-103709313D01*
X122427528Y-104031220D01*
X122105621Y-104512989D01*
X121992581Y-105081274D01*
X122069817Y-105469561D01*
X121681530Y-105392325D01*
X121113245Y-105505365D01*
X120631476Y-105827272D01*
X120309569Y-106309041D01*
X120196529Y-106877326D01*
X120273765Y-107265612D01*
X119885479Y-107188376D01*
X119317194Y-107301416D01*
X118835425Y-107623323D01*
X118513518Y-108105092D01*
X118400478Y-108673377D01*
X118410784Y-108725189D01*
X118236310Y-108652919D01*
X117983691Y-108652918D01*
X117750302Y-108749591D01*
X117262002Y-109237891D01*
X112118200Y-109237891D01*
X112118200Y-97637776D01*
X112216077Y-97735824D01*
X112743309Y-97954750D01*
X113314187Y-97955248D01*
X113841800Y-97737243D01*
X114245824Y-97333923D01*
X114438860Y-96869039D01*
X119258096Y-96869039D01*
X119418959Y-97257423D01*
X119794866Y-97672389D01*
X120300959Y-97911914D01*
X120523000Y-97790629D01*
X120523000Y-96647000D01*
X120777000Y-96647000D01*
X120777000Y-97790629D01*
X120999041Y-97911914D01*
X121505134Y-97672389D01*
X121881041Y-97257423D01*
X122041904Y-96869039D01*
X121919915Y-96647000D01*
X120777000Y-96647000D01*
X120523000Y-96647000D01*
X119380085Y-96647000D01*
X119258096Y-96869039D01*
X114438860Y-96869039D01*
X114464750Y-96806691D01*
X114465248Y-96235813D01*
X114438452Y-96170961D01*
X119258096Y-96170961D01*
X119380085Y-96393000D01*
X120523000Y-96393000D01*
X120523000Y-95249371D01*
X120777000Y-95249371D01*
X120777000Y-96393000D01*
X121919915Y-96393000D01*
X122041904Y-96170961D01*
X121881041Y-95782577D01*
X121505134Y-95367611D01*
X120999041Y-95128086D01*
X120777000Y-95249371D01*
X120523000Y-95249371D01*
X120300959Y-95128086D01*
X119794866Y-95367611D01*
X119418959Y-95782577D01*
X119258096Y-96170961D01*
X114438452Y-96170961D01*
X114247243Y-95708200D01*
X113843923Y-95304176D01*
X113316691Y-95085250D01*
X112745813Y-95084752D01*
X112218200Y-95302757D01*
X112118200Y-95402583D01*
X112118200Y-92531408D01*
X112201861Y-92447747D01*
X112275995Y-92693864D01*
X112813223Y-92886965D01*
X113383454Y-92859778D01*
X113784005Y-92693864D01*
X113858139Y-92447745D01*
X113030000Y-91619605D01*
X113015858Y-91633748D01*
X112836252Y-91454142D01*
X112850395Y-91440000D01*
X113209605Y-91440000D01*
X114037745Y-92268139D01*
X114283864Y-92194005D01*
X114476965Y-91656777D01*
X114466630Y-91440000D01*
X119186887Y-91440000D01*
X119296120Y-91989151D01*
X119607189Y-92454698D01*
X120072736Y-92765767D01*
X120621887Y-92875000D01*
X120678113Y-92875000D01*
X121227264Y-92765767D01*
X121692811Y-92454698D01*
X122003880Y-91989151D01*
X122113113Y-91440000D01*
X122003880Y-90890849D01*
X121692811Y-90425302D01*
X121227264Y-90114233D01*
X120678113Y-90005000D01*
X120621887Y-90005000D01*
X120072736Y-90114233D01*
X119607189Y-90425302D01*
X119296120Y-90890849D01*
X119186887Y-91440000D01*
X114466630Y-91440000D01*
X114449778Y-91086546D01*
X114283864Y-90685995D01*
X114037745Y-90611861D01*
X113209605Y-91440000D01*
X112850395Y-91440000D01*
X112836252Y-91425858D01*
X113015858Y-91246252D01*
X113030000Y-91260395D01*
X113858139Y-90432255D01*
X113784005Y-90186136D01*
X113246777Y-89993035D01*
X112676546Y-90020222D01*
X112275995Y-90186136D01*
X112201861Y-90432253D01*
X112118200Y-90348592D01*
X112118200Y-89545819D01*
X124256613Y-89545819D01*
X124596155Y-90367572D01*
X125224321Y-90996836D01*
X126045481Y-91337811D01*
X126934619Y-91338587D01*
X127756372Y-90999045D01*
X128385636Y-90370879D01*
X128726611Y-89549719D01*
X128727387Y-88660581D01*
X128387845Y-87838828D01*
X127759679Y-87209564D01*
X126938519Y-86868589D01*
X126049381Y-86867813D01*
X125227628Y-87207355D01*
X124598364Y-87835521D01*
X124257389Y-88656681D01*
X124256613Y-89545819D01*
X112118200Y-89545819D01*
X112118200Y-88523380D01*
X112846739Y-87794840D01*
X113314187Y-87795248D01*
X113841800Y-87577243D01*
X114245824Y-87173923D01*
X114438860Y-86709039D01*
X119258096Y-86709039D01*
X119418959Y-87097423D01*
X119794866Y-87512389D01*
X120300959Y-87751914D01*
X120523000Y-87630629D01*
X120523000Y-86487000D01*
X120777000Y-86487000D01*
X120777000Y-87630629D01*
X120999041Y-87751914D01*
X121505134Y-87512389D01*
X121881041Y-87097423D01*
X122041904Y-86709039D01*
X121919915Y-86487000D01*
X120777000Y-86487000D01*
X120523000Y-86487000D01*
X119380085Y-86487000D01*
X119258096Y-86709039D01*
X114438860Y-86709039D01*
X114464750Y-86646691D01*
X114465248Y-86075813D01*
X114438452Y-86010961D01*
X119258096Y-86010961D01*
X119380085Y-86233000D01*
X120523000Y-86233000D01*
X120523000Y-85089371D01*
X120777000Y-85089371D01*
X120777000Y-86233000D01*
X121919915Y-86233000D01*
X122041904Y-86010961D01*
X121881041Y-85622577D01*
X121505134Y-85207611D01*
X120999041Y-84968086D01*
X120777000Y-85089371D01*
X120523000Y-85089371D01*
X120300959Y-84968086D01*
X119794866Y-85207611D01*
X119418959Y-85622577D01*
X119258096Y-86010961D01*
X114438452Y-86010961D01*
X114247243Y-85548200D01*
X113843923Y-85144176D01*
X113316691Y-84925250D01*
X112745813Y-84924752D01*
X112218200Y-85142757D01*
X111814176Y-85546077D01*
X111595250Y-86073309D01*
X111594840Y-86543581D01*
X110607410Y-87531010D01*
X110415567Y-87818125D01*
X110415567Y-87818126D01*
X110348199Y-88156800D01*
X110348200Y-88156805D01*
X110348200Y-94563676D01*
X110318333Y-94413525D01*
X110126490Y-94126410D01*
X110126487Y-94126408D01*
X109463925Y-93463845D01*
X109613337Y-93240235D01*
X109718807Y-92710000D01*
X109613337Y-92179765D01*
X109312983Y-91730254D01*
X108956908Y-91492332D01*
X109230100Y-91083472D01*
X109335570Y-90553237D01*
X109335570Y-89786763D01*
X109230100Y-89256528D01*
X108929746Y-88807017D01*
X108680442Y-88640437D01*
X111158587Y-86162292D01*
X111158590Y-86162290D01*
X111350433Y-85875175D01*
X111378473Y-85734210D01*
X111417801Y-85536500D01*
X111417800Y-85536495D01*
X111417800Y-72605105D01*
X111417801Y-72605100D01*
X111350433Y-72266426D01*
X111350433Y-72266425D01*
X111158590Y-71979310D01*
X111158587Y-71979308D01*
X105712699Y-66533419D01*
X124256613Y-66533419D01*
X124596155Y-67355172D01*
X125224321Y-67984436D01*
X126045481Y-68325411D01*
X126934619Y-68326187D01*
X127756372Y-67986645D01*
X128385636Y-67358479D01*
X128726611Y-66537319D01*
X128727387Y-65648181D01*
X128387845Y-64826428D01*
X127759679Y-64197164D01*
X126938519Y-63856189D01*
X126049381Y-63855413D01*
X125227628Y-64194955D01*
X124598364Y-64823121D01*
X124257389Y-65644281D01*
X124256613Y-66533419D01*
X105712699Y-66533419D01*
X97499974Y-58320694D01*
X97800551Y-58020643D01*
X98034733Y-57456670D01*
X98035265Y-56846009D01*
X97802068Y-56281629D01*
X97752775Y-56232250D01*
X126424785Y-56232250D01*
X128138394Y-56573108D01*
X129533928Y-57505573D01*
X130466394Y-58901106D01*
X130807252Y-60614717D01*
X130807252Y-102123130D01*
X125638826Y-120295950D01*
X117121793Y-142059014D01*
X116179265Y-143529973D01*
X114801891Y-144489058D01*
X113098382Y-144862040D01*
X113076521Y-144862250D01*
X69970022Y-144862250D01*
X68256733Y-144520617D01*
X66861639Y-143587495D01*
X65893483Y-142137070D01*
X65885313Y-142116769D01*
X65440756Y-140980819D01*
X67665413Y-140980819D01*
X68004955Y-141802572D01*
X68633121Y-142431836D01*
X69454281Y-142772811D01*
X70343419Y-142773587D01*
X71165172Y-142434045D01*
X71794436Y-141805879D01*
X72135411Y-140984719D01*
X72136187Y-140095581D01*
X71796645Y-139273828D01*
X71168479Y-138644564D01*
X70347319Y-138303589D01*
X69458181Y-138302813D01*
X68636428Y-138642355D01*
X68007164Y-139270521D01*
X67666189Y-140091681D01*
X67665413Y-140980819D01*
X65440756Y-140980819D01*
X57345679Y-120295953D01*
X52177252Y-102123133D01*
X52177252Y-100456309D01*
X52772918Y-100456309D01*
X52869591Y-100689698D01*
X53357891Y-101177998D01*
X53582397Y-101177998D01*
X54430395Y-100330000D01*
X53582397Y-99482002D01*
X53357891Y-99482002D01*
X52869592Y-99970301D01*
X52772919Y-100203690D01*
X52772918Y-100456309D01*
X52177252Y-100456309D01*
X52177252Y-99077891D01*
X53762002Y-99077891D01*
X53762002Y-99302397D01*
X54610000Y-100150395D01*
X55457998Y-99302397D01*
X55457998Y-99077891D01*
X54969698Y-98589591D01*
X54736309Y-98492918D01*
X54483690Y-98492919D01*
X54250301Y-98589592D01*
X53762002Y-99077891D01*
X52177252Y-99077891D01*
X52177252Y-89507719D01*
X54266913Y-89507719D01*
X54606455Y-90329472D01*
X55234621Y-90958736D01*
X56055781Y-91299711D01*
X56944919Y-91300487D01*
X57766672Y-90960945D01*
X58395936Y-90332779D01*
X58736911Y-89511619D01*
X58737687Y-88622481D01*
X58398145Y-87800728D01*
X57769979Y-87171464D01*
X56948819Y-86830489D01*
X56059681Y-86829713D01*
X55237928Y-87169255D01*
X54608664Y-87797421D01*
X54267689Y-88618581D01*
X54266913Y-89507719D01*
X52177252Y-89507719D01*
X52177252Y-69053991D01*
X87364735Y-69053991D01*
X87597932Y-69618371D01*
X88029357Y-70050551D01*
X88593330Y-70284733D01*
X89203991Y-70285265D01*
X89768371Y-70052068D01*
X90200551Y-69620643D01*
X90434733Y-69056670D01*
X90434735Y-69053991D01*
X94964735Y-69053991D01*
X95197932Y-69618371D01*
X95629357Y-70050551D01*
X96193330Y-70284733D01*
X96803991Y-70285265D01*
X97368371Y-70052068D01*
X97800551Y-69620643D01*
X98034733Y-69056670D01*
X98035265Y-68446009D01*
X97802068Y-67881629D01*
X97370643Y-67449449D01*
X96806670Y-67215267D01*
X96196009Y-67214735D01*
X95631629Y-67447932D01*
X95199449Y-67879357D01*
X94965267Y-68443330D01*
X94964735Y-69053991D01*
X90434735Y-69053991D01*
X90435265Y-68446009D01*
X90202068Y-67881629D01*
X89770643Y-67449449D01*
X89206670Y-67215267D01*
X88596009Y-67214735D01*
X88031629Y-67447932D01*
X87599449Y-67879357D01*
X87365267Y-68443330D01*
X87364735Y-69053991D01*
X52177252Y-69053991D01*
X52177252Y-66520719D01*
X54279613Y-66520719D01*
X54619155Y-67342472D01*
X55247321Y-67971736D01*
X56068481Y-68312711D01*
X56957619Y-68313487D01*
X57779372Y-67973945D01*
X58408636Y-67345779D01*
X58749611Y-66524619D01*
X58750387Y-65635481D01*
X58410845Y-64813728D01*
X57782679Y-64184464D01*
X56961519Y-63843489D01*
X56072381Y-63842713D01*
X55250628Y-64182255D01*
X54621364Y-64810421D01*
X54280389Y-65631581D01*
X54279613Y-66520719D01*
X52177252Y-66520719D01*
X52177252Y-60614717D01*
X52518110Y-58901108D01*
X53450575Y-57505574D01*
X54846108Y-56573108D01*
X56559719Y-56232250D01*
X87356154Y-56232250D01*
X87352560Y-56250000D01*
G36*
X105410000Y-107178807D02*
X105744874Y-107112197D01*
X105744838Y-107153567D01*
X105795000Y-107274969D01*
X105795000Y-135443421D01*
X102879210Y-138359210D01*
X102687367Y-138646325D01*
X102687367Y-138646326D01*
X102649107Y-138838669D01*
X102419683Y-138881838D01*
X102203559Y-139020910D01*
X102058569Y-139233110D01*
X102036699Y-139341107D01*
X101731924Y-139063355D01*
X101321890Y-138893524D01*
X101092000Y-139014845D01*
X101092000Y-140208000D01*
X101112000Y-140208000D01*
X101112000Y-140462000D01*
X101092000Y-140462000D01*
X101092000Y-140482000D01*
X100838000Y-140482000D01*
X100838000Y-140462000D01*
X100818000Y-140462000D01*
X100818000Y-140208000D01*
X100838000Y-140208000D01*
X100838000Y-139014845D01*
X100608110Y-138893524D01*
X100198076Y-139063355D01*
X99769817Y-139453642D01*
X99702702Y-139596553D01*
X99546460Y-139362720D01*
X104698187Y-134210992D01*
X104698190Y-134210990D01*
X104890033Y-133923875D01*
X104957400Y-133585200D01*
X104957400Y-107088780D01*
X105410000Y-107178807D01*
X105410000Y-107178807D01*
G37*
X105410000Y-107178807D02*
X105744874Y-107112197D01*
X105744838Y-107153567D01*
X105795000Y-107274969D01*
X105795000Y-135443421D01*
X102879210Y-138359210D01*
X102687367Y-138646325D01*
X102687367Y-138646326D01*
X102649107Y-138838669D01*
X102419683Y-138881838D01*
X102203559Y-139020910D01*
X102058569Y-139233110D01*
X102036699Y-139341107D01*
X101731924Y-139063355D01*
X101321890Y-138893524D01*
X101092000Y-139014845D01*
X101092000Y-140208000D01*
X101112000Y-140208000D01*
X101112000Y-140462000D01*
X101092000Y-140462000D01*
X101092000Y-140482000D01*
X100838000Y-140482000D01*
X100838000Y-140462000D01*
X100818000Y-140462000D01*
X100818000Y-140208000D01*
X100838000Y-140208000D01*
X100838000Y-139014845D01*
X100608110Y-138893524D01*
X100198076Y-139063355D01*
X99769817Y-139453642D01*
X99702702Y-139596553D01*
X99546460Y-139362720D01*
X104698187Y-134210992D01*
X104698190Y-134210990D01*
X104890033Y-133923875D01*
X104957400Y-133585200D01*
X104957400Y-107088780D01*
X105410000Y-107178807D01*
G36*
X95443748Y-115555858D02*
X95429605Y-115570000D01*
X95443748Y-115584143D01*
X95264143Y-115763748D01*
X95250000Y-115749605D01*
X95235858Y-115763748D01*
X95056253Y-115584143D01*
X95070395Y-115570000D01*
X95056253Y-115555858D01*
X95235858Y-115376253D01*
X95250000Y-115390395D01*
X95264143Y-115376253D01*
X95443748Y-115555858D01*
X95443748Y-115555858D01*
G37*
X95443748Y-115555858D02*
X95429605Y-115570000D01*
X95443748Y-115584143D01*
X95264143Y-115763748D01*
X95250000Y-115749605D01*
X95235858Y-115763748D01*
X95056253Y-115584143D01*
X95070395Y-115570000D01*
X95056253Y-115555858D01*
X95235858Y-115376253D01*
X95250000Y-115390395D01*
X95264143Y-115376253D01*
X95443748Y-115555858D01*
G36*
X87757000Y-90043000D02*
X87777000Y-90043000D01*
X87777000Y-90297000D01*
X87757000Y-90297000D01*
X87757000Y-90317000D01*
X87503000Y-90317000D01*
X87503000Y-90297000D01*
X87483000Y-90297000D01*
X87483000Y-90043000D01*
X87503000Y-90043000D01*
X87503000Y-90023000D01*
X87757000Y-90023000D01*
X87757000Y-90043000D01*
X87757000Y-90043000D01*
G37*
X87757000Y-90043000D02*
X87777000Y-90043000D01*
X87777000Y-90297000D01*
X87757000Y-90297000D01*
X87757000Y-90317000D01*
X87503000Y-90317000D01*
X87503000Y-90297000D01*
X87483000Y-90297000D01*
X87483000Y-90043000D01*
X87503000Y-90043000D01*
X87503000Y-90023000D01*
X87757000Y-90023000D01*
X87757000Y-90043000D01*
M02*
