G04 #@! TF.FileFunction,Copper,L2,Bot,Signal*
%FSLAX46Y46*%
G04 Gerber Fmt 4.6, Leading zero omitted, Abs format (unit mm)*
G04 Created by KiCad (PCBNEW 4.0.2+dfsg1-stable) date Wed 12 Sep 2018 10:04:51 PM CEST*
%MOMM*%
G01*
G04 APERTURE LIST*
%ADD10C,0.100000*%
%ADD11O,1.501140X2.199640*%
%ADD12O,2.199640X1.501140*%
%ADD13R,1.700000X1.700000*%
%ADD14O,1.700000X1.700000*%
%ADD15C,1.600000*%
%ADD16O,1.600000X1.600000*%
%ADD17C,1.524000*%
%ADD18C,1.800000*%
%ADD19R,1.800000X1.800000*%
%ADD20C,1.700000*%
%ADD21R,1.750000X1.750000*%
%ADD22C,1.750000*%
%ADD23C,1.000000*%
%ADD24C,0.600000*%
%ADD25C,0.500000*%
%ADD26C,0.800000*%
%ADD27C,0.250000*%
%ADD28C,0.254000*%
G04 APERTURE END LIST*
D10*
D11*
X99060000Y-92710000D03*
X101600000Y-92710000D03*
X80010000Y-105410000D03*
X82550000Y-105410000D03*
X85090000Y-105410000D03*
X87630000Y-105410000D03*
X90170000Y-105410000D03*
X92710000Y-105410000D03*
X95250000Y-105410000D03*
X97790000Y-105410000D03*
X100330000Y-105410000D03*
X102870000Y-105410000D03*
X105410000Y-105410000D03*
X107950000Y-105410000D03*
X107950000Y-90170000D03*
X105410000Y-90170000D03*
X102870000Y-90170000D03*
X100330000Y-90170000D03*
X97790000Y-90170000D03*
X95250000Y-90170000D03*
X92710000Y-90170000D03*
X90170000Y-90170000D03*
X87630000Y-90170000D03*
X85090000Y-90170000D03*
X82550000Y-90170000D03*
X80010000Y-90170000D03*
X91440000Y-92710000D03*
X88900000Y-92710000D03*
D12*
X107950000Y-92710000D03*
X107950000Y-95250000D03*
X107950000Y-97790000D03*
D13*
X103505000Y-140335000D03*
D14*
X100965000Y-140335000D03*
X98425000Y-140335000D03*
X95885000Y-140335000D03*
X93345000Y-140335000D03*
X90805000Y-140335000D03*
X88265000Y-140335000D03*
X85725000Y-140335000D03*
X83185000Y-140335000D03*
X80645000Y-140335000D03*
X78105000Y-140335000D03*
D13*
X76200000Y-73660000D03*
D14*
X76200000Y-76200000D03*
D13*
X106680000Y-73660000D03*
D14*
X106680000Y-76200000D03*
D15*
X113030000Y-86360000D03*
D16*
X120650000Y-86360000D03*
D15*
X113030000Y-96520000D03*
D16*
X120650000Y-96520000D03*
D15*
X113030000Y-91440000D03*
D16*
X120650000Y-91440000D03*
D17*
X85090000Y-113030000D03*
X85090000Y-115570000D03*
X85090000Y-118110000D03*
X85090000Y-120650000D03*
X85090000Y-123190000D03*
X85090000Y-125730000D03*
X85090000Y-128270000D03*
X85090000Y-130810000D03*
X95250000Y-113030000D03*
X95250000Y-115570000D03*
X95250000Y-118110000D03*
X95250000Y-120650000D03*
X95250000Y-125730000D03*
X95250000Y-123190000D03*
X95250000Y-128270000D03*
X95250000Y-130810000D03*
D18*
X95250000Y-58420000D03*
X95250000Y-70020000D03*
D19*
X87650000Y-58420000D03*
D18*
X87650000Y-70020000D03*
D10*
G36*
X119312082Y-110490000D02*
X118110000Y-111692082D01*
X116907918Y-110490000D01*
X118110000Y-109287918D01*
X119312082Y-110490000D01*
X119312082Y-110490000D01*
G37*
D20*
X119906051Y-108693949D02*
X119906051Y-108693949D01*
X121702102Y-106897898D02*
X121702102Y-106897898D01*
X123498154Y-105101846D02*
X123498154Y-105101846D01*
X125294205Y-103305795D02*
X125294205Y-103305795D01*
X127090256Y-101509744D02*
X127090256Y-101509744D01*
X128886307Y-99713693D02*
X128886307Y-99713693D01*
D13*
X82550000Y-135890000D03*
D14*
X85090000Y-135890000D03*
X87630000Y-135890000D03*
X90170000Y-135890000D03*
X92710000Y-135890000D03*
X95250000Y-135890000D03*
X97790000Y-135890000D03*
D10*
G36*
X54610000Y-101532082D02*
X53407918Y-100330000D01*
X54610000Y-99127918D01*
X55812082Y-100330000D01*
X54610000Y-101532082D01*
X54610000Y-101532082D01*
G37*
D20*
X56406051Y-102126051D02*
X56406051Y-102126051D01*
X58202102Y-103922102D02*
X58202102Y-103922102D01*
X59998154Y-105718154D02*
X59998154Y-105718154D01*
X61794205Y-107514205D02*
X61794205Y-107514205D01*
X63590256Y-109310256D02*
X63590256Y-109310256D01*
X65386307Y-111106307D02*
X65386307Y-111106307D01*
D21*
X72390000Y-59690000D03*
D22*
X74890000Y-59690000D03*
D21*
X107950000Y-59690000D03*
D22*
X110450000Y-59690000D03*
D23*
X106680000Y-108585000D03*
D24*
X89501300Y-115803000D03*
X92378500Y-126480400D03*
X93345000Y-115570000D03*
X97790000Y-119010020D03*
X98465348Y-133476762D03*
X94552580Y-134197121D03*
X99078938Y-126348882D03*
X97179566Y-127089017D03*
X111127570Y-105414969D03*
X110236000Y-88900000D03*
X108022260Y-117405560D03*
X78809000Y-97186700D03*
X93345000Y-102235000D03*
X90805000Y-107950000D03*
X76374038Y-118764925D03*
X86324100Y-131696800D03*
D23*
X87630000Y-85725000D03*
X80645000Y-115570000D03*
X102235000Y-143510000D03*
X72272965Y-90233730D03*
X72343185Y-109264421D03*
X99060000Y-111125000D03*
D24*
X91440000Y-111762800D03*
X109486062Y-111445320D03*
D23*
X113026151Y-110306503D03*
X111486083Y-111154193D03*
X116769389Y-104944285D03*
X118380126Y-105327712D03*
D25*
X99060000Y-92710000D02*
X100310600Y-92710000D01*
X100310600Y-93469100D02*
X100310600Y-92710000D01*
X102091500Y-95250000D02*
X100310600Y-93469100D01*
X107950000Y-95250000D02*
X102091500Y-95250000D01*
X101600000Y-92710000D02*
X106350100Y-92710000D01*
X107950000Y-92710000D02*
X106350100Y-92710000D01*
X92984998Y-101484998D02*
X91164196Y-103305800D01*
X80010000Y-105060750D02*
X80010000Y-105410000D01*
X125294200Y-103305800D02*
X124982673Y-102994273D01*
X93705002Y-101484998D02*
X92984998Y-101484998D01*
X124982673Y-102994273D02*
X115889300Y-102994273D01*
X115889300Y-102994273D02*
X115577773Y-103305800D01*
X95525804Y-103305800D02*
X93705002Y-101484998D01*
X115577773Y-103305800D02*
X95525804Y-103305800D01*
X91164196Y-103305800D02*
X81764950Y-103305800D01*
X81764950Y-103305800D02*
X80010000Y-105060750D01*
D26*
X103225670Y-113030000D02*
X109940680Y-106314989D01*
X95250000Y-113030000D02*
X103225670Y-113030000D01*
X109940680Y-106314989D02*
X113770681Y-106314989D01*
X113770681Y-106314989D02*
X116241386Y-103844284D01*
X116241386Y-103844284D02*
X118648488Y-103844284D01*
X118648488Y-103844284D02*
X120852103Y-106047899D01*
X120852103Y-106047899D02*
X121702102Y-106897898D01*
X95250000Y-130810000D02*
X97155000Y-130810000D01*
D25*
X82550000Y-90170000D02*
X82413277Y-90306723D01*
X82413277Y-90306723D02*
X81921777Y-90306723D01*
X121702100Y-106897900D02*
X121631700Y-106968300D01*
X87630000Y-130810000D02*
X95250000Y-130810000D01*
X85090000Y-130810000D02*
X87630000Y-130810000D01*
X87630000Y-130810000D02*
X87630000Y-134540000D01*
X87630000Y-135890000D02*
X87630000Y-134540000D01*
X87194300Y-118110000D02*
X89501300Y-115803000D01*
X85090000Y-118110000D02*
X87194300Y-118110000D01*
X86879600Y-126480400D02*
X92378500Y-126480400D01*
X85090000Y-128270000D02*
X86879600Y-126480400D01*
D27*
X93345000Y-115570000D02*
X92710000Y-115570000D01*
X92710000Y-115570000D02*
X92075000Y-114935000D01*
X85725000Y-114935000D02*
X85090000Y-115570000D01*
X92075000Y-114935000D02*
X85725000Y-114935000D01*
D25*
X97420020Y-119380000D02*
X97490001Y-119310019D01*
X97490001Y-119310019D02*
X97790000Y-119010020D01*
X88900000Y-119380000D02*
X97420020Y-119380000D01*
X85090000Y-123190000D02*
X88900000Y-119380000D01*
D27*
X95272939Y-133476762D02*
X98041084Y-133476762D01*
X94552580Y-134197121D02*
X95272939Y-133476762D01*
X98041084Y-133476762D02*
X98465348Y-133476762D01*
X97179566Y-127089017D02*
X98338803Y-127089017D01*
X98338803Y-127089017D02*
X98778939Y-126648881D01*
X98778939Y-126648881D02*
X99078938Y-126348882D01*
X105410000Y-105759250D02*
X106485580Y-106834830D01*
X110703306Y-105414969D02*
X111127570Y-105414969D01*
X109815380Y-105414969D02*
X110703306Y-105414969D01*
X108395519Y-106834830D02*
X109815380Y-105414969D01*
X106485580Y-106834830D02*
X108395519Y-106834830D01*
X105410000Y-105410000D02*
X105410000Y-105759250D01*
X87772325Y-58442325D02*
X92964000Y-63634000D01*
X92964000Y-63634000D02*
X92964000Y-71628000D01*
X92964000Y-71628000D02*
X110236000Y-88900000D01*
X83185000Y-140335000D02*
X80534000Y-137684000D01*
X80534000Y-137684000D02*
X80534000Y-133597200D01*
X96812824Y-129540000D02*
X108022260Y-118330564D01*
X108022260Y-117829824D02*
X108022260Y-117405560D01*
X108022260Y-118330564D02*
X108022260Y-117829824D01*
X84591200Y-129540000D02*
X96812824Y-129540000D01*
X80534000Y-133597200D02*
X84591200Y-129540000D01*
D25*
X92710000Y-134687919D02*
X94671177Y-132726742D01*
X116951459Y-97920859D02*
X109200600Y-90170000D01*
X130682251Y-100573475D02*
X130682251Y-99002052D01*
X92710000Y-135890000D02*
X92710000Y-134687919D01*
X130682251Y-99002052D02*
X129601058Y-97920859D01*
X94671177Y-132726742D02*
X98528984Y-132726742D01*
X98528984Y-132726742D02*
X130682251Y-100573475D01*
X129601058Y-97920859D02*
X116951459Y-97920859D01*
X109200600Y-90170000D02*
X109200570Y-90170000D01*
X109200570Y-90170000D02*
X107950000Y-90170000D01*
X83820000Y-92175700D02*
X78809000Y-97186700D01*
X83820000Y-86922450D02*
X83820000Y-92175700D01*
X105437877Y-90197877D02*
X105437877Y-90363510D01*
X105437877Y-90363510D02*
X105134510Y-90363510D01*
X105134510Y-90363510D02*
X102639100Y-87868100D01*
X105410000Y-90170000D02*
X105437877Y-90197877D01*
X102639100Y-87868100D02*
X93702944Y-87868100D01*
X93702944Y-87868100D02*
X89482691Y-83647846D01*
X89482691Y-83647846D02*
X87094604Y-83647846D01*
X87094604Y-83647846D02*
X83820000Y-86922450D01*
X100330000Y-89820750D02*
X99079430Y-88570180D01*
X100330000Y-90170000D02*
X100330000Y-89820750D01*
X99079430Y-88570180D02*
X98293720Y-88570180D01*
X93442580Y-88597700D02*
X89192737Y-84347857D01*
X98266200Y-88597700D02*
X93442580Y-88597700D01*
X98293720Y-88570180D02*
X98266200Y-88597700D01*
X89192737Y-84347857D02*
X87384558Y-84347857D01*
X87384558Y-84347857D02*
X86360000Y-85372415D01*
X86360000Y-85372415D02*
X86360000Y-90950900D01*
X86360000Y-90950900D02*
X70751300Y-106559600D01*
X70751300Y-106559600D02*
X62748800Y-106559600D01*
X62748800Y-106559600D02*
X61794200Y-107514200D01*
D27*
X91245580Y-107509420D02*
X91245580Y-104334420D01*
X90805000Y-107950000D02*
X91245580Y-107509420D01*
X91245580Y-104334420D02*
X93345000Y-102235000D01*
D25*
X76374038Y-119189189D02*
X76374038Y-118764925D01*
X76374038Y-140491638D02*
X76374038Y-119189189D01*
X77567500Y-141685100D02*
X76374038Y-140491638D01*
X90805000Y-140335000D02*
X89454900Y-141685100D01*
X89454900Y-141685100D02*
X77567500Y-141685100D01*
X85288000Y-132732900D02*
X86324100Y-131696800D01*
X83242600Y-132732900D02*
X85288000Y-132732900D01*
X81249600Y-134725900D02*
X83242600Y-132732900D01*
X81249600Y-136987200D02*
X81249600Y-134725900D01*
X82547000Y-138284600D02*
X81249600Y-136987200D01*
X86214600Y-138284600D02*
X82547000Y-138284600D01*
X88265000Y-140335000D02*
X86214600Y-138284600D01*
D26*
X87630000Y-90170000D02*
X87630000Y-85725000D01*
X95250000Y-115570000D02*
X93363761Y-113683761D01*
X93363761Y-113683761D02*
X88432636Y-113683761D01*
X88432636Y-113683761D02*
X86136450Y-111387575D01*
X86136450Y-111387575D02*
X83613171Y-111387575D01*
X83613171Y-111387575D02*
X80645000Y-114355746D01*
X80645000Y-114355746D02*
X80645000Y-115570000D01*
X113030000Y-91440000D02*
X118110000Y-96520000D01*
X118110000Y-96520000D02*
X120650000Y-96520000D01*
X102235000Y-143510000D02*
X100965000Y-142240000D01*
X100965000Y-142240000D02*
X100965000Y-140335000D01*
D25*
X97820400Y-137190400D02*
X100965000Y-140335000D01*
X83850400Y-137190400D02*
X97820400Y-137190400D01*
X82550000Y-135890000D02*
X83850400Y-137190400D01*
D26*
X72336695Y-90170000D02*
X72272965Y-90233730D01*
X80010000Y-90170000D02*
X72336695Y-90170000D01*
X97199421Y-109264421D02*
X73050291Y-109264421D01*
X73050291Y-109264421D02*
X72343185Y-109264421D01*
X99060000Y-111125000D02*
X97199421Y-109264421D01*
X80010000Y-90170000D02*
X80010000Y-88387025D01*
X80010000Y-88387025D02*
X72390000Y-80767025D01*
X72390000Y-80767025D02*
X72390000Y-59690000D01*
D25*
X66639000Y-111762800D02*
X82035849Y-111762800D01*
X82035849Y-111762800D02*
X83261085Y-110537564D01*
X66340900Y-112060900D02*
X66639000Y-111762800D01*
X65386300Y-111106300D02*
X66340900Y-112060900D01*
X83261085Y-110537564D02*
X90214764Y-110537564D01*
X90214764Y-110537564D02*
X91440000Y-111762800D01*
X91440000Y-92710000D02*
X92690600Y-92710000D01*
X96500600Y-96520000D02*
X113030000Y-96520000D01*
X92690600Y-92710000D02*
X96500600Y-96520000D01*
X115269100Y-98759100D02*
X113030000Y-96520000D01*
X127931700Y-98759100D02*
X115269100Y-98759100D01*
X128886300Y-99713700D02*
X127931700Y-98759100D01*
X87649400Y-92710000D02*
X87649430Y-92710000D01*
X63590300Y-109310300D02*
X64635922Y-108264678D01*
X72094722Y-108264678D02*
X87649400Y-92710000D01*
X87649430Y-92710000D02*
X88900000Y-92710000D01*
X64635922Y-108264678D02*
X72094722Y-108264678D01*
X90150600Y-93469100D02*
X90150600Y-92710000D01*
X97236600Y-100555100D02*
X90150600Y-93469100D01*
X126135700Y-100555100D02*
X97236600Y-100555100D01*
X88900000Y-92710000D02*
X90150600Y-92710000D01*
X127090300Y-101509700D02*
X126135700Y-100555100D01*
D27*
X85662800Y-124406200D02*
X88149000Y-121920000D01*
X83854400Y-121885600D02*
X83854400Y-123708300D01*
X83854400Y-123708300D02*
X84552300Y-124406200D01*
X85090000Y-120650000D02*
X83854400Y-121885600D01*
X84552300Y-124406200D02*
X85662800Y-124406200D01*
X99011382Y-121920000D02*
X109186063Y-111745319D01*
X109186063Y-111745319D02*
X109486062Y-111445320D01*
X88149000Y-121920000D02*
X99011382Y-121920000D01*
X95230000Y-70103030D02*
X95230000Y-72370000D01*
X95230000Y-72370000D02*
X111760000Y-88900000D01*
X111760000Y-88900000D02*
X118110000Y-88900000D01*
X118110000Y-88900000D02*
X120650000Y-91440000D01*
D26*
X110386082Y-111928742D02*
X110386082Y-110626192D01*
X110386082Y-110626192D02*
X111205770Y-109806504D01*
X99124824Y-123190000D02*
X110386082Y-111928742D01*
X95250000Y-123190000D02*
X99124824Y-123190000D01*
X111205770Y-109806504D02*
X112526152Y-109806504D01*
X112526152Y-109806504D02*
X113026151Y-110306503D01*
X111486083Y-112255788D02*
X111486083Y-111861299D01*
X95250000Y-125730000D02*
X98011871Y-125730000D01*
X111486083Y-111861299D02*
X111486083Y-111154193D01*
X98011871Y-125730000D02*
X111486083Y-112255788D01*
X116269390Y-105444284D02*
X116769389Y-104944285D01*
X114398674Y-107315000D02*
X116269390Y-105444284D01*
X110354898Y-107315000D02*
X114398674Y-107315000D01*
X99559898Y-118110000D02*
X110354898Y-107315000D01*
X95250000Y-118110000D02*
X99559898Y-118110000D01*
X111013045Y-108585000D02*
X115122838Y-108585000D01*
X115122838Y-108585000D02*
X117880127Y-105827711D01*
X98948045Y-120650000D02*
X111013045Y-108585000D01*
X95250000Y-120650000D02*
X98948045Y-120650000D01*
X117880127Y-105827711D02*
X118380126Y-105327712D01*
D28*
G36*
X128138394Y-56573108D02*
X129533928Y-57505573D01*
X130466394Y-58901106D01*
X130807252Y-60614717D01*
X130807252Y-97875474D01*
X130226848Y-97295069D01*
X130064661Y-97186700D01*
X129939733Y-97103226D01*
X129883542Y-97092049D01*
X129601058Y-97035858D01*
X129601053Y-97035859D01*
X122010502Y-97035859D01*
X122113113Y-96520000D01*
X122003880Y-95970849D01*
X121692811Y-95505302D01*
X121227264Y-95194233D01*
X120678113Y-95085000D01*
X120621887Y-95085000D01*
X120072736Y-95194233D01*
X119637573Y-95485000D01*
X118538711Y-95485000D01*
X114465025Y-91411313D01*
X114465248Y-91155813D01*
X114247243Y-90628200D01*
X113843923Y-90224176D01*
X113316691Y-90005250D01*
X112745813Y-90004752D01*
X112218200Y-90222757D01*
X111814176Y-90626077D01*
X111595250Y-91153309D01*
X111595111Y-91312931D01*
X110117077Y-89834897D01*
X110421167Y-89835162D01*
X110764943Y-89693117D01*
X111028192Y-89430327D01*
X111083156Y-89297958D01*
X111222599Y-89437401D01*
X111469160Y-89602148D01*
X111760000Y-89660000D01*
X117795198Y-89660000D01*
X119251312Y-91116114D01*
X119186887Y-91440000D01*
X119296120Y-91989151D01*
X119607189Y-92454698D01*
X120072736Y-92765767D01*
X120621887Y-92875000D01*
X120678113Y-92875000D01*
X121227264Y-92765767D01*
X121692811Y-92454698D01*
X122003880Y-91989151D01*
X122113113Y-91440000D01*
X122003880Y-90890849D01*
X121692811Y-90425302D01*
X121227264Y-90114233D01*
X120678113Y-90005000D01*
X120621887Y-90005000D01*
X120344898Y-90060096D01*
X119830621Y-89545819D01*
X124256613Y-89545819D01*
X124596155Y-90367572D01*
X125224321Y-90996836D01*
X126045481Y-91337811D01*
X126934619Y-91338587D01*
X127756372Y-90999045D01*
X128385636Y-90370879D01*
X128726611Y-89549719D01*
X128727387Y-88660581D01*
X128387845Y-87838828D01*
X127759679Y-87209564D01*
X126938519Y-86868589D01*
X126049381Y-86867813D01*
X125227628Y-87207355D01*
X124598364Y-87835521D01*
X124257389Y-88656681D01*
X124256613Y-89545819D01*
X119830621Y-89545819D01*
X118647401Y-88362599D01*
X118400839Y-88197852D01*
X118110000Y-88140000D01*
X112074802Y-88140000D01*
X110578989Y-86644187D01*
X111594752Y-86644187D01*
X111812757Y-87171800D01*
X112216077Y-87575824D01*
X112743309Y-87794750D01*
X113314187Y-87795248D01*
X113841800Y-87577243D01*
X114245824Y-87173923D01*
X114464750Y-86646691D01*
X114465000Y-86360000D01*
X119186887Y-86360000D01*
X119296120Y-86909151D01*
X119607189Y-87374698D01*
X120072736Y-87685767D01*
X120621887Y-87795000D01*
X120678113Y-87795000D01*
X121227264Y-87685767D01*
X121692811Y-87374698D01*
X122003880Y-86909151D01*
X122113113Y-86360000D01*
X122003880Y-85810849D01*
X121692811Y-85345302D01*
X121227264Y-85034233D01*
X120678113Y-84925000D01*
X120621887Y-84925000D01*
X120072736Y-85034233D01*
X119607189Y-85345302D01*
X119296120Y-85810849D01*
X119186887Y-86360000D01*
X114465000Y-86360000D01*
X114465248Y-86075813D01*
X114247243Y-85548200D01*
X113843923Y-85144176D01*
X113316691Y-84925250D01*
X112745813Y-84924752D01*
X112218200Y-85142757D01*
X111814176Y-85546077D01*
X111595250Y-86073309D01*
X111594752Y-86644187D01*
X110578989Y-86644187D01*
X100134802Y-76200000D01*
X105165907Y-76200000D01*
X105278946Y-76768285D01*
X105600853Y-77250054D01*
X106082622Y-77571961D01*
X106650907Y-77685000D01*
X106709093Y-77685000D01*
X107277378Y-77571961D01*
X107759147Y-77250054D01*
X108081054Y-76768285D01*
X108194093Y-76200000D01*
X108081054Y-75631715D01*
X107759147Y-75149946D01*
X107717548Y-75122150D01*
X107765317Y-75113162D01*
X107981441Y-74974090D01*
X108126431Y-74761890D01*
X108177440Y-74510000D01*
X108177440Y-72810000D01*
X108133162Y-72574683D01*
X107994090Y-72358559D01*
X107781890Y-72213569D01*
X107530000Y-72162560D01*
X105830000Y-72162560D01*
X105594683Y-72206838D01*
X105378559Y-72345910D01*
X105233569Y-72558110D01*
X105182560Y-72810000D01*
X105182560Y-74510000D01*
X105226838Y-74745317D01*
X105365910Y-74961441D01*
X105578110Y-75106431D01*
X105645541Y-75120086D01*
X105600853Y-75149946D01*
X105278946Y-75631715D01*
X105165907Y-76200000D01*
X100134802Y-76200000D01*
X95990000Y-72055198D01*
X95990000Y-71375110D01*
X96118371Y-71322068D01*
X96550551Y-70890643D01*
X96784733Y-70326670D01*
X96785265Y-69716009D01*
X96552068Y-69151629D01*
X96120643Y-68719449D01*
X95556670Y-68485267D01*
X94946009Y-68484735D01*
X94381629Y-68717932D01*
X93949449Y-69149357D01*
X93724000Y-69692299D01*
X93724000Y-66533419D01*
X124256613Y-66533419D01*
X124596155Y-67355172D01*
X125224321Y-67984436D01*
X126045481Y-68325411D01*
X126934619Y-68326187D01*
X127756372Y-67986645D01*
X128385636Y-67358479D01*
X128726611Y-66537319D01*
X128727387Y-65648181D01*
X128387845Y-64826428D01*
X127759679Y-64197164D01*
X126938519Y-63856189D01*
X126049381Y-63855413D01*
X125227628Y-64194955D01*
X124598364Y-64823121D01*
X124257389Y-65644281D01*
X124256613Y-66533419D01*
X93724000Y-66533419D01*
X93724000Y-63634000D01*
X93666148Y-63343161D01*
X93666148Y-63343160D01*
X93501401Y-63096599D01*
X89197440Y-58792638D01*
X89197440Y-58723991D01*
X93714735Y-58723991D01*
X93947932Y-59288371D01*
X94379357Y-59720551D01*
X94943330Y-59954733D01*
X95553991Y-59955265D01*
X96118371Y-59722068D01*
X96550551Y-59290643D01*
X96748055Y-58815000D01*
X106427560Y-58815000D01*
X106427560Y-60565000D01*
X106471838Y-60800317D01*
X106610910Y-61016441D01*
X106823110Y-61161431D01*
X107075000Y-61212440D01*
X108825000Y-61212440D01*
X109060317Y-61168162D01*
X109276441Y-61029090D01*
X109413994Y-60827774D01*
X109452914Y-60866694D01*
X109567546Y-60752062D01*
X109650884Y-61005953D01*
X110215306Y-61211590D01*
X110815458Y-61185579D01*
X111249116Y-61005953D01*
X111332455Y-60752060D01*
X110450000Y-59869605D01*
X110435858Y-59883748D01*
X110256253Y-59704143D01*
X110270395Y-59690000D01*
X110629605Y-59690000D01*
X111512060Y-60572455D01*
X111765953Y-60489116D01*
X111971590Y-59924694D01*
X111945579Y-59324542D01*
X111765953Y-58890884D01*
X111512060Y-58807545D01*
X110629605Y-59690000D01*
X110270395Y-59690000D01*
X110256253Y-59675858D01*
X110435858Y-59496253D01*
X110450000Y-59510395D01*
X111332455Y-58627940D01*
X111249116Y-58374047D01*
X110684694Y-58168410D01*
X110084542Y-58194421D01*
X109650884Y-58374047D01*
X109567546Y-58627938D01*
X109452914Y-58513306D01*
X109411864Y-58554356D01*
X109289090Y-58363559D01*
X109076890Y-58218569D01*
X108825000Y-58167560D01*
X107075000Y-58167560D01*
X106839683Y-58211838D01*
X106623559Y-58350910D01*
X106478569Y-58563110D01*
X106427560Y-58815000D01*
X96748055Y-58815000D01*
X96784733Y-58726670D01*
X96785265Y-58116009D01*
X96552068Y-57551629D01*
X96120643Y-57119449D01*
X95556670Y-56885267D01*
X94946009Y-56884735D01*
X94381629Y-57117932D01*
X93949449Y-57549357D01*
X93715267Y-58113330D01*
X93714735Y-58723991D01*
X89197440Y-58723991D01*
X89197440Y-57520000D01*
X89153162Y-57284683D01*
X89014090Y-57068559D01*
X88801890Y-56923569D01*
X88550000Y-56872560D01*
X86750000Y-56872560D01*
X86514683Y-56916838D01*
X86298559Y-57055910D01*
X86153569Y-57268110D01*
X86102560Y-57520000D01*
X86102560Y-59320000D01*
X86146838Y-59555317D01*
X86285910Y-59771441D01*
X86498110Y-59916431D01*
X86750000Y-59967440D01*
X88222638Y-59967440D01*
X92204000Y-63948802D01*
X92204000Y-71628000D01*
X92261852Y-71918839D01*
X92426599Y-72165401D01*
X109300878Y-89039680D01*
X109300838Y-89085167D01*
X109399777Y-89324619D01*
X109237212Y-89292282D01*
X109230100Y-89256528D01*
X108929746Y-88807017D01*
X108480235Y-88506663D01*
X107950000Y-88401193D01*
X107419765Y-88506663D01*
X106970254Y-88807017D01*
X106680000Y-89241412D01*
X106389746Y-88807017D01*
X105940235Y-88506663D01*
X105410000Y-88401193D01*
X104879765Y-88506663D01*
X104669642Y-88647063D01*
X103264890Y-87242310D01*
X103162541Y-87173923D01*
X102977775Y-87050467D01*
X102921584Y-87039290D01*
X102639100Y-86983099D01*
X102639095Y-86983100D01*
X94069523Y-86983100D01*
X90108483Y-83022059D01*
X90108481Y-83022056D01*
X89821366Y-82830213D01*
X89482691Y-82762845D01*
X89482686Y-82762846D01*
X87094604Y-82762846D01*
X86755929Y-82830213D01*
X86468814Y-83022056D01*
X86468812Y-83022059D01*
X83194210Y-86296660D01*
X83002367Y-86583775D01*
X83002367Y-86583776D01*
X82934999Y-86922450D01*
X82935000Y-86922455D01*
X82935000Y-88486525D01*
X82891275Y-88477867D01*
X82677000Y-88600521D01*
X82677000Y-90043000D01*
X82697000Y-90043000D01*
X82697000Y-90297000D01*
X82677000Y-90297000D01*
X82677000Y-91739479D01*
X82885369Y-91858752D01*
X78400164Y-96343956D01*
X78280057Y-96393583D01*
X78016808Y-96656373D01*
X77874162Y-96999901D01*
X77873838Y-97371867D01*
X78015883Y-97715643D01*
X78179637Y-97879683D01*
X70384720Y-105674600D01*
X62748805Y-105674600D01*
X62748800Y-105674599D01*
X62410125Y-105741967D01*
X62123010Y-105933810D01*
X62123008Y-105933813D01*
X62009462Y-106047358D01*
X61814777Y-106008633D01*
X61426491Y-106085868D01*
X61503726Y-105697582D01*
X61390687Y-105129298D01*
X61068779Y-104647529D01*
X60587010Y-104325621D01*
X60018726Y-104212582D01*
X59616842Y-104292522D01*
X59670438Y-104144010D01*
X59643588Y-103565210D01*
X59473739Y-103155184D01*
X59225395Y-103078414D01*
X58381707Y-103922102D01*
X58395850Y-103936245D01*
X58216245Y-104115850D01*
X58202102Y-104101707D01*
X57358414Y-104945395D01*
X57435184Y-105193739D01*
X57845210Y-105363588D01*
X58424010Y-105390438D01*
X58572522Y-105336842D01*
X58492581Y-105738726D01*
X58605621Y-106307011D01*
X58927528Y-106788780D01*
X59409297Y-107110687D01*
X59977582Y-107223727D01*
X60365868Y-107146491D01*
X60288632Y-107534777D01*
X60401672Y-108103062D01*
X60723579Y-108584831D01*
X61205348Y-108906738D01*
X61773633Y-109019778D01*
X62161919Y-108942542D01*
X62084683Y-109330828D01*
X62197723Y-109899113D01*
X62519630Y-110380882D01*
X63001399Y-110702789D01*
X63569684Y-110815829D01*
X63957970Y-110738593D01*
X63880734Y-111126879D01*
X63993774Y-111695164D01*
X64315681Y-112176933D01*
X64797450Y-112498840D01*
X65365735Y-112611880D01*
X65594747Y-112566326D01*
X65715108Y-112686687D01*
X65715110Y-112686690D01*
X65887224Y-112801691D01*
X66002225Y-112878533D01*
X66340900Y-112945901D01*
X66679574Y-112878533D01*
X66966690Y-112686690D01*
X67005580Y-112647800D01*
X80889234Y-112647800D01*
X79913144Y-113623890D01*
X79688785Y-113959669D01*
X79609999Y-114355746D01*
X79610000Y-114355751D01*
X79610000Y-115102893D01*
X79510197Y-115343244D01*
X79509803Y-115794775D01*
X79682233Y-116212086D01*
X80001235Y-116531645D01*
X80418244Y-116704803D01*
X80869775Y-116705197D01*
X81287086Y-116532767D01*
X81606645Y-116213765D01*
X81779803Y-115796756D01*
X81780197Y-115345225D01*
X81680000Y-115102731D01*
X81680000Y-114784458D01*
X83693225Y-112771232D01*
X83692758Y-113306661D01*
X83904990Y-113820303D01*
X84297630Y-114213629D01*
X84505512Y-114299949D01*
X84299697Y-114384990D01*
X83906371Y-114777630D01*
X83693243Y-115290900D01*
X83692758Y-115846661D01*
X83904990Y-116360303D01*
X84297630Y-116753629D01*
X84505512Y-116839949D01*
X84299697Y-116924990D01*
X83906371Y-117317630D01*
X83693243Y-117830900D01*
X83692758Y-118386661D01*
X83904990Y-118900303D01*
X84297630Y-119293629D01*
X84505512Y-119379949D01*
X84299697Y-119464990D01*
X83906371Y-119857630D01*
X83693243Y-120370900D01*
X83692758Y-120926661D01*
X83706143Y-120959055D01*
X83316999Y-121348199D01*
X83152252Y-121594761D01*
X83094400Y-121885600D01*
X83094400Y-123708300D01*
X83152252Y-123999139D01*
X83316999Y-124245701D01*
X83957694Y-124886396D01*
X83906371Y-124937630D01*
X83693243Y-125450900D01*
X83692758Y-126006661D01*
X83904990Y-126520303D01*
X84297630Y-126913629D01*
X84505512Y-126999949D01*
X84299697Y-127084990D01*
X83906371Y-127477630D01*
X83693243Y-127990900D01*
X83692758Y-128546661D01*
X83904990Y-129060303D01*
X83950503Y-129105895D01*
X79996599Y-133059799D01*
X79831852Y-133306361D01*
X79774000Y-133597200D01*
X79774000Y-137684000D01*
X79831852Y-137974839D01*
X79996599Y-138221401D01*
X80604217Y-138829019D01*
X80076715Y-138933946D01*
X79594946Y-139255853D01*
X79375000Y-139585026D01*
X79155054Y-139255853D01*
X78673285Y-138933946D01*
X78105000Y-138820907D01*
X77536715Y-138933946D01*
X77259038Y-139119483D01*
X77259038Y-119071747D01*
X77308876Y-118951724D01*
X77309200Y-118579758D01*
X77167155Y-118235982D01*
X76904365Y-117972733D01*
X76560837Y-117830087D01*
X76188871Y-117829763D01*
X75845095Y-117971808D01*
X75581846Y-118234598D01*
X75439200Y-118578126D01*
X75438876Y-118950092D01*
X75489038Y-119071494D01*
X75489038Y-140491633D01*
X75489037Y-140491638D01*
X75514720Y-140620750D01*
X75556405Y-140830313D01*
X75682427Y-141018919D01*
X75748248Y-141117428D01*
X76941708Y-142310887D01*
X76941710Y-142310890D01*
X77179741Y-142469936D01*
X77228825Y-142502733D01*
X77567500Y-142570101D01*
X77567505Y-142570100D01*
X89454895Y-142570100D01*
X89454900Y-142570101D01*
X89737384Y-142513910D01*
X89793575Y-142502733D01*
X90080690Y-142310890D01*
X90080691Y-142310889D01*
X90586040Y-141805539D01*
X90805000Y-141849093D01*
X91373285Y-141736054D01*
X91855054Y-141414147D01*
X92075000Y-141084974D01*
X92294946Y-141414147D01*
X92776715Y-141736054D01*
X93345000Y-141849093D01*
X93913285Y-141736054D01*
X94395054Y-141414147D01*
X94615000Y-141084974D01*
X94834946Y-141414147D01*
X95316715Y-141736054D01*
X95885000Y-141849093D01*
X96453285Y-141736054D01*
X96935054Y-141414147D01*
X97155000Y-141084974D01*
X97374946Y-141414147D01*
X97856715Y-141736054D01*
X98425000Y-141849093D01*
X98993285Y-141736054D01*
X99475054Y-141414147D01*
X99695000Y-141084974D01*
X99914946Y-141414147D01*
X99930000Y-141424206D01*
X99930000Y-142239995D01*
X99929999Y-142240000D01*
X100008785Y-142636077D01*
X100233144Y-142971856D01*
X101172850Y-143911561D01*
X101272233Y-144152086D01*
X101591235Y-144471645D01*
X102008244Y-144644803D01*
X102459775Y-144645197D01*
X102877086Y-144472767D01*
X103196645Y-144153765D01*
X103369803Y-143736756D01*
X103370197Y-143285225D01*
X103197767Y-142867914D01*
X102878765Y-142548355D01*
X102636446Y-142447735D01*
X102000000Y-141811288D01*
X102000000Y-141424206D01*
X102015054Y-141414147D01*
X102044403Y-141370223D01*
X102116673Y-141544698D01*
X102295301Y-141723327D01*
X102528690Y-141820000D01*
X103219250Y-141820000D01*
X103378000Y-141661250D01*
X103378000Y-140462000D01*
X103632000Y-140462000D01*
X103632000Y-141661250D01*
X103790750Y-141820000D01*
X104481310Y-141820000D01*
X104714699Y-141723327D01*
X104893327Y-141544698D01*
X104990000Y-141311309D01*
X104990000Y-141018919D01*
X110870813Y-141018919D01*
X111210355Y-141840672D01*
X111838521Y-142469936D01*
X112659681Y-142810911D01*
X113548819Y-142811687D01*
X114370572Y-142472145D01*
X114999836Y-141843979D01*
X115340811Y-141022819D01*
X115341587Y-140133681D01*
X115002045Y-139311928D01*
X114373879Y-138682664D01*
X113552719Y-138341689D01*
X112663581Y-138340913D01*
X111841828Y-138680455D01*
X111212564Y-139308621D01*
X110871589Y-140129781D01*
X110870813Y-141018919D01*
X104990000Y-141018919D01*
X104990000Y-140620750D01*
X104831250Y-140462000D01*
X103632000Y-140462000D01*
X103378000Y-140462000D01*
X103358000Y-140462000D01*
X103358000Y-140208000D01*
X103378000Y-140208000D01*
X103378000Y-139008750D01*
X103632000Y-139008750D01*
X103632000Y-140208000D01*
X104831250Y-140208000D01*
X104990000Y-140049250D01*
X104990000Y-139358691D01*
X104893327Y-139125302D01*
X104714699Y-138946673D01*
X104481310Y-138850000D01*
X103790750Y-138850000D01*
X103632000Y-139008750D01*
X103378000Y-139008750D01*
X103219250Y-138850000D01*
X102528690Y-138850000D01*
X102295301Y-138946673D01*
X102116673Y-139125302D01*
X102044403Y-139299777D01*
X102015054Y-139255853D01*
X101533285Y-138933946D01*
X100965000Y-138820907D01*
X100746040Y-138864461D01*
X98844329Y-136962749D01*
X99161961Y-136487378D01*
X99275000Y-135919093D01*
X99275000Y-135860907D01*
X99161961Y-135292622D01*
X98840054Y-134810853D01*
X98358285Y-134488946D01*
X97790000Y-134375907D01*
X97221715Y-134488946D01*
X96739946Y-134810853D01*
X96520000Y-135140026D01*
X96300054Y-134810853D01*
X95818285Y-134488946D01*
X95472378Y-134420141D01*
X95487418Y-134383920D01*
X95487459Y-134337044D01*
X95587741Y-134236762D01*
X97902885Y-134236762D01*
X97935021Y-134268954D01*
X98278549Y-134411600D01*
X98650515Y-134411924D01*
X98994291Y-134269879D01*
X99257540Y-134007089D01*
X99400186Y-133663561D01*
X99400510Y-133291595D01*
X99346478Y-133160828D01*
X109306486Y-123200819D01*
X110858113Y-123200819D01*
X111197655Y-124022572D01*
X111825821Y-124651836D01*
X112646981Y-124992811D01*
X113536119Y-124993587D01*
X114357872Y-124654045D01*
X114987136Y-124025879D01*
X115328111Y-123204719D01*
X115328887Y-122315581D01*
X114989345Y-121493828D01*
X114361179Y-120864564D01*
X113540019Y-120523589D01*
X112650881Y-120522813D01*
X111829128Y-120862355D01*
X111199864Y-121490521D01*
X110858889Y-122311681D01*
X110858113Y-123200819D01*
X109306486Y-123200819D01*
X130807252Y-101700053D01*
X130807252Y-102123130D01*
X125638826Y-120295950D01*
X117121793Y-142059014D01*
X116179265Y-143529973D01*
X114801891Y-144489058D01*
X113098382Y-144862040D01*
X113076521Y-144862250D01*
X69970022Y-144862250D01*
X68256733Y-144520617D01*
X66861639Y-143587495D01*
X65893483Y-142137070D01*
X65885313Y-142116769D01*
X65440756Y-140980819D01*
X67665413Y-140980819D01*
X68004955Y-141802572D01*
X68633121Y-142431836D01*
X69454281Y-142772811D01*
X70343419Y-142773587D01*
X71165172Y-142434045D01*
X71794436Y-141805879D01*
X72135411Y-140984719D01*
X72136187Y-140095581D01*
X71796645Y-139273828D01*
X71168479Y-138644564D01*
X70347319Y-138303589D01*
X69458181Y-138302813D01*
X68636428Y-138642355D01*
X68007164Y-139270521D01*
X67666189Y-140091681D01*
X67665413Y-140980819D01*
X65440756Y-140980819D01*
X58487477Y-123213519D01*
X67678113Y-123213519D01*
X68017655Y-124035272D01*
X68645821Y-124664536D01*
X69466981Y-125005511D01*
X70356119Y-125006287D01*
X71177872Y-124666745D01*
X71807136Y-124038579D01*
X72148111Y-123217419D01*
X72148887Y-122328281D01*
X71809345Y-121506528D01*
X71181179Y-120877264D01*
X70360019Y-120536289D01*
X69470881Y-120535513D01*
X68649128Y-120875055D01*
X68019864Y-121503221D01*
X67678889Y-122324381D01*
X67678113Y-123213519D01*
X58487477Y-123213519D01*
X57345679Y-120295953D01*
X52177252Y-102123133D01*
X52177252Y-100321056D01*
X52760540Y-100321056D01*
X52808064Y-100573627D01*
X52950109Y-100787809D01*
X54152191Y-101989891D01*
X54349894Y-102124976D01*
X54601056Y-102179460D01*
X54853627Y-102131936D01*
X54910963Y-102093911D01*
X54900478Y-102146623D01*
X55013518Y-102714908D01*
X55335425Y-103196677D01*
X55817194Y-103518584D01*
X56385479Y-103631624D01*
X56787362Y-103551684D01*
X56733766Y-103700194D01*
X56760616Y-104278994D01*
X56930465Y-104689020D01*
X57178809Y-104765790D01*
X58022497Y-103922102D01*
X58008355Y-103907960D01*
X58187960Y-103728355D01*
X58202102Y-103742497D01*
X59045790Y-102898809D01*
X58969020Y-102650465D01*
X58558994Y-102480616D01*
X57980194Y-102453766D01*
X57831683Y-102507362D01*
X57911623Y-102105479D01*
X57798584Y-101537195D01*
X57476676Y-101055426D01*
X56994907Y-100733518D01*
X56426623Y-100620479D01*
X56377554Y-100630239D01*
X56404976Y-100590106D01*
X56459460Y-100338944D01*
X56411936Y-100086373D01*
X56269891Y-99872191D01*
X55067809Y-98670109D01*
X54870106Y-98535024D01*
X54618944Y-98480540D01*
X54366373Y-98528064D01*
X54152191Y-98670109D01*
X52950109Y-99872191D01*
X52815024Y-100069894D01*
X52760540Y-100321056D01*
X52177252Y-100321056D01*
X52177252Y-89507719D01*
X54266913Y-89507719D01*
X54606455Y-90329472D01*
X55234621Y-90958736D01*
X56055781Y-91299711D01*
X56944919Y-91300487D01*
X57766672Y-90960945D01*
X58395936Y-90332779D01*
X58736911Y-89511619D01*
X58737687Y-88622481D01*
X58398145Y-87800728D01*
X57769979Y-87171464D01*
X56948819Y-86830489D01*
X56059681Y-86829713D01*
X55237928Y-87169255D01*
X54608664Y-87797421D01*
X54267689Y-88618581D01*
X54266913Y-89507719D01*
X52177252Y-89507719D01*
X52177252Y-66520719D01*
X54279613Y-66520719D01*
X54619155Y-67342472D01*
X55247321Y-67971736D01*
X56068481Y-68312711D01*
X56957619Y-68313487D01*
X57779372Y-67973945D01*
X58408636Y-67345779D01*
X58749611Y-66524619D01*
X58750387Y-65635481D01*
X58410845Y-64813728D01*
X57782679Y-64184464D01*
X56961519Y-63843489D01*
X56072381Y-63842713D01*
X55250628Y-64182255D01*
X54621364Y-64810421D01*
X54280389Y-65631581D01*
X54279613Y-66520719D01*
X52177252Y-66520719D01*
X52177252Y-60614717D01*
X52518110Y-58901108D01*
X52575645Y-58815000D01*
X70867560Y-58815000D01*
X70867560Y-60565000D01*
X70911838Y-60800317D01*
X71050910Y-61016441D01*
X71263110Y-61161431D01*
X71355000Y-61180039D01*
X71355000Y-80767020D01*
X71354999Y-80767025D01*
X71433785Y-81163102D01*
X71658144Y-81498881D01*
X78975000Y-88815736D01*
X78975000Y-88889710D01*
X78811103Y-89135000D01*
X72586594Y-89135000D01*
X72499721Y-89098927D01*
X72048190Y-89098533D01*
X71630879Y-89270963D01*
X71311320Y-89589965D01*
X71138162Y-90006974D01*
X71137768Y-90458505D01*
X71310198Y-90875816D01*
X71629200Y-91195375D01*
X72046209Y-91368533D01*
X72497740Y-91368927D01*
X72894472Y-91205000D01*
X78811103Y-91205000D01*
X79030254Y-91532983D01*
X79479765Y-91833337D01*
X80010000Y-91938807D01*
X80540235Y-91833337D01*
X80989746Y-91532983D01*
X81290100Y-91083472D01*
X81291601Y-91075928D01*
X81318501Y-91166817D01*
X81660056Y-91588798D01*
X82137097Y-91847950D01*
X82208725Y-91862133D01*
X82423000Y-91739479D01*
X82423000Y-90297000D01*
X82403000Y-90297000D01*
X82403000Y-90043000D01*
X82423000Y-90043000D01*
X82423000Y-88600521D01*
X82208725Y-88477867D01*
X82137097Y-88492050D01*
X81660056Y-88751202D01*
X81318501Y-89173183D01*
X81291601Y-89264072D01*
X81290100Y-89256528D01*
X81045000Y-88889710D01*
X81045000Y-88387025D01*
X81007371Y-88197852D01*
X80966215Y-87990947D01*
X80835453Y-87795248D01*
X80741856Y-87655169D01*
X80741853Y-87655167D01*
X73425000Y-80338313D01*
X73425000Y-76200000D01*
X74685907Y-76200000D01*
X74798946Y-76768285D01*
X75120853Y-77250054D01*
X75602622Y-77571961D01*
X76170907Y-77685000D01*
X76229093Y-77685000D01*
X76797378Y-77571961D01*
X77279147Y-77250054D01*
X77601054Y-76768285D01*
X77714093Y-76200000D01*
X77601054Y-75631715D01*
X77279147Y-75149946D01*
X77237548Y-75122150D01*
X77285317Y-75113162D01*
X77501441Y-74974090D01*
X77646431Y-74761890D01*
X77697440Y-74510000D01*
X77697440Y-72810000D01*
X77653162Y-72574683D01*
X77514090Y-72358559D01*
X77301890Y-72213569D01*
X77050000Y-72162560D01*
X75350000Y-72162560D01*
X75114683Y-72206838D01*
X74898559Y-72345910D01*
X74753569Y-72558110D01*
X74702560Y-72810000D01*
X74702560Y-74510000D01*
X74746838Y-74745317D01*
X74885910Y-74961441D01*
X75098110Y-75106431D01*
X75165541Y-75120086D01*
X75120853Y-75149946D01*
X74798946Y-75631715D01*
X74685907Y-76200000D01*
X73425000Y-76200000D01*
X73425000Y-70323991D01*
X86114735Y-70323991D01*
X86347932Y-70888371D01*
X86779357Y-71320551D01*
X87343330Y-71554733D01*
X87953991Y-71555265D01*
X88518371Y-71322068D01*
X88950551Y-70890643D01*
X89184733Y-70326670D01*
X89185265Y-69716009D01*
X88952068Y-69151629D01*
X88520643Y-68719449D01*
X87956670Y-68485267D01*
X87346009Y-68484735D01*
X86781629Y-68717932D01*
X86349449Y-69149357D01*
X86115267Y-69713330D01*
X86114735Y-70323991D01*
X73425000Y-70323991D01*
X73425000Y-61182334D01*
X73500317Y-61168162D01*
X73716441Y-61029090D01*
X73861431Y-60816890D01*
X73864786Y-60800324D01*
X74033537Y-60969370D01*
X74588325Y-61199738D01*
X75189040Y-61200262D01*
X75744229Y-60970862D01*
X76169370Y-60546463D01*
X76399738Y-59991675D01*
X76400262Y-59390960D01*
X76170862Y-58835771D01*
X75746463Y-58410630D01*
X75191675Y-58180262D01*
X74590960Y-58179738D01*
X74035771Y-58409138D01*
X73866897Y-58577717D01*
X73729090Y-58363559D01*
X73516890Y-58218569D01*
X73265000Y-58167560D01*
X71515000Y-58167560D01*
X71279683Y-58211838D01*
X71063559Y-58350910D01*
X70918569Y-58563110D01*
X70867560Y-58815000D01*
X52575645Y-58815000D01*
X53450575Y-57505574D01*
X54846108Y-56573108D01*
X56559719Y-56232250D01*
X126424785Y-56232250D01*
X128138394Y-56573108D01*
X128138394Y-56573108D01*
G37*
X128138394Y-56573108D02*
X129533928Y-57505573D01*
X130466394Y-58901106D01*
X130807252Y-60614717D01*
X130807252Y-97875474D01*
X130226848Y-97295069D01*
X130064661Y-97186700D01*
X129939733Y-97103226D01*
X129883542Y-97092049D01*
X129601058Y-97035858D01*
X129601053Y-97035859D01*
X122010502Y-97035859D01*
X122113113Y-96520000D01*
X122003880Y-95970849D01*
X121692811Y-95505302D01*
X121227264Y-95194233D01*
X120678113Y-95085000D01*
X120621887Y-95085000D01*
X120072736Y-95194233D01*
X119637573Y-95485000D01*
X118538711Y-95485000D01*
X114465025Y-91411313D01*
X114465248Y-91155813D01*
X114247243Y-90628200D01*
X113843923Y-90224176D01*
X113316691Y-90005250D01*
X112745813Y-90004752D01*
X112218200Y-90222757D01*
X111814176Y-90626077D01*
X111595250Y-91153309D01*
X111595111Y-91312931D01*
X110117077Y-89834897D01*
X110421167Y-89835162D01*
X110764943Y-89693117D01*
X111028192Y-89430327D01*
X111083156Y-89297958D01*
X111222599Y-89437401D01*
X111469160Y-89602148D01*
X111760000Y-89660000D01*
X117795198Y-89660000D01*
X119251312Y-91116114D01*
X119186887Y-91440000D01*
X119296120Y-91989151D01*
X119607189Y-92454698D01*
X120072736Y-92765767D01*
X120621887Y-92875000D01*
X120678113Y-92875000D01*
X121227264Y-92765767D01*
X121692811Y-92454698D01*
X122003880Y-91989151D01*
X122113113Y-91440000D01*
X122003880Y-90890849D01*
X121692811Y-90425302D01*
X121227264Y-90114233D01*
X120678113Y-90005000D01*
X120621887Y-90005000D01*
X120344898Y-90060096D01*
X119830621Y-89545819D01*
X124256613Y-89545819D01*
X124596155Y-90367572D01*
X125224321Y-90996836D01*
X126045481Y-91337811D01*
X126934619Y-91338587D01*
X127756372Y-90999045D01*
X128385636Y-90370879D01*
X128726611Y-89549719D01*
X128727387Y-88660581D01*
X128387845Y-87838828D01*
X127759679Y-87209564D01*
X126938519Y-86868589D01*
X126049381Y-86867813D01*
X125227628Y-87207355D01*
X124598364Y-87835521D01*
X124257389Y-88656681D01*
X124256613Y-89545819D01*
X119830621Y-89545819D01*
X118647401Y-88362599D01*
X118400839Y-88197852D01*
X118110000Y-88140000D01*
X112074802Y-88140000D01*
X110578989Y-86644187D01*
X111594752Y-86644187D01*
X111812757Y-87171800D01*
X112216077Y-87575824D01*
X112743309Y-87794750D01*
X113314187Y-87795248D01*
X113841800Y-87577243D01*
X114245824Y-87173923D01*
X114464750Y-86646691D01*
X114465000Y-86360000D01*
X119186887Y-86360000D01*
X119296120Y-86909151D01*
X119607189Y-87374698D01*
X120072736Y-87685767D01*
X120621887Y-87795000D01*
X120678113Y-87795000D01*
X121227264Y-87685767D01*
X121692811Y-87374698D01*
X122003880Y-86909151D01*
X122113113Y-86360000D01*
X122003880Y-85810849D01*
X121692811Y-85345302D01*
X121227264Y-85034233D01*
X120678113Y-84925000D01*
X120621887Y-84925000D01*
X120072736Y-85034233D01*
X119607189Y-85345302D01*
X119296120Y-85810849D01*
X119186887Y-86360000D01*
X114465000Y-86360000D01*
X114465248Y-86075813D01*
X114247243Y-85548200D01*
X113843923Y-85144176D01*
X113316691Y-84925250D01*
X112745813Y-84924752D01*
X112218200Y-85142757D01*
X111814176Y-85546077D01*
X111595250Y-86073309D01*
X111594752Y-86644187D01*
X110578989Y-86644187D01*
X100134802Y-76200000D01*
X105165907Y-76200000D01*
X105278946Y-76768285D01*
X105600853Y-77250054D01*
X106082622Y-77571961D01*
X106650907Y-77685000D01*
X106709093Y-77685000D01*
X107277378Y-77571961D01*
X107759147Y-77250054D01*
X108081054Y-76768285D01*
X108194093Y-76200000D01*
X108081054Y-75631715D01*
X107759147Y-75149946D01*
X107717548Y-75122150D01*
X107765317Y-75113162D01*
X107981441Y-74974090D01*
X108126431Y-74761890D01*
X108177440Y-74510000D01*
X108177440Y-72810000D01*
X108133162Y-72574683D01*
X107994090Y-72358559D01*
X107781890Y-72213569D01*
X107530000Y-72162560D01*
X105830000Y-72162560D01*
X105594683Y-72206838D01*
X105378559Y-72345910D01*
X105233569Y-72558110D01*
X105182560Y-72810000D01*
X105182560Y-74510000D01*
X105226838Y-74745317D01*
X105365910Y-74961441D01*
X105578110Y-75106431D01*
X105645541Y-75120086D01*
X105600853Y-75149946D01*
X105278946Y-75631715D01*
X105165907Y-76200000D01*
X100134802Y-76200000D01*
X95990000Y-72055198D01*
X95990000Y-71375110D01*
X96118371Y-71322068D01*
X96550551Y-70890643D01*
X96784733Y-70326670D01*
X96785265Y-69716009D01*
X96552068Y-69151629D01*
X96120643Y-68719449D01*
X95556670Y-68485267D01*
X94946009Y-68484735D01*
X94381629Y-68717932D01*
X93949449Y-69149357D01*
X93724000Y-69692299D01*
X93724000Y-66533419D01*
X124256613Y-66533419D01*
X124596155Y-67355172D01*
X125224321Y-67984436D01*
X126045481Y-68325411D01*
X126934619Y-68326187D01*
X127756372Y-67986645D01*
X128385636Y-67358479D01*
X128726611Y-66537319D01*
X128727387Y-65648181D01*
X128387845Y-64826428D01*
X127759679Y-64197164D01*
X126938519Y-63856189D01*
X126049381Y-63855413D01*
X125227628Y-64194955D01*
X124598364Y-64823121D01*
X124257389Y-65644281D01*
X124256613Y-66533419D01*
X93724000Y-66533419D01*
X93724000Y-63634000D01*
X93666148Y-63343161D01*
X93666148Y-63343160D01*
X93501401Y-63096599D01*
X89197440Y-58792638D01*
X89197440Y-58723991D01*
X93714735Y-58723991D01*
X93947932Y-59288371D01*
X94379357Y-59720551D01*
X94943330Y-59954733D01*
X95553991Y-59955265D01*
X96118371Y-59722068D01*
X96550551Y-59290643D01*
X96748055Y-58815000D01*
X106427560Y-58815000D01*
X106427560Y-60565000D01*
X106471838Y-60800317D01*
X106610910Y-61016441D01*
X106823110Y-61161431D01*
X107075000Y-61212440D01*
X108825000Y-61212440D01*
X109060317Y-61168162D01*
X109276441Y-61029090D01*
X109413994Y-60827774D01*
X109452914Y-60866694D01*
X109567546Y-60752062D01*
X109650884Y-61005953D01*
X110215306Y-61211590D01*
X110815458Y-61185579D01*
X111249116Y-61005953D01*
X111332455Y-60752060D01*
X110450000Y-59869605D01*
X110435858Y-59883748D01*
X110256253Y-59704143D01*
X110270395Y-59690000D01*
X110629605Y-59690000D01*
X111512060Y-60572455D01*
X111765953Y-60489116D01*
X111971590Y-59924694D01*
X111945579Y-59324542D01*
X111765953Y-58890884D01*
X111512060Y-58807545D01*
X110629605Y-59690000D01*
X110270395Y-59690000D01*
X110256253Y-59675858D01*
X110435858Y-59496253D01*
X110450000Y-59510395D01*
X111332455Y-58627940D01*
X111249116Y-58374047D01*
X110684694Y-58168410D01*
X110084542Y-58194421D01*
X109650884Y-58374047D01*
X109567546Y-58627938D01*
X109452914Y-58513306D01*
X109411864Y-58554356D01*
X109289090Y-58363559D01*
X109076890Y-58218569D01*
X108825000Y-58167560D01*
X107075000Y-58167560D01*
X106839683Y-58211838D01*
X106623559Y-58350910D01*
X106478569Y-58563110D01*
X106427560Y-58815000D01*
X96748055Y-58815000D01*
X96784733Y-58726670D01*
X96785265Y-58116009D01*
X96552068Y-57551629D01*
X96120643Y-57119449D01*
X95556670Y-56885267D01*
X94946009Y-56884735D01*
X94381629Y-57117932D01*
X93949449Y-57549357D01*
X93715267Y-58113330D01*
X93714735Y-58723991D01*
X89197440Y-58723991D01*
X89197440Y-57520000D01*
X89153162Y-57284683D01*
X89014090Y-57068559D01*
X88801890Y-56923569D01*
X88550000Y-56872560D01*
X86750000Y-56872560D01*
X86514683Y-56916838D01*
X86298559Y-57055910D01*
X86153569Y-57268110D01*
X86102560Y-57520000D01*
X86102560Y-59320000D01*
X86146838Y-59555317D01*
X86285910Y-59771441D01*
X86498110Y-59916431D01*
X86750000Y-59967440D01*
X88222638Y-59967440D01*
X92204000Y-63948802D01*
X92204000Y-71628000D01*
X92261852Y-71918839D01*
X92426599Y-72165401D01*
X109300878Y-89039680D01*
X109300838Y-89085167D01*
X109399777Y-89324619D01*
X109237212Y-89292282D01*
X109230100Y-89256528D01*
X108929746Y-88807017D01*
X108480235Y-88506663D01*
X107950000Y-88401193D01*
X107419765Y-88506663D01*
X106970254Y-88807017D01*
X106680000Y-89241412D01*
X106389746Y-88807017D01*
X105940235Y-88506663D01*
X105410000Y-88401193D01*
X104879765Y-88506663D01*
X104669642Y-88647063D01*
X103264890Y-87242310D01*
X103162541Y-87173923D01*
X102977775Y-87050467D01*
X102921584Y-87039290D01*
X102639100Y-86983099D01*
X102639095Y-86983100D01*
X94069523Y-86983100D01*
X90108483Y-83022059D01*
X90108481Y-83022056D01*
X89821366Y-82830213D01*
X89482691Y-82762845D01*
X89482686Y-82762846D01*
X87094604Y-82762846D01*
X86755929Y-82830213D01*
X86468814Y-83022056D01*
X86468812Y-83022059D01*
X83194210Y-86296660D01*
X83002367Y-86583775D01*
X83002367Y-86583776D01*
X82934999Y-86922450D01*
X82935000Y-86922455D01*
X82935000Y-88486525D01*
X82891275Y-88477867D01*
X82677000Y-88600521D01*
X82677000Y-90043000D01*
X82697000Y-90043000D01*
X82697000Y-90297000D01*
X82677000Y-90297000D01*
X82677000Y-91739479D01*
X82885369Y-91858752D01*
X78400164Y-96343956D01*
X78280057Y-96393583D01*
X78016808Y-96656373D01*
X77874162Y-96999901D01*
X77873838Y-97371867D01*
X78015883Y-97715643D01*
X78179637Y-97879683D01*
X70384720Y-105674600D01*
X62748805Y-105674600D01*
X62748800Y-105674599D01*
X62410125Y-105741967D01*
X62123010Y-105933810D01*
X62123008Y-105933813D01*
X62009462Y-106047358D01*
X61814777Y-106008633D01*
X61426491Y-106085868D01*
X61503726Y-105697582D01*
X61390687Y-105129298D01*
X61068779Y-104647529D01*
X60587010Y-104325621D01*
X60018726Y-104212582D01*
X59616842Y-104292522D01*
X59670438Y-104144010D01*
X59643588Y-103565210D01*
X59473739Y-103155184D01*
X59225395Y-103078414D01*
X58381707Y-103922102D01*
X58395850Y-103936245D01*
X58216245Y-104115850D01*
X58202102Y-104101707D01*
X57358414Y-104945395D01*
X57435184Y-105193739D01*
X57845210Y-105363588D01*
X58424010Y-105390438D01*
X58572522Y-105336842D01*
X58492581Y-105738726D01*
X58605621Y-106307011D01*
X58927528Y-106788780D01*
X59409297Y-107110687D01*
X59977582Y-107223727D01*
X60365868Y-107146491D01*
X60288632Y-107534777D01*
X60401672Y-108103062D01*
X60723579Y-108584831D01*
X61205348Y-108906738D01*
X61773633Y-109019778D01*
X62161919Y-108942542D01*
X62084683Y-109330828D01*
X62197723Y-109899113D01*
X62519630Y-110380882D01*
X63001399Y-110702789D01*
X63569684Y-110815829D01*
X63957970Y-110738593D01*
X63880734Y-111126879D01*
X63993774Y-111695164D01*
X64315681Y-112176933D01*
X64797450Y-112498840D01*
X65365735Y-112611880D01*
X65594747Y-112566326D01*
X65715108Y-112686687D01*
X65715110Y-112686690D01*
X65887224Y-112801691D01*
X66002225Y-112878533D01*
X66340900Y-112945901D01*
X66679574Y-112878533D01*
X66966690Y-112686690D01*
X67005580Y-112647800D01*
X80889234Y-112647800D01*
X79913144Y-113623890D01*
X79688785Y-113959669D01*
X79609999Y-114355746D01*
X79610000Y-114355751D01*
X79610000Y-115102893D01*
X79510197Y-115343244D01*
X79509803Y-115794775D01*
X79682233Y-116212086D01*
X80001235Y-116531645D01*
X80418244Y-116704803D01*
X80869775Y-116705197D01*
X81287086Y-116532767D01*
X81606645Y-116213765D01*
X81779803Y-115796756D01*
X81780197Y-115345225D01*
X81680000Y-115102731D01*
X81680000Y-114784458D01*
X83693225Y-112771232D01*
X83692758Y-113306661D01*
X83904990Y-113820303D01*
X84297630Y-114213629D01*
X84505512Y-114299949D01*
X84299697Y-114384990D01*
X83906371Y-114777630D01*
X83693243Y-115290900D01*
X83692758Y-115846661D01*
X83904990Y-116360303D01*
X84297630Y-116753629D01*
X84505512Y-116839949D01*
X84299697Y-116924990D01*
X83906371Y-117317630D01*
X83693243Y-117830900D01*
X83692758Y-118386661D01*
X83904990Y-118900303D01*
X84297630Y-119293629D01*
X84505512Y-119379949D01*
X84299697Y-119464990D01*
X83906371Y-119857630D01*
X83693243Y-120370900D01*
X83692758Y-120926661D01*
X83706143Y-120959055D01*
X83316999Y-121348199D01*
X83152252Y-121594761D01*
X83094400Y-121885600D01*
X83094400Y-123708300D01*
X83152252Y-123999139D01*
X83316999Y-124245701D01*
X83957694Y-124886396D01*
X83906371Y-124937630D01*
X83693243Y-125450900D01*
X83692758Y-126006661D01*
X83904990Y-126520303D01*
X84297630Y-126913629D01*
X84505512Y-126999949D01*
X84299697Y-127084990D01*
X83906371Y-127477630D01*
X83693243Y-127990900D01*
X83692758Y-128546661D01*
X83904990Y-129060303D01*
X83950503Y-129105895D01*
X79996599Y-133059799D01*
X79831852Y-133306361D01*
X79774000Y-133597200D01*
X79774000Y-137684000D01*
X79831852Y-137974839D01*
X79996599Y-138221401D01*
X80604217Y-138829019D01*
X80076715Y-138933946D01*
X79594946Y-139255853D01*
X79375000Y-139585026D01*
X79155054Y-139255853D01*
X78673285Y-138933946D01*
X78105000Y-138820907D01*
X77536715Y-138933946D01*
X77259038Y-139119483D01*
X77259038Y-119071747D01*
X77308876Y-118951724D01*
X77309200Y-118579758D01*
X77167155Y-118235982D01*
X76904365Y-117972733D01*
X76560837Y-117830087D01*
X76188871Y-117829763D01*
X75845095Y-117971808D01*
X75581846Y-118234598D01*
X75439200Y-118578126D01*
X75438876Y-118950092D01*
X75489038Y-119071494D01*
X75489038Y-140491633D01*
X75489037Y-140491638D01*
X75514720Y-140620750D01*
X75556405Y-140830313D01*
X75682427Y-141018919D01*
X75748248Y-141117428D01*
X76941708Y-142310887D01*
X76941710Y-142310890D01*
X77179741Y-142469936D01*
X77228825Y-142502733D01*
X77567500Y-142570101D01*
X77567505Y-142570100D01*
X89454895Y-142570100D01*
X89454900Y-142570101D01*
X89737384Y-142513910D01*
X89793575Y-142502733D01*
X90080690Y-142310890D01*
X90080691Y-142310889D01*
X90586040Y-141805539D01*
X90805000Y-141849093D01*
X91373285Y-141736054D01*
X91855054Y-141414147D01*
X92075000Y-141084974D01*
X92294946Y-141414147D01*
X92776715Y-141736054D01*
X93345000Y-141849093D01*
X93913285Y-141736054D01*
X94395054Y-141414147D01*
X94615000Y-141084974D01*
X94834946Y-141414147D01*
X95316715Y-141736054D01*
X95885000Y-141849093D01*
X96453285Y-141736054D01*
X96935054Y-141414147D01*
X97155000Y-141084974D01*
X97374946Y-141414147D01*
X97856715Y-141736054D01*
X98425000Y-141849093D01*
X98993285Y-141736054D01*
X99475054Y-141414147D01*
X99695000Y-141084974D01*
X99914946Y-141414147D01*
X99930000Y-141424206D01*
X99930000Y-142239995D01*
X99929999Y-142240000D01*
X100008785Y-142636077D01*
X100233144Y-142971856D01*
X101172850Y-143911561D01*
X101272233Y-144152086D01*
X101591235Y-144471645D01*
X102008244Y-144644803D01*
X102459775Y-144645197D01*
X102877086Y-144472767D01*
X103196645Y-144153765D01*
X103369803Y-143736756D01*
X103370197Y-143285225D01*
X103197767Y-142867914D01*
X102878765Y-142548355D01*
X102636446Y-142447735D01*
X102000000Y-141811288D01*
X102000000Y-141424206D01*
X102015054Y-141414147D01*
X102044403Y-141370223D01*
X102116673Y-141544698D01*
X102295301Y-141723327D01*
X102528690Y-141820000D01*
X103219250Y-141820000D01*
X103378000Y-141661250D01*
X103378000Y-140462000D01*
X103632000Y-140462000D01*
X103632000Y-141661250D01*
X103790750Y-141820000D01*
X104481310Y-141820000D01*
X104714699Y-141723327D01*
X104893327Y-141544698D01*
X104990000Y-141311309D01*
X104990000Y-141018919D01*
X110870813Y-141018919D01*
X111210355Y-141840672D01*
X111838521Y-142469936D01*
X112659681Y-142810911D01*
X113548819Y-142811687D01*
X114370572Y-142472145D01*
X114999836Y-141843979D01*
X115340811Y-141022819D01*
X115341587Y-140133681D01*
X115002045Y-139311928D01*
X114373879Y-138682664D01*
X113552719Y-138341689D01*
X112663581Y-138340913D01*
X111841828Y-138680455D01*
X111212564Y-139308621D01*
X110871589Y-140129781D01*
X110870813Y-141018919D01*
X104990000Y-141018919D01*
X104990000Y-140620750D01*
X104831250Y-140462000D01*
X103632000Y-140462000D01*
X103378000Y-140462000D01*
X103358000Y-140462000D01*
X103358000Y-140208000D01*
X103378000Y-140208000D01*
X103378000Y-139008750D01*
X103632000Y-139008750D01*
X103632000Y-140208000D01*
X104831250Y-140208000D01*
X104990000Y-140049250D01*
X104990000Y-139358691D01*
X104893327Y-139125302D01*
X104714699Y-138946673D01*
X104481310Y-138850000D01*
X103790750Y-138850000D01*
X103632000Y-139008750D01*
X103378000Y-139008750D01*
X103219250Y-138850000D01*
X102528690Y-138850000D01*
X102295301Y-138946673D01*
X102116673Y-139125302D01*
X102044403Y-139299777D01*
X102015054Y-139255853D01*
X101533285Y-138933946D01*
X100965000Y-138820907D01*
X100746040Y-138864461D01*
X98844329Y-136962749D01*
X99161961Y-136487378D01*
X99275000Y-135919093D01*
X99275000Y-135860907D01*
X99161961Y-135292622D01*
X98840054Y-134810853D01*
X98358285Y-134488946D01*
X97790000Y-134375907D01*
X97221715Y-134488946D01*
X96739946Y-134810853D01*
X96520000Y-135140026D01*
X96300054Y-134810853D01*
X95818285Y-134488946D01*
X95472378Y-134420141D01*
X95487418Y-134383920D01*
X95487459Y-134337044D01*
X95587741Y-134236762D01*
X97902885Y-134236762D01*
X97935021Y-134268954D01*
X98278549Y-134411600D01*
X98650515Y-134411924D01*
X98994291Y-134269879D01*
X99257540Y-134007089D01*
X99400186Y-133663561D01*
X99400510Y-133291595D01*
X99346478Y-133160828D01*
X109306486Y-123200819D01*
X110858113Y-123200819D01*
X111197655Y-124022572D01*
X111825821Y-124651836D01*
X112646981Y-124992811D01*
X113536119Y-124993587D01*
X114357872Y-124654045D01*
X114987136Y-124025879D01*
X115328111Y-123204719D01*
X115328887Y-122315581D01*
X114989345Y-121493828D01*
X114361179Y-120864564D01*
X113540019Y-120523589D01*
X112650881Y-120522813D01*
X111829128Y-120862355D01*
X111199864Y-121490521D01*
X110858889Y-122311681D01*
X110858113Y-123200819D01*
X109306486Y-123200819D01*
X130807252Y-101700053D01*
X130807252Y-102123130D01*
X125638826Y-120295950D01*
X117121793Y-142059014D01*
X116179265Y-143529973D01*
X114801891Y-144489058D01*
X113098382Y-144862040D01*
X113076521Y-144862250D01*
X69970022Y-144862250D01*
X68256733Y-144520617D01*
X66861639Y-143587495D01*
X65893483Y-142137070D01*
X65885313Y-142116769D01*
X65440756Y-140980819D01*
X67665413Y-140980819D01*
X68004955Y-141802572D01*
X68633121Y-142431836D01*
X69454281Y-142772811D01*
X70343419Y-142773587D01*
X71165172Y-142434045D01*
X71794436Y-141805879D01*
X72135411Y-140984719D01*
X72136187Y-140095581D01*
X71796645Y-139273828D01*
X71168479Y-138644564D01*
X70347319Y-138303589D01*
X69458181Y-138302813D01*
X68636428Y-138642355D01*
X68007164Y-139270521D01*
X67666189Y-140091681D01*
X67665413Y-140980819D01*
X65440756Y-140980819D01*
X58487477Y-123213519D01*
X67678113Y-123213519D01*
X68017655Y-124035272D01*
X68645821Y-124664536D01*
X69466981Y-125005511D01*
X70356119Y-125006287D01*
X71177872Y-124666745D01*
X71807136Y-124038579D01*
X72148111Y-123217419D01*
X72148887Y-122328281D01*
X71809345Y-121506528D01*
X71181179Y-120877264D01*
X70360019Y-120536289D01*
X69470881Y-120535513D01*
X68649128Y-120875055D01*
X68019864Y-121503221D01*
X67678889Y-122324381D01*
X67678113Y-123213519D01*
X58487477Y-123213519D01*
X57345679Y-120295953D01*
X52177252Y-102123133D01*
X52177252Y-100321056D01*
X52760540Y-100321056D01*
X52808064Y-100573627D01*
X52950109Y-100787809D01*
X54152191Y-101989891D01*
X54349894Y-102124976D01*
X54601056Y-102179460D01*
X54853627Y-102131936D01*
X54910963Y-102093911D01*
X54900478Y-102146623D01*
X55013518Y-102714908D01*
X55335425Y-103196677D01*
X55817194Y-103518584D01*
X56385479Y-103631624D01*
X56787362Y-103551684D01*
X56733766Y-103700194D01*
X56760616Y-104278994D01*
X56930465Y-104689020D01*
X57178809Y-104765790D01*
X58022497Y-103922102D01*
X58008355Y-103907960D01*
X58187960Y-103728355D01*
X58202102Y-103742497D01*
X59045790Y-102898809D01*
X58969020Y-102650465D01*
X58558994Y-102480616D01*
X57980194Y-102453766D01*
X57831683Y-102507362D01*
X57911623Y-102105479D01*
X57798584Y-101537195D01*
X57476676Y-101055426D01*
X56994907Y-100733518D01*
X56426623Y-100620479D01*
X56377554Y-100630239D01*
X56404976Y-100590106D01*
X56459460Y-100338944D01*
X56411936Y-100086373D01*
X56269891Y-99872191D01*
X55067809Y-98670109D01*
X54870106Y-98535024D01*
X54618944Y-98480540D01*
X54366373Y-98528064D01*
X54152191Y-98670109D01*
X52950109Y-99872191D01*
X52815024Y-100069894D01*
X52760540Y-100321056D01*
X52177252Y-100321056D01*
X52177252Y-89507719D01*
X54266913Y-89507719D01*
X54606455Y-90329472D01*
X55234621Y-90958736D01*
X56055781Y-91299711D01*
X56944919Y-91300487D01*
X57766672Y-90960945D01*
X58395936Y-90332779D01*
X58736911Y-89511619D01*
X58737687Y-88622481D01*
X58398145Y-87800728D01*
X57769979Y-87171464D01*
X56948819Y-86830489D01*
X56059681Y-86829713D01*
X55237928Y-87169255D01*
X54608664Y-87797421D01*
X54267689Y-88618581D01*
X54266913Y-89507719D01*
X52177252Y-89507719D01*
X52177252Y-66520719D01*
X54279613Y-66520719D01*
X54619155Y-67342472D01*
X55247321Y-67971736D01*
X56068481Y-68312711D01*
X56957619Y-68313487D01*
X57779372Y-67973945D01*
X58408636Y-67345779D01*
X58749611Y-66524619D01*
X58750387Y-65635481D01*
X58410845Y-64813728D01*
X57782679Y-64184464D01*
X56961519Y-63843489D01*
X56072381Y-63842713D01*
X55250628Y-64182255D01*
X54621364Y-64810421D01*
X54280389Y-65631581D01*
X54279613Y-66520719D01*
X52177252Y-66520719D01*
X52177252Y-60614717D01*
X52518110Y-58901108D01*
X52575645Y-58815000D01*
X70867560Y-58815000D01*
X70867560Y-60565000D01*
X70911838Y-60800317D01*
X71050910Y-61016441D01*
X71263110Y-61161431D01*
X71355000Y-61180039D01*
X71355000Y-80767020D01*
X71354999Y-80767025D01*
X71433785Y-81163102D01*
X71658144Y-81498881D01*
X78975000Y-88815736D01*
X78975000Y-88889710D01*
X78811103Y-89135000D01*
X72586594Y-89135000D01*
X72499721Y-89098927D01*
X72048190Y-89098533D01*
X71630879Y-89270963D01*
X71311320Y-89589965D01*
X71138162Y-90006974D01*
X71137768Y-90458505D01*
X71310198Y-90875816D01*
X71629200Y-91195375D01*
X72046209Y-91368533D01*
X72497740Y-91368927D01*
X72894472Y-91205000D01*
X78811103Y-91205000D01*
X79030254Y-91532983D01*
X79479765Y-91833337D01*
X80010000Y-91938807D01*
X80540235Y-91833337D01*
X80989746Y-91532983D01*
X81290100Y-91083472D01*
X81291601Y-91075928D01*
X81318501Y-91166817D01*
X81660056Y-91588798D01*
X82137097Y-91847950D01*
X82208725Y-91862133D01*
X82423000Y-91739479D01*
X82423000Y-90297000D01*
X82403000Y-90297000D01*
X82403000Y-90043000D01*
X82423000Y-90043000D01*
X82423000Y-88600521D01*
X82208725Y-88477867D01*
X82137097Y-88492050D01*
X81660056Y-88751202D01*
X81318501Y-89173183D01*
X81291601Y-89264072D01*
X81290100Y-89256528D01*
X81045000Y-88889710D01*
X81045000Y-88387025D01*
X81007371Y-88197852D01*
X80966215Y-87990947D01*
X80835453Y-87795248D01*
X80741856Y-87655169D01*
X80741853Y-87655167D01*
X73425000Y-80338313D01*
X73425000Y-76200000D01*
X74685907Y-76200000D01*
X74798946Y-76768285D01*
X75120853Y-77250054D01*
X75602622Y-77571961D01*
X76170907Y-77685000D01*
X76229093Y-77685000D01*
X76797378Y-77571961D01*
X77279147Y-77250054D01*
X77601054Y-76768285D01*
X77714093Y-76200000D01*
X77601054Y-75631715D01*
X77279147Y-75149946D01*
X77237548Y-75122150D01*
X77285317Y-75113162D01*
X77501441Y-74974090D01*
X77646431Y-74761890D01*
X77697440Y-74510000D01*
X77697440Y-72810000D01*
X77653162Y-72574683D01*
X77514090Y-72358559D01*
X77301890Y-72213569D01*
X77050000Y-72162560D01*
X75350000Y-72162560D01*
X75114683Y-72206838D01*
X74898559Y-72345910D01*
X74753569Y-72558110D01*
X74702560Y-72810000D01*
X74702560Y-74510000D01*
X74746838Y-74745317D01*
X74885910Y-74961441D01*
X75098110Y-75106431D01*
X75165541Y-75120086D01*
X75120853Y-75149946D01*
X74798946Y-75631715D01*
X74685907Y-76200000D01*
X73425000Y-76200000D01*
X73425000Y-70323991D01*
X86114735Y-70323991D01*
X86347932Y-70888371D01*
X86779357Y-71320551D01*
X87343330Y-71554733D01*
X87953991Y-71555265D01*
X88518371Y-71322068D01*
X88950551Y-70890643D01*
X89184733Y-70326670D01*
X89185265Y-69716009D01*
X88952068Y-69151629D01*
X88520643Y-68719449D01*
X87956670Y-68485267D01*
X87346009Y-68484735D01*
X86781629Y-68717932D01*
X86349449Y-69149357D01*
X86115267Y-69713330D01*
X86114735Y-70323991D01*
X73425000Y-70323991D01*
X73425000Y-61182334D01*
X73500317Y-61168162D01*
X73716441Y-61029090D01*
X73861431Y-60816890D01*
X73864786Y-60800324D01*
X74033537Y-60969370D01*
X74588325Y-61199738D01*
X75189040Y-61200262D01*
X75744229Y-60970862D01*
X76169370Y-60546463D01*
X76399738Y-59991675D01*
X76400262Y-59390960D01*
X76170862Y-58835771D01*
X75746463Y-58410630D01*
X75191675Y-58180262D01*
X74590960Y-58179738D01*
X74035771Y-58409138D01*
X73866897Y-58577717D01*
X73729090Y-58363559D01*
X73516890Y-58218569D01*
X73265000Y-58167560D01*
X71515000Y-58167560D01*
X71279683Y-58211838D01*
X71063559Y-58350910D01*
X70918569Y-58563110D01*
X70867560Y-58815000D01*
X52575645Y-58815000D01*
X53450575Y-57505574D01*
X54846108Y-56573108D01*
X56559719Y-56232250D01*
X126424785Y-56232250D01*
X128138394Y-56573108D01*
G36*
X122427528Y-104031220D02*
X122105621Y-104512989D01*
X121992581Y-105081274D01*
X122072522Y-105483158D01*
X121924010Y-105429562D01*
X121345210Y-105456412D01*
X120935184Y-105626261D01*
X120858414Y-105874605D01*
X121702102Y-106718293D01*
X121716245Y-106704151D01*
X121895850Y-106883756D01*
X121881707Y-106897898D01*
X121895850Y-106912041D01*
X121716245Y-107091646D01*
X121702102Y-107077503D01*
X121687960Y-107091646D01*
X121508355Y-106912041D01*
X121522497Y-106897898D01*
X120678809Y-106054210D01*
X120430465Y-106130980D01*
X120260616Y-106541006D01*
X120233766Y-107119806D01*
X120287362Y-107268316D01*
X119885479Y-107188376D01*
X119317194Y-107301416D01*
X118835425Y-107623323D01*
X118513518Y-108105092D01*
X118400478Y-108673377D01*
X118410238Y-108722445D01*
X118370106Y-108695024D01*
X118118944Y-108640540D01*
X117866373Y-108688064D01*
X117652191Y-108830109D01*
X116450109Y-110032191D01*
X116315024Y-110229894D01*
X116260540Y-110481056D01*
X116308064Y-110733627D01*
X116450109Y-110947809D01*
X117652191Y-112149891D01*
X117772234Y-112231913D01*
X98162404Y-131841742D01*
X96035828Y-131841742D01*
X96050608Y-131790213D01*
X95250000Y-130989605D01*
X94449392Y-131790213D01*
X94475345Y-131880695D01*
X94332502Y-131909109D01*
X94045387Y-132100952D01*
X94045385Y-132100955D01*
X92084210Y-134062129D01*
X91892367Y-134349244D01*
X91884812Y-134387225D01*
X91824999Y-134687919D01*
X91825000Y-134687924D01*
X91825000Y-134700568D01*
X91659946Y-134810853D01*
X91440000Y-135140026D01*
X91220054Y-134810853D01*
X90738285Y-134488946D01*
X90170000Y-134375907D01*
X89601715Y-134488946D01*
X89119946Y-134810853D01*
X88892298Y-135151553D01*
X88825183Y-135008642D01*
X88396924Y-134618355D01*
X87986890Y-134448524D01*
X87757000Y-134569845D01*
X87757000Y-135763000D01*
X87777000Y-135763000D01*
X87777000Y-136017000D01*
X87757000Y-136017000D01*
X87757000Y-136037000D01*
X87503000Y-136037000D01*
X87503000Y-136017000D01*
X87483000Y-136017000D01*
X87483000Y-135763000D01*
X87503000Y-135763000D01*
X87503000Y-134569845D01*
X87273110Y-134448524D01*
X86863076Y-134618355D01*
X86434817Y-135008642D01*
X86367702Y-135151553D01*
X86140054Y-134810853D01*
X85658285Y-134488946D01*
X85090000Y-134375907D01*
X84521715Y-134488946D01*
X84039946Y-134810853D01*
X84012150Y-134852452D01*
X84003162Y-134804683D01*
X83864090Y-134588559D01*
X83651890Y-134443569D01*
X83400000Y-134392560D01*
X82834520Y-134392560D01*
X83609179Y-133617900D01*
X85287995Y-133617900D01*
X85288000Y-133617901D01*
X85570484Y-133561710D01*
X85626675Y-133550533D01*
X85913790Y-133358690D01*
X86732935Y-132539545D01*
X86853043Y-132489917D01*
X87116292Y-132227127D01*
X87258938Y-131883599D01*
X87259262Y-131511633D01*
X87117217Y-131167857D01*
X86854427Y-130904608D01*
X86510899Y-130761962D01*
X86486343Y-130761941D01*
X86471362Y-130462632D01*
X86403998Y-130300000D01*
X93948707Y-130300000D01*
X93840856Y-130602302D01*
X93868638Y-131157368D01*
X94027603Y-131541143D01*
X94269787Y-131610608D01*
X95070395Y-130810000D01*
X95056253Y-130795858D01*
X95235858Y-130616253D01*
X95250000Y-130630395D01*
X95264143Y-130616253D01*
X95443748Y-130795858D01*
X95429605Y-130810000D01*
X96230213Y-131610608D01*
X96472397Y-131541143D01*
X96659144Y-131017698D01*
X96631362Y-130462632D01*
X96563998Y-130300000D01*
X96812824Y-130300000D01*
X97103663Y-130242148D01*
X97350225Y-130077401D01*
X108559661Y-118867965D01*
X108724408Y-118621404D01*
X108749551Y-118495000D01*
X108782260Y-118330564D01*
X108782260Y-117968023D01*
X108814452Y-117935887D01*
X108957098Y-117592359D01*
X108957422Y-117220393D01*
X108815377Y-116876617D01*
X108572383Y-116633199D01*
X112217936Y-112987646D01*
X112217939Y-112987644D01*
X112374496Y-112753339D01*
X112442298Y-112651866D01*
X112521083Y-112255788D01*
X112521083Y-111621300D01*
X112620886Y-111380949D01*
X112620898Y-111367187D01*
X112799395Y-111441306D01*
X113250926Y-111441700D01*
X113668237Y-111269270D01*
X113987796Y-110950268D01*
X114160954Y-110533259D01*
X114161348Y-110081728D01*
X113988918Y-109664417D01*
X113944578Y-109620000D01*
X115122833Y-109620000D01*
X115122838Y-109620001D01*
X115518915Y-109541215D01*
X115854694Y-109316856D01*
X118611980Y-106559569D01*
X118611983Y-106559567D01*
X118781688Y-106389862D01*
X119022212Y-106290479D01*
X119341771Y-105971477D01*
X119514929Y-105554468D01*
X119515323Y-105102937D01*
X119342893Y-104685626D01*
X119023891Y-104366067D01*
X118606882Y-104192909D01*
X118155351Y-104192515D01*
X117755159Y-104357871D01*
X117732156Y-104302199D01*
X117413154Y-103982640D01*
X117164220Y-103879273D01*
X122654933Y-103879273D01*
X122427528Y-104031220D01*
X122427528Y-104031220D01*
G37*
X122427528Y-104031220D02*
X122105621Y-104512989D01*
X121992581Y-105081274D01*
X122072522Y-105483158D01*
X121924010Y-105429562D01*
X121345210Y-105456412D01*
X120935184Y-105626261D01*
X120858414Y-105874605D01*
X121702102Y-106718293D01*
X121716245Y-106704151D01*
X121895850Y-106883756D01*
X121881707Y-106897898D01*
X121895850Y-106912041D01*
X121716245Y-107091646D01*
X121702102Y-107077503D01*
X121687960Y-107091646D01*
X121508355Y-106912041D01*
X121522497Y-106897898D01*
X120678809Y-106054210D01*
X120430465Y-106130980D01*
X120260616Y-106541006D01*
X120233766Y-107119806D01*
X120287362Y-107268316D01*
X119885479Y-107188376D01*
X119317194Y-107301416D01*
X118835425Y-107623323D01*
X118513518Y-108105092D01*
X118400478Y-108673377D01*
X118410238Y-108722445D01*
X118370106Y-108695024D01*
X118118944Y-108640540D01*
X117866373Y-108688064D01*
X117652191Y-108830109D01*
X116450109Y-110032191D01*
X116315024Y-110229894D01*
X116260540Y-110481056D01*
X116308064Y-110733627D01*
X116450109Y-110947809D01*
X117652191Y-112149891D01*
X117772234Y-112231913D01*
X98162404Y-131841742D01*
X96035828Y-131841742D01*
X96050608Y-131790213D01*
X95250000Y-130989605D01*
X94449392Y-131790213D01*
X94475345Y-131880695D01*
X94332502Y-131909109D01*
X94045387Y-132100952D01*
X94045385Y-132100955D01*
X92084210Y-134062129D01*
X91892367Y-134349244D01*
X91884812Y-134387225D01*
X91824999Y-134687919D01*
X91825000Y-134687924D01*
X91825000Y-134700568D01*
X91659946Y-134810853D01*
X91440000Y-135140026D01*
X91220054Y-134810853D01*
X90738285Y-134488946D01*
X90170000Y-134375907D01*
X89601715Y-134488946D01*
X89119946Y-134810853D01*
X88892298Y-135151553D01*
X88825183Y-135008642D01*
X88396924Y-134618355D01*
X87986890Y-134448524D01*
X87757000Y-134569845D01*
X87757000Y-135763000D01*
X87777000Y-135763000D01*
X87777000Y-136017000D01*
X87757000Y-136017000D01*
X87757000Y-136037000D01*
X87503000Y-136037000D01*
X87503000Y-136017000D01*
X87483000Y-136017000D01*
X87483000Y-135763000D01*
X87503000Y-135763000D01*
X87503000Y-134569845D01*
X87273110Y-134448524D01*
X86863076Y-134618355D01*
X86434817Y-135008642D01*
X86367702Y-135151553D01*
X86140054Y-134810853D01*
X85658285Y-134488946D01*
X85090000Y-134375907D01*
X84521715Y-134488946D01*
X84039946Y-134810853D01*
X84012150Y-134852452D01*
X84003162Y-134804683D01*
X83864090Y-134588559D01*
X83651890Y-134443569D01*
X83400000Y-134392560D01*
X82834520Y-134392560D01*
X83609179Y-133617900D01*
X85287995Y-133617900D01*
X85288000Y-133617901D01*
X85570484Y-133561710D01*
X85626675Y-133550533D01*
X85913790Y-133358690D01*
X86732935Y-132539545D01*
X86853043Y-132489917D01*
X87116292Y-132227127D01*
X87258938Y-131883599D01*
X87259262Y-131511633D01*
X87117217Y-131167857D01*
X86854427Y-130904608D01*
X86510899Y-130761962D01*
X86486343Y-130761941D01*
X86471362Y-130462632D01*
X86403998Y-130300000D01*
X93948707Y-130300000D01*
X93840856Y-130602302D01*
X93868638Y-131157368D01*
X94027603Y-131541143D01*
X94269787Y-131610608D01*
X95070395Y-130810000D01*
X95056253Y-130795858D01*
X95235858Y-130616253D01*
X95250000Y-130630395D01*
X95264143Y-130616253D01*
X95443748Y-130795858D01*
X95429605Y-130810000D01*
X96230213Y-131610608D01*
X96472397Y-131541143D01*
X96659144Y-131017698D01*
X96631362Y-130462632D01*
X96563998Y-130300000D01*
X96812824Y-130300000D01*
X97103663Y-130242148D01*
X97350225Y-130077401D01*
X108559661Y-118867965D01*
X108724408Y-118621404D01*
X108749551Y-118495000D01*
X108782260Y-118330564D01*
X108782260Y-117968023D01*
X108814452Y-117935887D01*
X108957098Y-117592359D01*
X108957422Y-117220393D01*
X108815377Y-116876617D01*
X108572383Y-116633199D01*
X112217936Y-112987646D01*
X112217939Y-112987644D01*
X112374496Y-112753339D01*
X112442298Y-112651866D01*
X112521083Y-112255788D01*
X112521083Y-111621300D01*
X112620886Y-111380949D01*
X112620898Y-111367187D01*
X112799395Y-111441306D01*
X113250926Y-111441700D01*
X113668237Y-111269270D01*
X113987796Y-110950268D01*
X114160954Y-110533259D01*
X114161348Y-110081728D01*
X113988918Y-109664417D01*
X113944578Y-109620000D01*
X115122833Y-109620000D01*
X115122838Y-109620001D01*
X115518915Y-109541215D01*
X115854694Y-109316856D01*
X118611980Y-106559569D01*
X118611983Y-106559567D01*
X118781688Y-106389862D01*
X119022212Y-106290479D01*
X119341771Y-105971477D01*
X119514929Y-105554468D01*
X119515323Y-105102937D01*
X119342893Y-104685626D01*
X119023891Y-104366067D01*
X118606882Y-104192909D01*
X118155351Y-104192515D01*
X117755159Y-104357871D01*
X117732156Y-104302199D01*
X117413154Y-103982640D01*
X117164220Y-103879273D01*
X122654933Y-103879273D01*
X122427528Y-104031220D01*
G36*
X85283748Y-130795858D02*
X85269605Y-130810000D01*
X85283748Y-130824143D01*
X85104143Y-131003748D01*
X85090000Y-130989605D01*
X84289392Y-131790213D01*
X84305938Y-131847900D01*
X83358102Y-131847900D01*
X83808221Y-131397781D01*
X83867603Y-131541143D01*
X84109787Y-131610608D01*
X84910395Y-130810000D01*
X84896253Y-130795858D01*
X85075858Y-130616253D01*
X85090000Y-130630395D01*
X85104143Y-130616253D01*
X85283748Y-130795858D01*
X85283748Y-130795858D01*
G37*
X85283748Y-130795858D02*
X85269605Y-130810000D01*
X85283748Y-130824143D01*
X85104143Y-131003748D01*
X85090000Y-130989605D01*
X84289392Y-131790213D01*
X84305938Y-131847900D01*
X83358102Y-131847900D01*
X83808221Y-131397781D01*
X83867603Y-131541143D01*
X84109787Y-131610608D01*
X84910395Y-130810000D01*
X84896253Y-130795858D01*
X85075858Y-130616253D01*
X85090000Y-130630395D01*
X85104143Y-130616253D01*
X85283748Y-130795858D01*
G36*
X104430254Y-106772983D02*
X104879765Y-107073337D01*
X105410000Y-107178807D01*
X105697557Y-107121609D01*
X105948179Y-107372231D01*
X106194741Y-107536978D01*
X106485580Y-107594830D01*
X108395519Y-107594830D01*
X108664951Y-107541236D01*
X99131186Y-117075000D01*
X96190740Y-117075000D01*
X96042370Y-116926371D01*
X95834488Y-116840051D01*
X96040303Y-116755010D01*
X96433629Y-116362370D01*
X96646757Y-115849100D01*
X96647242Y-115293339D01*
X96435010Y-114779697D01*
X96042370Y-114386371D01*
X95850273Y-114306605D01*
X95981143Y-114252397D01*
X96050608Y-114010213D01*
X95250000Y-113209605D01*
X95235858Y-113223748D01*
X95056253Y-113044143D01*
X95070395Y-113030000D01*
X95429605Y-113030000D01*
X96230213Y-113830608D01*
X96472397Y-113761143D01*
X96659144Y-113237698D01*
X96631362Y-112682632D01*
X96472397Y-112298857D01*
X96230213Y-112229392D01*
X95429605Y-113030000D01*
X95070395Y-113030000D01*
X94269787Y-112229392D01*
X94027603Y-112298857D01*
X93852559Y-112789500D01*
X93759838Y-112727546D01*
X93363761Y-112648760D01*
X93363756Y-112648761D01*
X91744243Y-112648761D01*
X91968943Y-112555917D01*
X92232192Y-112293127D01*
X92333236Y-112049787D01*
X94449392Y-112049787D01*
X95250000Y-112850395D01*
X96050608Y-112049787D01*
X95981143Y-111807603D01*
X95457698Y-111620856D01*
X94902632Y-111648638D01*
X94518857Y-111807603D01*
X94449392Y-112049787D01*
X92333236Y-112049787D01*
X92374838Y-111949599D01*
X92375162Y-111577633D01*
X92233117Y-111233857D01*
X91970327Y-110970608D01*
X91849013Y-110920234D01*
X91228201Y-110299421D01*
X96770709Y-110299421D01*
X97997850Y-111526561D01*
X98097233Y-111767086D01*
X98416235Y-112086645D01*
X98833244Y-112259803D01*
X99284775Y-112260197D01*
X99702086Y-112087767D01*
X100021645Y-111768765D01*
X100194803Y-111351756D01*
X100195197Y-110900225D01*
X100022767Y-110482914D01*
X99703765Y-110163355D01*
X99461446Y-110062735D01*
X97931277Y-108532565D01*
X97595498Y-108308206D01*
X97199421Y-108229420D01*
X97199416Y-108229421D01*
X91701378Y-108229421D01*
X91739838Y-108136799D01*
X91739879Y-108089923D01*
X91782981Y-108046821D01*
X91947728Y-107800260D01*
X92005580Y-107509420D01*
X92005580Y-106956950D01*
X92179765Y-107073337D01*
X92710000Y-107178807D01*
X93240235Y-107073337D01*
X93689746Y-106772983D01*
X93980000Y-106338588D01*
X94270254Y-106772983D01*
X94719765Y-107073337D01*
X95250000Y-107178807D01*
X95780235Y-107073337D01*
X96229746Y-106772983D01*
X96520000Y-106338588D01*
X96810254Y-106772983D01*
X97259765Y-107073337D01*
X97790000Y-107178807D01*
X98320235Y-107073337D01*
X98769746Y-106772983D01*
X99060000Y-106338588D01*
X99350254Y-106772983D01*
X99799765Y-107073337D01*
X100330000Y-107178807D01*
X100860235Y-107073337D01*
X101309746Y-106772983D01*
X101600000Y-106338588D01*
X101890254Y-106772983D01*
X102339765Y-107073337D01*
X102870000Y-107178807D01*
X103400235Y-107073337D01*
X103849746Y-106772983D01*
X104140000Y-106338588D01*
X104430254Y-106772983D01*
X104430254Y-106772983D01*
G37*
X104430254Y-106772983D02*
X104879765Y-107073337D01*
X105410000Y-107178807D01*
X105697557Y-107121609D01*
X105948179Y-107372231D01*
X106194741Y-107536978D01*
X106485580Y-107594830D01*
X108395519Y-107594830D01*
X108664951Y-107541236D01*
X99131186Y-117075000D01*
X96190740Y-117075000D01*
X96042370Y-116926371D01*
X95834488Y-116840051D01*
X96040303Y-116755010D01*
X96433629Y-116362370D01*
X96646757Y-115849100D01*
X96647242Y-115293339D01*
X96435010Y-114779697D01*
X96042370Y-114386371D01*
X95850273Y-114306605D01*
X95981143Y-114252397D01*
X96050608Y-114010213D01*
X95250000Y-113209605D01*
X95235858Y-113223748D01*
X95056253Y-113044143D01*
X95070395Y-113030000D01*
X95429605Y-113030000D01*
X96230213Y-113830608D01*
X96472397Y-113761143D01*
X96659144Y-113237698D01*
X96631362Y-112682632D01*
X96472397Y-112298857D01*
X96230213Y-112229392D01*
X95429605Y-113030000D01*
X95070395Y-113030000D01*
X94269787Y-112229392D01*
X94027603Y-112298857D01*
X93852559Y-112789500D01*
X93759838Y-112727546D01*
X93363761Y-112648760D01*
X93363756Y-112648761D01*
X91744243Y-112648761D01*
X91968943Y-112555917D01*
X92232192Y-112293127D01*
X92333236Y-112049787D01*
X94449392Y-112049787D01*
X95250000Y-112850395D01*
X96050608Y-112049787D01*
X95981143Y-111807603D01*
X95457698Y-111620856D01*
X94902632Y-111648638D01*
X94518857Y-111807603D01*
X94449392Y-112049787D01*
X92333236Y-112049787D01*
X92374838Y-111949599D01*
X92375162Y-111577633D01*
X92233117Y-111233857D01*
X91970327Y-110970608D01*
X91849013Y-110920234D01*
X91228201Y-110299421D01*
X96770709Y-110299421D01*
X97997850Y-111526561D01*
X98097233Y-111767086D01*
X98416235Y-112086645D01*
X98833244Y-112259803D01*
X99284775Y-112260197D01*
X99702086Y-112087767D01*
X100021645Y-111768765D01*
X100194803Y-111351756D01*
X100195197Y-110900225D01*
X100022767Y-110482914D01*
X99703765Y-110163355D01*
X99461446Y-110062735D01*
X97931277Y-108532565D01*
X97595498Y-108308206D01*
X97199421Y-108229420D01*
X97199416Y-108229421D01*
X91701378Y-108229421D01*
X91739838Y-108136799D01*
X91739879Y-108089923D01*
X91782981Y-108046821D01*
X91947728Y-107800260D01*
X92005580Y-107509420D01*
X92005580Y-106956950D01*
X92179765Y-107073337D01*
X92710000Y-107178807D01*
X93240235Y-107073337D01*
X93689746Y-106772983D01*
X93980000Y-106338588D01*
X94270254Y-106772983D01*
X94719765Y-107073337D01*
X95250000Y-107178807D01*
X95780235Y-107073337D01*
X96229746Y-106772983D01*
X96520000Y-106338588D01*
X96810254Y-106772983D01*
X97259765Y-107073337D01*
X97790000Y-107178807D01*
X98320235Y-107073337D01*
X98769746Y-106772983D01*
X99060000Y-106338588D01*
X99350254Y-106772983D01*
X99799765Y-107073337D01*
X100330000Y-107178807D01*
X100860235Y-107073337D01*
X101309746Y-106772983D01*
X101600000Y-106338588D01*
X101890254Y-106772983D01*
X102339765Y-107073337D01*
X102870000Y-107178807D01*
X103400235Y-107073337D01*
X103849746Y-106772983D01*
X104140000Y-106338588D01*
X104430254Y-106772983D01*
G36*
X87920254Y-94072983D02*
X88369765Y-94373337D01*
X88900000Y-94478807D01*
X89430235Y-94373337D01*
X89653845Y-94223925D01*
X96610808Y-101180887D01*
X96610810Y-101180890D01*
X96897925Y-101372733D01*
X97236600Y-101440100D01*
X125594444Y-101440100D01*
X125584683Y-101489172D01*
X125661919Y-101877458D01*
X125273633Y-101800222D01*
X124705348Y-101913262D01*
X124411996Y-102109273D01*
X115889305Y-102109273D01*
X115889300Y-102109272D01*
X115606816Y-102165463D01*
X115550625Y-102176640D01*
X115263510Y-102368483D01*
X115263508Y-102368486D01*
X115211194Y-102420800D01*
X95892383Y-102420800D01*
X94330792Y-100859208D01*
X94223935Y-100787809D01*
X94043677Y-100667365D01*
X93987486Y-100656188D01*
X93705002Y-100599997D01*
X93704997Y-100599998D01*
X92985003Y-100599998D01*
X92984998Y-100599997D01*
X92702514Y-100656188D01*
X92646323Y-100667365D01*
X92359208Y-100859208D01*
X92359206Y-100859211D01*
X90797616Y-102420800D01*
X81764955Y-102420800D01*
X81764950Y-102420799D01*
X81426275Y-102488167D01*
X81139160Y-102680010D01*
X81139158Y-102680013D01*
X80150108Y-103669062D01*
X80010000Y-103641193D01*
X79479765Y-103746663D01*
X79030254Y-104047017D01*
X78729900Y-104496528D01*
X78624430Y-105026763D01*
X78624430Y-105793237D01*
X78729900Y-106323472D01*
X79030254Y-106772983D01*
X79479765Y-107073337D01*
X80010000Y-107178807D01*
X80540235Y-107073337D01*
X80989746Y-106772983D01*
X81280000Y-106338588D01*
X81570254Y-106772983D01*
X82019765Y-107073337D01*
X82550000Y-107178807D01*
X83080235Y-107073337D01*
X83529746Y-106772983D01*
X83820000Y-106338588D01*
X84110254Y-106772983D01*
X84559765Y-107073337D01*
X85090000Y-107178807D01*
X85620235Y-107073337D01*
X86069746Y-106772983D01*
X86370100Y-106323472D01*
X86371601Y-106315928D01*
X86398501Y-106406817D01*
X86740056Y-106828798D01*
X87217097Y-107087950D01*
X87288725Y-107102133D01*
X87503000Y-106979479D01*
X87503000Y-105537000D01*
X87483000Y-105537000D01*
X87483000Y-105283000D01*
X87503000Y-105283000D01*
X87503000Y-105263000D01*
X87757000Y-105263000D01*
X87757000Y-105283000D01*
X87777000Y-105283000D01*
X87777000Y-105537000D01*
X87757000Y-105537000D01*
X87757000Y-106979479D01*
X87971275Y-107102133D01*
X88042903Y-107087950D01*
X88519944Y-106828798D01*
X88861499Y-106406817D01*
X88888399Y-106315928D01*
X88889900Y-106323472D01*
X89190254Y-106772983D01*
X89639765Y-107073337D01*
X90170000Y-107178807D01*
X90275021Y-107157917D01*
X90012808Y-107419673D01*
X89870162Y-107763201D01*
X89869838Y-108135167D01*
X89908783Y-108229421D01*
X73381559Y-108229421D01*
X87767143Y-93843836D01*
X87920254Y-94072983D01*
X87920254Y-94072983D01*
G37*
X87920254Y-94072983D02*
X88369765Y-94373337D01*
X88900000Y-94478807D01*
X89430235Y-94373337D01*
X89653845Y-94223925D01*
X96610808Y-101180887D01*
X96610810Y-101180890D01*
X96897925Y-101372733D01*
X97236600Y-101440100D01*
X125594444Y-101440100D01*
X125584683Y-101489172D01*
X125661919Y-101877458D01*
X125273633Y-101800222D01*
X124705348Y-101913262D01*
X124411996Y-102109273D01*
X115889305Y-102109273D01*
X115889300Y-102109272D01*
X115606816Y-102165463D01*
X115550625Y-102176640D01*
X115263510Y-102368483D01*
X115263508Y-102368486D01*
X115211194Y-102420800D01*
X95892383Y-102420800D01*
X94330792Y-100859208D01*
X94223935Y-100787809D01*
X94043677Y-100667365D01*
X93987486Y-100656188D01*
X93705002Y-100599997D01*
X93704997Y-100599998D01*
X92985003Y-100599998D01*
X92984998Y-100599997D01*
X92702514Y-100656188D01*
X92646323Y-100667365D01*
X92359208Y-100859208D01*
X92359206Y-100859211D01*
X90797616Y-102420800D01*
X81764955Y-102420800D01*
X81764950Y-102420799D01*
X81426275Y-102488167D01*
X81139160Y-102680010D01*
X81139158Y-102680013D01*
X80150108Y-103669062D01*
X80010000Y-103641193D01*
X79479765Y-103746663D01*
X79030254Y-104047017D01*
X78729900Y-104496528D01*
X78624430Y-105026763D01*
X78624430Y-105793237D01*
X78729900Y-106323472D01*
X79030254Y-106772983D01*
X79479765Y-107073337D01*
X80010000Y-107178807D01*
X80540235Y-107073337D01*
X80989746Y-106772983D01*
X81280000Y-106338588D01*
X81570254Y-106772983D01*
X82019765Y-107073337D01*
X82550000Y-107178807D01*
X83080235Y-107073337D01*
X83529746Y-106772983D01*
X83820000Y-106338588D01*
X84110254Y-106772983D01*
X84559765Y-107073337D01*
X85090000Y-107178807D01*
X85620235Y-107073337D01*
X86069746Y-106772983D01*
X86370100Y-106323472D01*
X86371601Y-106315928D01*
X86398501Y-106406817D01*
X86740056Y-106828798D01*
X87217097Y-107087950D01*
X87288725Y-107102133D01*
X87503000Y-106979479D01*
X87503000Y-105537000D01*
X87483000Y-105537000D01*
X87483000Y-105283000D01*
X87503000Y-105283000D01*
X87503000Y-105263000D01*
X87757000Y-105263000D01*
X87757000Y-105283000D01*
X87777000Y-105283000D01*
X87777000Y-105537000D01*
X87757000Y-105537000D01*
X87757000Y-106979479D01*
X87971275Y-107102133D01*
X88042903Y-107087950D01*
X88519944Y-106828798D01*
X88861499Y-106406817D01*
X88888399Y-106315928D01*
X88889900Y-106323472D01*
X89190254Y-106772983D01*
X89639765Y-107073337D01*
X90170000Y-107178807D01*
X90275021Y-107157917D01*
X90012808Y-107419673D01*
X89870162Y-107763201D01*
X89869838Y-108135167D01*
X89908783Y-108229421D01*
X73381559Y-108229421D01*
X87767143Y-93843836D01*
X87920254Y-94072983D01*
G36*
X95874808Y-97145787D02*
X95874810Y-97145790D01*
X96161925Y-97337633D01*
X96218116Y-97348810D01*
X96500600Y-97405001D01*
X96500605Y-97405000D01*
X106266525Y-97405000D01*
X106257867Y-97448725D01*
X106380521Y-97663000D01*
X107823000Y-97663000D01*
X107823000Y-97643000D01*
X108077000Y-97643000D01*
X108077000Y-97663000D01*
X109519479Y-97663000D01*
X109642133Y-97448725D01*
X109633475Y-97405000D01*
X111885829Y-97405000D01*
X112216077Y-97735824D01*
X112743309Y-97954750D01*
X113213581Y-97955160D01*
X114643308Y-99384887D01*
X114643310Y-99384890D01*
X114835154Y-99513075D01*
X114930426Y-99576734D01*
X115269100Y-99644101D01*
X115269105Y-99644100D01*
X127390485Y-99644100D01*
X127380734Y-99693121D01*
X127457970Y-100081407D01*
X127069684Y-100004171D01*
X126875064Y-100042884D01*
X126761490Y-99929310D01*
X126474375Y-99737467D01*
X126418184Y-99726290D01*
X126135700Y-99670099D01*
X126135695Y-99670100D01*
X97603179Y-99670100D01*
X96064355Y-98131275D01*
X106257867Y-98131275D01*
X106272050Y-98202903D01*
X106531202Y-98679944D01*
X106953183Y-99021499D01*
X107473750Y-99175570D01*
X107823000Y-99175570D01*
X107823000Y-97917000D01*
X108077000Y-97917000D01*
X108077000Y-99175570D01*
X108426250Y-99175570D01*
X108946817Y-99021499D01*
X109368798Y-98679944D01*
X109627950Y-98202903D01*
X109642133Y-98131275D01*
X109519479Y-97917000D01*
X108077000Y-97917000D01*
X107823000Y-97917000D01*
X106380521Y-97917000D01*
X106257867Y-98131275D01*
X96064355Y-98131275D01*
X92171761Y-94238681D01*
X92419746Y-94072983D01*
X92572857Y-93843837D01*
X95874808Y-97145787D01*
X95874808Y-97145787D01*
G37*
X95874808Y-97145787D02*
X95874810Y-97145790D01*
X96161925Y-97337633D01*
X96218116Y-97348810D01*
X96500600Y-97405001D01*
X96500605Y-97405000D01*
X106266525Y-97405000D01*
X106257867Y-97448725D01*
X106380521Y-97663000D01*
X107823000Y-97663000D01*
X107823000Y-97643000D01*
X108077000Y-97643000D01*
X108077000Y-97663000D01*
X109519479Y-97663000D01*
X109642133Y-97448725D01*
X109633475Y-97405000D01*
X111885829Y-97405000D01*
X112216077Y-97735824D01*
X112743309Y-97954750D01*
X113213581Y-97955160D01*
X114643308Y-99384887D01*
X114643310Y-99384890D01*
X114835154Y-99513075D01*
X114930426Y-99576734D01*
X115269100Y-99644101D01*
X115269105Y-99644100D01*
X127390485Y-99644100D01*
X127380734Y-99693121D01*
X127457970Y-100081407D01*
X127069684Y-100004171D01*
X126875064Y-100042884D01*
X126761490Y-99929310D01*
X126474375Y-99737467D01*
X126418184Y-99726290D01*
X126135700Y-99670099D01*
X126135695Y-99670100D01*
X97603179Y-99670100D01*
X96064355Y-98131275D01*
X106257867Y-98131275D01*
X106272050Y-98202903D01*
X106531202Y-98679944D01*
X106953183Y-99021499D01*
X107473750Y-99175570D01*
X107823000Y-99175570D01*
X107823000Y-97917000D01*
X108077000Y-97917000D01*
X108077000Y-99175570D01*
X108426250Y-99175570D01*
X108946817Y-99021499D01*
X109368798Y-98679944D01*
X109627950Y-98202903D01*
X109642133Y-98131275D01*
X109519479Y-97917000D01*
X108077000Y-97917000D01*
X107823000Y-97917000D01*
X106380521Y-97917000D01*
X106257867Y-98131275D01*
X96064355Y-98131275D01*
X92171761Y-94238681D01*
X92419746Y-94072983D01*
X92572857Y-93843837D01*
X95874808Y-97145787D01*
M02*
